G75*
%MOIN*%
%OFA0B0*%
%FSLAX24Y24*%
%IPPOS*%
%LPD*%
%AMOC8*
5,1,8,0,0,1.08239X$1,22.5*
%
%ADD10C,0.0039*%
%ADD11R,0.1000X0.2000*%
%ADD12C,0.0000*%
%ADD13C,0.0098*%
D10*
X001158Y000120D02*
X016906Y000120D01*
X016906Y019805D01*
X001158Y019805D01*
X001158Y000120D01*
D11*
X006783Y018120D03*
X011283Y018120D03*
D12*
X014308Y017836D02*
X014310Y017886D01*
X014316Y017936D01*
X014326Y017985D01*
X014340Y018033D01*
X014357Y018080D01*
X014378Y018125D01*
X014403Y018169D01*
X014431Y018210D01*
X014463Y018249D01*
X014497Y018286D01*
X014534Y018320D01*
X014574Y018350D01*
X014616Y018377D01*
X014660Y018401D01*
X014706Y018422D01*
X014753Y018438D01*
X014801Y018451D01*
X014851Y018460D01*
X014900Y018465D01*
X014951Y018466D01*
X015001Y018463D01*
X015050Y018456D01*
X015099Y018445D01*
X015147Y018430D01*
X015193Y018412D01*
X015238Y018390D01*
X015281Y018364D01*
X015322Y018335D01*
X015361Y018303D01*
X015397Y018268D01*
X015429Y018230D01*
X015459Y018190D01*
X015486Y018147D01*
X015509Y018103D01*
X015528Y018057D01*
X015544Y018009D01*
X015556Y017960D01*
X015564Y017911D01*
X015568Y017861D01*
X015568Y017811D01*
X015564Y017761D01*
X015556Y017712D01*
X015544Y017663D01*
X015528Y017615D01*
X015509Y017569D01*
X015486Y017525D01*
X015459Y017482D01*
X015429Y017442D01*
X015397Y017404D01*
X015361Y017369D01*
X015322Y017337D01*
X015281Y017308D01*
X015238Y017282D01*
X015193Y017260D01*
X015147Y017242D01*
X015099Y017227D01*
X015050Y017216D01*
X015001Y017209D01*
X014951Y017206D01*
X014900Y017207D01*
X014851Y017212D01*
X014801Y017221D01*
X014753Y017234D01*
X014706Y017250D01*
X014660Y017271D01*
X014616Y017295D01*
X014574Y017322D01*
X014534Y017352D01*
X014497Y017386D01*
X014463Y017423D01*
X014431Y017462D01*
X014403Y017503D01*
X014378Y017547D01*
X014357Y017592D01*
X014340Y017639D01*
X014326Y017687D01*
X014316Y017736D01*
X014310Y017786D01*
X014308Y017836D01*
X002497Y017836D02*
X002499Y017886D01*
X002505Y017936D01*
X002515Y017985D01*
X002529Y018033D01*
X002546Y018080D01*
X002567Y018125D01*
X002592Y018169D01*
X002620Y018210D01*
X002652Y018249D01*
X002686Y018286D01*
X002723Y018320D01*
X002763Y018350D01*
X002805Y018377D01*
X002849Y018401D01*
X002895Y018422D01*
X002942Y018438D01*
X002990Y018451D01*
X003040Y018460D01*
X003089Y018465D01*
X003140Y018466D01*
X003190Y018463D01*
X003239Y018456D01*
X003288Y018445D01*
X003336Y018430D01*
X003382Y018412D01*
X003427Y018390D01*
X003470Y018364D01*
X003511Y018335D01*
X003550Y018303D01*
X003586Y018268D01*
X003618Y018230D01*
X003648Y018190D01*
X003675Y018147D01*
X003698Y018103D01*
X003717Y018057D01*
X003733Y018009D01*
X003745Y017960D01*
X003753Y017911D01*
X003757Y017861D01*
X003757Y017811D01*
X003753Y017761D01*
X003745Y017712D01*
X003733Y017663D01*
X003717Y017615D01*
X003698Y017569D01*
X003675Y017525D01*
X003648Y017482D01*
X003618Y017442D01*
X003586Y017404D01*
X003550Y017369D01*
X003511Y017337D01*
X003470Y017308D01*
X003427Y017282D01*
X003382Y017260D01*
X003336Y017242D01*
X003288Y017227D01*
X003239Y017216D01*
X003190Y017209D01*
X003140Y017206D01*
X003089Y017207D01*
X003040Y017212D01*
X002990Y017221D01*
X002942Y017234D01*
X002895Y017250D01*
X002849Y017271D01*
X002805Y017295D01*
X002763Y017322D01*
X002723Y017352D01*
X002686Y017386D01*
X002652Y017423D01*
X002620Y017462D01*
X002592Y017503D01*
X002567Y017547D01*
X002546Y017592D01*
X002529Y017639D01*
X002515Y017687D01*
X002505Y017736D01*
X002499Y017786D01*
X002497Y017836D01*
D13*
X001658Y015370D02*
X001658Y000620D01*
X016408Y000620D01*
X016408Y015370D01*
X010158Y015370D01*
X010158Y015120D01*
X016158Y015120D01*
X016158Y000870D01*
X001908Y000870D01*
X001908Y015120D01*
X009658Y015120D01*
X009658Y014870D01*
X002158Y014870D01*
X002158Y001120D01*
X015908Y001120D01*
X015908Y014870D01*
X010158Y014870D01*
X010158Y014620D01*
X015658Y014620D01*
X015658Y001370D01*
X002408Y001370D01*
X002408Y014620D01*
X009658Y014620D01*
X009658Y014370D01*
X002658Y014370D01*
X002658Y001620D01*
X015408Y001620D01*
X015408Y014370D01*
X010158Y014370D01*
X010158Y014120D01*
X015158Y014120D01*
X015158Y001870D01*
X002908Y001870D01*
X002908Y014120D01*
X009658Y014120D01*
X009658Y013870D01*
X003158Y013870D01*
X003158Y002120D01*
X014908Y002120D01*
X014908Y013870D01*
X010158Y013870D01*
X010158Y013620D01*
X014658Y013620D01*
X014658Y002370D01*
X003408Y002370D01*
X003408Y013620D01*
X009658Y013620D01*
X009658Y013370D01*
X003658Y013370D01*
X003658Y002620D01*
X014408Y002620D01*
X014408Y013370D01*
X010158Y013370D01*
X010158Y013120D01*
X014158Y013120D01*
X014158Y002870D01*
X003908Y002870D01*
X003908Y013120D01*
X009658Y013120D01*
X009658Y012870D01*
X004158Y012870D01*
X004158Y003120D01*
X013908Y003120D01*
X013908Y012870D01*
X010158Y012870D01*
X010158Y012620D01*
X013658Y012620D01*
X013658Y003370D01*
X004408Y003370D01*
X004408Y012620D01*
X009658Y012620D01*
X009658Y012370D01*
X004658Y012370D01*
X004658Y003620D01*
X013408Y003620D01*
X013408Y012370D01*
X010158Y012370D01*
X010158Y012120D01*
X013158Y012120D01*
X013158Y003870D01*
X004908Y003870D01*
X004908Y012120D01*
X009658Y012120D01*
X009658Y011870D01*
X005158Y011870D01*
X005158Y004120D01*
X012908Y004120D01*
X012908Y011870D01*
X010158Y011870D01*
X010158Y011620D01*
X012658Y011620D01*
X012658Y004370D01*
X005408Y004370D01*
X005408Y011620D01*
X009658Y011620D01*
X009658Y011370D01*
X005658Y011370D01*
X005658Y004620D01*
X012408Y004620D01*
X012408Y011370D01*
X010158Y011370D01*
X010158Y011120D01*
X012158Y011120D01*
X012158Y004870D01*
X005908Y004870D01*
X005908Y011120D01*
X009658Y011120D01*
X009658Y010870D01*
X006158Y010870D01*
X006158Y005120D01*
X011908Y005120D01*
X011908Y010870D01*
X010158Y010870D01*
X010158Y010620D01*
X011658Y010620D01*
X011658Y005370D01*
X006408Y005370D01*
X006408Y010620D01*
X009658Y010620D01*
X009658Y010370D01*
X006658Y010370D01*
X006658Y005620D01*
X011408Y005620D01*
X011408Y010370D01*
X010158Y010370D01*
X010158Y010120D01*
X011158Y010120D01*
X011158Y005870D01*
X006908Y005870D01*
X006908Y010120D01*
X009658Y010120D01*
X009658Y009870D01*
X007158Y009870D01*
X007158Y006120D01*
X010908Y006120D01*
X010908Y009870D01*
X010158Y009870D01*
X010158Y009620D01*
X010658Y009620D01*
X010658Y006370D01*
X007408Y006370D01*
X007408Y009620D01*
X009658Y009620D01*
X009658Y009370D01*
X007658Y009370D01*
X007658Y006620D01*
X010408Y006620D01*
X010408Y009370D01*
X010158Y009370D01*
X010158Y006870D01*
X007908Y006870D01*
X007908Y009120D01*
X008158Y009120D01*
X008158Y007120D01*
X008408Y007120D01*
X008408Y009120D01*
X008658Y009120D01*
X008658Y007120D01*
X008908Y007120D01*
X008908Y009120D01*
X009158Y009120D01*
X009158Y007120D01*
X009408Y007120D01*
X009408Y009120D01*
X009658Y009120D01*
X009658Y007120D01*
X009908Y007120D01*
X009908Y016120D01*
X011408Y016120D01*
X011408Y017370D01*
X011283Y017370D01*
X011283Y018120D01*
X006783Y018120D02*
X006658Y018120D01*
X006658Y015370D01*
X001658Y015370D01*
M02*
