G75*
%MOIN*%
%OFA0B0*%
%FSLAX24Y24*%
%IPPOS*%
%LPD*%
%AMOC8*
5,1,8,0,0,1.08239X$1,22.5*
%
%ADD10C,0.0039*%
%ADD11R,0.1000X0.2000*%
%ADD12C,0.0098*%
D10*
X001158Y000120D02*
X016906Y000120D01*
X016906Y015868D01*
X012969Y015868D01*
X012969Y019805D01*
X005095Y019805D01*
X005095Y015868D01*
X001158Y015868D01*
X001158Y000120D01*
D11*
X006783Y018120D03*
X011283Y018120D03*
D12*
X011283Y017370D01*
X011408Y017370D01*
X011408Y016120D01*
X009908Y016120D01*
X009908Y007120D01*
X009658Y007120D01*
X009658Y009120D01*
X009408Y009120D01*
X009408Y007120D01*
X009158Y007120D01*
X009158Y009120D01*
X008908Y009120D01*
X008908Y007120D01*
X008658Y007120D01*
X008658Y009120D01*
X008408Y009120D01*
X008408Y007120D01*
X008158Y007120D01*
X008158Y009120D01*
X007908Y009120D01*
X007908Y006870D01*
X010158Y006870D01*
X010158Y009370D01*
X010408Y009370D01*
X010408Y006620D01*
X007658Y006620D01*
X007658Y009370D01*
X009658Y009370D01*
X009658Y009620D01*
X007408Y009620D01*
X007408Y006370D01*
X010658Y006370D01*
X010658Y009620D01*
X010158Y009620D01*
X010158Y009870D01*
X010908Y009870D01*
X010908Y006120D01*
X007158Y006120D01*
X007158Y009870D01*
X009658Y009870D01*
X009658Y010120D01*
X006908Y010120D01*
X006908Y005870D01*
X011158Y005870D01*
X011158Y010120D01*
X010158Y010120D01*
X010158Y010370D01*
X011408Y010370D01*
X011408Y005620D01*
X006658Y005620D01*
X006658Y010370D01*
X009658Y010370D01*
X009658Y010620D01*
X006408Y010620D01*
X006408Y005370D01*
X011658Y005370D01*
X011658Y010620D01*
X010158Y010620D01*
X010158Y010870D01*
X011908Y010870D01*
X011908Y005120D01*
X006158Y005120D01*
X006158Y010870D01*
X009658Y010870D01*
X009658Y011120D01*
X005908Y011120D01*
X005908Y004870D01*
X012158Y004870D01*
X012158Y011120D01*
X010158Y011120D01*
X010158Y011370D01*
X012408Y011370D01*
X012408Y004620D01*
X005658Y004620D01*
X005658Y011370D01*
X009658Y011370D01*
X009658Y011620D01*
X005408Y011620D01*
X005408Y004370D01*
X012658Y004370D01*
X012658Y011620D01*
X010158Y011620D01*
X010158Y011870D01*
X012908Y011870D01*
X012908Y004120D01*
X005158Y004120D01*
X005158Y011870D01*
X009658Y011870D01*
X009658Y012120D01*
X004908Y012120D01*
X004908Y003870D01*
X013158Y003870D01*
X013158Y012120D01*
X010158Y012120D01*
X010158Y012370D01*
X013408Y012370D01*
X013408Y003620D01*
X004658Y003620D01*
X004658Y012370D01*
X009658Y012370D01*
X009658Y012620D01*
X004408Y012620D01*
X004408Y003370D01*
X013658Y003370D01*
X013658Y012620D01*
X010158Y012620D01*
X010158Y012870D01*
X013908Y012870D01*
X013908Y003120D01*
X004158Y003120D01*
X004158Y012870D01*
X009658Y012870D01*
X009658Y013120D01*
X003908Y013120D01*
X003908Y002870D01*
X014158Y002870D01*
X014158Y013120D01*
X010158Y013120D01*
X010158Y013370D01*
X014408Y013370D01*
X014408Y002620D01*
X003658Y002620D01*
X003658Y013370D01*
X009658Y013370D01*
X009658Y013620D01*
X003408Y013620D01*
X003408Y002370D01*
X014658Y002370D01*
X014658Y013620D01*
X010158Y013620D01*
X010158Y013870D01*
X014908Y013870D01*
X014908Y002120D01*
X003158Y002120D01*
X003158Y013870D01*
X009658Y013870D01*
X009658Y014120D01*
X002908Y014120D01*
X002908Y001870D01*
X015158Y001870D01*
X015158Y014120D01*
X010158Y014120D01*
X010158Y014370D01*
X015408Y014370D01*
X015408Y001620D01*
X002658Y001620D01*
X002658Y014370D01*
X009658Y014370D01*
X009658Y014620D01*
X002408Y014620D01*
X002408Y001370D01*
X015658Y001370D01*
X015658Y014620D01*
X010158Y014620D01*
X010158Y014870D01*
X015908Y014870D01*
X015908Y001120D01*
X002158Y001120D01*
X002158Y014870D01*
X009658Y014870D01*
X009658Y015120D01*
X001908Y015120D01*
X001908Y000870D01*
X016158Y000870D01*
X016158Y015120D01*
X010158Y015120D01*
X010158Y015370D01*
X016408Y015370D01*
X016408Y000620D01*
X001658Y000620D01*
X001658Y015370D01*
X006658Y015370D01*
X006658Y018120D01*
X006783Y018120D01*
M02*
