G75*
%MOIN*%
%OFA0B0*%
%FSLAX24Y24*%
%IPPOS*%
%LPD*%
%AMOC8*
5,1,8,0,0,1.08239X$1,22.5*
%
%ADD10C,0.0039*%
%ADD11C,0.0070*%
%ADD12C,0.0040*%
%ADD13C,0.0060*%
%ADD14C,0.0080*%
%ADD15C,0.0000*%
D10*
X001158Y000120D02*
X016906Y000120D01*
X016906Y019805D01*
X001158Y019805D01*
X001158Y000120D01*
D11*
X008010Y016302D02*
X008010Y016683D01*
X007820Y016683D01*
X007756Y016619D01*
X007756Y016492D01*
X007820Y016429D01*
X008010Y016429D01*
X008171Y016492D02*
X008171Y016683D01*
X008361Y016683D01*
X008424Y016619D01*
X008361Y016556D01*
X008171Y016556D01*
X008171Y016492D02*
X008234Y016429D01*
X008361Y016429D01*
X008585Y016683D02*
X008839Y016683D01*
X008839Y016302D01*
X009051Y016302D02*
X009051Y016239D01*
X009051Y016429D02*
X009051Y016683D01*
X008988Y016683D02*
X009115Y016683D01*
X009276Y016683D02*
X009466Y016683D01*
X009529Y016619D01*
X009529Y016492D01*
X009466Y016429D01*
X009276Y016429D01*
X009276Y016302D02*
X009276Y016683D01*
X009115Y016429D02*
X009051Y016429D01*
X009690Y016429D02*
X009690Y016683D01*
X009880Y016683D01*
X009943Y016619D01*
X009943Y016429D01*
X010104Y016492D02*
X010104Y016683D01*
X010294Y016683D01*
X010358Y016619D01*
X010294Y016556D01*
X010104Y016556D01*
X010104Y016492D02*
X010168Y016429D01*
X010294Y016429D01*
X010519Y016366D02*
X010582Y016302D01*
X010709Y016302D01*
X010772Y016366D01*
X010772Y016619D01*
X010709Y016683D01*
X010582Y016683D01*
X010519Y016619D01*
X010519Y016492D01*
X010645Y016492D01*
X007595Y016492D02*
X007532Y016429D01*
X007342Y016429D01*
X007405Y016556D02*
X007532Y016556D01*
X007595Y016492D01*
X007595Y016683D02*
X007405Y016683D01*
X007342Y016619D01*
X007405Y016556D01*
D12*
X005923Y017005D02*
X005462Y017005D01*
X005693Y017005D02*
X005693Y017312D01*
X005693Y017466D02*
X005693Y017619D01*
X005923Y017466D02*
X005462Y017466D01*
X005462Y017773D01*
X005616Y017926D02*
X005462Y018080D01*
X005616Y018233D01*
X005923Y018233D01*
X005693Y018233D02*
X005693Y017926D01*
X005616Y017926D02*
X005923Y017926D01*
X005923Y017773D02*
X005923Y017466D01*
X005923Y017312D02*
X005462Y017312D01*
X005462Y018387D02*
X005462Y018694D01*
X005462Y018540D02*
X005923Y018540D01*
X005923Y018847D02*
X005616Y019154D01*
X005539Y019154D01*
X005462Y019077D01*
X005462Y018924D01*
X005539Y018847D01*
X005923Y018847D02*
X005923Y019154D01*
X012162Y019100D02*
X012623Y019100D01*
X012623Y018947D02*
X012623Y019254D01*
X012316Y018947D02*
X012162Y019100D01*
X012162Y018794D02*
X012162Y018487D01*
X012162Y018640D02*
X012623Y018640D01*
X012623Y018333D02*
X012316Y018333D01*
X012162Y018180D01*
X012316Y018026D01*
X012623Y018026D01*
X012623Y017873D02*
X012623Y017566D01*
X012162Y017566D01*
X012162Y017873D01*
X012392Y018026D02*
X012392Y018333D01*
X012392Y017719D02*
X012392Y017566D01*
X012392Y017412D02*
X012392Y017105D01*
X012162Y017105D02*
X012623Y017105D01*
X012623Y017412D02*
X012162Y017412D01*
D13*
X013588Y017836D02*
X013590Y017909D01*
X013596Y017982D01*
X013606Y018054D01*
X013620Y018126D01*
X013637Y018197D01*
X013659Y018267D01*
X013684Y018336D01*
X013713Y018403D01*
X013745Y018468D01*
X013781Y018532D01*
X013821Y018594D01*
X013863Y018653D01*
X013909Y018710D01*
X013958Y018764D01*
X014010Y018816D01*
X014064Y018865D01*
X014121Y018911D01*
X014180Y018953D01*
X014242Y018993D01*
X014306Y019029D01*
X014371Y019061D01*
X014438Y019090D01*
X014507Y019115D01*
X014577Y019137D01*
X014648Y019154D01*
X014720Y019168D01*
X014792Y019178D01*
X014865Y019184D01*
X014938Y019186D01*
X015011Y019184D01*
X015084Y019178D01*
X015156Y019168D01*
X015228Y019154D01*
X015299Y019137D01*
X015369Y019115D01*
X015438Y019090D01*
X015505Y019061D01*
X015570Y019029D01*
X015634Y018993D01*
X015696Y018953D01*
X015755Y018911D01*
X015812Y018865D01*
X015866Y018816D01*
X015918Y018764D01*
X015967Y018710D01*
X016013Y018653D01*
X016055Y018594D01*
X016095Y018532D01*
X016131Y018468D01*
X016163Y018403D01*
X016192Y018336D01*
X016217Y018267D01*
X016239Y018197D01*
X016256Y018126D01*
X016270Y018054D01*
X016280Y017982D01*
X016286Y017909D01*
X016288Y017836D01*
X016286Y017763D01*
X016280Y017690D01*
X016270Y017618D01*
X016256Y017546D01*
X016239Y017475D01*
X016217Y017405D01*
X016192Y017336D01*
X016163Y017269D01*
X016131Y017204D01*
X016095Y017140D01*
X016055Y017078D01*
X016013Y017019D01*
X015967Y016962D01*
X015918Y016908D01*
X015866Y016856D01*
X015812Y016807D01*
X015755Y016761D01*
X015696Y016719D01*
X015634Y016679D01*
X015570Y016643D01*
X015505Y016611D01*
X015438Y016582D01*
X015369Y016557D01*
X015299Y016535D01*
X015228Y016518D01*
X015156Y016504D01*
X015084Y016494D01*
X015011Y016488D01*
X014938Y016486D01*
X014865Y016488D01*
X014792Y016494D01*
X014720Y016504D01*
X014648Y016518D01*
X014577Y016535D01*
X014507Y016557D01*
X014438Y016582D01*
X014371Y016611D01*
X014306Y016643D01*
X014242Y016679D01*
X014180Y016719D01*
X014121Y016761D01*
X014064Y016807D01*
X014010Y016856D01*
X013958Y016908D01*
X013909Y016962D01*
X013863Y017019D01*
X013821Y017078D01*
X013781Y017140D01*
X013745Y017204D01*
X013713Y017269D01*
X013684Y017336D01*
X013659Y017405D01*
X013637Y017475D01*
X013620Y017546D01*
X013606Y017618D01*
X013596Y017690D01*
X013590Y017763D01*
X013588Y017836D01*
X001777Y017836D02*
X001779Y017909D01*
X001785Y017982D01*
X001795Y018054D01*
X001809Y018126D01*
X001826Y018197D01*
X001848Y018267D01*
X001873Y018336D01*
X001902Y018403D01*
X001934Y018468D01*
X001970Y018532D01*
X002010Y018594D01*
X002052Y018653D01*
X002098Y018710D01*
X002147Y018764D01*
X002199Y018816D01*
X002253Y018865D01*
X002310Y018911D01*
X002369Y018953D01*
X002431Y018993D01*
X002495Y019029D01*
X002560Y019061D01*
X002627Y019090D01*
X002696Y019115D01*
X002766Y019137D01*
X002837Y019154D01*
X002909Y019168D01*
X002981Y019178D01*
X003054Y019184D01*
X003127Y019186D01*
X003200Y019184D01*
X003273Y019178D01*
X003345Y019168D01*
X003417Y019154D01*
X003488Y019137D01*
X003558Y019115D01*
X003627Y019090D01*
X003694Y019061D01*
X003759Y019029D01*
X003823Y018993D01*
X003885Y018953D01*
X003944Y018911D01*
X004001Y018865D01*
X004055Y018816D01*
X004107Y018764D01*
X004156Y018710D01*
X004202Y018653D01*
X004244Y018594D01*
X004284Y018532D01*
X004320Y018468D01*
X004352Y018403D01*
X004381Y018336D01*
X004406Y018267D01*
X004428Y018197D01*
X004445Y018126D01*
X004459Y018054D01*
X004469Y017982D01*
X004475Y017909D01*
X004477Y017836D01*
X004475Y017763D01*
X004469Y017690D01*
X004459Y017618D01*
X004445Y017546D01*
X004428Y017475D01*
X004406Y017405D01*
X004381Y017336D01*
X004352Y017269D01*
X004320Y017204D01*
X004284Y017140D01*
X004244Y017078D01*
X004202Y017019D01*
X004156Y016962D01*
X004107Y016908D01*
X004055Y016856D01*
X004001Y016807D01*
X003944Y016761D01*
X003885Y016719D01*
X003823Y016679D01*
X003759Y016643D01*
X003694Y016611D01*
X003627Y016582D01*
X003558Y016557D01*
X003488Y016535D01*
X003417Y016518D01*
X003345Y016504D01*
X003273Y016494D01*
X003200Y016488D01*
X003127Y016486D01*
X003054Y016488D01*
X002981Y016494D01*
X002909Y016504D01*
X002837Y016518D01*
X002766Y016535D01*
X002696Y016557D01*
X002627Y016582D01*
X002560Y016611D01*
X002495Y016643D01*
X002431Y016679D01*
X002369Y016719D01*
X002310Y016761D01*
X002253Y016807D01*
X002199Y016856D01*
X002147Y016908D01*
X002098Y016962D01*
X002052Y017019D01*
X002010Y017078D01*
X001970Y017140D01*
X001934Y017204D01*
X001902Y017269D01*
X001873Y017336D01*
X001848Y017405D01*
X001826Y017475D01*
X001809Y017546D01*
X001795Y017618D01*
X001785Y017690D01*
X001779Y017763D01*
X001777Y017836D01*
D14*
X002458Y017836D02*
X002460Y017887D01*
X002466Y017938D01*
X002476Y017988D01*
X002489Y018038D01*
X002507Y018086D01*
X002527Y018133D01*
X002552Y018178D01*
X002580Y018221D01*
X002611Y018262D01*
X002645Y018300D01*
X002682Y018335D01*
X002721Y018368D01*
X002763Y018398D01*
X002807Y018424D01*
X002853Y018446D01*
X002901Y018466D01*
X002950Y018481D01*
X003000Y018493D01*
X003050Y018501D01*
X003101Y018505D01*
X003153Y018505D01*
X003204Y018501D01*
X003254Y018493D01*
X003304Y018481D01*
X003353Y018466D01*
X003401Y018446D01*
X003447Y018424D01*
X003491Y018398D01*
X003533Y018368D01*
X003572Y018335D01*
X003609Y018300D01*
X003643Y018262D01*
X003674Y018221D01*
X003702Y018178D01*
X003727Y018133D01*
X003747Y018086D01*
X003765Y018038D01*
X003778Y017988D01*
X003788Y017938D01*
X003794Y017887D01*
X003796Y017836D01*
X003794Y017785D01*
X003788Y017734D01*
X003778Y017684D01*
X003765Y017634D01*
X003747Y017586D01*
X003727Y017539D01*
X003702Y017494D01*
X003674Y017451D01*
X003643Y017410D01*
X003609Y017372D01*
X003572Y017337D01*
X003533Y017304D01*
X003491Y017274D01*
X003447Y017248D01*
X003401Y017226D01*
X003353Y017206D01*
X003304Y017191D01*
X003254Y017179D01*
X003204Y017171D01*
X003153Y017167D01*
X003101Y017167D01*
X003050Y017171D01*
X003000Y017179D01*
X002950Y017191D01*
X002901Y017206D01*
X002853Y017226D01*
X002807Y017248D01*
X002763Y017274D01*
X002721Y017304D01*
X002682Y017337D01*
X002645Y017372D01*
X002611Y017410D01*
X002580Y017451D01*
X002552Y017494D01*
X002527Y017539D01*
X002507Y017586D01*
X002489Y017634D01*
X002476Y017684D01*
X002466Y017734D01*
X002460Y017785D01*
X002458Y017836D01*
X014269Y017836D02*
X014271Y017887D01*
X014277Y017938D01*
X014287Y017988D01*
X014300Y018038D01*
X014318Y018086D01*
X014338Y018133D01*
X014363Y018178D01*
X014391Y018221D01*
X014422Y018262D01*
X014456Y018300D01*
X014493Y018335D01*
X014532Y018368D01*
X014574Y018398D01*
X014618Y018424D01*
X014664Y018446D01*
X014712Y018466D01*
X014761Y018481D01*
X014811Y018493D01*
X014861Y018501D01*
X014912Y018505D01*
X014964Y018505D01*
X015015Y018501D01*
X015065Y018493D01*
X015115Y018481D01*
X015164Y018466D01*
X015212Y018446D01*
X015258Y018424D01*
X015302Y018398D01*
X015344Y018368D01*
X015383Y018335D01*
X015420Y018300D01*
X015454Y018262D01*
X015485Y018221D01*
X015513Y018178D01*
X015538Y018133D01*
X015558Y018086D01*
X015576Y018038D01*
X015589Y017988D01*
X015599Y017938D01*
X015605Y017887D01*
X015607Y017836D01*
X015605Y017785D01*
X015599Y017734D01*
X015589Y017684D01*
X015576Y017634D01*
X015558Y017586D01*
X015538Y017539D01*
X015513Y017494D01*
X015485Y017451D01*
X015454Y017410D01*
X015420Y017372D01*
X015383Y017337D01*
X015344Y017304D01*
X015302Y017274D01*
X015258Y017248D01*
X015212Y017226D01*
X015164Y017206D01*
X015115Y017191D01*
X015065Y017179D01*
X015015Y017171D01*
X014964Y017167D01*
X014912Y017167D01*
X014861Y017171D01*
X014811Y017179D01*
X014761Y017191D01*
X014712Y017206D01*
X014664Y017226D01*
X014618Y017248D01*
X014574Y017274D01*
X014532Y017304D01*
X014493Y017337D01*
X014456Y017372D01*
X014422Y017410D01*
X014391Y017451D01*
X014363Y017494D01*
X014338Y017539D01*
X014318Y017586D01*
X014300Y017634D01*
X014287Y017684D01*
X014277Y017734D01*
X014271Y017785D01*
X014269Y017836D01*
D15*
X014308Y017836D02*
X014310Y017886D01*
X014316Y017936D01*
X014326Y017985D01*
X014340Y018033D01*
X014357Y018080D01*
X014378Y018125D01*
X014403Y018169D01*
X014431Y018210D01*
X014463Y018249D01*
X014497Y018286D01*
X014534Y018320D01*
X014574Y018350D01*
X014616Y018377D01*
X014660Y018401D01*
X014706Y018422D01*
X014753Y018438D01*
X014801Y018451D01*
X014851Y018460D01*
X014900Y018465D01*
X014951Y018466D01*
X015001Y018463D01*
X015050Y018456D01*
X015099Y018445D01*
X015147Y018430D01*
X015193Y018412D01*
X015238Y018390D01*
X015281Y018364D01*
X015322Y018335D01*
X015361Y018303D01*
X015397Y018268D01*
X015429Y018230D01*
X015459Y018190D01*
X015486Y018147D01*
X015509Y018103D01*
X015528Y018057D01*
X015544Y018009D01*
X015556Y017960D01*
X015564Y017911D01*
X015568Y017861D01*
X015568Y017811D01*
X015564Y017761D01*
X015556Y017712D01*
X015544Y017663D01*
X015528Y017615D01*
X015509Y017569D01*
X015486Y017525D01*
X015459Y017482D01*
X015429Y017442D01*
X015397Y017404D01*
X015361Y017369D01*
X015322Y017337D01*
X015281Y017308D01*
X015238Y017282D01*
X015193Y017260D01*
X015147Y017242D01*
X015099Y017227D01*
X015050Y017216D01*
X015001Y017209D01*
X014951Y017206D01*
X014900Y017207D01*
X014851Y017212D01*
X014801Y017221D01*
X014753Y017234D01*
X014706Y017250D01*
X014660Y017271D01*
X014616Y017295D01*
X014574Y017322D01*
X014534Y017352D01*
X014497Y017386D01*
X014463Y017423D01*
X014431Y017462D01*
X014403Y017503D01*
X014378Y017547D01*
X014357Y017592D01*
X014340Y017639D01*
X014326Y017687D01*
X014316Y017736D01*
X014310Y017786D01*
X014308Y017836D01*
X002497Y017836D02*
X002499Y017886D01*
X002505Y017936D01*
X002515Y017985D01*
X002529Y018033D01*
X002546Y018080D01*
X002567Y018125D01*
X002592Y018169D01*
X002620Y018210D01*
X002652Y018249D01*
X002686Y018286D01*
X002723Y018320D01*
X002763Y018350D01*
X002805Y018377D01*
X002849Y018401D01*
X002895Y018422D01*
X002942Y018438D01*
X002990Y018451D01*
X003040Y018460D01*
X003089Y018465D01*
X003140Y018466D01*
X003190Y018463D01*
X003239Y018456D01*
X003288Y018445D01*
X003336Y018430D01*
X003382Y018412D01*
X003427Y018390D01*
X003470Y018364D01*
X003511Y018335D01*
X003550Y018303D01*
X003586Y018268D01*
X003618Y018230D01*
X003648Y018190D01*
X003675Y018147D01*
X003698Y018103D01*
X003717Y018057D01*
X003733Y018009D01*
X003745Y017960D01*
X003753Y017911D01*
X003757Y017861D01*
X003757Y017811D01*
X003753Y017761D01*
X003745Y017712D01*
X003733Y017663D01*
X003717Y017615D01*
X003698Y017569D01*
X003675Y017525D01*
X003648Y017482D01*
X003618Y017442D01*
X003586Y017404D01*
X003550Y017369D01*
X003511Y017337D01*
X003470Y017308D01*
X003427Y017282D01*
X003382Y017260D01*
X003336Y017242D01*
X003288Y017227D01*
X003239Y017216D01*
X003190Y017209D01*
X003140Y017206D01*
X003089Y017207D01*
X003040Y017212D01*
X002990Y017221D01*
X002942Y017234D01*
X002895Y017250D01*
X002849Y017271D01*
X002805Y017295D01*
X002763Y017322D01*
X002723Y017352D01*
X002686Y017386D01*
X002652Y017423D01*
X002620Y017462D01*
X002592Y017503D01*
X002567Y017547D01*
X002546Y017592D01*
X002529Y017639D01*
X002515Y017687D01*
X002505Y017736D01*
X002499Y017786D01*
X002497Y017836D01*
M02*
