G75*
%MOIN*%
%OFA0B0*%
%FSLAX24Y24*%
%IPPOS*%
%LPD*%
%AMOC8*
5,1,8,0,0,1.08239X$1,22.5*
%
%ADD10C,0.0000*%
%ADD11R,0.0604X0.0043*%
%ADD12R,0.0388X0.0043*%
%ADD13R,0.1295X0.0043*%
%ADD14R,0.0259X0.0043*%
%ADD15R,0.0259X0.0043*%
%ADD16R,0.0431X0.0043*%
%ADD17R,0.0734X0.0043*%
%ADD18R,0.0518X0.0043*%
%ADD19R,0.1812X0.0043*%
%ADD20R,0.0475X0.0043*%
%ADD21R,0.0518X0.0043*%
%ADD22R,0.1812X0.0043*%
%ADD23R,0.0259X0.0043*%
%ADD24R,0.0259X0.0043*%
%ADD25R,0.0173X0.0043*%
%ADD26R,0.0777X0.0043*%
%ADD27R,0.0086X0.0043*%
%ADD28R,0.2330X0.0043*%
%ADD29R,0.0345X0.0043*%
%ADD30R,0.0043X0.0043*%
%ADD31R,0.0647X0.0043*%
%ADD32R,0.0388X0.0043*%
%ADD33R,0.0777X0.0043*%
%ADD34R,0.1295X0.0043*%
%ADD35R,0.0216X0.0043*%
%ADD36R,0.0475X0.0043*%
%ADD37R,0.0388X0.0043*%
%ADD38R,0.0734X0.0043*%
%ADD39R,0.0173X0.0043*%
%ADD40R,0.1640X0.0043*%
%ADD41R,0.0129X0.0043*%
%ADD42R,0.0475X0.0043*%
%ADD43R,0.1683X0.0043*%
%ADD44R,0.0518X0.0043*%
%ADD45R,0.0302X0.0043*%
%ADD46R,0.0043X0.0043*%
%ADD47R,0.1165X0.0043*%
%ADD48R,0.0863X0.0043*%
%ADD49R,0.0129X0.0043*%
%ADD50R,0.0906X0.0043*%
%ADD51R,0.1122X0.0043*%
%ADD52R,0.0475X0.0043*%
%ADD53R,0.0216X0.0043*%
%ADD54R,0.0777X0.0043*%
%ADD55R,0.0388X0.0043*%
%ADD56R,0.0992X0.0043*%
%ADD57R,0.0863X0.0043*%
%ADD58R,0.0647X0.0043*%
%ADD59R,0.0086X0.0043*%
%ADD60R,0.0777X0.0043*%
%ADD61R,0.1036X0.0043*%
%ADD62R,0.0906X0.0043*%
%ADD63R,0.0647X0.0043*%
%ADD64R,0.0863X0.0043*%
%ADD65R,0.0734X0.0043*%
%ADD66R,0.1553X0.0043*%
%ADD67R,0.0992X0.0043*%
%ADD68R,0.1165X0.0043*%
%ADD69R,0.0518X0.0043*%
%ADD70R,0.0129X0.0043*%
%ADD71R,0.0388X0.0043*%
%ADD72R,0.1553X0.0043*%
%ADD73R,0.1036X0.0043*%
%ADD74R,0.1467X0.0043*%
%ADD75R,0.1036X0.0043*%
%ADD76R,0.1381X0.0043*%
%ADD77R,0.0216X0.0043*%
%ADD78R,0.1294X0.0043*%
%ADD79R,0.1251X0.0043*%
%ADD80R,0.1424X0.0043*%
%ADD81R,0.0216X0.0043*%
%ADD82R,0.1122X0.0043*%
%ADD83R,0.1165X0.0043*%
%ADD84R,0.0906X0.0043*%
%ADD85R,0.1165X0.0043*%
%ADD86R,0.0604X0.0043*%
%ADD87R,0.0906X0.0043*%
%ADD88R,0.1294X0.0043*%
%ADD89R,0.0086X0.0043*%
%ADD90R,0.0129X0.0043*%
%ADD91R,0.1251X0.0043*%
%ADD92R,0.1338X0.0043*%
%ADD93R,0.1424X0.0043*%
%ADD94R,0.0992X0.0043*%
%ADD95R,0.1467X0.0043*%
%ADD96R,0.1251X0.0043*%
%ADD97R,0.0777X0.0043*%
%ADD98R,0.0992X0.0043*%
%ADD99R,0.1726X0.0043*%
%ADD100R,0.1855X0.0043*%
%ADD101R,0.0345X0.0043*%
%ADD102R,0.0949X0.0043*%
%ADD103R,0.1942X0.0043*%
%ADD104R,0.1769X0.0043*%
%ADD105R,0.1899X0.0043*%
%ADD106R,0.2287X0.0043*%
%ADD107R,0.0647X0.0043*%
%ADD108R,0.0647X0.0043*%
%ADD109R,0.2287X0.0043*%
%ADD110R,0.1510X0.0043*%
%ADD111R,0.2244X0.0043*%
%ADD112R,0.1510X0.0043*%
%ADD113R,0.0604X0.0043*%
%ADD114R,0.0388X0.0043*%
%ADD115R,0.1294X0.0043*%
%ADD116R,0.0777X0.0043*%
%ADD117R,0.0518X0.0043*%
%ADD118R,0.0259X0.0043*%
%ADD119R,0.0604X0.0043*%
%ADD120R,0.0518X0.0043*%
%ADD121R,0.0129X0.0043*%
%ADD122R,0.0863X0.0043*%
%ADD123R,0.1208X0.0043*%
%ADD124R,0.1553X0.0043*%
%ADD125R,0.0690X0.0043*%
%ADD126R,0.0820X0.0043*%
%ADD127R,0.0820X0.0043*%
%ADD128R,0.0604X0.0043*%
%ADD129R,0.1251X0.0043*%
%ADD130R,0.1553X0.0043*%
%ADD131R,0.0690X0.0043*%
%ADD132R,0.1381X0.0043*%
%ADD133R,0.0561X0.0043*%
%ADD134R,0.0345X0.0043*%
%ADD135R,0.1381X0.0043*%
%ADD136R,0.0863X0.0043*%
%ADD137R,0.1036X0.0043*%
%ADD138R,0.0734X0.0043*%
%ADD139R,0.1424X0.0043*%
%ADD140R,0.1424X0.0043*%
%ADD141R,0.0259X0.0043*%
%ADD142R,0.3193X0.0043*%
%ADD143R,0.3236X0.0043*%
%ADD144R,0.1812X0.0043*%
%ADD145R,0.0734X0.0043*%
%ADD146R,0.1769X0.0043*%
%ADD147R,0.1122X0.0043*%
%ADD148R,0.0431X0.0043*%
%ADD149R,0.2201X0.0043*%
%ADD150R,0.1122X0.0043*%
%ADD151R,0.0906X0.0043*%
%ADD152R,0.2157X0.0043*%
%ADD153R,0.1899X0.0043*%
%ADD154R,0.1942X0.0043*%
%ADD155R,0.2157X0.0043*%
%ADD156R,0.1640X0.0043*%
%ADD157R,0.1683X0.0043*%
%ADD158R,0.4358X0.0043*%
%ADD159R,0.4401X0.0043*%
%ADD160R,0.3452X0.0043*%
%ADD161R,0.2718X0.0043*%
%ADD162R,0.3495X0.0043*%
%ADD163R,0.2718X0.0043*%
%ADD164R,0.3495X0.0043*%
%ADD165R,0.2675X0.0043*%
%ADD166R,0.4790X0.0043*%
%ADD167R,0.4747X0.0043*%
%ADD168R,0.1942X0.0043*%
%ADD169R,0.2330X0.0043*%
%ADD170R,0.0949X0.0043*%
%ADD171R,0.3625X0.0043*%
%ADD172R,0.3711X0.0043*%
%ADD173R,0.3754X0.0043*%
%ADD174R,0.0734X0.0043*%
%ADD175R,0.1381X0.0043*%
%ADD176R,0.2460X0.0043*%
%ADD177R,0.2460X0.0043*%
%ADD178R,0.1079X0.0043*%
%ADD179R,0.1122X0.0043*%
%ADD180R,0.1208X0.0043*%
%ADD181R,0.1381X0.0043*%
%ADD182R,0.2416X0.0043*%
%ADD183R,0.2373X0.0043*%
%ADD184R,0.2201X0.0043*%
%ADD185R,0.2114X0.0043*%
%ADD186R,0.0043X0.0043*%
%ADD187R,0.1683X0.0043*%
%ADD188R,0.1079X0.0043*%
%ADD189R,0.1338X0.0043*%
%ADD190R,0.1165X0.0043*%
%ADD191R,0.0345X0.0043*%
%ADD192R,0.0431X0.0043*%
%ADD193R,0.1208X0.0043*%
%ADD194R,0.0432X0.0043*%
%ADD195R,0.2158X0.0043*%
%ADD196R,0.3064X0.0043*%
%ADD197R,0.3107X0.0043*%
%ADD198R,0.2071X0.0043*%
%ADD199R,0.2028X0.0043*%
%ADD200R,0.0561X0.0043*%
%ADD201R,0.2071X0.0043*%
%ADD202R,0.2589X0.0043*%
%ADD203R,0.0043X0.0043*%
%ADD204R,0.2934X0.0043*%
%ADD205R,0.0129X0.0043*%
%ADD206R,0.0949X0.0043*%
%ADD207R,0.2934X0.0043*%
%ADD208R,0.1726X0.0043*%
%ADD209R,0.1597X0.0043*%
%ADD210R,0.0690X0.0043*%
%ADD211R,0.1079X0.0043*%
%ADD212R,0.1424X0.0043*%
%ADD213R,0.0345X0.0043*%
%ADD214R,0.0820X0.0043*%
%ADD215R,0.1036X0.0043*%
%ADD216R,0.0216X0.0043*%
%ADD217R,0.0561X0.0043*%
%ADD218R,0.1640X0.0043*%
%ADD219R,0.1683X0.0043*%
%ADD220R,0.0690X0.0043*%
%ADD221R,0.1769X0.0043*%
%ADD222R,0.0173X0.0043*%
%ADD223R,0.0992X0.0043*%
%ADD224R,0.1812X0.0043*%
%ADD225R,0.1122X0.0043*%
%ADD226R,0.0863X0.0043*%
%ADD227R,0.1510X0.0043*%
%ADD228R,0.2848X0.0043*%
%ADD229R,0.2848X0.0043*%
%ADD230R,0.3452X0.0043*%
%ADD231R,0.3538X0.0043*%
%ADD232R,0.3581X0.0043*%
%ADD233R,0.2114X0.0043*%
%ADD234R,0.1985X0.0043*%
%ADD235R,0.1726X0.0043*%
%ADD236R,0.2071X0.0043*%
%ADD237R,0.1985X0.0043*%
%ADD238R,0.2546X0.0043*%
%ADD239R,0.0647X0.0043*%
%ADD240R,0.1036X0.0043*%
%ADD241R,0.1381X0.0043*%
%ADD242R,0.3107X0.0043*%
%ADD243R,0.2460X0.0043*%
%ADD244R,0.3884X0.0043*%
%ADD245R,0.3884X0.0043*%
%ADD246R,0.2632X0.0043*%
%ADD247R,0.0302X0.0043*%
%ADD248R,0.2028X0.0043*%
%ADD249R,0.2201X0.0043*%
%ADD250R,0.0173X0.0043*%
%ADD251R,0.1942X0.0043*%
%ADD252R,0.0820X0.0043*%
%ADD253R,0.1640X0.0043*%
%ADD254R,0.1208X0.0043*%
%ADD255R,0.1942X0.0043*%
%ADD256R,0.2460X0.0043*%
%ADD257R,0.2416X0.0043*%
%ADD258R,0.1769X0.0043*%
%ADD259R,0.1424X0.0043*%
%ADD260R,0.2201X0.0043*%
%ADD261R,0.0820X0.0043*%
%ADD262R,0.1855X0.0043*%
%ADD263R,0.1079X0.0043*%
%ADD264R,0.2589X0.0043*%
%ADD265R,0.0604X0.0043*%
%ADD266R,0.1683X0.0043*%
%ADD267R,0.2805X0.0043*%
%ADD268R,0.2891X0.0043*%
%ADD269R,0.2934X0.0043*%
%ADD270R,0.2805X0.0043*%
%ADD271R,0.3409X0.0043*%
%ADD272R,0.3366X0.0043*%
%ADD273R,0.0302X0.0043*%
%ADD274R,0.0302X0.0043*%
%ADD275R,0.3323X0.0043*%
%ADD276R,0.1597X0.0043*%
%ADD277R,0.0992X0.0043*%
%ADD278R,0.2416X0.0043*%
%ADD279R,0.2977X0.0043*%
%ADD280R,0.3323X0.0043*%
%ADD281R,0.0302X0.0043*%
%ADD282R,0.3366X0.0043*%
%ADD283R,0.0906X0.0043*%
%ADD284R,0.0216X0.0043*%
%ADD285R,0.2891X0.0043*%
%ADD286R,0.3970X0.0043*%
%ADD287R,0.4013X0.0043*%
%ADD288R,0.3970X0.0043*%
%ADD289R,0.1640X0.0043*%
%ADD290R,0.2114X0.0043*%
%ADD291R,0.2546X0.0043*%
%ADD292R,0.3840X0.0043*%
%ADD293R,0.3884X0.0043*%
%ADD294R,0.4531X0.0043*%
%ADD295R,0.4488X0.0043*%
%ADD296R,0.8932X0.0043*%
%ADD297R,0.8932X0.0043*%
%ADD298R,0.8889X0.0043*%
%ADD299R,0.9277X0.0043*%
%ADD300R,0.1769X0.0043*%
%ADD301R,0.9277X0.0043*%
%ADD302R,0.8242X0.0043*%
%ADD303R,0.8199X0.0043*%
%ADD304R,0.5696X0.0043*%
%ADD305R,0.5653X0.0043*%
%ADD306R,0.3452X0.0043*%
%ADD307R,0.3495X0.0043*%
%ADD308R,0.4617X0.0043*%
%ADD309R,0.4660X0.0043*%
%ADD310R,0.1855X0.0043*%
%ADD311R,0.2460X0.0043*%
%ADD312R,0.3021X0.0043*%
D10*
X000180Y007200D02*
X000180Y039946D01*
X024550Y039946D01*
X024550Y007200D01*
X000180Y007200D01*
X002068Y008904D02*
X002070Y008954D01*
X002076Y009004D01*
X002086Y009053D01*
X002100Y009101D01*
X002117Y009148D01*
X002138Y009193D01*
X002163Y009237D01*
X002191Y009278D01*
X002223Y009317D01*
X002257Y009354D01*
X002294Y009388D01*
X002334Y009418D01*
X002376Y009445D01*
X002420Y009469D01*
X002466Y009490D01*
X002513Y009506D01*
X002561Y009519D01*
X002611Y009528D01*
X002660Y009533D01*
X002711Y009534D01*
X002761Y009531D01*
X002810Y009524D01*
X002859Y009513D01*
X002907Y009498D01*
X002953Y009480D01*
X002998Y009458D01*
X003041Y009432D01*
X003082Y009403D01*
X003121Y009371D01*
X003157Y009336D01*
X003189Y009298D01*
X003219Y009258D01*
X003246Y009215D01*
X003269Y009171D01*
X003288Y009125D01*
X003304Y009077D01*
X003316Y009028D01*
X003324Y008979D01*
X003328Y008929D01*
X003328Y008879D01*
X003324Y008829D01*
X003316Y008780D01*
X003304Y008731D01*
X003288Y008683D01*
X003269Y008637D01*
X003246Y008593D01*
X003219Y008550D01*
X003189Y008510D01*
X003157Y008472D01*
X003121Y008437D01*
X003082Y008405D01*
X003041Y008376D01*
X002998Y008350D01*
X002953Y008328D01*
X002907Y008310D01*
X002859Y008295D01*
X002810Y008284D01*
X002761Y008277D01*
X002711Y008274D01*
X002660Y008275D01*
X002611Y008280D01*
X002561Y008289D01*
X002513Y008302D01*
X002466Y008318D01*
X002420Y008339D01*
X002376Y008363D01*
X002334Y008390D01*
X002294Y008420D01*
X002257Y008454D01*
X002223Y008491D01*
X002191Y008530D01*
X002163Y008571D01*
X002138Y008615D01*
X002117Y008660D01*
X002100Y008707D01*
X002086Y008755D01*
X002076Y008804D01*
X002070Y008854D01*
X002068Y008904D01*
X021068Y008404D02*
X021070Y008454D01*
X021076Y008504D01*
X021086Y008553D01*
X021100Y008601D01*
X021117Y008648D01*
X021138Y008693D01*
X021163Y008737D01*
X021191Y008778D01*
X021223Y008817D01*
X021257Y008854D01*
X021294Y008888D01*
X021334Y008918D01*
X021376Y008945D01*
X021420Y008969D01*
X021466Y008990D01*
X021513Y009006D01*
X021561Y009019D01*
X021611Y009028D01*
X021660Y009033D01*
X021711Y009034D01*
X021761Y009031D01*
X021810Y009024D01*
X021859Y009013D01*
X021907Y008998D01*
X021953Y008980D01*
X021998Y008958D01*
X022041Y008932D01*
X022082Y008903D01*
X022121Y008871D01*
X022157Y008836D01*
X022189Y008798D01*
X022219Y008758D01*
X022246Y008715D01*
X022269Y008671D01*
X022288Y008625D01*
X022304Y008577D01*
X022316Y008528D01*
X022324Y008479D01*
X022328Y008429D01*
X022328Y008379D01*
X022324Y008329D01*
X022316Y008280D01*
X022304Y008231D01*
X022288Y008183D01*
X022269Y008137D01*
X022246Y008093D01*
X022219Y008050D01*
X022189Y008010D01*
X022157Y007972D01*
X022121Y007937D01*
X022082Y007905D01*
X022041Y007876D01*
X021998Y007850D01*
X021953Y007828D01*
X021907Y007810D01*
X021859Y007795D01*
X021810Y007784D01*
X021761Y007777D01*
X021711Y007774D01*
X021660Y007775D01*
X021611Y007780D01*
X021561Y007789D01*
X021513Y007802D01*
X021466Y007818D01*
X021420Y007839D01*
X021376Y007863D01*
X021334Y007890D01*
X021294Y007920D01*
X021257Y007954D01*
X021223Y007991D01*
X021191Y008030D01*
X021163Y008071D01*
X021138Y008115D01*
X021117Y008160D01*
X021100Y008207D01*
X021086Y008255D01*
X021076Y008304D01*
X021070Y008354D01*
X021068Y008404D01*
X019068Y028904D02*
X019070Y028954D01*
X019076Y029004D01*
X019086Y029053D01*
X019100Y029101D01*
X019117Y029148D01*
X019138Y029193D01*
X019163Y029237D01*
X019191Y029278D01*
X019223Y029317D01*
X019257Y029354D01*
X019294Y029388D01*
X019334Y029418D01*
X019376Y029445D01*
X019420Y029469D01*
X019466Y029490D01*
X019513Y029506D01*
X019561Y029519D01*
X019611Y029528D01*
X019660Y029533D01*
X019711Y029534D01*
X019761Y029531D01*
X019810Y029524D01*
X019859Y029513D01*
X019907Y029498D01*
X019953Y029480D01*
X019998Y029458D01*
X020041Y029432D01*
X020082Y029403D01*
X020121Y029371D01*
X020157Y029336D01*
X020189Y029298D01*
X020219Y029258D01*
X020246Y029215D01*
X020269Y029171D01*
X020288Y029125D01*
X020304Y029077D01*
X020316Y029028D01*
X020324Y028979D01*
X020328Y028929D01*
X020328Y028879D01*
X020324Y028829D01*
X020316Y028780D01*
X020304Y028731D01*
X020288Y028683D01*
X020269Y028637D01*
X020246Y028593D01*
X020219Y028550D01*
X020189Y028510D01*
X020157Y028472D01*
X020121Y028437D01*
X020082Y028405D01*
X020041Y028376D01*
X019998Y028350D01*
X019953Y028328D01*
X019907Y028310D01*
X019859Y028295D01*
X019810Y028284D01*
X019761Y028277D01*
X019711Y028274D01*
X019660Y028275D01*
X019611Y028280D01*
X019561Y028289D01*
X019513Y028302D01*
X019466Y028318D01*
X019420Y028339D01*
X019376Y028363D01*
X019334Y028390D01*
X019294Y028420D01*
X019257Y028454D01*
X019223Y028491D01*
X019191Y028530D01*
X019163Y028571D01*
X019138Y028615D01*
X019117Y028660D01*
X019100Y028707D01*
X019086Y028755D01*
X019076Y028804D01*
X019070Y028854D01*
X019068Y028904D01*
D11*
X019101Y029724D03*
X017807Y029207D03*
X017289Y027653D03*
X018368Y027653D03*
X018454Y027610D03*
X018497Y027524D03*
X016426Y026747D03*
X013060Y028689D03*
X012240Y028387D03*
X011636Y029422D03*
X011895Y030458D03*
X011982Y030501D03*
X013406Y031235D03*
X014700Y031623D03*
X015649Y033478D03*
X015736Y033435D03*
X015606Y033694D03*
X015218Y034212D03*
X014484Y034385D03*
X014441Y034471D03*
X015995Y034471D03*
X016038Y034385D03*
X015995Y035032D03*
X017721Y036154D03*
X018713Y033133D03*
X023891Y030501D03*
X023891Y029293D03*
X023891Y029250D03*
X023891Y029207D03*
X023891Y025021D03*
X023891Y024978D03*
X023891Y024935D03*
X020827Y023597D03*
X020914Y022475D03*
X020827Y021051D03*
X020827Y020749D03*
X022381Y019455D03*
X023762Y020620D03*
X023891Y017081D03*
X023891Y017038D03*
X023891Y016995D03*
X023891Y016952D03*
X023891Y014363D03*
X023891Y014320D03*
X023891Y014277D03*
X023891Y014233D03*
X023891Y014190D03*
X023891Y014104D03*
X023891Y014061D03*
X023891Y014018D03*
X023891Y013975D03*
X023891Y013931D03*
X023891Y013888D03*
X023891Y013802D03*
X023891Y013759D03*
X023891Y013716D03*
X023891Y013673D03*
X023891Y013629D03*
X023891Y013543D03*
X023891Y013500D03*
X023891Y013457D03*
X023891Y013414D03*
X023891Y013370D03*
X023891Y013327D03*
X023891Y013241D03*
X023891Y013198D03*
X023891Y011731D03*
X023891Y011688D03*
X023891Y011644D03*
X023891Y011601D03*
X023891Y011558D03*
X023891Y011515D03*
X023805Y011040D03*
X023762Y010695D03*
X023675Y010652D03*
X023632Y010436D03*
X023546Y010264D03*
X022122Y010652D03*
X020655Y010781D03*
X020568Y010825D03*
X020525Y010911D03*
X019231Y011299D03*
X018454Y010523D03*
X017677Y010523D03*
X017591Y010695D03*
X017591Y011688D03*
X018842Y012853D03*
X017548Y013370D03*
X018497Y014708D03*
X018454Y014794D03*
X019360Y016132D03*
X019403Y016218D03*
X019231Y017642D03*
X018756Y019325D03*
X017548Y020361D03*
X014873Y016779D03*
X014225Y016650D03*
X014182Y016736D03*
X011852Y017168D03*
X011334Y018851D03*
X011334Y019066D03*
X011205Y020275D03*
X009651Y020749D03*
X008918Y020879D03*
X008875Y020792D03*
X008530Y020231D03*
X009824Y018548D03*
X009781Y016348D03*
X008616Y014233D03*
X008616Y014190D03*
X009004Y013673D03*
X009565Y012335D03*
X011723Y011817D03*
X011895Y010177D03*
X014225Y010048D03*
X015088Y009012D03*
X015218Y009142D03*
X015261Y009228D03*
X015779Y009789D03*
X015865Y010048D03*
X015908Y010134D03*
X015347Y010695D03*
X015390Y010781D03*
X015606Y012205D03*
X015347Y012464D03*
X016426Y014967D03*
X021216Y014061D03*
X019144Y009012D03*
X019231Y008969D03*
X019274Y008883D03*
X015649Y007804D03*
X008745Y010048D03*
X011723Y024633D03*
X012543Y025582D03*
X012543Y025668D03*
X010212Y025021D03*
X010212Y024978D03*
X010342Y026833D03*
X006545Y028344D03*
X006458Y028516D03*
X004430Y027481D03*
X003999Y027912D03*
X021949Y039433D03*
X023287Y039261D03*
X023373Y039304D03*
X023244Y038915D03*
X023503Y037448D03*
D12*
X022489Y038656D03*
X022489Y038700D03*
X022359Y038829D03*
X022359Y038915D03*
X022359Y038959D03*
X021841Y038959D03*
X021841Y039002D03*
X021841Y039045D03*
X021841Y039088D03*
X021841Y039131D03*
X021712Y038700D03*
X021712Y038656D03*
X021712Y038613D03*
X020935Y038613D03*
X020935Y038527D03*
X020159Y038786D03*
X020159Y038829D03*
X020159Y038915D03*
X020159Y038959D03*
X020159Y039002D03*
X020159Y039045D03*
X020159Y039088D03*
X020288Y039217D03*
X020288Y039261D03*
X020288Y039304D03*
X020288Y039347D03*
X020288Y039390D03*
X020288Y039433D03*
X020806Y039433D03*
X020806Y039261D03*
X020806Y039217D03*
X020029Y038354D03*
X020029Y038311D03*
X020029Y038225D03*
X020029Y038182D03*
X020029Y038139D03*
X020029Y038096D03*
X020029Y038052D03*
X020029Y038009D03*
X020029Y037923D03*
X020029Y037880D03*
X020029Y037837D03*
X020029Y037793D03*
X020029Y037750D03*
X020029Y037707D03*
X020029Y037621D03*
X020029Y037578D03*
X020029Y037535D03*
X020029Y037491D03*
X020029Y037448D03*
X020029Y037362D03*
X020547Y037362D03*
X020547Y037319D03*
X020547Y037276D03*
X020547Y037233D03*
X020547Y037189D03*
X020547Y037146D03*
X021194Y037233D03*
X021194Y037276D03*
X021194Y037319D03*
X021971Y037535D03*
X021971Y037578D03*
X018864Y036283D03*
X018864Y036240D03*
X017958Y035765D03*
X017958Y035722D03*
X018217Y035334D03*
X017311Y035463D03*
X017311Y035507D03*
X017311Y035550D03*
X017311Y035636D03*
X017311Y035204D03*
X016404Y033953D03*
X016404Y033910D03*
X016404Y033867D03*
X016404Y033781D03*
X016404Y033737D03*
X016404Y033694D03*
X016404Y033651D03*
X016404Y033263D03*
X016534Y033004D03*
X016577Y032961D03*
X016146Y032745D03*
X016146Y032702D03*
X016146Y032659D03*
X016146Y032572D03*
X016016Y033004D03*
X016016Y033047D03*
X015498Y033004D03*
X015498Y032961D03*
X015239Y032745D03*
X015110Y032572D03*
X015110Y032529D03*
X015110Y032486D03*
X014722Y033263D03*
X014981Y033478D03*
X014981Y033565D03*
X014981Y033608D03*
X014981Y033651D03*
X014463Y033867D03*
X014463Y033910D03*
X014463Y033953D03*
X014333Y033694D03*
X014333Y033651D03*
X014333Y033608D03*
X014333Y033565D03*
X014204Y033392D03*
X014204Y033349D03*
X014204Y033306D03*
X014204Y033263D03*
X014074Y033133D03*
X014074Y033090D03*
X014074Y033047D03*
X014074Y033004D03*
X014074Y032961D03*
X014074Y032874D03*
X014074Y032831D03*
X014074Y032788D03*
X014074Y032745D03*
X014074Y032702D03*
X013557Y032702D03*
X013557Y032745D03*
X013557Y032788D03*
X013168Y031882D03*
X013168Y031839D03*
X013168Y031796D03*
X014463Y031752D03*
X015110Y031321D03*
X015757Y029897D03*
X015757Y029854D03*
X015757Y029552D03*
X015757Y029509D03*
X015757Y029465D03*
X015757Y029422D03*
X015757Y029379D03*
X015757Y029293D03*
X015757Y029250D03*
X015757Y029207D03*
X015887Y028775D03*
X015887Y028689D03*
X015887Y028646D03*
X015887Y028602D03*
X015887Y028559D03*
X015887Y028516D03*
X015887Y028430D03*
X014851Y029120D03*
X014851Y029163D03*
X013427Y027998D03*
X013427Y027955D03*
X013427Y027912D03*
X013427Y027826D03*
X013427Y027783D03*
X012262Y026574D03*
X012262Y026531D03*
X012262Y026488D03*
X012262Y026445D03*
X012262Y026402D03*
X012262Y026316D03*
X012262Y026272D03*
X012262Y026229D03*
X011485Y026229D03*
X011485Y026272D03*
X011485Y026316D03*
X009802Y025711D03*
X010148Y024805D03*
X012391Y024633D03*
X013427Y025453D03*
X013427Y025539D03*
X013427Y025582D03*
X013427Y025625D03*
X013427Y025668D03*
X015369Y027308D03*
X015369Y027351D03*
X016146Y027092D03*
X016146Y027049D03*
X017181Y027610D03*
X017440Y027308D03*
X017440Y027222D03*
X017440Y027179D03*
X017440Y027135D03*
X017440Y026920D03*
X017570Y026790D03*
X017958Y027135D03*
X017958Y027179D03*
X017958Y026316D03*
X017958Y026272D03*
X016534Y026013D03*
X016534Y025970D03*
X020547Y025625D03*
X020547Y025582D03*
X020935Y025798D03*
X020935Y025323D03*
X022359Y025323D03*
X022359Y025366D03*
X022359Y025409D03*
X023913Y026402D03*
X023913Y026445D03*
X020806Y027826D03*
X020676Y027696D03*
X020547Y027437D03*
X020547Y027394D03*
X020547Y027351D03*
X020547Y027308D03*
X019382Y029854D03*
X019382Y029897D03*
X019382Y029983D03*
X019382Y030026D03*
X018993Y029681D03*
X018864Y029897D03*
X018864Y029983D03*
X018864Y030026D03*
X018864Y030070D03*
X018735Y030631D03*
X018735Y030674D03*
X019252Y031191D03*
X019252Y031235D03*
X019252Y031278D03*
X019252Y031321D03*
X019252Y031364D03*
X019252Y031407D03*
X019252Y031494D03*
X019252Y031537D03*
X019252Y031580D03*
X019252Y031623D03*
X019252Y031666D03*
X019252Y031752D03*
X019252Y031796D03*
X019252Y031839D03*
X018735Y032227D03*
X018735Y032270D03*
X018735Y032357D03*
X017958Y030933D03*
X017958Y030889D03*
X017958Y030803D03*
X017958Y030760D03*
X017958Y030717D03*
X017958Y030674D03*
X017828Y030501D03*
X017828Y030458D03*
X017828Y030415D03*
X017828Y030372D03*
X017828Y030328D03*
X017828Y030285D03*
X017828Y030199D03*
X017828Y030156D03*
X017828Y030113D03*
X017828Y030070D03*
X017828Y030026D03*
X017828Y029983D03*
X017828Y029897D03*
X017828Y029854D03*
X018346Y029768D03*
X018346Y029724D03*
X017052Y029983D03*
X017052Y030026D03*
X020676Y030026D03*
X020676Y029983D03*
X020676Y030070D03*
X015887Y035420D03*
X015887Y035463D03*
X015887Y035507D03*
X015110Y035550D03*
X015110Y035636D03*
X014333Y034730D03*
X014333Y034644D03*
X012003Y034730D03*
X011874Y034557D03*
X011874Y034514D03*
X011874Y034471D03*
X011744Y035161D03*
X011744Y035204D03*
X013039Y036844D03*
X013039Y036887D03*
X012909Y037017D03*
X014981Y037017D03*
X014981Y037060D03*
X015110Y036887D03*
X015110Y036844D03*
X015628Y037017D03*
X015628Y037060D03*
X016534Y038656D03*
X016534Y038700D03*
X016016Y039347D03*
X016016Y039390D03*
X015887Y039217D03*
X017440Y039347D03*
X017440Y039390D03*
X018217Y038829D03*
X018605Y039217D03*
X018605Y039261D03*
X018735Y039088D03*
X018864Y038959D03*
X010450Y028257D03*
X010450Y028214D03*
X010320Y028085D03*
X006696Y028128D03*
X006394Y028646D03*
X005272Y029120D03*
X003589Y027222D03*
X003589Y027179D03*
X003589Y027135D03*
X003589Y027092D03*
X003589Y027049D03*
X005574Y034212D03*
X010579Y022346D03*
X010579Y022303D03*
X010579Y022259D03*
X010450Y022130D03*
X010450Y022087D03*
X011097Y022259D03*
X011097Y022303D03*
X011831Y022432D03*
X009673Y019584D03*
X009673Y019498D03*
X009802Y018894D03*
X009802Y018851D03*
X009285Y018376D03*
X009285Y017470D03*
X009802Y017254D03*
X009802Y017211D03*
X009802Y017168D03*
X009802Y017081D03*
X009802Y017038D03*
X009802Y016995D03*
X009802Y016952D03*
X009802Y016909D03*
X009544Y015916D03*
X009544Y015873D03*
X010450Y015787D03*
X010450Y015744D03*
X010450Y015701D03*
X010579Y015916D03*
X010579Y016003D03*
X010579Y016046D03*
X011356Y016132D03*
X011356Y016175D03*
X011356Y016218D03*
X011485Y016391D03*
X011485Y016434D03*
X011485Y016477D03*
X011615Y016779D03*
X011615Y016866D03*
X011615Y016909D03*
X011615Y016952D03*
X011226Y018678D03*
X011226Y018721D03*
X011226Y018764D03*
X011226Y018807D03*
X012133Y018807D03*
X012133Y018764D03*
X012133Y018721D03*
X012133Y018851D03*
X012133Y018894D03*
X012650Y018894D03*
X012650Y018851D03*
X012650Y018807D03*
X012650Y018764D03*
X014074Y017081D03*
X014074Y017038D03*
X014981Y016477D03*
X014981Y016434D03*
X014981Y015701D03*
X015110Y015399D03*
X015110Y015312D03*
X015110Y015269D03*
X015110Y015226D03*
X015110Y015183D03*
X015110Y015140D03*
X015239Y014881D03*
X015239Y014838D03*
X015239Y014794D03*
X015239Y014708D03*
X015628Y015010D03*
X015628Y015528D03*
X015628Y015571D03*
X016404Y015744D03*
X016404Y015787D03*
X016146Y016391D03*
X016146Y016434D03*
X016146Y016477D03*
X016146Y016520D03*
X016146Y016607D03*
X016016Y016779D03*
X018864Y016434D03*
X019252Y016089D03*
X019252Y016046D03*
X020417Y016391D03*
X020417Y016434D03*
X020417Y016477D03*
X020806Y016650D03*
X020806Y016693D03*
X020806Y016736D03*
X020806Y016779D03*
X020806Y016866D03*
X020806Y016909D03*
X020806Y016952D03*
X020806Y016995D03*
X020806Y017038D03*
X020806Y017081D03*
X020935Y018376D03*
X020935Y018419D03*
X020935Y018721D03*
X020935Y018764D03*
X020935Y018807D03*
X020935Y018980D03*
X020935Y019023D03*
X020935Y019066D03*
X020935Y019109D03*
X020935Y019153D03*
X020935Y019196D03*
X020935Y019282D03*
X020935Y019325D03*
X020676Y019886D03*
X020676Y019929D03*
X020676Y019972D03*
X020676Y020016D03*
X020676Y020059D03*
X020676Y020145D03*
X020676Y020188D03*
X020676Y020231D03*
X020935Y020792D03*
X020935Y020835D03*
X020935Y020879D03*
X022359Y021353D03*
X020676Y023295D03*
X020676Y023338D03*
X020935Y023640D03*
X020935Y023727D03*
X023524Y018548D03*
X023524Y018505D03*
X023783Y018290D03*
X023783Y018246D03*
X023006Y016779D03*
X023006Y016736D03*
X023006Y016693D03*
X023006Y016650D03*
X022489Y016650D03*
X022489Y016693D03*
X022489Y016736D03*
X022489Y016779D03*
X022489Y016866D03*
X022489Y016909D03*
X022489Y016952D03*
X022489Y016995D03*
X022489Y017038D03*
X022489Y017081D03*
X022359Y015571D03*
X022359Y015528D03*
X022359Y015485D03*
X021841Y015442D03*
X021841Y015399D03*
X021841Y015312D03*
X021841Y015269D03*
X021971Y015140D03*
X021971Y015096D03*
X021453Y014536D03*
X021453Y014492D03*
X021324Y014018D03*
X021324Y013975D03*
X021324Y013931D03*
X022230Y013759D03*
X022230Y013716D03*
X022230Y013673D03*
X021971Y013112D03*
X021971Y013068D03*
X021971Y013025D03*
X021971Y012939D03*
X021971Y012896D03*
X021971Y012853D03*
X021971Y012810D03*
X021971Y012766D03*
X021971Y012723D03*
X021841Y012551D03*
X021841Y012507D03*
X021841Y012464D03*
X021841Y012421D03*
X022489Y012637D03*
X023136Y012766D03*
X023136Y012810D03*
X023136Y012853D03*
X023136Y012896D03*
X023136Y012939D03*
X023136Y013025D03*
X023136Y013068D03*
X023136Y013112D03*
X023136Y013155D03*
X023136Y013198D03*
X023136Y013241D03*
X023136Y013327D03*
X023913Y012853D03*
X023913Y012810D03*
X023913Y012766D03*
X023913Y012594D03*
X023913Y012551D03*
X023913Y012507D03*
X023913Y012464D03*
X023913Y012421D03*
X023913Y012335D03*
X023913Y012292D03*
X023913Y012249D03*
X023913Y012205D03*
X023913Y012162D03*
X023913Y012119D03*
X022359Y011515D03*
X022359Y011429D03*
X022359Y011386D03*
X022230Y011127D03*
X022230Y011084D03*
X022230Y011040D03*
X022230Y010997D03*
X022230Y010954D03*
X021582Y011213D03*
X021582Y011256D03*
X021582Y011299D03*
X021582Y011342D03*
X021582Y011386D03*
X021582Y011429D03*
X021582Y011515D03*
X021712Y011644D03*
X021712Y011903D03*
X021712Y011947D03*
X021194Y012507D03*
X021194Y012551D03*
X020417Y011903D03*
X020417Y011860D03*
X020417Y011817D03*
X020417Y011731D03*
X020417Y011688D03*
X020417Y011644D03*
X020417Y011601D03*
X020417Y011558D03*
X020417Y011515D03*
X020029Y011299D03*
X020029Y011256D03*
X020029Y011213D03*
X019123Y012292D03*
X019123Y012335D03*
X019123Y012421D03*
X018476Y014104D03*
X019511Y014708D03*
X019511Y014794D03*
X019123Y017685D03*
X019123Y017772D03*
X019123Y017815D03*
X019123Y017858D03*
X019123Y017901D03*
X018993Y018074D03*
X018993Y018117D03*
X018993Y018160D03*
X023006Y015269D03*
X023006Y015226D03*
X018346Y010738D03*
X018346Y010695D03*
X018346Y009832D03*
X018346Y009789D03*
X018605Y008710D03*
X018605Y008667D03*
X018605Y008624D03*
X018864Y008322D03*
X018864Y008279D03*
X018864Y008236D03*
X018993Y008063D03*
X018993Y008020D03*
X018993Y007977D03*
X019123Y007804D03*
X021194Y007804D03*
X016534Y010177D03*
X016534Y010221D03*
X016534Y010264D03*
X016534Y010350D03*
X016534Y010393D03*
X016016Y010393D03*
X016016Y010350D03*
X014851Y011386D03*
X015369Y011817D03*
X014851Y012119D03*
X014851Y012162D03*
X016146Y012810D03*
X016146Y012853D03*
X016534Y013198D03*
X014463Y009832D03*
X016146Y008969D03*
X016146Y008926D03*
X016146Y008883D03*
X016146Y008840D03*
X016146Y008753D03*
X016275Y007804D03*
X012133Y010695D03*
X012133Y010738D03*
X012133Y010781D03*
X012133Y010825D03*
X012133Y010911D03*
X012133Y010954D03*
X012133Y010997D03*
X012133Y011040D03*
X012133Y011084D03*
X012133Y011127D03*
X012003Y011386D03*
X012003Y011429D03*
X011744Y011990D03*
X011744Y012033D03*
X011744Y012119D03*
X011744Y012162D03*
X011615Y012292D03*
X011615Y012335D03*
X011615Y012421D03*
X011485Y012723D03*
X011485Y012766D03*
X011485Y012810D03*
X011485Y012853D03*
X011485Y012896D03*
X011485Y012939D03*
X011356Y013155D03*
X011356Y013198D03*
X011356Y013241D03*
X011356Y013327D03*
X011356Y013370D03*
X011097Y012292D03*
X011097Y012249D03*
X011097Y012205D03*
X011097Y012162D03*
X011097Y012119D03*
X011097Y012033D03*
X011097Y011990D03*
X011097Y011947D03*
X011097Y011903D03*
X011097Y011644D03*
X010579Y011644D03*
X010450Y011817D03*
X010450Y011860D03*
X010450Y011903D03*
X010450Y011947D03*
X010450Y011990D03*
X010450Y012033D03*
X010320Y012421D03*
X010320Y012464D03*
X009673Y012507D03*
X009673Y012551D03*
X010061Y013414D03*
X010061Y013457D03*
X010061Y013500D03*
X009673Y013931D03*
X009673Y013975D03*
X009673Y014018D03*
X010320Y014104D03*
X008767Y013370D03*
X008767Y013327D03*
X008637Y013068D03*
X008508Y012810D03*
X008379Y012637D03*
X008379Y012594D03*
X008379Y012551D03*
X008379Y012507D03*
X008249Y012335D03*
X008249Y012292D03*
X008249Y012249D03*
X008249Y012205D03*
X008249Y012162D03*
X008120Y012033D03*
X008120Y011990D03*
X008120Y011947D03*
X008120Y011903D03*
X007602Y012162D03*
X007602Y012205D03*
X007602Y012249D03*
X007602Y012292D03*
X007472Y012033D03*
X007472Y011990D03*
X007472Y011947D03*
X007472Y011903D03*
X008120Y012939D03*
X008120Y013025D03*
X008120Y013068D03*
X008249Y013198D03*
X008249Y013241D03*
X008249Y013327D03*
X008379Y013673D03*
X008379Y013716D03*
X008379Y013759D03*
X009026Y011688D03*
X009026Y011644D03*
X009026Y011127D03*
X009026Y011084D03*
X009026Y011040D03*
X009026Y010997D03*
X009026Y010954D03*
X009026Y010911D03*
X009026Y010825D03*
X009155Y010652D03*
X009155Y010566D03*
X008637Y009962D03*
X008767Y009832D03*
X008379Y010436D03*
X008379Y010479D03*
X009932Y010566D03*
X009932Y010652D03*
X009932Y010695D03*
X009932Y010738D03*
X009932Y010781D03*
X009932Y010825D03*
X009932Y010911D03*
X009932Y010954D03*
X009932Y010997D03*
X009802Y011127D03*
X009802Y011213D03*
X009802Y011256D03*
X009802Y011299D03*
X009673Y011515D03*
X009673Y011558D03*
X010450Y010911D03*
X010450Y010825D03*
X010450Y010781D03*
X010450Y010738D03*
X011356Y009444D03*
X011356Y009358D03*
X011356Y009314D03*
X011356Y009271D03*
X011356Y009228D03*
X011356Y009185D03*
X011356Y009142D03*
X009802Y008451D03*
X009802Y008408D03*
X008637Y016003D03*
X008637Y016046D03*
X008249Y019929D03*
X008249Y019972D03*
X008637Y020275D03*
X008637Y020318D03*
X008767Y020447D03*
X008767Y020490D03*
D13*
X011162Y027524D03*
X019188Y027308D03*
X020094Y021526D03*
X020094Y021483D03*
X020094Y021440D03*
X019705Y020188D03*
X017116Y013500D03*
X017116Y013457D03*
X017116Y013414D03*
X017116Y012810D03*
X017116Y012766D03*
X016469Y011817D03*
X016210Y011127D03*
X016210Y011084D03*
X014398Y010350D03*
X016210Y008149D03*
X016210Y008106D03*
X017246Y007804D03*
X023071Y009142D03*
X023071Y009185D03*
X023071Y009271D03*
X023071Y009314D03*
X011032Y011213D03*
X011032Y011256D03*
X011032Y011299D03*
X022165Y037233D03*
X022165Y037276D03*
X022165Y037319D03*
X016858Y039217D03*
X013621Y039217D03*
D14*
X014786Y039347D03*
X014010Y037923D03*
X014010Y037880D03*
X013492Y037621D03*
X012845Y037146D03*
X013233Y036154D03*
X013233Y036111D03*
X012586Y036111D03*
X012586Y036067D03*
X012068Y035765D03*
X012068Y035722D03*
X012068Y035679D03*
X011680Y035334D03*
X011550Y036240D03*
X011680Y034298D03*
X012974Y031666D03*
X012715Y030976D03*
X012715Y030933D03*
X012715Y030889D03*
X012715Y030803D03*
X013233Y030803D03*
X013233Y030760D03*
X013233Y030717D03*
X013233Y030674D03*
X013233Y030631D03*
X013233Y030587D03*
X013362Y030415D03*
X013233Y030889D03*
X013233Y030933D03*
X013233Y030976D03*
X013621Y030976D03*
X013621Y030933D03*
X014010Y031321D03*
X014010Y031364D03*
X014010Y031407D03*
X014527Y031364D03*
X014527Y031321D03*
X014527Y031278D03*
X014527Y031235D03*
X014527Y031191D03*
X015175Y032357D03*
X015175Y032400D03*
X014527Y033004D03*
X014657Y033133D03*
X014657Y033176D03*
X016081Y032874D03*
X016081Y032831D03*
X016469Y033090D03*
X016469Y033133D03*
X016469Y033176D03*
X016340Y033349D03*
X016340Y033392D03*
X016340Y033435D03*
X016340Y033478D03*
X016340Y033565D03*
X017375Y034946D03*
X017375Y035032D03*
X017375Y035075D03*
X017375Y035118D03*
X017246Y035334D03*
X017246Y035377D03*
X018023Y035636D03*
X018152Y035463D03*
X018152Y035420D03*
X018411Y035118D03*
X018411Y035075D03*
X016210Y035938D03*
X016210Y035981D03*
X015563Y036844D03*
X015563Y036887D03*
X015563Y036930D03*
X016599Y038311D03*
X016599Y038354D03*
X016987Y038829D03*
X016987Y038915D03*
X016987Y038959D03*
X017116Y039088D03*
X017116Y039131D03*
X018152Y039131D03*
X018152Y039088D03*
X018152Y039045D03*
X018152Y039002D03*
X018152Y038959D03*
X018152Y038915D03*
X018281Y038743D03*
X018281Y038700D03*
X018540Y038441D03*
X018670Y038311D03*
X018670Y038225D03*
X018670Y038182D03*
X018152Y039217D03*
X018152Y039261D03*
X021777Y038829D03*
X021777Y038786D03*
X022036Y038182D03*
X022036Y038139D03*
X022424Y039217D03*
X022424Y039261D03*
X023977Y038700D03*
X023977Y038656D03*
X023460Y037621D03*
X018670Y032141D03*
X018670Y032098D03*
X018540Y031968D03*
X018540Y031925D03*
X018540Y031882D03*
X018540Y031839D03*
X017893Y031191D03*
X017893Y031105D03*
X017893Y031062D03*
X017893Y031019D03*
X018411Y029897D03*
X018411Y029854D03*
X018929Y029552D03*
X019317Y030113D03*
X019317Y030156D03*
X019317Y030199D03*
X019317Y030285D03*
X019317Y030328D03*
X020612Y027610D03*
X020612Y027524D03*
X018670Y025409D03*
X018670Y025366D03*
X018670Y025323D03*
X018023Y026100D03*
X018023Y026143D03*
X018023Y026186D03*
X017634Y026704D03*
X018023Y026920D03*
X017893Y027308D03*
X016340Y026316D03*
X016340Y026272D03*
X015434Y027179D03*
X015434Y027222D03*
X015175Y027610D03*
X014657Y028991D03*
X015304Y029854D03*
X015304Y029897D03*
X015822Y029983D03*
X015822Y030026D03*
X015822Y030070D03*
X015822Y030113D03*
X015822Y030156D03*
X015822Y030199D03*
X015822Y030285D03*
X015822Y030328D03*
X015822Y030372D03*
X015822Y030415D03*
X012974Y028861D03*
X012974Y028818D03*
X012197Y028818D03*
X012197Y028861D03*
X012197Y028905D03*
X012197Y028948D03*
X012197Y028991D03*
X011032Y029768D03*
X011032Y029811D03*
X011032Y029854D03*
X011032Y029897D03*
X011032Y029983D03*
X011032Y030026D03*
X011032Y030070D03*
X010644Y030070D03*
X010644Y030026D03*
X010256Y027998D03*
X010256Y027955D03*
X010126Y026574D03*
X010126Y026531D03*
X010126Y026488D03*
X010514Y026531D03*
X010514Y026574D03*
X009738Y025884D03*
X009738Y025841D03*
X011938Y025366D03*
X011938Y025323D03*
X012068Y024978D03*
X011809Y024719D03*
X011809Y024676D03*
X012456Y024331D03*
X012715Y025711D03*
X012456Y026013D03*
X012715Y027308D03*
X012715Y027351D03*
X013233Y027351D03*
X013233Y027308D03*
X014010Y026618D03*
X014010Y026574D03*
X014010Y026531D03*
X016987Y025150D03*
X019576Y022173D03*
X019576Y022130D03*
X019576Y021742D03*
X019576Y021698D03*
X019533Y020749D03*
X020223Y020749D03*
X020223Y020663D03*
X020223Y023166D03*
X020223Y023209D03*
X023201Y020620D03*
X023201Y020577D03*
X023201Y020533D03*
X023460Y019843D03*
X023460Y019757D03*
X023589Y019066D03*
X023589Y019023D03*
X023589Y018980D03*
X023589Y018894D03*
X023589Y018851D03*
X023589Y018807D03*
X023589Y018764D03*
X023589Y018721D03*
X023589Y018419D03*
X023589Y018376D03*
X023201Y018764D03*
X023201Y018807D03*
X023071Y018980D03*
X023071Y019023D03*
X022942Y019153D03*
X022942Y019196D03*
X022424Y017513D03*
X022424Y017470D03*
X023201Y016520D03*
X023460Y015269D03*
X023460Y015226D03*
X021259Y014924D03*
X021259Y014881D03*
X019964Y016175D03*
X019964Y016218D03*
X020353Y016650D03*
X020353Y016693D03*
X020871Y016477D03*
X020871Y016434D03*
X020871Y016391D03*
X019317Y015916D03*
X019317Y015873D03*
X019317Y015830D03*
X019317Y015787D03*
X019317Y015744D03*
X019317Y015701D03*
X019317Y015614D03*
X018281Y013975D03*
X018281Y013931D03*
X018023Y012853D03*
X018023Y012810D03*
X018023Y012766D03*
X018152Y011731D03*
X018152Y011688D03*
X018152Y011644D03*
X018152Y011601D03*
X018152Y011429D03*
X018152Y011386D03*
X018152Y011342D03*
X018281Y010825D03*
X019058Y010911D03*
X019058Y010954D03*
X019058Y010997D03*
X019058Y011040D03*
X019058Y011084D03*
X019058Y011127D03*
X019447Y011127D03*
X019964Y011515D03*
X019964Y011558D03*
X019964Y011601D03*
X019964Y011644D03*
X019964Y011688D03*
X019964Y011731D03*
X019964Y011817D03*
X019964Y011860D03*
X019964Y011903D03*
X019964Y011947D03*
X020482Y011299D03*
X020482Y011256D03*
X020482Y011213D03*
X021647Y010911D03*
X021906Y010523D03*
X021906Y010479D03*
X021906Y010436D03*
X021906Y010393D03*
X021906Y010350D03*
X021906Y010264D03*
X021906Y010221D03*
X021906Y010177D03*
X021906Y010134D03*
X021906Y010091D03*
X022294Y010350D03*
X022294Y010393D03*
X022294Y010436D03*
X022294Y010479D03*
X022294Y010523D03*
X022294Y011213D03*
X022294Y011256D03*
X022294Y011299D03*
X021777Y011731D03*
X021777Y011817D03*
X022294Y009444D03*
X023848Y008840D03*
X021129Y007847D03*
X020094Y008408D03*
X020094Y008451D03*
X019964Y008624D03*
X019964Y008667D03*
X019964Y008710D03*
X019964Y008753D03*
X019964Y008840D03*
X019964Y008883D03*
X019964Y008926D03*
X019964Y008969D03*
X018152Y008710D03*
X018152Y008667D03*
X018152Y008624D03*
X018152Y008149D03*
X018152Y008106D03*
X018152Y008063D03*
X018152Y008020D03*
X018152Y007977D03*
X018152Y007934D03*
X018152Y007847D03*
X018152Y007804D03*
X015175Y008926D03*
X015175Y008969D03*
X014527Y009746D03*
X014398Y009918D03*
X014398Y009962D03*
X015692Y011601D03*
X015692Y011644D03*
X016210Y012119D03*
X016210Y012162D03*
X016210Y012205D03*
X016210Y012249D03*
X016210Y012292D03*
X016081Y012723D03*
X015045Y012551D03*
X014873Y012723D03*
X014786Y012810D03*
X015692Y014708D03*
X015692Y014794D03*
X015692Y014838D03*
X015692Y014881D03*
X015692Y014924D03*
X015563Y015096D03*
X015563Y015140D03*
X015563Y015183D03*
X015563Y015226D03*
X015563Y015269D03*
X015563Y015312D03*
X015563Y015399D03*
X015563Y015442D03*
X015175Y015010D03*
X015175Y014967D03*
X015045Y015485D03*
X015045Y015528D03*
X015045Y015571D03*
X015045Y016305D03*
X015045Y016348D03*
X015563Y016175D03*
X015563Y016132D03*
X016340Y015916D03*
X016340Y015873D03*
X014916Y017168D03*
X014916Y017211D03*
X014010Y017211D03*
X014010Y017168D03*
X012586Y018980D03*
X012586Y019023D03*
X012197Y019023D03*
X012197Y018980D03*
X012197Y019066D03*
X010514Y020447D03*
X010514Y020490D03*
X010514Y020533D03*
X010514Y020577D03*
X010644Y021051D03*
X010644Y021094D03*
X008961Y019455D03*
X008961Y019411D03*
X009220Y019023D03*
X009220Y018980D03*
X009220Y018894D03*
X009220Y018851D03*
X009220Y018807D03*
X009220Y018764D03*
X009220Y018721D03*
X009220Y018678D03*
X009220Y018592D03*
X009220Y018548D03*
X009220Y018505D03*
X009220Y018462D03*
X009220Y018246D03*
X009220Y017642D03*
X009220Y017599D03*
X008961Y017211D03*
X008961Y017168D03*
X008961Y017081D03*
X008961Y017038D03*
X008961Y016995D03*
X008961Y016952D03*
X008961Y016909D03*
X008961Y016866D03*
X008745Y015485D03*
X009608Y015571D03*
X008702Y014363D03*
X008702Y013241D03*
X008702Y013198D03*
X008702Y013155D03*
X008573Y012939D03*
X008573Y012896D03*
X007408Y011817D03*
X007408Y011731D03*
X007408Y011688D03*
X007408Y011644D03*
X007408Y011601D03*
X008961Y011558D03*
X008961Y011515D03*
X008961Y011429D03*
X008961Y011386D03*
X008961Y011342D03*
X008961Y011299D03*
X008961Y011256D03*
X008961Y011213D03*
X010385Y012119D03*
X010385Y012162D03*
X010385Y012205D03*
X010385Y012249D03*
X010385Y012292D03*
X010385Y012335D03*
X011032Y012421D03*
X011032Y012464D03*
X011550Y012507D03*
X011550Y012551D03*
X011550Y012594D03*
X011550Y011903D03*
X011550Y011860D03*
X011550Y011429D03*
X011550Y011386D03*
X011550Y011342D03*
X011162Y011515D03*
X011162Y011558D03*
X011032Y011731D03*
X011032Y011817D03*
X010514Y011558D03*
X010514Y011515D03*
X012068Y011299D03*
X012068Y011256D03*
X012068Y011213D03*
X011291Y009875D03*
X011291Y009832D03*
X011291Y009789D03*
X011291Y009746D03*
X011291Y009660D03*
X011291Y009616D03*
X011291Y009573D03*
X011291Y009530D03*
X011938Y009487D03*
X011938Y009444D03*
X010514Y008451D03*
X010514Y008408D03*
X010514Y008365D03*
X010514Y008322D03*
X010514Y008279D03*
X010385Y009444D03*
X010385Y009487D03*
X010385Y009530D03*
X010385Y009573D03*
X010385Y009616D03*
X008832Y009746D03*
X010644Y013327D03*
X010644Y013370D03*
X010256Y013975D03*
X010256Y014018D03*
X011809Y015528D03*
X008702Y019886D03*
X008702Y019929D03*
X008702Y019972D03*
X006717Y028042D03*
X005034Y031537D03*
X005034Y031580D03*
X005034Y031623D03*
X005034Y031666D03*
X005078Y032141D03*
X005078Y032184D03*
X005078Y032227D03*
X005078Y032270D03*
X005466Y032270D03*
X005466Y032227D03*
X005466Y032184D03*
X005466Y032141D03*
X005164Y033047D03*
X005164Y033090D03*
X005164Y033133D03*
X005164Y033176D03*
X005207Y033263D03*
X005595Y033996D03*
X005639Y034039D03*
X005639Y034083D03*
X005121Y034644D03*
X005336Y034946D03*
X005336Y035032D03*
X005336Y035075D03*
X005725Y035075D03*
X005725Y035032D03*
X005725Y034946D03*
X005639Y034730D03*
X016987Y020361D03*
X023589Y025107D03*
X023589Y025150D03*
X023589Y025453D03*
X023330Y030501D03*
X023330Y030587D03*
X023848Y031796D03*
X023848Y031839D03*
X023848Y031882D03*
X019058Y012594D03*
X019058Y012551D03*
X019058Y012507D03*
X019188Y012205D03*
X019188Y012162D03*
X019188Y012119D03*
X019188Y012033D03*
X019188Y011990D03*
X019188Y011947D03*
X019188Y011903D03*
X019188Y011860D03*
X018799Y011860D03*
X018799Y011903D03*
X018799Y011947D03*
D15*
X019705Y007934D03*
X019705Y007847D03*
X019705Y007804D03*
X022683Y008883D03*
X022683Y008926D03*
X022812Y010738D03*
X022812Y010781D03*
X022812Y010825D03*
X022812Y010911D03*
X022812Y010954D03*
X022812Y010997D03*
X022812Y011040D03*
X022812Y011084D03*
X022812Y011127D03*
X022812Y011213D03*
X022812Y011256D03*
X022812Y011299D03*
X022812Y011342D03*
X022812Y011386D03*
X022812Y011429D03*
X022812Y011515D03*
X022812Y011558D03*
X022683Y013155D03*
X022683Y013198D03*
X022683Y013241D03*
X022683Y013327D03*
X022683Y013370D03*
X022683Y017685D03*
X022683Y017772D03*
X016858Y016348D03*
X016858Y016305D03*
X010903Y021785D03*
X013880Y026402D03*
X010903Y026704D03*
X010903Y026747D03*
X010903Y026790D03*
X010903Y026833D03*
X010773Y027653D03*
X010773Y027696D03*
X010903Y030803D03*
X013880Y031580D03*
X013880Y031623D03*
X013880Y031666D03*
X013880Y031752D03*
X013880Y031796D03*
X013880Y031839D03*
X013880Y031882D03*
X016728Y032874D03*
X016858Y033910D03*
X016858Y033953D03*
X016858Y030285D03*
X016858Y030199D03*
X016858Y030156D03*
X019705Y023856D03*
X019705Y023813D03*
X019705Y023770D03*
X004991Y031019D03*
X004775Y032357D03*
X004775Y032486D03*
X004948Y034514D03*
X004948Y034902D03*
X004948Y035075D03*
X010903Y008710D03*
X010903Y008667D03*
X010903Y008624D03*
X010903Y008581D03*
X010903Y008538D03*
D16*
X011938Y009530D03*
X016340Y012507D03*
X020482Y007804D03*
X022467Y015830D03*
X022467Y015873D03*
X022467Y015916D03*
X022467Y016003D03*
X022467Y016046D03*
X022467Y016089D03*
X020957Y018462D03*
X022467Y019109D03*
X022467Y019153D03*
X022467Y019196D03*
X022338Y021396D03*
X022467Y022864D03*
X022467Y022907D03*
X022467Y022950D03*
X023977Y024115D03*
X023977Y025711D03*
X020957Y025366D03*
X019490Y020663D03*
X018411Y018807D03*
X014786Y018807D03*
X009091Y017944D03*
X008788Y015571D03*
X008659Y014320D03*
X010169Y024848D03*
X006415Y028602D03*
X005293Y027394D03*
X005293Y027351D03*
X005293Y027308D03*
X005293Y027222D03*
X005293Y027179D03*
X005293Y027135D03*
X005293Y027092D03*
X005293Y027049D03*
X004430Y027092D03*
X004430Y027135D03*
X004430Y027179D03*
X004430Y027222D03*
X004430Y027308D03*
X004430Y027351D03*
X003999Y027955D03*
X003610Y027437D03*
X003610Y027394D03*
X003567Y027351D03*
X003567Y027308D03*
X003610Y030587D03*
X005207Y032529D03*
X015434Y038527D03*
X018799Y033565D03*
X016340Y030070D03*
X023460Y037578D03*
X023977Y031407D03*
X023977Y029983D03*
D17*
X022445Y027437D03*
X022445Y027351D03*
X022575Y025237D03*
X022575Y024978D03*
X022575Y024935D03*
X022575Y024503D03*
X022575Y024460D03*
X022575Y024417D03*
X022575Y023727D03*
X022575Y023640D03*
X019943Y023597D03*
X017009Y026229D03*
X016965Y026316D03*
X017009Y028042D03*
X016836Y029293D03*
X010924Y030199D03*
X010881Y030113D03*
X010665Y027092D03*
X010665Y024503D03*
X011140Y020749D03*
X016491Y009487D03*
X022445Y014190D03*
X022402Y014277D03*
X022575Y018721D03*
X022575Y020275D03*
X022575Y020318D03*
X023093Y008451D03*
X023050Y008365D03*
X022920Y008106D03*
X022834Y007934D03*
X022791Y007847D03*
X022704Y007804D03*
X005099Y031882D03*
X005142Y034471D03*
X005229Y035377D03*
X011011Y035248D03*
X011054Y035161D03*
X013600Y037448D03*
X016620Y035507D03*
X016577Y035420D03*
X016750Y039390D03*
X022834Y037837D03*
X022920Y038009D03*
X022963Y038225D03*
X022791Y037621D03*
D18*
X023460Y037535D03*
X023460Y037491D03*
X021906Y037707D03*
X021906Y039217D03*
X021906Y039261D03*
X021906Y039304D03*
X021906Y039347D03*
X021906Y039390D03*
X018799Y036413D03*
X018799Y036370D03*
X018281Y035204D03*
X018281Y035161D03*
X017375Y035722D03*
X016081Y035852D03*
X015951Y035722D03*
X015951Y035679D03*
X015951Y035636D03*
X015951Y034557D03*
X015951Y034514D03*
X015175Y034514D03*
X015175Y034471D03*
X015175Y034557D03*
X015175Y034600D03*
X015175Y034385D03*
X014527Y034212D03*
X014527Y034169D03*
X014527Y034083D03*
X014527Y034039D03*
X014398Y033781D03*
X014916Y033392D03*
X015434Y032874D03*
X014398Y031839D03*
X013492Y032874D03*
X013492Y032961D03*
X013492Y033004D03*
X013492Y033047D03*
X013492Y033090D03*
X013492Y033133D03*
X013492Y033176D03*
X013492Y033263D03*
X013492Y033306D03*
X013492Y033349D03*
X013492Y033392D03*
X013362Y032227D03*
X013362Y032184D03*
X013362Y032141D03*
X013362Y032098D03*
X013233Y031968D03*
X013362Y031321D03*
X013362Y031278D03*
X011291Y030674D03*
X011550Y028516D03*
X011550Y028430D03*
X011550Y028387D03*
X011550Y028344D03*
X011550Y028300D03*
X012197Y028430D03*
X012197Y028516D03*
X012197Y028559D03*
X012197Y028602D03*
X012197Y028646D03*
X012586Y027955D03*
X012586Y027912D03*
X012586Y027826D03*
X012715Y027696D03*
X012715Y027653D03*
X012845Y027179D03*
X012845Y027135D03*
X012845Y027092D03*
X012845Y027049D03*
X012845Y027006D03*
X013362Y027696D03*
X013362Y028085D03*
X013362Y028128D03*
X013362Y028214D03*
X013233Y028344D03*
X013233Y028387D03*
X013233Y028430D03*
X013103Y028602D03*
X013103Y028646D03*
X014916Y029250D03*
X015045Y029379D03*
X015045Y029422D03*
X015822Y029120D03*
X015951Y028991D03*
X015951Y028948D03*
X015951Y028905D03*
X015951Y028861D03*
X015951Y028344D03*
X015951Y028300D03*
X016340Y029983D03*
X016340Y030026D03*
X018670Y030285D03*
X018670Y030328D03*
X018799Y030156D03*
X019317Y030674D03*
X019317Y030717D03*
X019317Y030760D03*
X019317Y030803D03*
X019317Y030889D03*
X019317Y030933D03*
X019317Y030976D03*
X019317Y031019D03*
X019317Y031062D03*
X023330Y031062D03*
X023330Y031019D03*
X023330Y031105D03*
X023416Y032572D03*
X023460Y029422D03*
X023460Y029379D03*
X018411Y026790D03*
X018411Y026747D03*
X017505Y025453D03*
X016340Y025150D03*
X013492Y024201D03*
X013492Y024158D03*
X013492Y024115D03*
X013492Y024072D03*
X012715Y025064D03*
X012715Y025107D03*
X012715Y025150D03*
X013362Y025798D03*
X013103Y026488D03*
X013103Y026531D03*
X010256Y026445D03*
X010256Y026402D03*
X009867Y025625D03*
X009867Y025582D03*
X010212Y024935D03*
X006631Y028214D03*
X005682Y029595D03*
X004430Y027437D03*
X004430Y027394D03*
X004430Y027049D03*
X003654Y027524D03*
X003136Y029811D03*
X003136Y030070D03*
X003179Y030113D03*
X005250Y032443D03*
X011680Y036111D03*
X012456Y035507D03*
X012456Y035463D03*
X012456Y035420D03*
X012715Y035204D03*
X012715Y035161D03*
X013233Y036240D03*
X013233Y036283D03*
X012845Y036456D03*
X014139Y037793D03*
X015434Y038613D03*
X014269Y034859D03*
X014269Y034816D03*
X014398Y034557D03*
X014398Y034514D03*
X020741Y024374D03*
X020741Y024331D03*
X020871Y023209D03*
X020871Y023166D03*
X020871Y023122D03*
X020482Y022820D03*
X020223Y022130D03*
X020223Y022087D03*
X020223Y022044D03*
X020223Y022001D03*
X020353Y021871D03*
X020353Y021828D03*
X020353Y021785D03*
X020353Y021742D03*
X020482Y021569D03*
X020612Y021353D03*
X020741Y021224D03*
X020741Y021181D03*
X020871Y020965D03*
X020612Y019757D03*
X022424Y019368D03*
X023460Y018678D03*
X022424Y015701D03*
X022036Y015010D03*
X022036Y014967D03*
X021388Y014967D03*
X021388Y015010D03*
X019447Y014924D03*
X019447Y014881D03*
X017505Y014018D03*
X017505Y013975D03*
X017505Y013931D03*
X016340Y012594D03*
X016340Y012551D03*
X017634Y011817D03*
X017634Y011731D03*
X018670Y012033D03*
X019188Y011429D03*
X019188Y011386D03*
X019188Y011342D03*
X018411Y010566D03*
X017634Y010566D03*
X017634Y010652D03*
X015951Y010221D03*
X015951Y010177D03*
X015822Y009746D03*
X015692Y009573D03*
X015563Y009444D03*
X015692Y007847D03*
X017634Y008106D03*
X017634Y008149D03*
X017634Y008236D03*
X017634Y008279D03*
X017634Y008322D03*
X018670Y008538D03*
X018799Y008408D03*
X018929Y008149D03*
X019447Y008667D03*
X019317Y008840D03*
X021518Y010954D03*
X021518Y010997D03*
X021518Y011040D03*
X021518Y011084D03*
X021518Y011127D03*
X022165Y010825D03*
X022165Y010781D03*
X022165Y010738D03*
X022165Y010695D03*
X023589Y010393D03*
X023589Y010350D03*
X023848Y011084D03*
X023848Y011127D03*
X023848Y011213D03*
X023848Y011256D03*
X023848Y011299D03*
X023848Y011342D03*
X023848Y011386D03*
X023848Y011429D03*
X023201Y011990D03*
X023201Y012033D03*
X023201Y012119D03*
X023201Y012162D03*
X023201Y012205D03*
X023201Y012249D03*
X023201Y012292D03*
X023201Y012335D03*
X023201Y012421D03*
X023201Y012464D03*
X023201Y012507D03*
X023201Y012551D03*
X023201Y012594D03*
X023201Y012637D03*
X021259Y012421D03*
X016210Y016305D03*
X016081Y016693D03*
X015563Y015830D03*
X015563Y015787D03*
X015563Y015744D03*
X015563Y015701D03*
X014916Y015787D03*
X014916Y015830D03*
X014527Y016305D03*
X014398Y016434D03*
X014269Y016607D03*
X014139Y016779D03*
X014139Y016866D03*
X014139Y016909D03*
X014139Y016952D03*
X014916Y016736D03*
X014916Y016693D03*
X014916Y016650D03*
X014916Y016607D03*
X014786Y018721D03*
X014786Y018764D03*
X012327Y019109D03*
X012327Y019153D03*
X012327Y019196D03*
X011291Y019196D03*
X011291Y019153D03*
X011291Y019109D03*
X011291Y019282D03*
X011291Y019325D03*
X011291Y019368D03*
X011291Y019411D03*
X011291Y019455D03*
X011291Y019498D03*
X011291Y019584D03*
X011291Y019627D03*
X011291Y019670D03*
X011291Y019714D03*
X011162Y020447D03*
X011162Y020490D03*
X009608Y020792D03*
X009608Y020835D03*
X009608Y020879D03*
X009867Y018764D03*
X009867Y018721D03*
X009867Y018678D03*
X009867Y018592D03*
X009867Y017383D03*
X009867Y017340D03*
X009738Y016779D03*
X009738Y016736D03*
X009738Y016693D03*
X009738Y016650D03*
X009738Y016607D03*
X009738Y016520D03*
X009738Y016477D03*
X009738Y016434D03*
X009738Y016391D03*
X009220Y017340D03*
X008702Y015916D03*
X008616Y014277D03*
X009091Y013975D03*
X009091Y013931D03*
X009867Y013716D03*
X010126Y013327D03*
X009608Y012421D03*
X009608Y011644D03*
X009738Y011386D03*
X009091Y010738D03*
X008314Y012421D03*
X011162Y014061D03*
X011162Y014104D03*
X011421Y013068D03*
X011291Y015744D03*
X011291Y015787D03*
X011291Y015830D03*
X011291Y015873D03*
X011291Y015916D03*
X011291Y016003D03*
X011291Y016046D03*
X011421Y016305D03*
X011809Y017038D03*
X011809Y017081D03*
X014657Y013888D03*
X014657Y013802D03*
X011938Y010134D03*
X011938Y010091D03*
X011938Y010048D03*
X011938Y009962D03*
X011938Y009918D03*
X011938Y009875D03*
X011938Y009832D03*
X011938Y009789D03*
X011938Y009746D03*
X011938Y009660D03*
X011938Y009616D03*
X011938Y009573D03*
X010385Y008581D03*
X010385Y008538D03*
X009738Y008538D03*
X009738Y008581D03*
X019058Y017988D03*
X018929Y018246D03*
X018929Y018290D03*
D19*
X020094Y017383D03*
X020094Y017340D03*
X020094Y017297D03*
X020094Y015010D03*
X020094Y014967D03*
X017246Y012637D03*
X017116Y015399D03*
X017116Y015442D03*
X017116Y015485D03*
X017116Y015528D03*
X017116Y015571D03*
X019317Y020059D03*
X020223Y020275D03*
X020223Y020318D03*
X020223Y020361D03*
X020223Y020447D03*
X020223Y020490D03*
X019964Y026747D03*
X019964Y026790D03*
X019964Y026833D03*
X017505Y028430D03*
X013880Y035463D03*
X013880Y035507D03*
X021906Y037146D03*
X021906Y037189D03*
X004991Y030113D03*
X004430Y027783D03*
X016987Y007934D03*
X016987Y007847D03*
D20*
X015714Y007934D03*
X015585Y009487D03*
X015671Y009530D03*
X015714Y009616D03*
X015800Y009660D03*
X015973Y010264D03*
X015196Y010652D03*
X015153Y010566D03*
X018389Y010652D03*
X018691Y011990D03*
X021237Y012464D03*
X022143Y013543D03*
X022187Y013629D03*
X023179Y012723D03*
X023956Y012723D03*
X023956Y012637D03*
X023956Y012896D03*
X023956Y012939D03*
X023956Y013025D03*
X023956Y013068D03*
X023956Y013112D03*
X023956Y012033D03*
X023956Y011990D03*
X023956Y011947D03*
X023956Y011903D03*
X023956Y011860D03*
X022187Y010911D03*
X019425Y008710D03*
X019468Y008624D03*
X019339Y008753D03*
X018778Y008451D03*
X018821Y008365D03*
X018648Y008581D03*
X018950Y008106D03*
X019037Y007934D03*
X019080Y007847D03*
X023956Y014492D03*
X023956Y014536D03*
X023956Y015096D03*
X023956Y015140D03*
X023956Y015183D03*
X023956Y015226D03*
X023956Y015269D03*
X023956Y015312D03*
X023956Y015399D03*
X023956Y015442D03*
X023956Y015485D03*
X023956Y015528D03*
X023956Y015571D03*
X023956Y015614D03*
X023956Y015701D03*
X023956Y015744D03*
X023956Y015787D03*
X023956Y015830D03*
X023956Y015873D03*
X023956Y015916D03*
X023956Y016003D03*
X023956Y016046D03*
X023956Y016089D03*
X023956Y016132D03*
X023956Y016175D03*
X023956Y016218D03*
X023956Y016305D03*
X023956Y016348D03*
X023956Y016391D03*
X023956Y016434D03*
X023956Y016477D03*
X023956Y016520D03*
X023956Y016607D03*
X023956Y016650D03*
X023956Y016693D03*
X023956Y016736D03*
X023956Y016779D03*
X023956Y016866D03*
X023481Y018592D03*
X022445Y019282D03*
X022445Y019325D03*
X020978Y018548D03*
X020978Y018505D03*
X020633Y019843D03*
X020892Y020922D03*
X020719Y021267D03*
X020590Y021396D03*
X020461Y021655D03*
X020374Y021698D03*
X020245Y021957D03*
X020202Y022173D03*
X020892Y022561D03*
X020461Y022734D03*
X022445Y024546D03*
X022445Y024633D03*
X022445Y024676D03*
X022445Y024719D03*
X022445Y024762D03*
X022445Y024805D03*
X022445Y024848D03*
X022445Y025064D03*
X022445Y025107D03*
X022445Y025150D03*
X020978Y025409D03*
X018433Y026833D03*
X017483Y025539D03*
X015930Y028387D03*
X015930Y028818D03*
X015844Y029077D03*
X015800Y029163D03*
X014937Y029293D03*
X014894Y029207D03*
X013211Y028516D03*
X013125Y028559D03*
X013254Y028300D03*
X013341Y028257D03*
X013384Y028042D03*
X013384Y027739D03*
X013341Y027653D03*
X012694Y027739D03*
X012607Y027783D03*
X012564Y027998D03*
X012823Y027222D03*
X013082Y026574D03*
X013384Y025711D03*
X013513Y024244D03*
X013470Y024029D03*
X011787Y022389D03*
X011787Y022346D03*
X011140Y022346D03*
X009846Y025668D03*
X005746Y029681D03*
X005746Y029724D03*
X005746Y029768D03*
X005746Y029811D03*
X005746Y029854D03*
X005746Y029897D03*
X005272Y027481D03*
X005272Y027437D03*
X003632Y027481D03*
X003157Y029768D03*
X003114Y029854D03*
X003114Y029897D03*
X003114Y029983D03*
X003114Y030026D03*
X005229Y032486D03*
X011140Y030501D03*
X011183Y030587D03*
X011270Y030631D03*
X011313Y030717D03*
X013341Y031364D03*
X013211Y031925D03*
X013341Y032055D03*
X013384Y032270D03*
X013513Y032831D03*
X013470Y033435D03*
X014376Y033737D03*
X014506Y033996D03*
X014376Y034600D03*
X014290Y034773D03*
X014937Y033435D03*
X014894Y033349D03*
X015412Y032831D03*
X014376Y031882D03*
X014420Y031796D03*
X015930Y034600D03*
X015930Y035550D03*
X015973Y035765D03*
X016059Y035809D03*
X017354Y035679D03*
X017397Y035765D03*
X018260Y035248D03*
X018821Y036326D03*
X018778Y033478D03*
X018778Y033435D03*
X018778Y033392D03*
X018778Y033349D03*
X018778Y033306D03*
X018778Y033263D03*
X019296Y031105D03*
X019296Y030631D03*
X018778Y030199D03*
X018821Y030113D03*
X023956Y030070D03*
X023956Y030026D03*
X023956Y031494D03*
X023956Y031537D03*
X023956Y031580D03*
X023956Y031623D03*
X023956Y031666D03*
X023956Y031752D03*
X023956Y028257D03*
X023956Y028214D03*
X023956Y025798D03*
X023956Y024072D03*
X023956Y024029D03*
X018433Y018764D03*
X018433Y018721D03*
X018950Y018203D03*
X019080Y017944D03*
X019468Y014838D03*
X022402Y015614D03*
X022445Y015744D03*
X022445Y015787D03*
X016189Y016348D03*
X016102Y016650D03*
X016059Y016736D03*
X014937Y016520D03*
X014506Y016348D03*
X014420Y016391D03*
X014376Y016477D03*
X014290Y016520D03*
X014118Y016995D03*
X014937Y015744D03*
X015585Y015614D03*
X011442Y016348D03*
X011313Y016089D03*
X009759Y016866D03*
X009846Y017297D03*
X009242Y017383D03*
X009198Y017297D03*
X009069Y017988D03*
X009328Y018419D03*
X009846Y018807D03*
X008724Y015873D03*
X009112Y014018D03*
X009716Y013888D03*
X009759Y013802D03*
X009846Y013759D03*
X009889Y013673D03*
X009975Y013629D03*
X010018Y013543D03*
X010105Y013370D03*
X009630Y012464D03*
X009587Y011688D03*
X009630Y011601D03*
X009716Y011429D03*
X009759Y011342D03*
X009069Y010781D03*
X009112Y010695D03*
X008335Y012464D03*
X011399Y013112D03*
X011442Y013025D03*
X012694Y035248D03*
X011701Y036067D03*
X011658Y036154D03*
X012866Y036542D03*
X014161Y037750D03*
X014118Y037837D03*
X016059Y039433D03*
X017483Y039433D03*
X021928Y037621D03*
D21*
X021906Y037664D03*
X015951Y035593D03*
X015175Y034428D03*
X014527Y034126D03*
X013492Y033220D03*
X013492Y032918D03*
X011162Y030544D03*
X011550Y028473D03*
X012197Y028473D03*
X013233Y028473D03*
X013362Y028171D03*
X013362Y025755D03*
X017505Y025496D03*
X020482Y022777D03*
X020482Y021612D03*
X020871Y021008D03*
X020612Y019800D03*
X023460Y018635D03*
X022424Y015657D03*
X022165Y013586D03*
X023201Y012680D03*
X023201Y012378D03*
X023201Y012076D03*
X023848Y011170D03*
X023589Y010307D03*
X022165Y010868D03*
X021259Y012378D03*
X018411Y010609D03*
X017634Y010609D03*
X017634Y011774D03*
X015822Y009703D03*
X015563Y009401D03*
X015175Y010609D03*
X015692Y007890D03*
X017634Y008192D03*
X019058Y007890D03*
X019317Y008797D03*
X014657Y013845D03*
X015563Y015657D03*
X014916Y016564D03*
X014269Y016564D03*
X014139Y016822D03*
X011809Y017125D03*
X009738Y016822D03*
X009738Y016564D03*
X009867Y018635D03*
X011291Y019239D03*
X011291Y019541D03*
X011162Y014147D03*
X009997Y013586D03*
X009738Y013845D03*
X009608Y012378D03*
X011938Y009703D03*
X020741Y024287D03*
X012845Y036499D03*
X015434Y038570D03*
X005725Y029940D03*
X005725Y029638D03*
X006674Y028171D03*
D22*
X017505Y028473D03*
X021906Y037103D03*
X020094Y015053D03*
X017246Y012680D03*
X017116Y015355D03*
X016987Y007890D03*
D23*
X018152Y007890D03*
X019964Y008797D03*
X019058Y010868D03*
X019058Y011170D03*
X019447Y011170D03*
X019964Y011774D03*
X019188Y012076D03*
X018152Y011774D03*
X018281Y010868D03*
X016081Y012680D03*
X014916Y012680D03*
X015692Y014751D03*
X015175Y015053D03*
X015563Y015355D03*
X015045Y016262D03*
X011032Y012378D03*
X011032Y011774D03*
X010644Y013284D03*
X007408Y011774D03*
X008832Y009703D03*
X010385Y009401D03*
X011291Y009703D03*
X014527Y009703D03*
X019317Y015657D03*
X023201Y016564D03*
X023460Y019800D03*
X020223Y020706D03*
X023589Y025496D03*
X021000Y027265D03*
X020612Y027567D03*
X019317Y030242D03*
X017893Y031148D03*
X016081Y032918D03*
X016340Y033522D03*
X017375Y034989D03*
X018023Y035593D03*
X018411Y038570D03*
X018152Y039174D03*
X016987Y038872D03*
X013492Y037664D03*
X012845Y037103D03*
X011550Y036197D03*
X012974Y031709D03*
X014010Y031450D03*
X013233Y030544D03*
X011032Y029940D03*
X012715Y027265D03*
X012456Y026057D03*
X012715Y025755D03*
X014010Y026661D03*
X015175Y027567D03*
X017634Y026661D03*
X018023Y026963D03*
X017893Y027265D03*
X015822Y030242D03*
X012456Y024287D03*
X009220Y018635D03*
X008961Y017125D03*
X008961Y016822D03*
X021777Y011774D03*
X021647Y010868D03*
X021906Y010307D03*
X023848Y008797D03*
X023330Y030544D03*
X023460Y037664D03*
X021777Y038872D03*
X005725Y034989D03*
X005639Y034687D03*
X005336Y034989D03*
X005639Y034126D03*
D24*
X010903Y026661D03*
X013880Y031709D03*
X016858Y030242D03*
X010773Y019541D03*
X016858Y016262D03*
X022683Y017729D03*
X022683Y013284D03*
X022812Y011170D03*
X022812Y010868D03*
X019705Y007890D03*
D25*
X021086Y007890D03*
X022294Y009401D03*
X011938Y009401D03*
X013233Y027265D03*
X015304Y029940D03*
X014010Y037966D03*
X022424Y039174D03*
X005034Y031709D03*
D26*
X013621Y037405D03*
X022812Y037664D03*
X022553Y025755D03*
X019964Y014147D03*
X016469Y009401D03*
X022812Y007890D03*
X011162Y019800D03*
D27*
X010687Y021267D03*
X011982Y023511D03*
X011982Y023554D03*
X012025Y023597D03*
X009651Y026186D03*
X009004Y026402D03*
X009004Y025237D03*
X009263Y018160D03*
X009263Y018117D03*
X009263Y018074D03*
X015995Y015442D03*
X018238Y019411D03*
X018238Y019455D03*
X018238Y019498D03*
X018238Y019584D03*
X019490Y020879D03*
X019490Y021957D03*
X021173Y025453D03*
X021086Y025582D03*
X021086Y027481D03*
X019101Y031882D03*
X018972Y032831D03*
X018972Y032874D03*
X018972Y033737D03*
X018972Y033781D03*
X018972Y033867D03*
X018972Y033910D03*
X018972Y033953D03*
X018972Y033996D03*
X018972Y034039D03*
X024150Y033176D03*
X024150Y033133D03*
X024150Y033090D03*
X024150Y033047D03*
X024150Y033004D03*
X024150Y032961D03*
X024150Y031968D03*
X024150Y031925D03*
X024150Y031882D03*
X024150Y031839D03*
X024150Y031796D03*
X024150Y037491D03*
X024150Y037535D03*
X024150Y037578D03*
X024150Y037621D03*
X024150Y037707D03*
X024150Y037750D03*
X024150Y037793D03*
X024150Y021785D03*
X024150Y021742D03*
X024150Y021698D03*
X022122Y017556D03*
X022122Y017513D03*
X024150Y010221D03*
X024150Y009616D03*
X024150Y009573D03*
X024150Y009530D03*
X024150Y009487D03*
X024150Y009444D03*
X024150Y009358D03*
X024150Y009314D03*
X024150Y008538D03*
X024150Y008451D03*
X024150Y008408D03*
X024150Y008365D03*
X024150Y008322D03*
X024150Y008279D03*
X022510Y009055D03*
X021043Y007934D03*
X020784Y009055D03*
X017203Y008883D03*
D28*
X016728Y008063D03*
X016728Y008020D03*
X016728Y007977D03*
X019058Y013802D03*
X019058Y013888D03*
X020353Y015096D03*
X020353Y015140D03*
X020353Y015183D03*
X017246Y016046D03*
X017246Y016089D03*
X021777Y022346D03*
X023028Y028689D03*
X021777Y029120D03*
X022424Y030933D03*
X022424Y030976D03*
X017375Y029681D03*
D29*
X013923Y025453D03*
X019749Y019757D03*
X016814Y016391D03*
X016642Y014924D03*
X019921Y010911D03*
X019921Y009012D03*
X019749Y007977D03*
X022597Y012766D03*
X022640Y013112D03*
X010989Y014018D03*
X010946Y013802D03*
X010860Y013759D03*
X010687Y016132D03*
X010730Y016348D03*
X010817Y016391D03*
X010860Y016736D03*
X008012Y012853D03*
X007969Y012766D03*
X007882Y012723D03*
X007839Y012507D03*
X007753Y012464D03*
X008012Y011817D03*
X004775Y032400D03*
X016642Y038398D03*
X016771Y038225D03*
D30*
X018476Y037578D03*
X018864Y035938D03*
X018087Y034902D03*
X018993Y034083D03*
X018476Y031537D03*
X018346Y030070D03*
X016404Y030199D03*
X016275Y032184D03*
X014463Y032702D03*
X014463Y030889D03*
X013686Y030760D03*
X011097Y029595D03*
X009026Y026445D03*
X009026Y025280D03*
X009975Y024633D03*
X011658Y023554D03*
X011658Y023511D03*
X010450Y022432D03*
X010579Y021698D03*
X010795Y021742D03*
X010665Y021483D03*
X010665Y021440D03*
X010665Y021396D03*
X010665Y021353D03*
X010320Y021698D03*
X010709Y019368D03*
X010105Y018419D03*
X009155Y019196D03*
X008896Y018160D03*
X009285Y017168D03*
X009932Y015873D03*
X009932Y011860D03*
X009802Y008236D03*
X014851Y008883D03*
X015110Y008753D03*
X014722Y010954D03*
X015369Y012594D03*
X018476Y015571D03*
X019123Y016650D03*
X019770Y016089D03*
X022014Y015528D03*
X022143Y017470D03*
X022143Y017599D03*
X018217Y019368D03*
X015196Y018894D03*
X015196Y018851D03*
X015196Y018807D03*
X015196Y018764D03*
X015196Y018721D03*
X015110Y018074D03*
X014722Y018074D03*
X015498Y016607D03*
X019511Y010954D03*
X019123Y010695D03*
X019382Y010264D03*
X020763Y009012D03*
X020763Y008969D03*
X020763Y008926D03*
X021022Y007977D03*
X021841Y009918D03*
X022230Y009918D03*
X021324Y010825D03*
X023395Y011601D03*
X024171Y010264D03*
X024171Y010177D03*
X024171Y009271D03*
X024171Y008581D03*
X024171Y008236D03*
X021151Y024374D03*
X023524Y025668D03*
X023136Y028387D03*
X021410Y028689D03*
X017828Y027481D03*
X017052Y027394D03*
X016146Y025409D03*
X014204Y026445D03*
X012391Y025798D03*
X012133Y025841D03*
X012133Y025927D03*
X012780Y037319D03*
X013427Y037837D03*
X014463Y039433D03*
X020547Y038009D03*
X023006Y037362D03*
X023395Y037837D03*
X024171Y037837D03*
X024171Y039433D03*
D31*
X023006Y038354D03*
X023006Y038311D03*
X022877Y037923D03*
X022877Y037880D03*
X022748Y037578D03*
X022748Y037535D03*
X022748Y037491D03*
X016793Y039433D03*
X013557Y037535D03*
X013557Y037491D03*
X014074Y036240D03*
X016663Y035550D03*
X014074Y032227D03*
X014074Y032184D03*
X014074Y032141D03*
X014074Y032098D03*
X014074Y032055D03*
X016663Y029379D03*
X016534Y026618D03*
X016922Y025798D03*
X016922Y025711D03*
X019770Y024201D03*
X019770Y024158D03*
X019770Y023036D03*
X019770Y022993D03*
X019770Y022820D03*
X019770Y022734D03*
X019770Y021569D03*
X019900Y021094D03*
X019900Y021051D03*
X019641Y019023D03*
X019641Y018980D03*
X020029Y016866D03*
X020029Y016779D03*
X019770Y016305D03*
X022618Y016520D03*
X022618Y016607D03*
X022877Y013716D03*
X022877Y013673D03*
X022877Y013629D03*
X022877Y013543D03*
X022877Y013500D03*
X022877Y013457D03*
X022877Y013414D03*
X022489Y012162D03*
X022618Y011817D03*
X022618Y011731D03*
X022618Y011688D03*
X022618Y011644D03*
X022618Y011601D03*
X023006Y008322D03*
X023006Y008279D03*
X023006Y008236D03*
X022877Y008063D03*
X022877Y008020D03*
X022877Y007977D03*
X016793Y013327D03*
X016793Y013370D03*
X016534Y015614D03*
X011097Y010652D03*
X011097Y010566D03*
X011097Y010523D03*
X011097Y010479D03*
X011097Y010436D03*
X011097Y010393D03*
X011097Y010350D03*
X007602Y011386D03*
X007602Y011429D03*
X016534Y009832D03*
X016534Y009789D03*
X016534Y009746D03*
X016534Y009660D03*
X016534Y009616D03*
X016534Y009573D03*
X016534Y009530D03*
X011097Y020577D03*
X011097Y020620D03*
X010838Y020879D03*
X013686Y024719D03*
X013686Y024762D03*
X013686Y024805D03*
X013686Y024848D03*
X013686Y024935D03*
X013686Y024978D03*
X013686Y025021D03*
X013686Y025064D03*
X013686Y025107D03*
X013686Y025150D03*
X010968Y030285D03*
X010838Y035334D03*
X005142Y031062D03*
X004840Y031364D03*
D32*
X004970Y033996D03*
X013945Y036715D03*
X013945Y036758D03*
X013945Y036844D03*
X013945Y036887D03*
X013945Y036930D03*
X016663Y038441D03*
X016663Y038484D03*
X016793Y038182D03*
X013945Y025798D03*
X013945Y025711D03*
X013945Y025668D03*
X013945Y025625D03*
X013945Y025582D03*
X013945Y025539D03*
X010968Y022087D03*
X010838Y016693D03*
X010838Y016650D03*
X010838Y016607D03*
X010838Y016520D03*
X010838Y016477D03*
X010838Y016434D03*
X010709Y016305D03*
X010709Y016218D03*
X010709Y016175D03*
X010968Y013975D03*
X010968Y013931D03*
X010968Y013888D03*
X010838Y013716D03*
X010838Y013673D03*
X007990Y012810D03*
X007861Y012637D03*
X007861Y012594D03*
X007861Y012551D03*
X007731Y012421D03*
X007990Y011731D03*
X010838Y009875D03*
X010838Y009832D03*
X010838Y009789D03*
X010838Y009746D03*
X010838Y009660D03*
X010838Y009616D03*
X010838Y009573D03*
X010838Y009530D03*
X010838Y009487D03*
X010838Y009444D03*
X016663Y008969D03*
X016663Y008926D03*
X016663Y008883D03*
X016663Y008840D03*
X016663Y008753D03*
X016663Y008710D03*
X016663Y008667D03*
X016663Y008624D03*
X016663Y008581D03*
X016663Y008538D03*
X016663Y008451D03*
X016663Y008408D03*
X016663Y008365D03*
X019641Y008365D03*
X019641Y008408D03*
X019641Y008451D03*
X019770Y008149D03*
X019770Y008106D03*
X019770Y008063D03*
X019770Y008020D03*
X019900Y009055D03*
X019900Y009142D03*
X019900Y009185D03*
X019900Y009228D03*
X019900Y010825D03*
X022618Y012810D03*
X022618Y012853D03*
X022618Y012896D03*
X022618Y012939D03*
X022618Y013025D03*
X022618Y013068D03*
X019770Y015614D03*
X019770Y015701D03*
X019900Y015873D03*
X019900Y015916D03*
X016793Y016434D03*
X016663Y014881D03*
X016663Y014838D03*
X016663Y014794D03*
X016663Y014708D03*
X019770Y019843D03*
X019641Y021353D03*
X019641Y021396D03*
X019770Y024417D03*
X019770Y024460D03*
X019770Y024503D03*
X019770Y024546D03*
X019770Y024633D03*
D33*
X019964Y023554D03*
X019964Y023511D03*
X020094Y020879D03*
X020094Y020835D03*
X022553Y020620D03*
X022553Y020361D03*
X019576Y015571D03*
X019576Y015528D03*
X019576Y015485D03*
X019964Y014104D03*
X019964Y014061D03*
X022424Y014233D03*
X022553Y014104D03*
X022553Y014061D03*
X023071Y008408D03*
X022942Y008149D03*
X016469Y009271D03*
X016469Y009314D03*
X016469Y009358D03*
X016469Y009444D03*
X011032Y009918D03*
X011032Y009962D03*
X011032Y010048D03*
X011032Y010091D03*
X007667Y011515D03*
X007667Y011558D03*
X011162Y019757D03*
X011162Y019843D03*
X011162Y019886D03*
X011162Y019929D03*
X011162Y019972D03*
X011162Y020188D03*
X010644Y021957D03*
X010644Y024417D03*
X010644Y024460D03*
X010644Y027006D03*
X010644Y027049D03*
X010903Y030156D03*
X014139Y031925D03*
X014139Y031968D03*
X016858Y029250D03*
X016858Y029207D03*
X016987Y028128D03*
X016987Y028085D03*
X016987Y026272D03*
X019447Y026272D03*
X019447Y026229D03*
X019447Y026316D03*
X022553Y026316D03*
X022553Y026272D03*
X022553Y026229D03*
X022553Y025798D03*
X022553Y025711D03*
X022553Y025280D03*
X022510Y027222D03*
X022424Y027394D03*
X016599Y035463D03*
X013621Y037362D03*
X011032Y035204D03*
X016728Y039304D03*
X016728Y039347D03*
X022812Y037793D03*
X022812Y037750D03*
X022812Y037707D03*
X022942Y038052D03*
X022942Y038096D03*
X022942Y038139D03*
X022942Y038182D03*
X013621Y025409D03*
X013621Y025366D03*
X013621Y025323D03*
X013621Y025280D03*
X013621Y025237D03*
D34*
X011162Y027567D03*
X022899Y021008D03*
X016469Y011774D03*
X016210Y011170D03*
X016210Y008192D03*
D35*
X018130Y008192D03*
X022273Y010307D03*
X022316Y017729D03*
X023611Y018333D03*
X024085Y021008D03*
X018389Y029940D03*
X018562Y032011D03*
X018907Y032615D03*
X014506Y031148D03*
X014678Y029034D03*
X012176Y029034D03*
X005185Y033220D03*
X009198Y017729D03*
X024085Y037405D03*
D36*
X021885Y039174D03*
X018778Y033522D03*
X018778Y033220D03*
X016102Y035895D03*
X015455Y032918D03*
X013254Y032011D03*
X015930Y029034D03*
X018691Y030242D03*
X023956Y031450D03*
X023956Y031709D03*
X023956Y028171D03*
X023956Y025755D03*
X022445Y024590D03*
X020633Y021310D03*
X019037Y018031D03*
X016232Y016262D03*
X014549Y016262D03*
X011399Y016262D03*
X009069Y018031D03*
X010148Y013284D03*
X008292Y012378D03*
X018907Y008192D03*
X021539Y011170D03*
X023956Y012076D03*
X023956Y012680D03*
X023956Y015355D03*
X023956Y015657D03*
X023956Y016262D03*
X023956Y016564D03*
X023956Y016822D03*
X022014Y015053D03*
X021367Y015053D03*
X013600Y024287D03*
X003114Y029940D03*
D37*
X013945Y025755D03*
X013945Y025496D03*
X019641Y021310D03*
X019770Y019800D03*
X019770Y015657D03*
X016663Y014751D03*
X019900Y010868D03*
X019900Y009099D03*
X019770Y008192D03*
X016663Y008797D03*
X010968Y013845D03*
X010709Y016262D03*
X010838Y016564D03*
X007861Y012680D03*
X007990Y011774D03*
X010838Y009703D03*
X010838Y009401D03*
X019770Y024590D03*
D38*
X022575Y023683D03*
X014118Y032011D03*
X013643Y025194D03*
X022532Y014147D03*
X022963Y008192D03*
D39*
X023848Y008753D03*
X021647Y010825D03*
X020827Y009228D03*
X020094Y008365D03*
X016210Y012335D03*
X015692Y011688D03*
X014700Y011040D03*
X014527Y009660D03*
X014786Y012853D03*
X011852Y015399D03*
X011852Y015442D03*
X010256Y013931D03*
X008745Y014406D03*
X008961Y016779D03*
X008961Y019368D03*
X010730Y019455D03*
X010471Y022389D03*
X011938Y023468D03*
X011809Y024762D03*
X012370Y025711D03*
X012456Y025970D03*
X014010Y026704D03*
X015434Y027135D03*
X016340Y026229D03*
X018023Y026876D03*
X021086Y027437D03*
X023546Y025582D03*
X019576Y021785D03*
X019490Y020792D03*
X022338Y017901D03*
X022338Y017858D03*
X022338Y017815D03*
X022338Y017772D03*
X023460Y015312D03*
X019964Y016132D03*
X024107Y020922D03*
X014916Y017254D03*
X014010Y017254D03*
X010040Y024719D03*
X010040Y024762D03*
X010256Y027912D03*
X010644Y029983D03*
X012715Y030760D03*
X013362Y030372D03*
X014010Y031278D03*
X015822Y030458D03*
X014657Y028948D03*
X012974Y028905D03*
X017893Y031235D03*
X018929Y032788D03*
X018929Y033694D03*
X018411Y035032D03*
X017375Y034902D03*
X016210Y036024D03*
X018109Y037880D03*
X018670Y038139D03*
X016987Y038786D03*
X014829Y039433D03*
X014786Y039304D03*
X013233Y036067D03*
X012586Y036154D03*
X011550Y036283D03*
X011680Y035377D03*
X011680Y034255D03*
X005639Y034644D03*
X005552Y033694D03*
X004732Y032270D03*
X004732Y032227D03*
X004732Y032184D03*
X006760Y027998D03*
X022036Y038225D03*
X023977Y038743D03*
X024107Y038009D03*
X024107Y037448D03*
X008832Y009660D03*
X010514Y008236D03*
D40*
X016038Y008236D03*
X019274Y015226D03*
X019231Y015442D03*
X017418Y028646D03*
X017332Y028689D03*
X017289Y028775D03*
X017203Y029163D03*
X013923Y035032D03*
X013966Y035118D03*
X013449Y036326D03*
X004862Y029207D03*
D41*
X004970Y030717D03*
X004797Y032529D03*
X009673Y026143D03*
X009673Y026100D03*
X009673Y026013D03*
X009673Y025970D03*
X010018Y024676D03*
X011615Y023597D03*
X012521Y024029D03*
X012521Y024072D03*
X012521Y024115D03*
X012003Y025064D03*
X012003Y025107D03*
X012003Y025150D03*
X012133Y025884D03*
X011874Y026229D03*
X011874Y026272D03*
X011874Y026316D03*
X012780Y025927D03*
X012780Y025884D03*
X012780Y025841D03*
X014204Y026402D03*
X016146Y025366D03*
X016146Y025323D03*
X016534Y027006D03*
X016534Y027049D03*
X016534Y027092D03*
X017052Y027437D03*
X017052Y027481D03*
X017828Y027437D03*
X017828Y027394D03*
X018605Y026920D03*
X018605Y026876D03*
X018907Y029465D03*
X018346Y029983D03*
X018346Y030026D03*
X018735Y030760D03*
X018735Y030803D03*
X018476Y031580D03*
X018476Y031623D03*
X018476Y031666D03*
X018476Y031752D03*
X020288Y030070D03*
X020288Y030026D03*
X020288Y029983D03*
X020159Y029681D03*
X021453Y028646D03*
X023136Y028344D03*
X023136Y028300D03*
X023136Y027222D03*
X023136Y027179D03*
X023136Y027135D03*
X023524Y025625D03*
X021065Y025625D03*
X021065Y025668D03*
X019511Y022044D03*
X019511Y022001D03*
X019511Y020835D03*
X021065Y020231D03*
X021065Y020188D03*
X021065Y020145D03*
X021065Y020059D03*
X021065Y020016D03*
X021065Y019972D03*
X021065Y019929D03*
X021065Y019886D03*
X021065Y019843D03*
X021065Y019757D03*
X019123Y016736D03*
X019123Y016693D03*
X018476Y015528D03*
X018476Y015485D03*
X017958Y014104D03*
X017958Y014061D03*
X017958Y014018D03*
X017958Y013975D03*
X017958Y013931D03*
X018087Y012464D03*
X018087Y012421D03*
X018087Y012335D03*
X018087Y012292D03*
X018087Y012249D03*
X018087Y012205D03*
X018087Y012162D03*
X018087Y012119D03*
X018087Y012033D03*
X018087Y011990D03*
X018087Y011947D03*
X018087Y011903D03*
X018087Y011860D03*
X019123Y010781D03*
X019123Y010738D03*
X019511Y010997D03*
X019511Y011040D03*
X019382Y010221D03*
X019382Y010177D03*
X018217Y010177D03*
X018217Y010134D03*
X018217Y010091D03*
X018217Y010048D03*
X018217Y009962D03*
X018217Y009918D03*
X018217Y010221D03*
X018217Y010264D03*
X017181Y009055D03*
X017181Y009012D03*
X017181Y008969D03*
X017181Y008926D03*
X018087Y008322D03*
X018087Y008279D03*
X018087Y008236D03*
X020806Y009142D03*
X020806Y009185D03*
X021841Y009962D03*
X022230Y009962D03*
X022230Y010048D03*
X022230Y010091D03*
X022230Y010134D03*
X022230Y010177D03*
X022230Y010221D03*
X022230Y010264D03*
X021324Y010911D03*
X023395Y011644D03*
X023395Y011688D03*
X023395Y011731D03*
X023395Y011817D03*
X022230Y014708D03*
X022230Y014794D03*
X022230Y015399D03*
X022230Y015442D03*
X022489Y015442D03*
X022489Y015399D03*
X021971Y015485D03*
X022359Y016305D03*
X022359Y016348D03*
X020547Y014104D03*
X020547Y014061D03*
X020547Y014018D03*
X020547Y013975D03*
X020547Y013931D03*
X020547Y013888D03*
X020547Y013802D03*
X016016Y015399D03*
X015498Y016305D03*
X015498Y016348D03*
X015498Y016391D03*
X015498Y016434D03*
X015498Y016477D03*
X015498Y016520D03*
X015110Y018117D03*
X015110Y018160D03*
X014722Y018160D03*
X014722Y018117D03*
X012003Y016995D03*
X012003Y016952D03*
X012003Y016909D03*
X012003Y016866D03*
X012003Y016779D03*
X011874Y016477D03*
X011874Y016434D03*
X011874Y016391D03*
X011874Y016348D03*
X011874Y016305D03*
X011874Y016218D03*
X011874Y016175D03*
X011874Y016132D03*
X011874Y016089D03*
X011874Y016046D03*
X011874Y016003D03*
X011874Y015916D03*
X011874Y015873D03*
X011874Y015830D03*
X011874Y015787D03*
X011874Y015744D03*
X011874Y015312D03*
X011097Y015571D03*
X010320Y015571D03*
X009932Y015916D03*
X008767Y015442D03*
X008767Y015399D03*
X009285Y017211D03*
X009285Y017254D03*
X008896Y018074D03*
X008896Y018117D03*
X009155Y019109D03*
X009155Y019153D03*
X010061Y019498D03*
X010061Y019584D03*
X010709Y019411D03*
X010579Y020663D03*
X010579Y020749D03*
X010709Y021181D03*
X010709Y021224D03*
X010968Y021181D03*
X010968Y021138D03*
X010968Y021094D03*
X010968Y021051D03*
X010579Y021742D03*
X010579Y021785D03*
X010320Y021785D03*
X010320Y021828D03*
X010320Y021871D03*
X010320Y021742D03*
X011356Y014018D03*
X011356Y013975D03*
X011356Y013931D03*
X011356Y013888D03*
X011356Y013802D03*
X011356Y013759D03*
X011356Y013716D03*
X011356Y013673D03*
X010968Y013370D03*
X010968Y013327D03*
X009932Y012033D03*
X009932Y011990D03*
X009932Y011947D03*
X009932Y011903D03*
X010320Y010652D03*
X010320Y010566D03*
X011874Y011860D03*
X011874Y011903D03*
X011874Y011947D03*
X014722Y010997D03*
X015369Y012507D03*
X015369Y012551D03*
X015757Y013155D03*
X015757Y013198D03*
X015757Y013241D03*
X015757Y013327D03*
X015757Y013370D03*
X014851Y008969D03*
X014851Y008926D03*
X015110Y008840D03*
X009802Y008322D03*
X009802Y008279D03*
X012133Y029379D03*
X012133Y029422D03*
X011097Y029681D03*
X013298Y031666D03*
X013298Y031752D03*
X013686Y030803D03*
X014463Y030933D03*
X014463Y030976D03*
X014463Y031019D03*
X014463Y031062D03*
X014463Y031105D03*
X015239Y031191D03*
X015239Y031235D03*
X016016Y032357D03*
X016016Y032400D03*
X016016Y032443D03*
X016016Y032486D03*
X016016Y032529D03*
X016275Y032529D03*
X016275Y032486D03*
X016275Y032443D03*
X016275Y032400D03*
X016275Y032357D03*
X016275Y032270D03*
X016275Y032227D03*
X014463Y032745D03*
X014463Y032788D03*
X014463Y032831D03*
X014463Y032874D03*
X016404Y030156D03*
X016404Y030113D03*
X018087Y034946D03*
X018087Y035032D03*
X018087Y035075D03*
X018087Y035118D03*
X018864Y035981D03*
X018864Y036024D03*
X018476Y037491D03*
X018476Y037535D03*
X018087Y037923D03*
X020547Y038052D03*
X020547Y038096D03*
X021194Y039217D03*
X021194Y039261D03*
X021194Y039433D03*
X023006Y037448D03*
X023395Y037750D03*
X023395Y037793D03*
X023913Y037189D03*
X023913Y037146D03*
X015757Y039045D03*
X015757Y039088D03*
X015757Y039131D03*
X013427Y037793D03*
X013427Y037750D03*
X012780Y037276D03*
X012780Y037233D03*
X015498Y035636D03*
X015498Y035550D03*
D42*
X013902Y036974D03*
X013859Y037060D03*
X016620Y038527D03*
X016577Y038613D03*
X022532Y039304D03*
X022575Y039390D03*
X022661Y039433D03*
X022575Y037448D03*
X016620Y028948D03*
X016577Y025927D03*
X016620Y025841D03*
X013988Y026100D03*
X011054Y022173D03*
X011011Y016779D03*
X007947Y011688D03*
X007904Y011601D03*
X011011Y008753D03*
X016577Y010134D03*
X016620Y011299D03*
X016707Y011342D03*
X019684Y008322D03*
X019727Y008236D03*
X019943Y010781D03*
X022532Y012594D03*
X019813Y015744D03*
X019856Y015830D03*
X022532Y017168D03*
X019727Y021181D03*
X019684Y021267D03*
X019684Y023727D03*
X011054Y030458D03*
X016707Y014665D03*
X016750Y014579D03*
D43*
X019252Y015269D03*
X019252Y015312D03*
X019252Y015399D03*
X023093Y019886D03*
X023093Y020749D03*
X020288Y022864D03*
X020288Y022907D03*
X020288Y022950D03*
X020288Y024935D03*
X020288Y024978D03*
X017440Y028559D03*
X017440Y028602D03*
X017181Y029077D03*
X017181Y029120D03*
X022100Y029207D03*
X022100Y029250D03*
X022100Y029293D03*
X022100Y029379D03*
X022100Y029422D03*
X022100Y031666D03*
X022100Y031752D03*
X022100Y031796D03*
X022100Y031839D03*
X013945Y035075D03*
X013427Y036370D03*
X013427Y036413D03*
X011097Y027437D03*
X011097Y027394D03*
X011097Y027351D03*
X011097Y027308D03*
X010320Y014190D03*
X010191Y009358D03*
X010191Y009314D03*
X010191Y009271D03*
X010191Y009228D03*
X010191Y009185D03*
X010191Y009142D03*
X016016Y008322D03*
X016016Y008279D03*
D44*
X016599Y009918D03*
X016599Y009962D03*
X016599Y010048D03*
X016599Y010091D03*
X016599Y011213D03*
X016599Y011256D03*
X016728Y011386D03*
X016728Y011429D03*
X019705Y008279D03*
X019964Y010566D03*
X019964Y010652D03*
X019964Y010695D03*
X019964Y010738D03*
X022553Y011990D03*
X022553Y012033D03*
X022553Y012249D03*
X022553Y012292D03*
X022553Y012335D03*
X022553Y012421D03*
X022553Y012464D03*
X022553Y012507D03*
X022553Y012551D03*
X019835Y015787D03*
X019705Y016391D03*
X019705Y016434D03*
X019705Y016477D03*
X019705Y016650D03*
X019705Y016693D03*
X019705Y016736D03*
X022553Y017211D03*
X022553Y017254D03*
X022553Y017297D03*
X022553Y017340D03*
X022553Y017383D03*
X022553Y017556D03*
X022553Y017599D03*
X022553Y017642D03*
X022510Y019066D03*
X019705Y021224D03*
X019705Y023122D03*
X019705Y023166D03*
X019705Y023209D03*
X019705Y023640D03*
X019705Y024331D03*
X019705Y024374D03*
X019705Y024676D03*
X019705Y024719D03*
X019705Y024762D03*
X019705Y024805D03*
X019705Y024848D03*
X016858Y025453D03*
X016858Y025539D03*
X016599Y025884D03*
X014010Y026143D03*
X014010Y026186D03*
X014010Y026229D03*
X014010Y026272D03*
X014010Y026316D03*
X013621Y024633D03*
X013621Y024546D03*
X013621Y024503D03*
X013621Y024460D03*
X013621Y024417D03*
X013621Y024374D03*
X013621Y024331D03*
X011032Y022130D03*
X010773Y021871D03*
X010773Y021828D03*
X011032Y017211D03*
X011032Y017168D03*
X011032Y017081D03*
X011032Y017038D03*
X011032Y016995D03*
X011032Y016952D03*
X011032Y016909D03*
X011032Y016866D03*
X007925Y011644D03*
X011032Y010264D03*
X011032Y010221D03*
X011032Y010177D03*
X011032Y008969D03*
X011032Y008926D03*
X011032Y008883D03*
X011032Y008840D03*
X016728Y014622D03*
X010773Y027135D03*
X010773Y027179D03*
X010773Y027222D03*
X011032Y030372D03*
X011032Y030415D03*
X016599Y029552D03*
X016599Y029509D03*
X016599Y029465D03*
X016599Y028991D03*
X022683Y029983D03*
X022683Y030026D03*
X022683Y030070D03*
X022553Y037362D03*
X022553Y039347D03*
X013880Y037017D03*
X005121Y034773D03*
X005121Y034730D03*
X005121Y031839D03*
D45*
X005444Y032098D03*
X005185Y032572D03*
X005617Y034169D03*
X005660Y034773D03*
X005660Y034816D03*
X005703Y034859D03*
X005703Y034902D03*
X006394Y028689D03*
X008249Y019886D03*
X009242Y018290D03*
X009155Y017815D03*
X009242Y017556D03*
X008637Y016089D03*
X008379Y010523D03*
X009802Y008365D03*
X014851Y011429D03*
X015369Y011731D03*
X014851Y012205D03*
X021194Y012594D03*
X023006Y015312D03*
X023006Y016866D03*
X024042Y018678D03*
X024042Y021051D03*
X020547Y025668D03*
X021022Y027308D03*
X021065Y027351D03*
X018950Y029595D03*
X018735Y030717D03*
X018864Y032529D03*
X018864Y036067D03*
X018864Y038915D03*
X021971Y037491D03*
X022359Y039002D03*
X024042Y038139D03*
X017440Y027351D03*
X018346Y019627D03*
D46*
X022748Y010436D03*
X010838Y008365D03*
D47*
X010061Y008624D03*
X010061Y008667D03*
X010061Y008710D03*
X010061Y008753D03*
X010061Y008840D03*
X008896Y010221D03*
X008896Y010264D03*
X009155Y015614D03*
X009155Y015701D03*
X009155Y015744D03*
X009155Y015787D03*
X009155Y015830D03*
X009544Y021655D03*
X009544Y021698D03*
X009544Y021742D03*
X009802Y022648D03*
X012650Y024848D03*
X017570Y025970D03*
X017570Y026013D03*
X020547Y026229D03*
X020547Y026272D03*
X020547Y026316D03*
X020547Y023856D03*
X020547Y023813D03*
X020547Y017772D03*
X020547Y017685D03*
X020547Y017642D03*
X020547Y017599D03*
X020547Y017556D03*
X017570Y015830D03*
X017570Y015787D03*
X015239Y015873D03*
X015239Y015916D03*
X014722Y010523D03*
X014722Y010479D03*
X015757Y008408D03*
X015757Y008365D03*
X018735Y009142D03*
X018735Y009185D03*
X012133Y031839D03*
X012133Y031882D03*
X012133Y031925D03*
X012133Y031968D03*
X013039Y033608D03*
X013039Y033651D03*
X013039Y033694D03*
X013039Y033737D03*
X013039Y033781D03*
X014851Y034255D03*
X014851Y034298D03*
X014851Y034341D03*
X015498Y034644D03*
X015498Y034730D03*
X015498Y034773D03*
X015498Y034816D03*
X015498Y034859D03*
X015498Y034902D03*
X015498Y034946D03*
X013168Y039347D03*
D48*
X012111Y036930D03*
X013060Y034341D03*
X011895Y030070D03*
X011852Y029983D03*
X011507Y027739D03*
X011464Y027653D03*
X012758Y026833D03*
X010040Y025539D03*
X010342Y023942D03*
X010299Y023899D03*
X010212Y023856D03*
X010040Y023554D03*
X010040Y023511D03*
X011334Y023640D03*
X011377Y023856D03*
X015865Y028128D03*
X016167Y027222D03*
X016167Y027135D03*
X015520Y029811D03*
X018584Y025453D03*
X021000Y028991D03*
X020568Y030199D03*
X023546Y031925D03*
X023546Y031968D03*
X023762Y033392D03*
X023762Y033435D03*
X023762Y033478D03*
X023762Y033565D03*
X023762Y033608D03*
X023762Y033651D03*
X023762Y033694D03*
X023546Y036240D03*
X021086Y037707D03*
X017807Y037750D03*
X023762Y028646D03*
X023762Y028602D03*
X023762Y028559D03*
X023762Y028516D03*
X023762Y027222D03*
X023762Y027179D03*
X023762Y027135D03*
X023244Y024546D03*
X023762Y022432D03*
X023762Y022389D03*
X023762Y022346D03*
X023244Y019584D03*
X023762Y017383D03*
X023762Y017340D03*
X020655Y016089D03*
X020655Y015442D03*
X018756Y012723D03*
X018886Y011817D03*
X017462Y012335D03*
X015649Y011429D03*
X016297Y010523D03*
X017591Y009875D03*
X017548Y009660D03*
X017548Y009358D03*
X017807Y008365D03*
X019101Y009875D03*
X020827Y009789D03*
X021475Y012119D03*
X017332Y014190D03*
X015908Y014061D03*
X015520Y014579D03*
X015477Y014665D03*
X019231Y019368D03*
X019274Y019455D03*
X010083Y010264D03*
X009695Y009530D03*
X009306Y011947D03*
X005336Y034255D03*
D49*
X010838Y019714D03*
X010838Y019670D03*
X010838Y019627D03*
X019770Y016046D03*
X019770Y016003D03*
X022748Y017470D03*
X022748Y017513D03*
X022748Y010652D03*
X022748Y010566D03*
X022748Y010523D03*
X022748Y010479D03*
X022748Y009055D03*
X022748Y009012D03*
X010838Y008451D03*
X010838Y008408D03*
D50*
X009802Y009012D03*
X009802Y009055D03*
X009673Y009573D03*
X009673Y009616D03*
X010061Y010177D03*
X010061Y010221D03*
X011356Y010825D03*
X011356Y010911D03*
X009544Y012119D03*
X009544Y012162D03*
X009285Y011903D03*
X009285Y011860D03*
X009285Y011817D03*
X009285Y011731D03*
X009414Y014061D03*
X009414Y014104D03*
X014981Y011127D03*
X015628Y011342D03*
X015628Y011386D03*
X016275Y010479D03*
X016275Y010436D03*
X017570Y009832D03*
X017570Y009789D03*
X017570Y009746D03*
X017570Y009314D03*
X017570Y009271D03*
X017570Y009228D03*
X017570Y009185D03*
X017570Y009142D03*
X017828Y008451D03*
X017828Y008408D03*
X019123Y009789D03*
X019123Y009832D03*
X020288Y010954D03*
X020288Y010997D03*
X020288Y011040D03*
X020288Y011084D03*
X020288Y011127D03*
X020806Y009962D03*
X020806Y009918D03*
X020806Y009875D03*
X020806Y009832D03*
X018864Y011601D03*
X018864Y011644D03*
X018864Y011688D03*
X018864Y011731D03*
X018735Y012637D03*
X017440Y012292D03*
X017440Y012249D03*
X016016Y012939D03*
X015887Y013457D03*
X015887Y013500D03*
X015887Y014104D03*
X015498Y014622D03*
X017311Y014277D03*
X017311Y014233D03*
X017570Y014579D03*
X017570Y014622D03*
X017570Y014665D03*
X017570Y014708D03*
X017570Y014794D03*
X017570Y015614D03*
X017570Y015701D03*
X020547Y014924D03*
X020547Y014881D03*
X020547Y014838D03*
X020547Y014794D03*
X020547Y014708D03*
X020676Y015528D03*
X020676Y015571D03*
X020676Y015614D03*
X020676Y015701D03*
X020676Y015744D03*
X020676Y015787D03*
X020676Y015830D03*
X020676Y015873D03*
X020676Y015916D03*
X020676Y016003D03*
X020676Y016046D03*
X021841Y013241D03*
X021841Y013198D03*
X021453Y012205D03*
X021453Y012162D03*
X023524Y010091D03*
X023524Y010048D03*
X023265Y019498D03*
X020676Y022993D03*
X020676Y023036D03*
X023265Y024633D03*
X021065Y029077D03*
X020547Y030156D03*
X018993Y030501D03*
X018993Y030587D03*
X018993Y027826D03*
X018993Y027783D03*
X018217Y026445D03*
X018217Y026402D03*
X018605Y025539D03*
X016146Y027179D03*
X015887Y027524D03*
X015887Y027610D03*
X015887Y027912D03*
X015887Y027955D03*
X015887Y027998D03*
X015887Y028042D03*
X015887Y028085D03*
X015498Y029724D03*
X015498Y029768D03*
X012780Y026790D03*
X012780Y026747D03*
X013039Y026402D03*
X013039Y026316D03*
X013039Y026272D03*
X013039Y026229D03*
X011485Y027696D03*
X011485Y028948D03*
X011485Y028991D03*
X011874Y030026D03*
X015369Y033737D03*
X015369Y033781D03*
X013168Y034514D03*
X013168Y034557D03*
X013168Y034600D03*
X013039Y034298D03*
X013039Y034255D03*
X013039Y034212D03*
X013039Y034169D03*
X012391Y035334D03*
X012133Y036844D03*
X012133Y036887D03*
X017699Y035852D03*
X017699Y035809D03*
X017828Y037793D03*
X021065Y037621D03*
X010061Y025453D03*
X010191Y023813D03*
X010191Y023770D03*
X009975Y023468D03*
X009673Y022303D03*
X009673Y022259D03*
X009673Y022173D03*
X009673Y022130D03*
X009673Y022087D03*
X009673Y022044D03*
X009673Y022001D03*
X009673Y021957D03*
X009414Y021396D03*
X009414Y021353D03*
X009414Y021267D03*
X009414Y021224D03*
X009414Y021181D03*
X011356Y023727D03*
X011356Y023770D03*
X011356Y023813D03*
X019252Y019411D03*
D51*
X018756Y018678D03*
X018756Y018592D03*
X023632Y017642D03*
X023632Y017599D03*
X023632Y015010D03*
X023632Y014967D03*
X023632Y014794D03*
X023632Y014708D03*
X023632Y014665D03*
X023632Y014622D03*
X023632Y020275D03*
X023632Y020318D03*
X023632Y020361D03*
X023632Y020447D03*
X023632Y020490D03*
X023632Y023640D03*
X023632Y023727D03*
X023632Y025237D03*
X023632Y025280D03*
X023632Y026229D03*
X023632Y026272D03*
X023632Y026316D03*
X023632Y026876D03*
X023632Y026920D03*
X023632Y027006D03*
X023632Y027049D03*
X023632Y027092D03*
X020568Y023770D03*
X012629Y024805D03*
X009824Y022691D03*
X009781Y022605D03*
X009565Y021785D03*
X009522Y021569D03*
X012111Y031796D03*
X013190Y039304D03*
X013147Y039390D03*
X014700Y010436D03*
X015779Y008451D03*
X018713Y009228D03*
X008918Y010177D03*
D52*
X009759Y008495D03*
X010407Y008495D03*
X008681Y015959D03*
X018691Y008495D03*
X023956Y012982D03*
X023956Y014449D03*
X023956Y015959D03*
X020331Y021914D03*
X022445Y024892D03*
X023481Y029336D03*
X015024Y029336D03*
X014420Y033824D03*
D53*
X010924Y030846D03*
X010881Y008495D03*
D54*
X011809Y011472D03*
X015951Y008495D03*
X017634Y010005D03*
X018929Y010005D03*
X011680Y027869D03*
X003999Y027869D03*
D55*
X013945Y036801D03*
X022618Y012982D03*
X016663Y008495D03*
D56*
X017785Y008495D03*
X009630Y021914D03*
X023697Y033824D03*
D57*
X011248Y024892D03*
X019792Y008495D03*
D58*
X017570Y011472D03*
X020159Y012982D03*
X023136Y008495D03*
X011356Y018937D03*
X009673Y020404D03*
X011615Y026359D03*
X011615Y029336D03*
D59*
X018972Y033824D03*
X024150Y008495D03*
D60*
X023201Y008667D03*
X023201Y008710D03*
X020741Y010048D03*
X020741Y010091D03*
X020741Y010134D03*
X020223Y011342D03*
X020223Y011386D03*
X020223Y011429D03*
X021518Y012033D03*
X022294Y014363D03*
X022165Y014492D03*
X021906Y014838D03*
X021906Y014881D03*
X021906Y014924D03*
X021647Y014794D03*
X021647Y014708D03*
X020612Y016132D03*
X020612Y016175D03*
X020612Y016218D03*
X020612Y016305D03*
X020612Y016348D03*
X020612Y016520D03*
X020612Y016607D03*
X018670Y017340D03*
X018670Y017383D03*
X018670Y019153D03*
X019317Y019498D03*
X019317Y019584D03*
X020741Y019584D03*
X020741Y019627D03*
X020741Y019670D03*
X020741Y019714D03*
X020741Y019498D03*
X020741Y019455D03*
X020741Y019411D03*
X020741Y018894D03*
X020741Y018851D03*
X023201Y015183D03*
X023201Y015140D03*
X018540Y010350D03*
X018799Y010221D03*
X018799Y010177D03*
X018929Y009962D03*
X018540Y009616D03*
X018540Y009573D03*
X018540Y009530D03*
X017634Y009918D03*
X017634Y009962D03*
X017634Y010048D03*
X017634Y010091D03*
X017634Y010134D03*
X017634Y010177D03*
X017634Y010221D03*
X017634Y010264D03*
X017634Y010350D03*
X017634Y010911D03*
X017505Y009616D03*
X017505Y009573D03*
X017505Y009530D03*
X017505Y009487D03*
X017505Y009444D03*
X016340Y010566D03*
X016340Y010652D03*
X016340Y010695D03*
X016340Y010738D03*
X016340Y010781D03*
X015434Y012292D03*
X014786Y013457D03*
X014786Y013500D03*
X014657Y013673D03*
X014657Y013716D03*
X014527Y013975D03*
X015563Y014492D03*
X015563Y014536D03*
X015692Y014363D03*
X015692Y014320D03*
X015692Y014277D03*
X015692Y014233D03*
X017375Y014104D03*
X018281Y013629D03*
X018281Y013543D03*
X017505Y012421D03*
X015434Y009314D03*
X015951Y008667D03*
X015951Y008624D03*
X015951Y008581D03*
X015951Y008538D03*
X011938Y010479D03*
X011938Y010523D03*
X011938Y010566D03*
X011938Y010652D03*
X011809Y011515D03*
X010126Y010479D03*
X010126Y010436D03*
X010126Y010393D03*
X010126Y010350D03*
X009738Y009487D03*
X009738Y009444D03*
X009091Y010436D03*
X009091Y010479D03*
X009349Y011990D03*
X009349Y012033D03*
X008573Y013414D03*
X008573Y013457D03*
X008573Y013500D03*
X008443Y014104D03*
X009738Y016175D03*
X012327Y018678D03*
X009867Y019023D03*
X009867Y019066D03*
X009867Y019109D03*
X009867Y019153D03*
X009867Y019196D03*
X009867Y019282D03*
X009738Y020016D03*
X009738Y020059D03*
X008702Y020577D03*
X008702Y020620D03*
X008702Y020663D03*
X008443Y020059D03*
X008443Y020016D03*
X011421Y023899D03*
X011421Y023942D03*
X012327Y023942D03*
X012327Y023899D03*
X013233Y023899D03*
X013233Y023942D03*
X012845Y024935D03*
X012845Y024978D03*
X012715Y025366D03*
X012715Y025409D03*
X012715Y025453D03*
X011550Y025453D03*
X010385Y026100D03*
X010385Y026143D03*
X010385Y026186D03*
X010385Y026229D03*
X010385Y026272D03*
X011680Y027826D03*
X011680Y027912D03*
X011680Y027955D03*
X011680Y027998D03*
X011809Y029465D03*
X011809Y029509D03*
X011809Y029552D03*
X011809Y029595D03*
X011809Y029681D03*
X011809Y029724D03*
X011809Y029768D03*
X011809Y029811D03*
X011809Y029854D03*
X011809Y029897D03*
X011938Y030113D03*
X011938Y030156D03*
X011938Y030199D03*
X011938Y030285D03*
X012068Y030674D03*
X012068Y030717D03*
X012456Y032443D03*
X012456Y032486D03*
X012456Y032529D03*
X012456Y032572D03*
X012456Y032659D03*
X012456Y032702D03*
X012456Y032745D03*
X012586Y032874D03*
X012586Y032961D03*
X012586Y033004D03*
X012586Y033047D03*
X012586Y033090D03*
X012586Y033133D03*
X012715Y033392D03*
X012715Y033435D03*
X012974Y033996D03*
X012974Y034039D03*
X012974Y034083D03*
X015304Y033910D03*
X015304Y033867D03*
X015822Y033133D03*
X015822Y033090D03*
X016210Y034298D03*
X017634Y035938D03*
X017634Y035981D03*
X017893Y037491D03*
X017893Y037535D03*
X017764Y037707D03*
X018411Y039304D03*
X018411Y039347D03*
X012068Y037146D03*
X012068Y037060D03*
X012068Y037017D03*
X012068Y036974D03*
X014786Y031407D03*
X015045Y029552D03*
X015045Y029509D03*
X015822Y028214D03*
X016210Y027351D03*
X016210Y027308D03*
X017764Y029379D03*
X017764Y029422D03*
X019188Y029768D03*
X019188Y029811D03*
X020612Y030285D03*
X020612Y030328D03*
X020612Y030372D03*
X020612Y030415D03*
X020612Y030458D03*
X020482Y031666D03*
X023546Y032270D03*
X020784Y027912D03*
X020741Y027222D03*
X020741Y027179D03*
X020741Y027135D03*
X020741Y027092D03*
X020741Y027049D03*
X020741Y027006D03*
X019188Y027696D03*
X020741Y024201D03*
X012715Y026876D03*
X012715Y026920D03*
X005336Y033737D03*
X014786Y016218D03*
X014786Y016175D03*
D61*
X016081Y013975D03*
X016081Y013068D03*
X017375Y012162D03*
X017375Y012119D03*
X017764Y011299D03*
X017764Y011256D03*
X017764Y011213D03*
X017764Y011127D03*
X017764Y011084D03*
X017764Y011040D03*
X017764Y010997D03*
X017764Y010954D03*
X018540Y009444D03*
X018670Y009314D03*
X018670Y009271D03*
X017764Y008581D03*
X017764Y008538D03*
X021518Y012292D03*
X021518Y012335D03*
X021129Y014363D03*
X021129Y014406D03*
X021777Y014579D03*
X021777Y014622D03*
X021777Y014665D03*
X018799Y018505D03*
X018799Y018548D03*
X020612Y024719D03*
X020612Y024762D03*
X020612Y024805D03*
X020612Y024848D03*
X020612Y025237D03*
X020612Y025280D03*
X017764Y027049D03*
X017505Y028948D03*
X017505Y028991D03*
X018929Y030372D03*
X018929Y030415D03*
X023675Y032702D03*
X023675Y032745D03*
X023675Y032788D03*
X023675Y032831D03*
X023675Y032874D03*
X023675Y034169D03*
X023675Y034212D03*
X023675Y034255D03*
X023675Y034298D03*
X023675Y034341D03*
X023675Y034385D03*
X023675Y034471D03*
X023675Y034514D03*
X023675Y034557D03*
X023675Y034600D03*
X023675Y034644D03*
X023675Y034730D03*
X023675Y034773D03*
X023675Y034816D03*
X023675Y034859D03*
X023675Y034902D03*
X023675Y034946D03*
X023675Y035032D03*
X023675Y035075D03*
X023675Y035118D03*
X023675Y035161D03*
X023675Y035204D03*
X023675Y035248D03*
X023675Y035334D03*
X023675Y035377D03*
X023675Y035420D03*
X023675Y035463D03*
X023675Y035507D03*
X023675Y035550D03*
X023675Y035636D03*
X023675Y035679D03*
X023675Y035722D03*
X023675Y035765D03*
X023675Y035809D03*
X023675Y035852D03*
X023675Y035938D03*
X023675Y035981D03*
X023675Y036024D03*
X023675Y036067D03*
X023675Y036111D03*
X023675Y036154D03*
X023460Y036326D03*
X021000Y037491D03*
X021000Y037535D03*
X015304Y037146D03*
X013233Y034730D03*
X012974Y033910D03*
X012974Y033867D03*
X012327Y032357D03*
X012327Y032270D03*
X012327Y032227D03*
X012197Y032098D03*
X012197Y032055D03*
X012068Y031752D03*
X011680Y029250D03*
X011680Y029207D03*
X011680Y029163D03*
X011680Y029120D03*
X011680Y029077D03*
X011421Y028861D03*
X011421Y028818D03*
X012974Y027610D03*
X012974Y027524D03*
X012974Y027481D03*
X012974Y027437D03*
X010126Y023640D03*
X009738Y022561D03*
X009738Y022475D03*
X009738Y022432D03*
X009738Y022389D03*
X009608Y021871D03*
X009608Y021828D03*
X009479Y021526D03*
X009479Y021483D03*
X009349Y021094D03*
X009349Y021051D03*
X009349Y020965D03*
X009349Y020922D03*
X009608Y019929D03*
X009608Y019886D03*
X008702Y013629D03*
D62*
X010838Y011429D03*
X010838Y011386D03*
X010838Y011342D03*
X011097Y013543D03*
X014204Y010264D03*
X014204Y010221D03*
X016404Y009185D03*
X016404Y009142D03*
X016404Y009055D03*
X016404Y009012D03*
X019770Y008538D03*
X023006Y016305D03*
X019641Y018851D03*
X019641Y018894D03*
X020029Y020965D03*
X019900Y022259D03*
X019900Y022303D03*
X019900Y022346D03*
X019900Y022389D03*
X019900Y022432D03*
X019900Y023252D03*
X019900Y023295D03*
X019900Y023338D03*
X019900Y024029D03*
X019900Y024072D03*
X016922Y025625D03*
X017181Y026143D03*
X016663Y026488D03*
X016663Y026531D03*
X011226Y024848D03*
X011097Y024719D03*
X011097Y024676D03*
X010838Y024546D03*
X010407Y024029D03*
X010450Y026013D03*
X010579Y026876D03*
X010579Y026920D03*
X013686Y032357D03*
X013686Y032400D03*
X013686Y032443D03*
X013686Y032486D03*
X013686Y032529D03*
X016404Y034169D03*
X016534Y034039D03*
X013557Y037146D03*
X013557Y037189D03*
X016404Y039088D03*
X016404Y039131D03*
X022489Y028387D03*
X022489Y020490D03*
X011226Y020059D03*
X010968Y020835D03*
X005056Y031105D03*
X005099Y031968D03*
X005099Y032961D03*
X005272Y034298D03*
X005229Y034385D03*
D63*
X005531Y035118D03*
X011615Y029379D03*
X011874Y030372D03*
X011874Y030415D03*
X012003Y030587D03*
X013427Y031019D03*
X013427Y031062D03*
X013427Y031105D03*
X013427Y031191D03*
X014722Y031537D03*
X014722Y031580D03*
X015757Y033263D03*
X015757Y033306D03*
X015757Y033349D03*
X015757Y033392D03*
X015628Y033565D03*
X015628Y033608D03*
X015628Y033651D03*
X015239Y033996D03*
X015239Y034039D03*
X015239Y034083D03*
X015239Y034169D03*
X015239Y035032D03*
X015239Y035075D03*
X015239Y035118D03*
X015239Y035420D03*
X015239Y035463D03*
X015239Y035507D03*
X016016Y035118D03*
X016016Y035075D03*
X017699Y036067D03*
X017699Y036111D03*
X017958Y036240D03*
X017958Y036283D03*
X020288Y038527D03*
X020288Y038613D03*
X020935Y038786D03*
X020935Y038829D03*
X020935Y038915D03*
X020935Y038959D03*
X020935Y039002D03*
X020935Y039045D03*
X020935Y039088D03*
X020935Y039131D03*
X020935Y039304D03*
X020935Y039347D03*
X020935Y039390D03*
X023136Y038829D03*
X023136Y038786D03*
X023136Y038743D03*
X023136Y038700D03*
X023136Y038656D03*
X023265Y038959D03*
X023265Y039002D03*
X023265Y039045D03*
X023265Y039088D03*
X023265Y039131D03*
X023265Y039217D03*
X023395Y039347D03*
X023395Y039390D03*
X023395Y039433D03*
X023524Y037362D03*
X017828Y029293D03*
X017828Y029250D03*
X017311Y027739D03*
X017311Y027696D03*
X018346Y027696D03*
X018346Y027739D03*
X019252Y027610D03*
X019252Y027524D03*
X020806Y025150D03*
X020806Y025107D03*
X020806Y025064D03*
X020806Y024633D03*
X020806Y024546D03*
X020806Y024115D03*
X020806Y024072D03*
X020806Y024029D03*
X020806Y023554D03*
X020935Y022432D03*
X020806Y021138D03*
X020806Y021094D03*
X020806Y020663D03*
X022359Y019498D03*
X023783Y020533D03*
X023783Y020577D03*
X020159Y018548D03*
X020159Y018505D03*
X020159Y018462D03*
X020159Y018419D03*
X020159Y018376D03*
X019252Y017599D03*
X019252Y017556D03*
X018864Y018376D03*
X018864Y018419D03*
X018735Y019282D03*
X019382Y016175D03*
X021194Y014104D03*
X021194Y013759D03*
X021194Y013716D03*
X021194Y013673D03*
X020159Y013370D03*
X020159Y013327D03*
X020159Y013241D03*
X020159Y013198D03*
X020159Y013155D03*
X020159Y013112D03*
X020159Y013068D03*
X020159Y013025D03*
X020159Y012939D03*
X020159Y012896D03*
X020159Y012853D03*
X020159Y012810D03*
X020159Y012766D03*
X020159Y012723D03*
X020159Y012637D03*
X020159Y012594D03*
X020159Y012551D03*
X020159Y012507D03*
X020159Y012464D03*
X020159Y012421D03*
X020159Y012335D03*
X020159Y012292D03*
X020159Y012249D03*
X020159Y012205D03*
X020159Y012162D03*
X020159Y012119D03*
X020159Y012033D03*
X020159Y011990D03*
X019252Y011256D03*
X019252Y011213D03*
X018476Y010479D03*
X018476Y010436D03*
X017699Y010436D03*
X017699Y010479D03*
X017570Y010738D03*
X017570Y010781D03*
X017570Y011342D03*
X017570Y011386D03*
X017570Y011429D03*
X017570Y011515D03*
X017570Y011558D03*
X017570Y011601D03*
X017570Y011644D03*
X018864Y012766D03*
X018864Y012810D03*
X017570Y013327D03*
X016404Y015010D03*
X014851Y016866D03*
X014851Y016909D03*
X014851Y016952D03*
X014851Y016995D03*
X014851Y017038D03*
X014851Y017081D03*
X014204Y016693D03*
X014894Y018203D03*
X011874Y017254D03*
X011874Y017211D03*
X011744Y016736D03*
X011744Y016693D03*
X011744Y016650D03*
X009802Y016305D03*
X009673Y016089D03*
X009673Y016046D03*
X009673Y016003D03*
X009026Y013759D03*
X009026Y013716D03*
X008379Y013931D03*
X008379Y013975D03*
X008379Y014018D03*
X009544Y012292D03*
X009544Y012249D03*
X008767Y010134D03*
X008767Y010091D03*
X011744Y011601D03*
X011744Y011644D03*
X011744Y011688D03*
X011744Y011731D03*
X011874Y010393D03*
X011874Y010350D03*
X011874Y010264D03*
X011874Y010221D03*
X014204Y010134D03*
X014204Y010091D03*
X014463Y010566D03*
X015369Y010738D03*
X015887Y010091D03*
X015757Y009962D03*
X015757Y009918D03*
X015757Y009875D03*
X015757Y009832D03*
X015239Y009185D03*
X015110Y009055D03*
X017570Y008710D03*
X017570Y008667D03*
X017570Y008624D03*
X019123Y009055D03*
X019252Y008926D03*
X020935Y009530D03*
X020935Y009573D03*
X020935Y009616D03*
X020935Y009660D03*
X020935Y009746D03*
X020676Y010566D03*
X020676Y010652D03*
X020676Y010695D03*
X020676Y010738D03*
X022100Y010566D03*
X023524Y010221D03*
X023524Y010177D03*
X023654Y010479D03*
X023654Y010523D03*
X023654Y010566D03*
X023783Y010738D03*
X023783Y010781D03*
X023783Y010825D03*
X023783Y010911D03*
X023783Y010954D03*
X023783Y010997D03*
X023136Y008581D03*
X023136Y008538D03*
X015628Y012119D03*
X015628Y012162D03*
X015369Y012421D03*
X009802Y018462D03*
X009802Y018505D03*
X009802Y019368D03*
X009802Y019411D03*
X009802Y019455D03*
X009673Y020145D03*
X009673Y020188D03*
X009673Y020231D03*
X009673Y020275D03*
X009673Y020318D03*
X009673Y020361D03*
X009673Y020447D03*
X009673Y020490D03*
X009673Y020533D03*
X009673Y020577D03*
X009673Y020620D03*
X009673Y020663D03*
X008896Y020835D03*
X008508Y020188D03*
X008508Y020145D03*
X008896Y019584D03*
X011356Y019023D03*
X011356Y018980D03*
X011356Y018894D03*
X011744Y024546D03*
X011356Y024935D03*
X011356Y024978D03*
X011356Y025021D03*
X011615Y025582D03*
X011615Y025625D03*
X011615Y025668D03*
X011615Y025711D03*
X011615Y025798D03*
X011615Y025841D03*
X011615Y025884D03*
X011615Y025927D03*
X011615Y025970D03*
X011615Y026013D03*
X011615Y026100D03*
X011615Y026143D03*
X011615Y026186D03*
X011615Y026402D03*
X011615Y026445D03*
X011615Y026488D03*
X011615Y026531D03*
X011615Y026574D03*
X011615Y026747D03*
X011615Y026790D03*
X011615Y026833D03*
X011615Y026876D03*
X011615Y026920D03*
X011615Y027006D03*
X011615Y027049D03*
X011615Y027092D03*
X011615Y027135D03*
X011615Y027179D03*
X011615Y027222D03*
X012262Y028300D03*
X012262Y028344D03*
X010320Y026790D03*
X010320Y026747D03*
X010320Y026704D03*
X010320Y026618D03*
X012521Y025625D03*
X012780Y025280D03*
X012780Y025237D03*
X012391Y024762D03*
X012391Y024719D03*
X016404Y026790D03*
X016404Y026833D03*
X016404Y026876D03*
X016404Y026920D03*
X012650Y033263D03*
X012650Y033306D03*
X006523Y028387D03*
D64*
X004905Y031321D03*
X005293Y035334D03*
X010860Y024633D03*
X011119Y024762D03*
X011205Y024805D03*
X011205Y020016D03*
X016944Y025582D03*
X017203Y026100D03*
X017160Y026186D03*
X016642Y026574D03*
X019878Y024115D03*
X020051Y020922D03*
X022510Y020533D03*
X022510Y020447D03*
X022985Y016348D03*
X016426Y009228D03*
X019749Y008581D03*
X011075Y013629D03*
X022510Y028344D03*
X016555Y033996D03*
X016512Y034083D03*
X016383Y034212D03*
X016383Y039045D03*
D65*
X018303Y039433D03*
X018389Y039390D03*
X017785Y037621D03*
X017872Y037578D03*
X017656Y036024D03*
X016189Y034341D03*
X016232Y034255D03*
X015283Y033953D03*
X015800Y033176D03*
X014765Y031494D03*
X012607Y033176D03*
X012694Y033349D03*
X012564Y032831D03*
X012478Y032788D03*
X012046Y030631D03*
X011917Y030328D03*
X011658Y027783D03*
X010363Y026316D03*
X011572Y025539D03*
X012694Y025539D03*
X012737Y025323D03*
X012823Y025021D03*
X015844Y028257D03*
X019166Y027739D03*
X019209Y027653D03*
X020849Y024460D03*
X020849Y024417D03*
X020763Y024244D03*
X020763Y024158D03*
X020978Y022389D03*
X020763Y019368D03*
X018691Y019196D03*
X018648Y019109D03*
X018562Y019066D03*
X018562Y019023D03*
X018691Y017297D03*
X020590Y015485D03*
X022143Y014536D03*
X022273Y014406D03*
X022316Y014320D03*
X023222Y015096D03*
X023826Y017211D03*
X023826Y017254D03*
X023826Y019109D03*
X023826Y019153D03*
X023826Y019196D03*
X023826Y021224D03*
X023826Y021267D03*
X023826Y028300D03*
X023826Y028344D03*
X023826Y028387D03*
X023826Y028948D03*
X023826Y028991D03*
X023826Y029077D03*
X023826Y029120D03*
X023826Y033263D03*
X023826Y033306D03*
X021280Y037362D03*
X021237Y037448D03*
X005315Y033306D03*
X005272Y032745D03*
X004452Y027524D03*
X008724Y020749D03*
X009846Y019325D03*
X011701Y016607D03*
X011658Y016520D03*
X009759Y016218D03*
X009716Y016132D03*
X008422Y014061D03*
X010105Y010523D03*
X011917Y010436D03*
X011787Y011558D03*
X014549Y013931D03*
X015714Y014190D03*
X015671Y014406D03*
X017397Y014061D03*
X017526Y012464D03*
X017613Y010825D03*
X017656Y010393D03*
X018519Y010393D03*
X018778Y010264D03*
X018950Y009918D03*
X021539Y011990D03*
X021151Y013802D03*
X021151Y013888D03*
X023179Y008624D03*
X015973Y008710D03*
X015412Y009271D03*
X015455Y009358D03*
X015455Y012249D03*
X015412Y012335D03*
X014808Y016132D03*
D66*
X017893Y014881D03*
X017893Y014838D03*
X018929Y009660D03*
X018023Y008753D03*
X009349Y019627D03*
X009349Y019670D03*
X009349Y019714D03*
X011680Y028689D03*
X011680Y030933D03*
X012197Y031278D03*
X012197Y031321D03*
X015692Y035204D03*
X015692Y035248D03*
X014786Y035809D03*
X014786Y035852D03*
X014786Y035938D03*
X014786Y035981D03*
X014786Y036024D03*
X015822Y037276D03*
X015822Y037319D03*
X021518Y037793D03*
D67*
X022834Y038398D03*
X013729Y036542D03*
X013513Y037233D03*
X013513Y037319D03*
X013772Y032659D03*
X013729Y032572D03*
X016707Y026445D03*
X019727Y025409D03*
X019943Y022475D03*
X022704Y021267D03*
X019554Y009616D03*
X019598Y009530D03*
X023093Y008753D03*
X011313Y010781D03*
X011054Y013500D03*
X011011Y020792D03*
X005013Y031191D03*
X004970Y031278D03*
X005142Y032831D03*
X005142Y032874D03*
X005185Y033392D03*
X005185Y033435D03*
X005185Y033478D03*
X005229Y033867D03*
X005229Y033910D03*
D68*
X015498Y034687D03*
X015498Y034989D03*
X017570Y026057D03*
X020547Y017729D03*
X010061Y008797D03*
X009155Y015657D03*
X009544Y021612D03*
D69*
X010773Y021008D03*
X013621Y024590D03*
X016858Y025496D03*
X019705Y024287D03*
X019705Y023683D03*
X016599Y029034D03*
X022553Y037405D03*
X016599Y038570D03*
X011032Y017125D03*
X011032Y016822D03*
X011032Y008797D03*
X019964Y010609D03*
X022553Y012076D03*
X022553Y012378D03*
D70*
X023395Y011774D03*
X021324Y010868D03*
X020547Y013845D03*
X020547Y014147D03*
X022230Y014751D03*
X022359Y016262D03*
X021065Y019800D03*
X021065Y020102D03*
X017958Y014147D03*
X018087Y012378D03*
X018087Y012076D03*
X015757Y013284D03*
X015498Y016262D03*
X015498Y016564D03*
X012003Y016822D03*
X011874Y016262D03*
X011874Y015355D03*
X011356Y013845D03*
X010968Y013284D03*
X009932Y012076D03*
X010320Y010609D03*
X015110Y008797D03*
X017181Y009099D03*
X010061Y019541D03*
X010579Y020706D03*
X012391Y025755D03*
X009673Y026057D03*
X011097Y029638D03*
X013298Y031709D03*
X014463Y032918D03*
X015498Y035593D03*
X018087Y034989D03*
X018476Y031709D03*
X023913Y037103D03*
X023006Y037405D03*
X021194Y039174D03*
D71*
X020806Y039174D03*
X020935Y038570D03*
X020159Y038872D03*
X020029Y037966D03*
X020029Y037664D03*
X020029Y037405D03*
X020547Y037405D03*
X020547Y037103D03*
X021712Y038570D03*
X022359Y038872D03*
X018864Y036197D03*
X017311Y035593D03*
X015110Y035593D03*
X014333Y034687D03*
X014333Y033522D03*
X014981Y033522D03*
X015110Y032615D03*
X016146Y032615D03*
X014463Y031709D03*
X014074Y032918D03*
X011874Y034428D03*
X012003Y034687D03*
X015887Y039174D03*
X019252Y031709D03*
X019252Y031450D03*
X019252Y031148D03*
X019382Y029940D03*
X018993Y029638D03*
X018864Y029940D03*
X017828Y029940D03*
X017828Y030242D03*
X017828Y030544D03*
X015887Y028732D03*
X015887Y028473D03*
X017181Y027567D03*
X017440Y027265D03*
X017440Y026963D03*
X020547Y027265D03*
X020935Y025755D03*
X020935Y023683D03*
X020676Y020102D03*
X020935Y019239D03*
X020935Y018333D03*
X020806Y017125D03*
X020806Y016822D03*
X022489Y016822D03*
X022489Y017125D03*
X023006Y016822D03*
X021841Y015355D03*
X023136Y013284D03*
X022489Y012680D03*
X021971Y012680D03*
X021841Y012378D03*
X020417Y011774D03*
X019123Y012378D03*
X018476Y014147D03*
X019511Y014751D03*
X019123Y017729D03*
X016146Y016564D03*
X016016Y016822D03*
X014981Y015657D03*
X015110Y015355D03*
X015239Y014751D03*
X015369Y011774D03*
X016016Y010307D03*
X016534Y010307D03*
X016146Y008797D03*
X012133Y010868D03*
X011744Y012076D03*
X011615Y012378D03*
X011485Y012680D03*
X011097Y012076D03*
X010450Y011774D03*
X009802Y011170D03*
X009932Y010868D03*
X009932Y010609D03*
X010450Y010868D03*
X009155Y010609D03*
X009026Y010868D03*
X008379Y012680D03*
X008249Y013284D03*
X010320Y014147D03*
X011356Y013284D03*
X010450Y015657D03*
X009802Y017125D03*
X011615Y016822D03*
X011226Y018635D03*
X009673Y019541D03*
X011097Y022216D03*
X012391Y024590D03*
X013427Y025496D03*
X009802Y025755D03*
X003589Y027265D03*
X011356Y009401D03*
X023913Y012378D03*
D72*
X018929Y009703D03*
X018023Y008797D03*
X011680Y028732D03*
X014786Y035895D03*
D73*
X013751Y036499D03*
X013751Y032615D03*
X022424Y028473D03*
X019964Y022518D03*
X022553Y013845D03*
X023201Y009401D03*
X023071Y008797D03*
D74*
X018023Y008840D03*
D75*
X019576Y009573D03*
X023071Y008840D03*
X023201Y009444D03*
X023201Y009487D03*
X022553Y013802D03*
X022553Y013888D03*
X022553Y013931D03*
X022553Y013975D03*
X022812Y016391D03*
X022812Y016434D03*
X022812Y016477D03*
X017246Y020447D03*
X017246Y020490D03*
X017246Y020533D03*
X017246Y020577D03*
X017246Y020620D03*
X019964Y022561D03*
X022424Y022389D03*
X019835Y025107D03*
X019705Y025323D03*
X019705Y025366D03*
X016728Y026402D03*
X013621Y025927D03*
X013621Y025884D03*
X013621Y025841D03*
X010514Y028344D03*
X010514Y028387D03*
X005078Y029163D03*
X004991Y031235D03*
X013751Y036456D03*
X013492Y037276D03*
X022424Y028948D03*
X022812Y038441D03*
X022812Y038484D03*
X011032Y013457D03*
X011032Y013414D03*
X010514Y013241D03*
X010514Y013198D03*
X010514Y013155D03*
X010514Y013112D03*
X010514Y013068D03*
X010514Y013025D03*
X010644Y012594D03*
X010644Y012551D03*
X010644Y012507D03*
X011291Y010738D03*
X011291Y010695D03*
D76*
X009954Y008969D03*
X009954Y008883D03*
X017936Y012507D03*
X018713Y011558D03*
X017850Y016391D03*
X023503Y019282D03*
X023503Y019325D03*
X023503Y019368D03*
X023503Y019411D03*
X023503Y019455D03*
X023503Y022864D03*
X023503Y022907D03*
X023503Y022950D03*
X023503Y024676D03*
X023503Y024719D03*
X023503Y024762D03*
X023503Y024805D03*
X023503Y024848D03*
X019015Y027394D03*
X018972Y027481D03*
X015865Y027481D03*
X015649Y027653D03*
X012801Y026100D03*
X011982Y028257D03*
X015002Y037491D03*
X014959Y037578D03*
X014743Y037621D03*
X014700Y037707D03*
X021086Y038139D03*
X021475Y038009D03*
D77*
X023438Y037707D03*
X024085Y037362D03*
X024085Y038052D03*
X024085Y038096D03*
X018907Y033651D03*
X018907Y033608D03*
X018907Y032745D03*
X018907Y032702D03*
X018907Y032659D03*
X018907Y032572D03*
X018648Y032055D03*
X018519Y031796D03*
X018907Y029509D03*
X017872Y027351D03*
X017656Y026618D03*
X015196Y027524D03*
X013988Y026488D03*
X012737Y025798D03*
X011917Y025409D03*
X012046Y025021D03*
X012089Y024935D03*
X012435Y024374D03*
X011917Y023424D03*
X011917Y023338D03*
X010665Y021138D03*
X010536Y020620D03*
X009198Y019066D03*
X009242Y018203D03*
X009198Y017772D03*
X009198Y017685D03*
X008983Y017254D03*
X011831Y015485D03*
X014808Y012766D03*
X014937Y012637D03*
X015024Y012594D03*
X015067Y012507D03*
X016102Y012637D03*
X018130Y011817D03*
X018260Y010911D03*
X019080Y010825D03*
X019468Y011084D03*
X021885Y010048D03*
X018303Y014018D03*
X015541Y016218D03*
X012564Y019066D03*
X009716Y025927D03*
X010493Y026488D03*
X011054Y029724D03*
X013254Y030501D03*
X013341Y030458D03*
X013643Y030889D03*
X013988Y031494D03*
X012996Y031752D03*
X014506Y032961D03*
X014549Y033047D03*
X014635Y033090D03*
X011701Y034341D03*
X012823Y037189D03*
X013470Y037707D03*
X014808Y039390D03*
X017009Y039002D03*
X017095Y039045D03*
X018303Y038656D03*
X018389Y038613D03*
X018433Y038527D03*
X018519Y038484D03*
X018562Y038398D03*
X018648Y038354D03*
X018044Y035550D03*
X018130Y035507D03*
X024085Y029422D03*
X024085Y029379D03*
X021108Y027394D03*
X023567Y025539D03*
X023611Y025064D03*
X020245Y023122D03*
X019554Y022087D03*
X022963Y019109D03*
X023050Y019066D03*
X023222Y018721D03*
X024085Y018721D03*
X024085Y018764D03*
X024085Y018807D03*
X024085Y018851D03*
X024085Y018894D03*
X024085Y018980D03*
X024085Y019023D03*
X024085Y019066D03*
X024085Y020965D03*
X022316Y017685D03*
X023179Y016607D03*
X021280Y014838D03*
X020331Y016736D03*
X015153Y008883D03*
X011572Y011947D03*
X004754Y032141D03*
X005444Y032702D03*
X005531Y033263D03*
X005315Y034902D03*
D78*
X011809Y030803D03*
X011809Y030760D03*
X012974Y033478D03*
X012456Y035852D03*
X012327Y035981D03*
X015304Y029595D03*
X017764Y029552D03*
X017764Y029509D03*
X017634Y025884D03*
X017634Y025841D03*
X021647Y029983D03*
X021647Y030026D03*
X020612Y038700D03*
X020612Y038743D03*
X011809Y024503D03*
X011809Y024460D03*
X011809Y024417D03*
X011680Y024115D03*
X011680Y024072D03*
X011680Y024029D03*
X015175Y016046D03*
X015434Y011299D03*
X015434Y011256D03*
X015434Y011213D03*
X018023Y009055D03*
X018023Y009012D03*
X018023Y008969D03*
X018023Y008926D03*
X018023Y008883D03*
X020871Y015226D03*
X020871Y015269D03*
X020482Y017858D03*
X020482Y017901D03*
X020482Y017944D03*
X020482Y017988D03*
X020482Y018074D03*
X020482Y018117D03*
X020482Y018160D03*
X020482Y018203D03*
X020482Y018246D03*
X020482Y018290D03*
X009867Y010134D03*
X009867Y010091D03*
X009867Y010048D03*
X009867Y009962D03*
X009867Y009918D03*
X009867Y009875D03*
X009867Y009832D03*
X009867Y009789D03*
X009867Y009746D03*
X009867Y009660D03*
X008832Y010350D03*
X008832Y010393D03*
X008702Y013888D03*
D79*
X008724Y013802D03*
X015153Y016089D03*
X015196Y016003D03*
X018821Y019757D03*
X018821Y019843D03*
X020504Y017815D03*
X020849Y015312D03*
X023567Y014881D03*
X023567Y017772D03*
X023567Y009962D03*
X023567Y009918D03*
X023567Y009055D03*
X023567Y009012D03*
X023567Y008969D03*
X023567Y008926D03*
X023567Y008883D03*
X017613Y025927D03*
X019166Y027351D03*
X021669Y030070D03*
X023567Y027481D03*
X023567Y027437D03*
X023567Y027394D03*
X023567Y027351D03*
X023567Y027308D03*
X015326Y029681D03*
X012996Y033565D03*
X012478Y035809D03*
X012348Y035938D03*
X012305Y036024D03*
X012866Y039433D03*
X020590Y038656D03*
D80*
X021065Y038354D03*
X021065Y038311D03*
X021065Y038225D03*
X021065Y038182D03*
X021453Y038096D03*
X021453Y038052D03*
X021582Y037923D03*
X021582Y037880D03*
X014981Y037535D03*
X012003Y028214D03*
X012003Y028128D03*
X012003Y028085D03*
X012003Y028042D03*
X012780Y026186D03*
X012780Y026143D03*
X015628Y027696D03*
X015628Y027739D03*
X015628Y027783D03*
X015628Y027826D03*
X015887Y027437D03*
X015887Y027394D03*
X017699Y027783D03*
X017699Y027826D03*
X018993Y027437D03*
X017828Y016477D03*
X017828Y016434D03*
X017570Y015916D03*
X017828Y015010D03*
X017828Y014967D03*
X017958Y012594D03*
X017958Y012551D03*
X018735Y011515D03*
X009932Y008926D03*
D81*
X010752Y019498D03*
X010795Y019584D03*
X013902Y026445D03*
X016879Y030113D03*
X013902Y031537D03*
X004970Y030760D03*
X004927Y034946D03*
X004927Y035032D03*
X004970Y035118D03*
X022791Y010695D03*
X022704Y008969D03*
D82*
X016512Y011601D03*
X010946Y009012D03*
X022640Y018462D03*
X020008Y022605D03*
X020266Y025539D03*
X022726Y025668D03*
X022769Y024331D03*
X022769Y024244D03*
X022769Y024201D03*
X022769Y024158D03*
X010601Y028516D03*
X010558Y028430D03*
X022855Y038527D03*
D83*
X022877Y038613D03*
X016663Y029897D03*
X016663Y029854D03*
X020288Y025453D03*
X022748Y025453D03*
X022748Y025539D03*
X022748Y025582D03*
X022748Y025625D03*
X022359Y028646D03*
X022359Y029077D03*
X020029Y022691D03*
X020029Y022648D03*
X019252Y019714D03*
X019252Y019670D03*
X022618Y018505D03*
X022704Y018419D03*
X022748Y018376D03*
X022834Y016132D03*
X022877Y011947D03*
X022877Y011903D03*
X022877Y011860D03*
X017311Y011990D03*
X017311Y012033D03*
X016534Y011688D03*
X016534Y011644D03*
X010968Y009055D03*
X010450Y012896D03*
X010450Y012939D03*
D84*
X009285Y011774D03*
X011356Y010868D03*
X009802Y009099D03*
X017570Y009703D03*
X018864Y011774D03*
X018735Y012680D03*
X017570Y014751D03*
X017570Y015657D03*
X020547Y014751D03*
X020676Y015657D03*
X023265Y019541D03*
X020676Y023079D03*
X023265Y024590D03*
X018605Y025496D03*
X015887Y027567D03*
X018993Y030544D03*
X021065Y037664D03*
X010061Y025496D03*
X011356Y023683D03*
X009673Y022216D03*
X009414Y021310D03*
D85*
X010579Y028473D03*
X016663Y029940D03*
X020288Y025496D03*
X022748Y025496D03*
X022877Y038570D03*
X010968Y009099D03*
D86*
X015132Y009099D03*
X019101Y009099D03*
X023891Y011774D03*
X023891Y013284D03*
X023891Y013586D03*
X023891Y013845D03*
X023891Y014147D03*
X023891Y017125D03*
X022381Y019541D03*
X018886Y018333D03*
X012758Y025194D03*
X016383Y026963D03*
X023891Y030544D03*
X017936Y036197D03*
X023157Y038872D03*
D87*
X010838Y024590D03*
X011226Y020102D03*
X011097Y013586D03*
X016404Y009099D03*
X023006Y016262D03*
X022618Y018635D03*
X019900Y022216D03*
X005099Y032011D03*
X005142Y033522D03*
D88*
X012974Y033522D03*
X015304Y029638D03*
X020482Y018031D03*
X018023Y009099D03*
X009867Y009703D03*
X008702Y013845D03*
D89*
X012111Y019239D03*
X010687Y021310D03*
X012111Y023683D03*
X006415Y028732D03*
X018238Y019541D03*
X016038Y015355D03*
X020784Y009099D03*
X022510Y009099D03*
X024150Y009401D03*
X024150Y037664D03*
D90*
X022748Y010609D03*
X022748Y009099D03*
D91*
X023567Y009099D03*
X023567Y017729D03*
X018821Y019800D03*
X008853Y010307D03*
X012435Y035895D03*
D92*
X016534Y037578D03*
X022877Y024115D03*
X022920Y020965D03*
X022920Y020922D03*
X023050Y009228D03*
X020288Y009271D03*
D93*
X020288Y009314D03*
X020288Y010436D03*
X020288Y010479D03*
X019641Y013975D03*
X017311Y014492D03*
X017311Y014536D03*
X016275Y011558D03*
X016275Y011515D03*
X016146Y010997D03*
X016146Y010954D03*
X010968Y011084D03*
X010968Y011127D03*
X020461Y018592D03*
X020417Y018678D03*
X022877Y019627D03*
X022877Y026402D03*
X022877Y026445D03*
X022877Y028257D03*
X019511Y027049D03*
X019382Y027179D03*
X013427Y026013D03*
X013427Y025970D03*
X005185Y030070D03*
X013427Y036585D03*
X013427Y036628D03*
X013427Y036672D03*
X014074Y035377D03*
X014074Y035334D03*
X016534Y037491D03*
X016534Y037535D03*
D94*
X015326Y037189D03*
X013211Y034644D03*
X013211Y034471D03*
X013211Y034385D03*
X012348Y032400D03*
X012305Y032184D03*
X012219Y032141D03*
X012089Y031666D03*
X011701Y029293D03*
X011442Y028905D03*
X010148Y023727D03*
X009716Y022346D03*
X009457Y021440D03*
X009371Y021138D03*
X009630Y019972D03*
X011442Y015701D03*
X011442Y015614D03*
X008681Y013543D03*
X016059Y014018D03*
X016102Y013931D03*
X016102Y013112D03*
X016059Y013025D03*
X017397Y012205D03*
X018648Y009358D03*
X021496Y012249D03*
X021108Y014320D03*
X020719Y015399D03*
X023697Y017470D03*
X023697Y017513D03*
X020633Y024676D03*
X017742Y027006D03*
X017742Y027092D03*
X018950Y030458D03*
X023697Y033781D03*
X023697Y033867D03*
X023697Y033910D03*
X023697Y033953D03*
X023697Y033996D03*
X023697Y034039D03*
X023697Y034083D03*
X023697Y037276D03*
X023697Y037319D03*
X021022Y037578D03*
D95*
X022985Y020231D03*
X022985Y020188D03*
X022985Y020145D03*
X023460Y009875D03*
X020310Y009358D03*
X019188Y010048D03*
X010385Y012853D03*
D96*
X014420Y010393D03*
X016491Y011731D03*
X017138Y012853D03*
X023093Y009358D03*
X019684Y020145D03*
X019727Y020231D03*
X011183Y027610D03*
X013600Y039261D03*
X016879Y039261D03*
D97*
X017764Y037664D03*
X021259Y037405D03*
X020482Y031709D03*
X020612Y030242D03*
X016210Y027265D03*
X015822Y028171D03*
X012715Y025496D03*
X011550Y025496D03*
X011421Y023985D03*
X008702Y020706D03*
X009867Y019239D03*
X011680Y016564D03*
X011938Y010609D03*
X010126Y010307D03*
X009738Y009401D03*
X016340Y010609D03*
X017505Y009401D03*
X017634Y010307D03*
X017634Y010868D03*
X018540Y010307D03*
X017505Y012378D03*
X018281Y013586D03*
X017375Y014147D03*
X020612Y016262D03*
X020612Y016564D03*
X021647Y014751D03*
X021129Y013845D03*
X021518Y012076D03*
X020741Y019541D03*
X019317Y019541D03*
X011809Y029638D03*
X011809Y029940D03*
X011938Y030242D03*
X012456Y032615D03*
X012586Y032918D03*
X014786Y031450D03*
X012068Y037103D03*
D98*
X018562Y009401D03*
D99*
X020223Y009401D03*
D100*
X020245Y009444D03*
X019123Y019886D03*
X010752Y025064D03*
D101*
X009781Y025798D03*
X010299Y028042D03*
X010342Y028128D03*
X006717Y028085D03*
X012370Y024546D03*
X010471Y022173D03*
X008659Y020361D03*
X009134Y017901D03*
X009134Y017858D03*
X009263Y017513D03*
X010601Y016089D03*
X010558Y015873D03*
X010471Y015830D03*
X010428Y015614D03*
X011636Y016995D03*
X011119Y017254D03*
X011766Y015571D03*
X010299Y014061D03*
X009695Y012594D03*
X010471Y011731D03*
X010558Y011688D03*
X010558Y011601D03*
X011075Y011688D03*
X011119Y011601D03*
X011075Y011860D03*
X011075Y012335D03*
X011507Y012637D03*
X011593Y012464D03*
X011636Y012249D03*
X011723Y012205D03*
X012025Y011342D03*
X010428Y010695D03*
X009910Y011040D03*
X009824Y011084D03*
X009004Y011601D03*
X008228Y012119D03*
X008098Y011860D03*
X007580Y012119D03*
X007623Y012335D03*
X007451Y011860D03*
X008098Y012896D03*
X008141Y013112D03*
X008228Y013155D03*
X008271Y013370D03*
X008659Y013112D03*
X008616Y013025D03*
X008530Y012853D03*
X008486Y012766D03*
X008400Y012723D03*
X008659Y009918D03*
X008745Y009875D03*
X008788Y009789D03*
X011334Y009487D03*
X014441Y009875D03*
X014484Y009789D03*
X014873Y011342D03*
X016124Y012766D03*
X016512Y013155D03*
X016555Y013241D03*
X015649Y014967D03*
X015218Y014924D03*
X015132Y015096D03*
X015088Y015442D03*
X015002Y015614D03*
X015606Y015485D03*
X016383Y015830D03*
X015002Y016391D03*
X012629Y018721D03*
X008745Y015528D03*
X018454Y014061D03*
X019101Y012464D03*
X019144Y012249D03*
X020396Y011947D03*
X021604Y011558D03*
X021690Y011601D03*
X021734Y011688D03*
X021734Y011860D03*
X022381Y011558D03*
X022338Y011342D03*
X021863Y012594D03*
X021949Y012637D03*
X022510Y012723D03*
X023114Y013370D03*
X021949Y015183D03*
X021863Y015226D03*
X019274Y016003D03*
X018842Y016391D03*
X018842Y016477D03*
X018368Y018851D03*
X018368Y018894D03*
X018368Y019670D03*
X018368Y019714D03*
X020957Y021698D03*
X020698Y023252D03*
X020957Y025711D03*
X020568Y027481D03*
X020655Y027653D03*
X020698Y027739D03*
X020784Y027783D03*
X018886Y029854D03*
X019360Y030070D03*
X018368Y029811D03*
X017936Y030631D03*
X017850Y030587D03*
X017936Y030976D03*
X017030Y030070D03*
X015132Y031278D03*
X015088Y031364D03*
X014484Y031666D03*
X015132Y032443D03*
X015132Y032659D03*
X015218Y032702D03*
X015261Y032788D03*
X015520Y033047D03*
X014743Y033306D03*
X014312Y033478D03*
X014225Y033435D03*
X014096Y033176D03*
X015002Y033694D03*
X016038Y032961D03*
X016124Y032788D03*
X016512Y033047D03*
X016383Y033306D03*
X016383Y033608D03*
X017332Y035161D03*
X017289Y035248D03*
X017289Y035420D03*
X017979Y035679D03*
X018195Y035377D03*
X018842Y036111D03*
X018842Y036154D03*
X020568Y037448D03*
X021690Y038527D03*
X021734Y038743D03*
X021820Y038915D03*
X022381Y038786D03*
X022467Y038743D03*
X024020Y038613D03*
X024020Y038527D03*
X024020Y038484D03*
X024020Y038441D03*
X024020Y038398D03*
X024020Y038354D03*
X024020Y038311D03*
X024020Y038225D03*
X024020Y038182D03*
X020180Y039131D03*
X018842Y039002D03*
X018756Y039045D03*
X018713Y039131D03*
X018238Y038786D03*
X017419Y039304D03*
X016512Y038743D03*
X015995Y039304D03*
X015908Y039261D03*
X015606Y036974D03*
X015088Y036930D03*
X015002Y036974D03*
X013017Y036930D03*
X012931Y036974D03*
X012888Y037060D03*
X011723Y035248D03*
X011982Y034644D03*
X011895Y034600D03*
X011852Y034385D03*
X014829Y029077D03*
X016167Y027006D03*
X017160Y027524D03*
X017462Y026876D03*
X017548Y026833D03*
X017591Y026747D03*
X017936Y027222D03*
X017979Y026229D03*
X018713Y032184D03*
X018756Y032400D03*
X018842Y032443D03*
X018842Y032486D03*
X024020Y031364D03*
X024020Y031321D03*
X024020Y031278D03*
X024020Y031235D03*
X024020Y031191D03*
X024020Y031105D03*
X024020Y031062D03*
X024020Y031019D03*
X024020Y030976D03*
X024020Y030933D03*
X024020Y030889D03*
X024020Y030803D03*
X024020Y030760D03*
X024020Y030717D03*
X024020Y030674D03*
X024020Y030631D03*
X024020Y029897D03*
X024020Y029854D03*
X024020Y029811D03*
X024020Y029768D03*
X024020Y029724D03*
X024020Y025668D03*
X024020Y025625D03*
X024020Y025582D03*
X024020Y025539D03*
X024020Y025453D03*
X024020Y025150D03*
X024020Y025107D03*
X024020Y025064D03*
X024020Y024633D03*
X024020Y024546D03*
X024020Y024503D03*
X024020Y024460D03*
X024020Y024417D03*
X024020Y024374D03*
X024020Y024331D03*
X024020Y024244D03*
X024020Y024201D03*
X024020Y024158D03*
X024020Y021138D03*
X024020Y021094D03*
X024020Y018592D03*
X024020Y018548D03*
X024020Y018505D03*
X024020Y018462D03*
X024020Y018419D03*
X024020Y018376D03*
X023762Y018203D03*
X023546Y018462D03*
X018325Y010781D03*
X018325Y009875D03*
X022251Y009487D03*
X005078Y035420D03*
D102*
X005380Y035161D03*
X005466Y030026D03*
X003395Y029681D03*
X009954Y023424D03*
X009954Y023338D03*
X009954Y023295D03*
X010083Y023597D03*
X012974Y027394D03*
X012974Y033953D03*
X023718Y033737D03*
X023503Y036283D03*
X023718Y037233D03*
X018799Y018462D03*
X018540Y009487D03*
D103*
X020288Y009487D03*
X022748Y009573D03*
X016793Y013888D03*
X020159Y020577D03*
X020159Y020620D03*
X023222Y022734D03*
X023222Y022820D03*
X023222Y022993D03*
X023222Y023036D03*
X023222Y023122D03*
X023222Y023166D03*
X023222Y023209D03*
X023136Y023554D03*
X023136Y026488D03*
X023136Y026531D03*
X023136Y026574D03*
X023136Y026618D03*
X023136Y026704D03*
X023136Y026747D03*
X023136Y026790D03*
X023222Y027653D03*
X023222Y027696D03*
X023222Y027739D03*
X023222Y027783D03*
X023222Y027826D03*
X023222Y027912D03*
X023222Y027955D03*
X023222Y027998D03*
X023222Y028042D03*
X023222Y028085D03*
X023222Y028128D03*
X020159Y026013D03*
X020159Y025970D03*
X020029Y026920D03*
X017440Y025366D03*
X017440Y025323D03*
X017052Y029768D03*
X017052Y029811D03*
X004452Y026618D03*
X003934Y029595D03*
D104*
X013902Y035420D03*
X017483Y028516D03*
X020331Y023468D03*
X020331Y023424D03*
X023093Y020663D03*
X019296Y020016D03*
X017267Y012723D03*
X022834Y009530D03*
D105*
X022769Y009616D03*
X016814Y013802D03*
X019145Y019929D03*
X019145Y019972D03*
X020180Y020533D03*
X023157Y023597D03*
X020008Y026876D03*
X017462Y025409D03*
X017073Y029724D03*
X023244Y036974D03*
X023244Y037017D03*
X023244Y037060D03*
X004430Y028300D03*
X004430Y027739D03*
D106*
X017656Y016607D03*
X017656Y016520D03*
X023050Y021569D03*
X020072Y026402D03*
X021798Y029163D03*
X023050Y028905D03*
X023050Y028861D03*
X023050Y028818D03*
X023050Y028775D03*
X022402Y030889D03*
X023050Y009660D03*
D107*
X022618Y011774D03*
X022877Y013586D03*
X022618Y016564D03*
X020029Y016822D03*
X019641Y016564D03*
X019770Y016262D03*
X016534Y015657D03*
X011097Y010609D03*
X016534Y009703D03*
X019770Y021612D03*
X019770Y022777D03*
X016922Y025755D03*
X016534Y026661D03*
X010968Y030242D03*
X016663Y035593D03*
X022877Y037966D03*
D108*
X023524Y037405D03*
X023265Y039174D03*
X020935Y038872D03*
X020288Y038570D03*
X016016Y034428D03*
X015239Y034126D03*
X015628Y033522D03*
X015757Y033220D03*
X014463Y034428D03*
X012650Y033220D03*
X013427Y031148D03*
X012003Y030544D03*
X013039Y028732D03*
X011615Y026963D03*
X011615Y026057D03*
X011615Y025755D03*
X011744Y024590D03*
X010320Y026661D03*
X006480Y028473D03*
X009673Y020706D03*
X008896Y019541D03*
X009802Y016262D03*
X011744Y011774D03*
X011874Y010307D03*
X014463Y010609D03*
X015369Y012378D03*
X017570Y013284D03*
X018476Y014751D03*
X020159Y013284D03*
X020159Y012680D03*
X020159Y012378D03*
X020159Y012076D03*
X020547Y010868D03*
X020676Y010609D03*
X020935Y009703D03*
X022100Y010609D03*
X023654Y010609D03*
X023783Y010868D03*
X021194Y014147D03*
X020159Y018333D03*
X018735Y019239D03*
X020806Y020706D03*
X020806Y024590D03*
X019252Y027567D03*
X018476Y027567D03*
X014851Y016822D03*
X016404Y015053D03*
D109*
X023050Y009703D03*
D110*
X018907Y009746D03*
X017872Y014924D03*
X018821Y016866D03*
X011658Y028775D03*
X011701Y030976D03*
X012219Y031364D03*
X015671Y035161D03*
X015800Y037233D03*
X021496Y037750D03*
X021539Y037837D03*
D111*
X017375Y029595D03*
X020051Y026445D03*
X017246Y016003D03*
X023071Y009746D03*
D112*
X023438Y009789D03*
X023438Y009832D03*
X020331Y010393D03*
X016102Y010911D03*
X016059Y010825D03*
X011011Y011040D03*
X019856Y018807D03*
X023308Y017901D03*
X023438Y021353D03*
X023438Y021396D03*
X022963Y023252D03*
X022963Y023295D03*
X023438Y025323D03*
X023438Y025366D03*
X023438Y025409D03*
X014031Y035248D03*
X014031Y039045D03*
X013988Y039131D03*
X011054Y028646D03*
D113*
X010989Y030328D03*
X014053Y032270D03*
X016642Y029422D03*
X016512Y026704D03*
X013664Y024676D03*
X011119Y020533D03*
X016512Y015701D03*
X019662Y016520D03*
X019662Y016607D03*
X019749Y016348D03*
X022855Y013759D03*
X022510Y012205D03*
X022510Y012119D03*
X016555Y009875D03*
X019878Y021138D03*
X019749Y021655D03*
X019749Y024244D03*
X014053Y036283D03*
X005121Y034859D03*
X005121Y034816D03*
X004991Y033004D03*
X004862Y027912D03*
D114*
X012262Y026359D03*
X013427Y027869D03*
X015757Y029336D03*
X017958Y030846D03*
X018735Y032313D03*
X016404Y033824D03*
X018217Y035291D03*
X020029Y038268D03*
X020806Y027869D03*
X023913Y026359D03*
X021453Y014449D03*
X021971Y012982D03*
X023136Y012982D03*
X022359Y011472D03*
X021582Y011472D03*
X020417Y011472D03*
X011485Y012982D03*
X009673Y011472D03*
X008637Y010005D03*
X008120Y012982D03*
X009544Y015959D03*
X010579Y015959D03*
X009285Y017427D03*
X009802Y018937D03*
D115*
X009867Y010005D03*
X011809Y030846D03*
D116*
X004862Y027869D03*
X011032Y010005D03*
D117*
X011938Y010005D03*
X011291Y015959D03*
X011162Y020404D03*
X010256Y026359D03*
X012586Y027869D03*
X019317Y030846D03*
D118*
X017246Y035291D03*
X018670Y038268D03*
X011680Y035291D03*
X012715Y030846D03*
X013233Y030846D03*
X009220Y018937D03*
X008573Y012982D03*
X008961Y011472D03*
X010514Y011472D03*
X011162Y011472D03*
X014398Y010005D03*
X019964Y011472D03*
X019317Y015959D03*
X022424Y017427D03*
X023589Y018937D03*
X016340Y015959D03*
D119*
X015779Y010005D03*
X023891Y011472D03*
X005293Y032313D03*
D120*
X010773Y021914D03*
X019705Y024892D03*
X016599Y010005D03*
D121*
X018217Y010005D03*
X021841Y010005D03*
X022230Y010005D03*
X011874Y015959D03*
X009932Y015959D03*
X008767Y014449D03*
X010320Y021914D03*
X014204Y026359D03*
X012133Y029336D03*
X013686Y030846D03*
X016275Y032313D03*
D122*
X015347Y033824D03*
X012413Y035291D03*
X018195Y026359D03*
X020784Y010005D03*
D123*
X023589Y010005D03*
D124*
X020353Y010177D03*
X020353Y010221D03*
X020353Y010264D03*
X020353Y010350D03*
X019188Y010134D03*
X019188Y010091D03*
X023330Y017815D03*
X023330Y017858D03*
X023028Y020879D03*
X022942Y023338D03*
X020353Y023899D03*
X020353Y023942D03*
X022165Y028516D03*
X022165Y028559D03*
X022165Y028602D03*
X022036Y031019D03*
X022036Y031062D03*
X022036Y031105D03*
X017246Y028905D03*
X017246Y028861D03*
X017246Y028818D03*
X011032Y028602D03*
X011032Y028559D03*
X014010Y035161D03*
X014010Y035204D03*
X014010Y039088D03*
X019835Y018764D03*
X019835Y018721D03*
X011032Y010997D03*
X011032Y010954D03*
X010385Y012637D03*
X010385Y012723D03*
X010385Y012766D03*
X010385Y012810D03*
D125*
X011032Y010134D03*
X011162Y020231D03*
X011119Y020663D03*
X020094Y020792D03*
X022597Y019843D03*
X022597Y019757D03*
X022597Y018807D03*
X022597Y018764D03*
X022553Y025021D03*
X022467Y027308D03*
X022467Y027481D03*
D126*
X023783Y028430D03*
X020978Y028818D03*
X020978Y028861D03*
X020978Y028905D03*
X020978Y028948D03*
X020806Y028257D03*
X020763Y028214D03*
X020763Y028128D03*
X020763Y028085D03*
X020763Y028042D03*
X020763Y027998D03*
X020763Y027955D03*
X020547Y030113D03*
X023567Y032055D03*
X023567Y032098D03*
X023567Y032141D03*
X023567Y032184D03*
X023567Y032227D03*
X023783Y033349D03*
X017828Y037837D03*
X012391Y035377D03*
X013039Y026445D03*
X023783Y017297D03*
X021841Y013155D03*
X023524Y010134D03*
X016016Y012896D03*
X015887Y013414D03*
X014981Y011084D03*
X009544Y012205D03*
D127*
X014204Y010177D03*
X022618Y018678D03*
X022532Y020577D03*
X016922Y025668D03*
X022532Y026876D03*
X022532Y026920D03*
X022532Y027006D03*
X022532Y027049D03*
X022532Y027092D03*
X022532Y027135D03*
X022532Y027179D03*
X022532Y028300D03*
X011183Y020145D03*
X010665Y022001D03*
X010665Y022044D03*
X010450Y025970D03*
X005099Y031925D03*
D128*
X014096Y036197D03*
X019749Y023079D03*
X016771Y013284D03*
X011075Y010307D03*
D129*
X014376Y010307D03*
X019209Y027265D03*
X016836Y039174D03*
X013643Y039174D03*
D130*
X020353Y023985D03*
X010385Y012680D03*
X016081Y010868D03*
X020353Y010307D03*
D131*
X014786Y013414D03*
X014657Y013759D03*
X014527Y014018D03*
X014873Y018246D03*
X014873Y018290D03*
X014873Y018376D03*
X014873Y018419D03*
X014873Y018462D03*
X014873Y018505D03*
X014873Y018548D03*
X014873Y018592D03*
X014873Y018678D03*
X018540Y018980D03*
X020827Y023511D03*
X020827Y024503D03*
X023848Y021181D03*
X023848Y017168D03*
X023848Y029163D03*
X020482Y031752D03*
X015045Y029465D03*
X012068Y037189D03*
X006501Y028430D03*
X008702Y020533D03*
X009867Y018980D03*
X009091Y010523D03*
D132*
X016167Y011040D03*
X019619Y013931D03*
X019662Y014018D03*
X020310Y010523D03*
X022899Y019670D03*
X022899Y019714D03*
X022899Y024029D03*
X022899Y024072D03*
X019533Y027006D03*
X019490Y027092D03*
X019403Y027135D03*
X019360Y027222D03*
X022899Y028214D03*
D133*
X023913Y030587D03*
X023438Y032659D03*
X018735Y033090D03*
X018735Y033176D03*
X013557Y037578D03*
X005660Y029983D03*
X006437Y028559D03*
X006566Y028300D03*
X006609Y028257D03*
X005229Y027524D03*
X003201Y029724D03*
X005272Y032357D03*
X005272Y032400D03*
X012391Y024676D03*
X013039Y028775D03*
X011183Y020361D03*
X011183Y020318D03*
X008896Y019498D03*
X007602Y011342D03*
X014463Y010652D03*
X022402Y019411D03*
X022402Y019584D03*
X023913Y016909D03*
X023913Y014406D03*
X023913Y013155D03*
X023913Y011817D03*
D134*
X022251Y011170D03*
X024020Y018333D03*
X024020Y018635D03*
X022381Y021310D03*
X019533Y020706D03*
X024020Y024287D03*
X024020Y024590D03*
X024020Y025496D03*
X024020Y029940D03*
X024020Y031148D03*
X024020Y038570D03*
X020266Y039174D03*
X018627Y039174D03*
X018195Y038872D03*
X016426Y033220D03*
X014700Y033220D03*
X014182Y033220D03*
X015779Y029940D03*
X015390Y027265D03*
X010428Y028171D03*
X010558Y022216D03*
X009263Y018333D03*
X014053Y017125D03*
X015606Y015053D03*
X012111Y011170D03*
X010428Y012076D03*
X010342Y012378D03*
X009004Y011170D03*
X008141Y012076D03*
X007710Y012378D03*
X007494Y012076D03*
X008745Y013284D03*
D135*
X010989Y011170D03*
X022899Y028171D03*
D136*
X023762Y028473D03*
X021000Y029034D03*
X023762Y033522D03*
X023546Y036197D03*
X017677Y035895D03*
X013017Y034126D03*
X011507Y029034D03*
X010342Y023985D03*
X009436Y014147D03*
X015002Y011170D03*
X015865Y014147D03*
X020266Y011170D03*
D137*
X017764Y011170D03*
X011421Y015657D03*
X008702Y013586D03*
X009349Y021008D03*
X009738Y022518D03*
X010126Y023683D03*
X012974Y027567D03*
X012068Y031709D03*
X013233Y034428D03*
X013233Y034687D03*
X015304Y037103D03*
X017505Y029034D03*
X020612Y025194D03*
X023675Y032918D03*
X023675Y034126D03*
X023675Y034428D03*
X023675Y034687D03*
X023675Y034989D03*
X023675Y035593D03*
X023675Y035895D03*
D138*
X007645Y011472D03*
D139*
X016275Y011472D03*
X022877Y026359D03*
X014074Y035291D03*
D140*
X021065Y038268D03*
X017699Y027869D03*
X017570Y015959D03*
X018735Y011472D03*
D141*
X022812Y011472D03*
X013880Y026359D03*
D142*
X015132Y039002D03*
X016297Y011860D03*
D143*
X016275Y011903D03*
X016275Y011947D03*
X022359Y021742D03*
X022359Y021785D03*
X013945Y035679D03*
X013945Y035722D03*
X013945Y035765D03*
D144*
X012586Y036758D03*
X012068Y035118D03*
X012068Y035075D03*
X012068Y035032D03*
X012586Y031580D03*
X012586Y031537D03*
X012068Y031191D03*
X011938Y031062D03*
X011938Y031019D03*
X015563Y012033D03*
X015563Y011990D03*
D145*
X009371Y012076D03*
X008465Y014147D03*
X012305Y018635D03*
X009716Y020102D03*
X008465Y020102D03*
X012305Y023985D03*
X013254Y023985D03*
X012737Y026963D03*
X023826Y029034D03*
D146*
X012046Y031148D03*
X015541Y012076D03*
D147*
X017332Y012076D03*
X022769Y018333D03*
X022769Y024287D03*
D148*
X022467Y019239D03*
X018670Y012076D03*
X005293Y027265D03*
X004430Y027265D03*
X005121Y034687D03*
X013233Y036197D03*
D149*
X014981Y036154D03*
X014981Y036111D03*
X018346Y013241D03*
X018346Y013198D03*
X017958Y012939D03*
X017958Y012896D03*
D150*
X010471Y012982D03*
D151*
X016016Y012982D03*
X020676Y015959D03*
X013039Y026359D03*
X018993Y027869D03*
D152*
X017979Y012982D03*
D153*
X018195Y013025D03*
X012543Y031494D03*
X020827Y038484D03*
D154*
X020806Y038441D03*
X020806Y038398D03*
X015239Y038700D03*
X015239Y038743D03*
X012521Y031407D03*
X012262Y026704D03*
X012262Y026618D03*
X018217Y013112D03*
X018217Y013068D03*
D155*
X018325Y013155D03*
D156*
X018842Y013284D03*
X018066Y016262D03*
X021475Y013284D03*
D157*
X021453Y013327D03*
X021453Y013370D03*
X018864Y013370D03*
X018864Y013327D03*
X018087Y016305D03*
X018087Y016348D03*
X012780Y023813D03*
X012780Y023856D03*
X018346Y028085D03*
X015757Y035334D03*
X015757Y035377D03*
D158*
X020115Y013414D03*
D159*
X020094Y013457D03*
X020094Y013500D03*
D160*
X016038Y013543D03*
X022467Y021828D03*
X022467Y021871D03*
X022467Y021957D03*
X022467Y022001D03*
X022467Y022044D03*
X022467Y022087D03*
X022467Y022130D03*
X022467Y022173D03*
X019403Y026488D03*
X019360Y026574D03*
X021820Y030717D03*
D161*
X021583Y030587D03*
X021583Y030501D03*
X021583Y029811D03*
X021583Y029768D03*
X019511Y026704D03*
X019511Y026618D03*
X019770Y025884D03*
X019770Y025841D03*
X018864Y025798D03*
X022618Y021698D03*
X019641Y014665D03*
X019641Y014622D03*
X020417Y013543D03*
X004366Y030328D03*
D162*
X016016Y013586D03*
D163*
X020417Y013586D03*
X018864Y025755D03*
X019511Y026661D03*
X021583Y030544D03*
D164*
X021841Y030674D03*
X019382Y026531D03*
X016016Y013629D03*
D165*
X019662Y014579D03*
X020396Y013629D03*
X019792Y025927D03*
X021604Y029724D03*
X004517Y029379D03*
D166*
X018346Y013716D03*
X018346Y013673D03*
D167*
X018325Y013759D03*
D168*
X016793Y013845D03*
X023222Y022777D03*
X023222Y023079D03*
X020159Y026057D03*
X020029Y026963D03*
X023136Y026661D03*
D169*
X023028Y028732D03*
X017375Y029638D03*
X017634Y016564D03*
X019058Y013845D03*
D170*
X022553Y014018D03*
X022597Y018592D03*
X022726Y021051D03*
X022726Y021094D03*
X022726Y021138D03*
X022726Y021181D03*
X022726Y021224D03*
X022467Y022432D03*
X019878Y025064D03*
X022467Y028430D03*
X010514Y028300D03*
X010428Y024115D03*
X010428Y024072D03*
X005121Y032055D03*
X005164Y032788D03*
X005207Y033349D03*
X005250Y033781D03*
X005207Y033953D03*
X005250Y034341D03*
X005336Y035204D03*
X005336Y035248D03*
D171*
X019705Y014277D03*
X019705Y014233D03*
X019705Y014190D03*
D172*
X018627Y014320D03*
D173*
X018605Y014363D03*
X018605Y014406D03*
D174*
X015585Y014449D03*
X020763Y018937D03*
X022187Y014449D03*
X017785Y029336D03*
D175*
X017332Y014449D03*
D176*
X019770Y014449D03*
D177*
X019770Y014492D03*
X019770Y014536D03*
X017311Y016175D03*
X017311Y016218D03*
X017181Y015140D03*
X010838Y025237D03*
X010838Y025280D03*
X004538Y029293D03*
X004322Y030415D03*
X022489Y031191D03*
X022489Y031235D03*
D178*
X019252Y019627D03*
X017570Y015744D03*
X023654Y014579D03*
X023654Y017556D03*
D179*
X023632Y015053D03*
X023632Y014751D03*
X018756Y018635D03*
X023632Y023683D03*
X023632Y026963D03*
X012154Y032011D03*
D180*
X017764Y029465D03*
X023589Y017685D03*
X023589Y014924D03*
X023589Y014838D03*
D181*
X023503Y019239D03*
X017807Y015053D03*
X021561Y037966D03*
D182*
X017289Y016132D03*
X017203Y015096D03*
D183*
X017181Y015183D03*
D184*
X017181Y015226D03*
X017181Y015269D03*
X017828Y016693D03*
X017828Y016736D03*
X023093Y021526D03*
X018993Y025625D03*
X018993Y025668D03*
X017699Y028214D03*
X004452Y028516D03*
X004452Y028559D03*
X004236Y030458D03*
D185*
X004452Y028646D03*
X004452Y027006D03*
X004452Y026920D03*
X004452Y026876D03*
X004452Y026833D03*
X017181Y015312D03*
X023136Y021440D03*
X023136Y023424D03*
X023136Y023468D03*
D186*
X021151Y025496D03*
X018605Y026963D03*
X020202Y029638D03*
X021410Y028732D03*
X024171Y032011D03*
X018993Y032918D03*
X015239Y031148D03*
X009975Y024590D03*
X009026Y025194D03*
X008767Y015355D03*
X022230Y015355D03*
X022489Y015355D03*
X018087Y037966D03*
D187*
X022100Y031709D03*
X017311Y028732D03*
X023093Y020102D03*
X023093Y018031D03*
X019252Y015355D03*
D188*
X020763Y015355D03*
X023654Y025194D03*
X003805Y030544D03*
D189*
X017570Y015873D03*
D190*
X015239Y015959D03*
X012650Y024892D03*
D191*
X019878Y015959D03*
D192*
X022467Y015959D03*
X010169Y024892D03*
D193*
X022812Y018290D03*
X022855Y018246D03*
X022855Y018203D03*
X022855Y016218D03*
X022855Y016175D03*
D194*
X016771Y016477D03*
X004862Y027955D03*
X004948Y033565D03*
D195*
X004646Y029250D03*
X004430Y028602D03*
X004430Y028430D03*
X004430Y028387D03*
X017677Y028257D03*
X019015Y025582D03*
X023114Y022475D03*
X023114Y021483D03*
X017807Y016650D03*
D196*
X018044Y016779D03*
D197*
X018023Y016822D03*
D198*
X019317Y016909D03*
X019317Y016952D03*
X019447Y017081D03*
X023157Y022561D03*
X020094Y026143D03*
X020094Y026186D03*
X017634Y028300D03*
X017634Y028344D03*
X011162Y024331D03*
X010644Y025107D03*
X010644Y025150D03*
X010644Y025323D03*
X010644Y025366D03*
X010644Y025409D03*
X004473Y026704D03*
X004473Y026747D03*
X004473Y026790D03*
X004430Y027610D03*
X004430Y028344D03*
D199*
X004452Y028689D03*
X011183Y024374D03*
X017613Y028387D03*
X020115Y026100D03*
X023179Y026100D03*
X023179Y026143D03*
X023179Y026186D03*
X023179Y026013D03*
X023179Y025970D03*
X023179Y025927D03*
X023179Y025884D03*
X023179Y025841D03*
X023179Y027524D03*
X023179Y022605D03*
X019425Y017038D03*
X019339Y016995D03*
D200*
X014851Y017125D03*
X020892Y022518D03*
X023438Y032615D03*
D201*
X011162Y024287D03*
X004430Y027567D03*
X019447Y017125D03*
D202*
X019705Y017168D03*
X019705Y017211D03*
X019705Y017254D03*
X011291Y024158D03*
X011291Y024201D03*
X004344Y030372D03*
X015822Y036240D03*
X015822Y036283D03*
D203*
X016016Y032313D03*
X018735Y030846D03*
X009026Y026359D03*
X010105Y017427D03*
D204*
X019662Y017427D03*
D205*
X022748Y017427D03*
D206*
X023718Y017427D03*
X009954Y023381D03*
D207*
X004473Y029552D03*
X004387Y030156D03*
X004387Y030199D03*
X019662Y017513D03*
X019662Y017470D03*
X022726Y029465D03*
X022726Y029509D03*
X022726Y029552D03*
X022726Y029595D03*
X022726Y029681D03*
X022726Y030113D03*
X022726Y030156D03*
X022726Y030199D03*
X022726Y030285D03*
X022726Y030328D03*
X022726Y030372D03*
X022726Y030415D03*
X022726Y030458D03*
X022251Y031278D03*
X022208Y031364D03*
D208*
X020266Y025021D03*
X023114Y020059D03*
X023114Y020016D03*
X023114Y019972D03*
X023114Y019929D03*
X023114Y017988D03*
X023114Y017944D03*
X004430Y027826D03*
D209*
X011097Y027481D03*
X023050Y020835D03*
X023050Y020792D03*
X023050Y018160D03*
X023050Y018117D03*
X023050Y018074D03*
D210*
X014873Y018333D03*
X014873Y018635D03*
X023848Y033220D03*
D211*
X022402Y028991D03*
X022748Y024374D03*
X022791Y018894D03*
X022791Y018851D03*
X022618Y018548D03*
D212*
X020417Y018635D03*
X013427Y026057D03*
D213*
X008745Y020404D03*
X012154Y018937D03*
X012629Y018937D03*
X018368Y018937D03*
X024020Y030846D03*
X024020Y038268D03*
D214*
X022532Y020404D03*
X019641Y018937D03*
D215*
X022769Y018937D03*
X016728Y026359D03*
D216*
X011917Y023381D03*
X004754Y032313D03*
X016620Y038268D03*
X024085Y029336D03*
X024085Y018937D03*
D217*
X022532Y018980D03*
X022532Y019023D03*
X019641Y019066D03*
X010795Y020922D03*
X010795Y020965D03*
X004927Y032098D03*
X010838Y035377D03*
X016663Y035636D03*
D218*
X018325Y028128D03*
X012888Y023727D03*
X012801Y023770D03*
X009306Y019843D03*
X009306Y019757D03*
X003999Y030501D03*
D219*
X009285Y019800D03*
D220*
X011119Y020706D03*
X022597Y019800D03*
X022553Y025194D03*
X022467Y027265D03*
D221*
X023093Y020706D03*
X019339Y020102D03*
D222*
X010514Y020404D03*
X015175Y032313D03*
D223*
X005229Y033824D03*
X017267Y020404D03*
D224*
X020223Y020404D03*
D225*
X023632Y020404D03*
X013017Y033824D03*
D226*
X013578Y037103D03*
X016426Y034126D03*
X010601Y026963D03*
X010428Y026057D03*
X005207Y034428D03*
X020008Y021008D03*
D227*
X023438Y021310D03*
D228*
X022769Y021612D03*
X013362Y035593D03*
X018799Y037103D03*
X004387Y030242D03*
D229*
X004473Y029465D03*
X013362Y035636D03*
X018799Y037146D03*
X018799Y037189D03*
X021518Y031623D03*
X021518Y031580D03*
X021518Y031537D03*
X021518Y029897D03*
X022769Y021655D03*
D230*
X022467Y021914D03*
D231*
X022424Y022216D03*
D232*
X022402Y022259D03*
X022402Y022303D03*
D233*
X023136Y022518D03*
X004452Y026963D03*
D234*
X004430Y027653D03*
X004430Y027696D03*
X023114Y026833D03*
X023201Y027610D03*
X023201Y023942D03*
X023201Y023899D03*
X023201Y023856D03*
X023201Y023813D03*
X023201Y023770D03*
X023114Y023511D03*
X023201Y022691D03*
X023201Y022648D03*
D235*
X020310Y023381D03*
D236*
X023157Y023381D03*
D237*
X023201Y023985D03*
X023201Y027567D03*
D238*
X011313Y024244D03*
D239*
X013686Y024892D03*
X023006Y038268D03*
D240*
X023675Y035291D03*
X020612Y024892D03*
X012327Y032313D03*
D241*
X015649Y027869D03*
X023503Y024892D03*
D242*
X018799Y025150D03*
X015175Y038959D03*
D243*
X010838Y025194D03*
D244*
X018023Y025194D03*
D245*
X018023Y025237D03*
X018023Y025280D03*
D246*
X018864Y025711D03*
D247*
X016534Y026057D03*
D248*
X023179Y026057D03*
X004452Y026661D03*
D249*
X020072Y026359D03*
D250*
X016858Y030328D03*
X016728Y032831D03*
X016858Y033867D03*
X010903Y030760D03*
X010773Y027739D03*
X010903Y026618D03*
D251*
X012262Y026661D03*
X012521Y031450D03*
D252*
X022532Y026963D03*
D253*
X011119Y027265D03*
D254*
X023589Y027265D03*
D255*
X023222Y027869D03*
D256*
X018217Y027912D03*
X018217Y027955D03*
X015239Y038829D03*
D257*
X015261Y038786D03*
X018195Y027998D03*
D258*
X018389Y028042D03*
X012564Y031623D03*
X012089Y031235D03*
X011960Y031105D03*
X012607Y036715D03*
D259*
X014722Y037664D03*
X012003Y028171D03*
X003675Y029638D03*
D260*
X004452Y028473D03*
X017699Y028171D03*
D261*
X020763Y028171D03*
X023567Y032011D03*
D262*
X004452Y028732D03*
D263*
X022402Y029034D03*
D264*
X004517Y029336D03*
D265*
X010860Y035291D03*
X016685Y029336D03*
D266*
X022100Y029336D03*
D267*
X021539Y029854D03*
X013384Y035550D03*
X004366Y030285D03*
X004495Y029422D03*
D268*
X004495Y029509D03*
D269*
X022726Y029638D03*
X022726Y030242D03*
D270*
X021539Y029940D03*
D271*
X021841Y030631D03*
D272*
X021777Y030760D03*
X021777Y030803D03*
D273*
X016793Y038139D03*
X004797Y032443D03*
X005013Y031494D03*
X005013Y031407D03*
X004970Y030976D03*
X004970Y030933D03*
X004970Y030889D03*
X004970Y030803D03*
D274*
X004970Y030846D03*
D275*
X021798Y030846D03*
D276*
X011658Y030889D03*
D277*
X005142Y032918D03*
X005013Y031148D03*
D278*
X022467Y031148D03*
D279*
X022230Y031321D03*
X012392Y034816D03*
X012392Y034859D03*
D280*
X021755Y031494D03*
X021798Y031407D03*
D281*
X005013Y031450D03*
D282*
X021777Y031450D03*
D283*
X013686Y032313D03*
X005315Y035291D03*
D284*
X004927Y034989D03*
X016707Y032918D03*
D285*
X012391Y034773D03*
D286*
X012543Y034902D03*
D287*
X012521Y034946D03*
D288*
X012543Y034989D03*
D289*
X015736Y035291D03*
D290*
X014981Y036067D03*
D291*
X015800Y036197D03*
D292*
X016448Y036326D03*
X016491Y036413D03*
D293*
X016469Y036370D03*
D294*
X021712Y036370D03*
D295*
X021690Y036413D03*
D296*
X019252Y036456D03*
D297*
X019252Y036499D03*
D298*
X019274Y036542D03*
D299*
X019554Y036585D03*
X019554Y036628D03*
X019554Y036672D03*
X019554Y036715D03*
X019554Y036758D03*
D300*
X012564Y036801D03*
D301*
X019554Y036801D03*
D302*
X020072Y036844D03*
X020072Y036887D03*
D303*
X020094Y036930D03*
D304*
X019317Y036974D03*
X019317Y037017D03*
D305*
X019339Y037060D03*
D306*
X018497Y037233D03*
D307*
X018476Y037276D03*
X018476Y037319D03*
D308*
X017138Y037362D03*
X017095Y037448D03*
D309*
X017116Y037405D03*
D310*
X015239Y038656D03*
D311*
X015239Y038872D03*
D312*
X015175Y038915D03*
M02*
