G75*
%MOIN*%
%OFA0B0*%
%FSLAX24Y24*%
%IPPOS*%
%LPD*%
%AMOC8*
5,1,8,0,0,1.08239X$1,22.5*
%
%ADD10C,0.0000*%
%ADD11C,0.0100*%
%ADD12C,0.0600*%
%ADD13C,0.0594*%
%ADD14OC8,0.0520*%
%ADD15R,0.0787X0.0200*%
%ADD16R,0.1575X0.0200*%
%ADD17R,0.2362X0.4331*%
%ADD18R,0.3268X0.0256*%
%ADD19R,0.2362X0.2559*%
%ADD20C,0.1000*%
%ADD21OC8,0.1000*%
%ADD22OC8,0.0660*%
%ADD23R,0.0236X0.0866*%
%ADD24C,0.0660*%
%ADD25C,0.0705*%
%ADD26C,0.0160*%
%ADD27C,0.0500*%
%ADD28C,0.0400*%
%ADD29C,0.0300*%
%ADD30R,0.0700X0.0700*%
%ADD31C,0.0200*%
%ADD32R,0.0800X0.0800*%
D10*
X000180Y007200D02*
X000180Y039946D01*
X024550Y039946D01*
X024550Y007200D01*
X000180Y007200D01*
X002068Y008904D02*
X002070Y008954D01*
X002076Y009004D01*
X002086Y009053D01*
X002100Y009101D01*
X002117Y009148D01*
X002138Y009193D01*
X002163Y009237D01*
X002191Y009278D01*
X002223Y009317D01*
X002257Y009354D01*
X002294Y009388D01*
X002334Y009418D01*
X002376Y009445D01*
X002420Y009469D01*
X002466Y009490D01*
X002513Y009506D01*
X002561Y009519D01*
X002611Y009528D01*
X002660Y009533D01*
X002711Y009534D01*
X002761Y009531D01*
X002810Y009524D01*
X002859Y009513D01*
X002907Y009498D01*
X002953Y009480D01*
X002998Y009458D01*
X003041Y009432D01*
X003082Y009403D01*
X003121Y009371D01*
X003157Y009336D01*
X003189Y009298D01*
X003219Y009258D01*
X003246Y009215D01*
X003269Y009171D01*
X003288Y009125D01*
X003304Y009077D01*
X003316Y009028D01*
X003324Y008979D01*
X003328Y008929D01*
X003328Y008879D01*
X003324Y008829D01*
X003316Y008780D01*
X003304Y008731D01*
X003288Y008683D01*
X003269Y008637D01*
X003246Y008593D01*
X003219Y008550D01*
X003189Y008510D01*
X003157Y008472D01*
X003121Y008437D01*
X003082Y008405D01*
X003041Y008376D01*
X002998Y008350D01*
X002953Y008328D01*
X002907Y008310D01*
X002859Y008295D01*
X002810Y008284D01*
X002761Y008277D01*
X002711Y008274D01*
X002660Y008275D01*
X002611Y008280D01*
X002561Y008289D01*
X002513Y008302D01*
X002466Y008318D01*
X002420Y008339D01*
X002376Y008363D01*
X002334Y008390D01*
X002294Y008420D01*
X002257Y008454D01*
X002223Y008491D01*
X002191Y008530D01*
X002163Y008571D01*
X002138Y008615D01*
X002117Y008660D01*
X002100Y008707D01*
X002086Y008755D01*
X002076Y008804D01*
X002070Y008854D01*
X002068Y008904D01*
X021068Y008404D02*
X021070Y008454D01*
X021076Y008504D01*
X021086Y008553D01*
X021100Y008601D01*
X021117Y008648D01*
X021138Y008693D01*
X021163Y008737D01*
X021191Y008778D01*
X021223Y008817D01*
X021257Y008854D01*
X021294Y008888D01*
X021334Y008918D01*
X021376Y008945D01*
X021420Y008969D01*
X021466Y008990D01*
X021513Y009006D01*
X021561Y009019D01*
X021611Y009028D01*
X021660Y009033D01*
X021711Y009034D01*
X021761Y009031D01*
X021810Y009024D01*
X021859Y009013D01*
X021907Y008998D01*
X021953Y008980D01*
X021998Y008958D01*
X022041Y008932D01*
X022082Y008903D01*
X022121Y008871D01*
X022157Y008836D01*
X022189Y008798D01*
X022219Y008758D01*
X022246Y008715D01*
X022269Y008671D01*
X022288Y008625D01*
X022304Y008577D01*
X022316Y008528D01*
X022324Y008479D01*
X022328Y008429D01*
X022328Y008379D01*
X022324Y008329D01*
X022316Y008280D01*
X022304Y008231D01*
X022288Y008183D01*
X022269Y008137D01*
X022246Y008093D01*
X022219Y008050D01*
X022189Y008010D01*
X022157Y007972D01*
X022121Y007937D01*
X022082Y007905D01*
X022041Y007876D01*
X021998Y007850D01*
X021953Y007828D01*
X021907Y007810D01*
X021859Y007795D01*
X021810Y007784D01*
X021761Y007777D01*
X021711Y007774D01*
X021660Y007775D01*
X021611Y007780D01*
X021561Y007789D01*
X021513Y007802D01*
X021466Y007818D01*
X021420Y007839D01*
X021376Y007863D01*
X021334Y007890D01*
X021294Y007920D01*
X021257Y007954D01*
X021223Y007991D01*
X021191Y008030D01*
X021163Y008071D01*
X021138Y008115D01*
X021117Y008160D01*
X021100Y008207D01*
X021086Y008255D01*
X021076Y008304D01*
X021070Y008354D01*
X021068Y008404D01*
X019068Y028904D02*
X019070Y028954D01*
X019076Y029004D01*
X019086Y029053D01*
X019100Y029101D01*
X019117Y029148D01*
X019138Y029193D01*
X019163Y029237D01*
X019191Y029278D01*
X019223Y029317D01*
X019257Y029354D01*
X019294Y029388D01*
X019334Y029418D01*
X019376Y029445D01*
X019420Y029469D01*
X019466Y029490D01*
X019513Y029506D01*
X019561Y029519D01*
X019611Y029528D01*
X019660Y029533D01*
X019711Y029534D01*
X019761Y029531D01*
X019810Y029524D01*
X019859Y029513D01*
X019907Y029498D01*
X019953Y029480D01*
X019998Y029458D01*
X020041Y029432D01*
X020082Y029403D01*
X020121Y029371D01*
X020157Y029336D01*
X020189Y029298D01*
X020219Y029258D01*
X020246Y029215D01*
X020269Y029171D01*
X020288Y029125D01*
X020304Y029077D01*
X020316Y029028D01*
X020324Y028979D01*
X020328Y028929D01*
X020328Y028879D01*
X020324Y028829D01*
X020316Y028780D01*
X020304Y028731D01*
X020288Y028683D01*
X020269Y028637D01*
X020246Y028593D01*
X020219Y028550D01*
X020189Y028510D01*
X020157Y028472D01*
X020121Y028437D01*
X020082Y028405D01*
X020041Y028376D01*
X019998Y028350D01*
X019953Y028328D01*
X019907Y028310D01*
X019859Y028295D01*
X019810Y028284D01*
X019761Y028277D01*
X019711Y028274D01*
X019660Y028275D01*
X019611Y028280D01*
X019561Y028289D01*
X019513Y028302D01*
X019466Y028318D01*
X019420Y028339D01*
X019376Y028363D01*
X019334Y028390D01*
X019294Y028420D01*
X019257Y028454D01*
X019223Y028491D01*
X019191Y028530D01*
X019163Y028571D01*
X019138Y028615D01*
X019117Y028660D01*
X019100Y028707D01*
X019086Y028755D01*
X019076Y028804D01*
X019070Y028854D01*
X019068Y028904D01*
D11*
X014473Y008951D02*
X014123Y008951D01*
X014123Y008250D01*
X014123Y008484D02*
X014473Y008484D01*
X014590Y008600D01*
X014590Y008834D01*
X014473Y008951D01*
X014357Y008484D02*
X014590Y008250D01*
X013853Y008367D02*
X013737Y008250D01*
X013503Y008250D01*
X013386Y008367D01*
X013386Y008834D01*
X013503Y008951D01*
X013737Y008951D01*
X013853Y008834D01*
X013117Y008834D02*
X013117Y008600D01*
X013000Y008484D01*
X012650Y008484D01*
X012650Y008250D02*
X012650Y008951D01*
X013000Y008951D01*
X013117Y008834D01*
X012380Y008600D02*
X012380Y008250D01*
X012380Y008600D02*
X012263Y008717D01*
X011913Y008717D01*
X011913Y008250D01*
X011644Y008484D02*
X011644Y008600D01*
X011527Y008717D01*
X011293Y008717D01*
X011177Y008600D01*
X011177Y008367D01*
X011293Y008250D01*
X011527Y008250D01*
X011644Y008484D02*
X011177Y008484D01*
X010907Y008600D02*
X010907Y008367D01*
X010790Y008250D01*
X010440Y008250D01*
X010440Y008016D02*
X010440Y008717D01*
X010790Y008717D01*
X010907Y008600D01*
X010170Y008367D02*
X010170Y008834D01*
X010054Y008951D01*
X009820Y008951D01*
X009703Y008834D01*
X009703Y008367D01*
X009820Y008250D01*
X010054Y008250D01*
X010170Y008367D01*
X009434Y008250D02*
X009083Y008250D01*
X008967Y008367D01*
X008967Y008717D01*
X008697Y008951D02*
X008697Y008250D01*
X008230Y008250D02*
X008230Y008951D01*
X008464Y008717D01*
X008697Y008951D01*
X009434Y008717D02*
X009434Y008133D01*
X009317Y008016D01*
X009200Y008016D01*
D12*
X007730Y023700D02*
X007130Y023700D01*
X007130Y024700D02*
X007730Y024700D01*
X007730Y025700D02*
X007130Y025700D01*
X007130Y026700D02*
X007730Y026700D01*
X007730Y027700D02*
X007130Y027700D01*
X007130Y028700D02*
X007730Y028700D01*
X007730Y029700D02*
X007130Y029700D01*
X007130Y030700D02*
X007730Y030700D01*
X007730Y031700D02*
X007130Y031700D01*
X007130Y032700D02*
X007730Y032700D01*
X007730Y033700D02*
X007130Y033700D01*
X007130Y034700D02*
X007730Y034700D01*
X007730Y035700D02*
X007130Y035700D01*
X007130Y036700D02*
X007730Y036700D01*
X007730Y037700D02*
X007130Y037700D01*
X007130Y038700D02*
X007730Y038700D01*
X015930Y031200D02*
X019180Y031200D01*
X016680Y037200D02*
X016930Y037450D01*
X019430Y037450D01*
D13*
X016977Y019450D02*
X016383Y019450D01*
X016383Y018450D02*
X016977Y018450D01*
X016977Y017450D02*
X016383Y017450D01*
X006477Y017700D02*
X005883Y017700D01*
X005883Y018700D02*
X006477Y018700D01*
X006477Y015700D02*
X005883Y015700D01*
X005883Y014700D02*
X006477Y014700D01*
D14*
X008180Y014700D03*
X009680Y017800D03*
X012180Y014700D03*
X013680Y017800D03*
X013180Y038700D03*
X009180Y038700D03*
D15*
X011137Y036956D03*
X011137Y036956D03*
X011137Y036562D03*
X011137Y035775D03*
X011137Y035381D03*
X011137Y034987D03*
X011137Y034594D03*
X011137Y034200D03*
X011137Y033806D03*
X011137Y033413D03*
X011137Y033019D03*
X011137Y032625D03*
X011137Y031838D03*
X011137Y031444D03*
X011140Y031444D03*
X018223Y031449D03*
X018223Y031838D03*
X018223Y032231D03*
X018223Y032625D03*
X018223Y033019D03*
X018223Y033806D03*
X018223Y034594D03*
X018223Y035381D03*
X018223Y035775D03*
X018223Y036169D03*
X018223Y036562D03*
X018255Y036956D03*
D16*
X017830Y034987D03*
X017830Y034200D03*
X017830Y033413D03*
X011530Y032231D03*
X011530Y036169D03*
D17*
X013302Y034200D03*
D18*
X015918Y034200D03*
D19*
X016058Y032527D03*
X016058Y035873D03*
D20*
X019930Y013450D03*
D21*
X019930Y011450D03*
D22*
X021680Y015900D03*
X021680Y016900D03*
X021680Y017900D03*
X021680Y018900D03*
X021680Y019900D03*
X021680Y020900D03*
X021680Y022900D03*
X021680Y023900D03*
X021680Y024900D03*
X021680Y025900D03*
X021680Y026900D03*
X021680Y027900D03*
X002680Y027850D03*
X002680Y026850D03*
X002680Y025850D03*
X002680Y024850D03*
X002680Y023850D03*
X002680Y022850D03*
X002680Y021850D03*
X002680Y020850D03*
X002680Y019300D03*
X002680Y018300D03*
X002680Y017300D03*
X002680Y016300D03*
X002680Y015300D03*
X002680Y014300D03*
X002680Y013300D03*
X002680Y012300D03*
D23*
X005630Y012524D03*
X006130Y012524D03*
X006630Y012524D03*
X007130Y012524D03*
X007130Y010476D03*
X006630Y010476D03*
X006130Y010476D03*
X005630Y010476D03*
D24*
X012850Y020400D02*
X013510Y020400D01*
X013510Y021400D02*
X012850Y021400D01*
X012850Y022400D02*
X013510Y022400D01*
D25*
X016828Y021850D02*
X017533Y021850D01*
X017533Y023850D02*
X016828Y023850D01*
X020578Y033200D02*
X021283Y033200D01*
X021283Y035200D02*
X020578Y035200D01*
D26*
X020930Y035200D02*
X021030Y035250D01*
X021540Y035756D02*
X021540Y037251D01*
X021462Y037439D01*
X021319Y037582D01*
X021131Y037660D01*
X019949Y037660D01*
X019905Y037767D01*
X019747Y037925D01*
X019541Y038010D01*
X016819Y038010D01*
X016613Y037925D01*
X016205Y037517D01*
X016182Y037460D01*
X012374Y037460D01*
X012362Y037489D01*
X012241Y037610D01*
X012498Y037610D01*
X012623Y037662D01*
X013141Y038180D01*
X013395Y038180D01*
X013700Y038485D01*
X013700Y038915D01*
X013395Y039220D01*
X012965Y039220D01*
X012660Y038915D01*
X012660Y038661D01*
X012289Y038290D01*
X010362Y038290D01*
X010237Y038238D01*
X010142Y038143D01*
X008892Y036893D01*
X008840Y036768D01*
X008840Y029310D01*
X008778Y029310D01*
X008683Y029270D01*
X008610Y029197D01*
X008570Y029102D01*
X008570Y028298D01*
X008610Y028203D01*
X008683Y028130D01*
X008778Y028090D01*
X009582Y028090D01*
X009677Y028130D01*
X009750Y028203D01*
X009790Y028298D01*
X009790Y029102D01*
X009750Y029197D01*
X009677Y029270D01*
X009582Y029310D01*
X009520Y029310D01*
X009520Y031843D01*
X009528Y031840D01*
X010332Y031840D01*
X010427Y031880D01*
X010483Y031935D01*
X010483Y031686D01*
X010502Y031641D01*
X010483Y031596D01*
X010483Y031292D01*
X009520Y031292D01*
X009520Y031134D02*
X010586Y031134D01*
X010596Y031124D02*
X010630Y031110D01*
X010630Y029849D01*
X010707Y029661D01*
X010851Y029518D01*
X011038Y029440D01*
X011544Y029440D01*
X011560Y029403D01*
X011633Y029330D01*
X011728Y029290D01*
X012632Y029290D01*
X012670Y029306D01*
X012670Y028599D01*
X012748Y028411D01*
X012891Y028268D01*
X013079Y028190D01*
X018281Y028190D01*
X018469Y028268D01*
X018612Y028411D01*
X018654Y028512D01*
X018664Y028476D01*
X018810Y028222D01*
X018992Y028040D01*
X008182Y028040D01*
X008047Y028175D01*
X007986Y028200D01*
X008047Y028225D01*
X008205Y028383D01*
X008290Y028589D01*
X008290Y028811D01*
X008205Y029017D01*
X008047Y029175D01*
X007986Y029200D01*
X008047Y029225D01*
X008205Y029383D01*
X008290Y029589D01*
X008290Y029811D01*
X008205Y030017D01*
X008047Y030175D01*
X007986Y030200D01*
X008047Y030225D01*
X008205Y030383D01*
X008290Y030589D01*
X008290Y030811D01*
X008205Y031017D01*
X008047Y031175D01*
X007986Y031200D01*
X008047Y031225D01*
X008205Y031383D01*
X008290Y031589D01*
X008290Y031811D01*
X008205Y032017D01*
X008047Y032175D01*
X007986Y032200D01*
X008047Y032225D01*
X008205Y032383D01*
X008290Y032589D01*
X008290Y032811D01*
X008205Y033017D01*
X008047Y033175D01*
X007986Y033200D01*
X008047Y033225D01*
X008205Y033383D01*
X008290Y033589D01*
X008290Y033811D01*
X008205Y034017D01*
X008047Y034175D01*
X007880Y034244D01*
X007914Y034255D01*
X007982Y034289D01*
X008043Y034334D01*
X008096Y034387D01*
X008141Y034448D01*
X008175Y034516D01*
X008198Y034588D01*
X008210Y034662D01*
X008210Y034680D01*
X007450Y034680D01*
X007450Y034720D01*
X008210Y034720D01*
X008210Y034738D01*
X008198Y034812D01*
X008175Y034884D01*
X008141Y034952D01*
X008096Y035013D01*
X008043Y035066D01*
X007982Y035111D01*
X007914Y035145D01*
X007880Y035156D01*
X008047Y035225D01*
X008205Y035383D01*
X008290Y035589D01*
X008290Y035811D01*
X008205Y036017D01*
X008047Y036175D01*
X007986Y036200D01*
X008047Y036225D01*
X008205Y036383D01*
X008290Y036589D01*
X008290Y036811D01*
X008205Y037017D01*
X008047Y037175D01*
X007986Y037200D01*
X008047Y037225D01*
X008182Y037360D01*
X008248Y037360D01*
X008373Y037412D01*
X009141Y038180D01*
X009395Y038180D01*
X009700Y038485D01*
X009700Y038915D01*
X009395Y039220D01*
X008965Y039220D01*
X008660Y038915D01*
X008660Y038661D01*
X008111Y038111D01*
X008047Y038175D01*
X007880Y038244D01*
X007914Y038255D01*
X007982Y038289D01*
X008043Y038334D01*
X008096Y038387D01*
X008141Y038448D01*
X008175Y038516D01*
X008198Y038588D01*
X008210Y038662D01*
X008210Y038680D01*
X007450Y038680D01*
X007450Y038720D01*
X007410Y038720D01*
X007410Y039180D01*
X007092Y039180D01*
X007018Y039168D01*
X006946Y039145D01*
X006878Y039111D01*
X006817Y039066D01*
X006764Y039013D01*
X006719Y038952D01*
X006685Y038884D01*
X006662Y038812D01*
X006650Y038738D01*
X006650Y038720D01*
X007410Y038720D01*
X007410Y038680D01*
X006650Y038680D01*
X006650Y038662D01*
X006662Y038588D01*
X006685Y038516D01*
X006719Y038448D01*
X006764Y038387D01*
X006817Y038334D01*
X006878Y038289D01*
X006946Y038255D01*
X006980Y038244D01*
X006813Y038175D01*
X006655Y038017D01*
X006570Y037811D01*
X006570Y037589D01*
X006655Y037383D01*
X006813Y037225D01*
X006874Y037200D01*
X006813Y037175D01*
X006678Y037040D01*
X006321Y037040D01*
X005968Y037393D01*
X005873Y037488D01*
X005748Y037540D01*
X004612Y037540D01*
X004487Y037488D01*
X003892Y036893D01*
X003840Y036768D01*
X003840Y034591D01*
X003035Y033786D01*
X003040Y033798D01*
X003040Y034602D01*
X003000Y034697D01*
X002927Y034770D01*
X002832Y034810D01*
X002028Y034810D01*
X001933Y034770D01*
X001860Y034697D01*
X001820Y034602D01*
X001820Y033798D01*
X001860Y033703D01*
X001933Y033630D01*
X002028Y033590D01*
X002090Y033590D01*
X002090Y030591D01*
X000892Y029393D01*
X000840Y029268D01*
X000840Y019132D01*
X000892Y019007D01*
X000987Y018912D01*
X001787Y018112D01*
X001912Y018060D01*
X002090Y018060D01*
X002090Y018056D01*
X002346Y017800D01*
X002090Y017544D01*
X002090Y017540D01*
X001862Y017540D01*
X001737Y017488D01*
X001237Y016988D01*
X001142Y016893D01*
X001090Y016768D01*
X001090Y011882D01*
X001142Y011757D01*
X001237Y011662D01*
X002900Y009999D01*
X002844Y010014D01*
X002552Y010014D01*
X002270Y009938D01*
X002016Y009792D01*
X001810Y009585D01*
X001664Y009332D01*
X001588Y009050D01*
X001588Y008758D01*
X001664Y008476D01*
X001810Y008222D01*
X002016Y008016D01*
X002270Y007870D01*
X002552Y007794D01*
X002844Y007794D01*
X003126Y007870D01*
X003379Y008016D01*
X003586Y008222D01*
X003732Y008476D01*
X003808Y008758D01*
X003808Y009050D01*
X003783Y009143D01*
X003862Y009110D01*
X006748Y009110D01*
X006873Y009162D01*
X006968Y009257D01*
X007020Y009382D01*
X007020Y009783D01*
X007300Y009783D01*
X007395Y009823D01*
X007469Y009896D01*
X007508Y009992D01*
X007508Y010380D01*
X007520Y010409D01*
X007520Y010544D01*
X007508Y010573D01*
X007508Y010961D01*
X007470Y011053D01*
X007470Y011947D01*
X007508Y012039D01*
X007508Y012184D01*
X013466Y012184D01*
X013487Y012162D01*
X015737Y009912D01*
X015862Y009860D01*
X021498Y009860D01*
X021623Y009912D01*
X021718Y010007D01*
X023123Y011412D01*
X023218Y011507D01*
X023270Y011632D01*
X023270Y017918D01*
X023218Y018043D01*
X023073Y018188D01*
X022948Y018240D01*
X022174Y018240D01*
X021958Y018457D01*
X022190Y018689D01*
X022190Y018882D01*
X021698Y018882D01*
X021698Y018918D01*
X022190Y018918D01*
X022190Y019111D01*
X021901Y019400D01*
X022190Y019689D01*
X022190Y019882D01*
X021698Y019882D01*
X021698Y019918D01*
X022190Y019918D01*
X022190Y020111D01*
X021958Y020343D01*
X022054Y020440D01*
X023281Y020440D01*
X023469Y020518D01*
X023612Y020661D01*
X023690Y020849D01*
X023690Y030301D01*
X023612Y030489D01*
X023469Y030632D01*
X023281Y030710D01*
X019460Y030710D01*
X019497Y030725D01*
X019655Y030883D01*
X019678Y030940D01*
X021131Y030940D01*
X021319Y031018D01*
X021462Y031161D01*
X021540Y031349D01*
X021540Y032644D01*
X021629Y032681D01*
X021802Y032853D01*
X021895Y033078D01*
X021895Y033322D01*
X021802Y033547D01*
X021629Y033719D01*
X021404Y033812D01*
X020456Y033812D01*
X020231Y033719D01*
X020058Y033547D01*
X019965Y033322D01*
X019965Y033078D01*
X020058Y032853D01*
X020231Y032681D01*
X020456Y032588D01*
X020520Y032588D01*
X020520Y031960D01*
X019079Y031960D01*
X018891Y031882D01*
X018877Y031868D01*
X018877Y031990D01*
X018837Y032085D01*
X018797Y032125D01*
X018797Y032231D01*
X018223Y032231D01*
X017650Y032231D01*
X017650Y032125D01*
X017609Y032085D01*
X017570Y031990D01*
X017570Y031805D01*
X017499Y031806D01*
X017499Y033053D01*
X017650Y033053D01*
X017650Y033019D01*
X018223Y033019D01*
X018223Y033019D01*
X017650Y033019D01*
X017650Y032895D01*
X017662Y032849D01*
X017678Y032822D01*
X017662Y032795D01*
X017650Y032749D01*
X017650Y032625D01*
X017650Y032501D01*
X017662Y032456D01*
X017678Y032428D01*
X017662Y032401D01*
X017650Y032355D01*
X017650Y032232D01*
X018223Y032232D01*
X018223Y032625D01*
X017650Y032625D01*
X018223Y032625D01*
X018223Y032625D01*
X018223Y032625D01*
X018223Y032345D01*
X018223Y032232D01*
X018223Y032232D01*
X018223Y032231D01*
X018223Y032232D01*
X018797Y032232D01*
X018797Y032355D01*
X018785Y032401D01*
X018769Y032428D01*
X018785Y032456D01*
X018797Y032501D01*
X018797Y032625D01*
X018223Y032625D01*
X018223Y033019D01*
X018223Y033019D01*
X018223Y032739D01*
X018223Y032625D01*
X018223Y032625D01*
X018223Y032625D01*
X018797Y032625D01*
X018797Y032749D01*
X018785Y032795D01*
X018769Y032822D01*
X018785Y032849D01*
X018797Y032895D01*
X018797Y033019D01*
X018797Y033125D01*
X018837Y033165D01*
X018877Y033261D01*
X018877Y033564D01*
X018858Y033609D01*
X018877Y033655D01*
X018877Y033958D01*
X018858Y034003D01*
X018877Y034048D01*
X018877Y034352D01*
X018858Y034397D01*
X018877Y034442D01*
X018877Y034745D01*
X018858Y034791D01*
X018877Y034836D01*
X018877Y035139D01*
X018837Y035235D01*
X018797Y035275D01*
X018797Y035381D01*
X018223Y035381D01*
X017650Y035381D01*
X017650Y035347D01*
X017499Y035347D01*
X017499Y036596D01*
X017570Y036596D01*
X017570Y036410D01*
X017609Y036315D01*
X017650Y036275D01*
X017650Y036169D01*
X018223Y036169D01*
X018223Y036168D01*
X018223Y036168D01*
X018223Y035775D01*
X018223Y035775D01*
X017650Y035775D01*
X017650Y035899D01*
X017662Y035944D01*
X017678Y035972D01*
X017662Y035999D01*
X017650Y036045D01*
X017650Y036168D01*
X018223Y036168D01*
X018223Y035889D01*
X018223Y035889D01*
X018223Y035775D01*
X018223Y035775D01*
X017650Y035775D01*
X017650Y035651D01*
X017662Y035605D01*
X017678Y035578D01*
X017662Y035551D01*
X017650Y035505D01*
X017650Y035381D01*
X018223Y035381D01*
X018223Y035381D01*
X018223Y035775D01*
X018223Y035775D01*
X018797Y035775D01*
X018797Y035899D01*
X018785Y035944D01*
X018769Y035972D01*
X018785Y035999D01*
X018797Y036045D01*
X018797Y036168D01*
X018223Y036168D01*
X018223Y036169D01*
X018797Y036169D01*
X018797Y036275D01*
X018837Y036315D01*
X018877Y036410D01*
X018877Y036714D01*
X018874Y036721D01*
X018909Y036804D01*
X018909Y036810D01*
X019099Y036810D01*
X019191Y036718D01*
X019379Y036640D01*
X020520Y036640D01*
X020520Y035812D01*
X020456Y035812D01*
X020231Y035719D01*
X020058Y035547D01*
X019965Y035322D01*
X019965Y035078D01*
X020058Y034853D01*
X020231Y034681D01*
X020456Y034588D01*
X021404Y034588D01*
X021629Y034681D01*
X021802Y034853D01*
X021895Y035078D01*
X021895Y035322D01*
X021802Y035547D01*
X021629Y035719D01*
X021540Y035756D01*
X021603Y035730D02*
X024070Y035730D01*
X024070Y035572D02*
X021777Y035572D01*
X021857Y035413D02*
X024070Y035413D01*
X024070Y035255D02*
X021895Y035255D01*
X021895Y035096D02*
X024070Y035096D01*
X024070Y034938D02*
X021837Y034938D01*
X021728Y034779D02*
X024070Y034779D01*
X024070Y034621D02*
X021484Y034621D01*
X021679Y033670D02*
X024070Y033670D01*
X024070Y033828D02*
X018877Y033828D01*
X018877Y033670D02*
X020181Y033670D01*
X020043Y033511D02*
X018877Y033511D01*
X018877Y033353D02*
X019978Y033353D01*
X019965Y033194D02*
X018849Y033194D01*
X018797Y033036D02*
X019983Y033036D01*
X020048Y032877D02*
X018792Y032877D01*
X018797Y033019D02*
X018223Y033019D01*
X018797Y033019D01*
X018797Y032719D02*
X020193Y032719D01*
X020520Y032560D02*
X018797Y032560D01*
X018784Y032402D02*
X020520Y032402D01*
X020520Y032243D02*
X018797Y032243D01*
X018838Y032085D02*
X020520Y032085D01*
X020930Y031450D02*
X021030Y031450D01*
X021540Y031451D02*
X024070Y031451D01*
X024070Y031609D02*
X021540Y031609D01*
X021540Y031768D02*
X024070Y031768D01*
X024070Y031926D02*
X021540Y031926D01*
X021540Y032085D02*
X024070Y032085D01*
X024070Y032243D02*
X021540Y032243D01*
X021540Y032402D02*
X024070Y032402D01*
X024070Y032560D02*
X021540Y032560D01*
X021667Y032719D02*
X024070Y032719D01*
X024070Y032877D02*
X021812Y032877D01*
X021877Y033036D02*
X024070Y033036D01*
X024070Y033194D02*
X021895Y033194D01*
X021882Y033353D02*
X024070Y033353D01*
X024070Y033511D02*
X021817Y033511D01*
X021030Y033250D02*
X020930Y033200D01*
X020376Y034621D02*
X018877Y034621D01*
X018863Y034779D02*
X020132Y034779D01*
X020023Y034938D02*
X018877Y034938D01*
X018877Y035096D02*
X019965Y035096D01*
X019965Y035255D02*
X018818Y035255D01*
X018797Y035381D02*
X018797Y035505D01*
X018785Y035551D01*
X018769Y035578D01*
X018785Y035605D01*
X018797Y035651D01*
X018797Y035775D01*
X018223Y035775D01*
X018223Y035775D01*
X018223Y035661D01*
X018223Y035381D01*
X018223Y035381D01*
X018223Y035381D01*
X018797Y035381D01*
X018797Y035413D02*
X020003Y035413D01*
X020083Y035572D02*
X018773Y035572D01*
X018797Y035730D02*
X020257Y035730D01*
X020520Y035889D02*
X018797Y035889D01*
X018797Y036047D02*
X020520Y036047D01*
X020520Y036206D02*
X018797Y036206D01*
X018858Y036364D02*
X020520Y036364D01*
X020520Y036523D02*
X018877Y036523D01*
X018877Y036681D02*
X019279Y036681D01*
X019480Y037150D02*
X019430Y037200D01*
X019480Y037150D02*
X017930Y037150D01*
X017930Y037006D01*
X018255Y036956D01*
X017570Y036523D02*
X017499Y036523D01*
X017499Y036364D02*
X017589Y036364D01*
X017650Y036206D02*
X017499Y036206D01*
X017499Y036047D02*
X017650Y036047D01*
X017650Y035889D02*
X017499Y035889D01*
X017499Y035730D02*
X017650Y035730D01*
X017674Y035572D02*
X017499Y035572D01*
X017499Y035413D02*
X017650Y035413D01*
X017830Y034987D02*
X015930Y034987D01*
X015930Y034950D01*
X016058Y034950D01*
X016058Y035873D01*
X016180Y035873D01*
X016180Y036950D01*
X016430Y036950D01*
X016930Y036950D01*
X016430Y036950D02*
X016430Y037006D01*
X016187Y037474D02*
X012369Y037474D01*
X012551Y037632D02*
X016320Y037632D01*
X016479Y037791D02*
X012751Y037791D01*
X012910Y037949D02*
X016671Y037949D01*
X018223Y036047D02*
X018223Y036047D01*
X018223Y035730D02*
X018223Y035730D01*
X018223Y035572D02*
X018223Y035572D01*
X018223Y035413D02*
X018223Y035413D01*
X018877Y034462D02*
X024070Y034462D01*
X024070Y034304D02*
X018877Y034304D01*
X018877Y034145D02*
X024070Y034145D01*
X024070Y033987D02*
X018865Y033987D01*
X017830Y034200D02*
X015918Y034200D01*
X013302Y034200D01*
X012930Y034200D01*
X012537Y034593D01*
X012537Y036196D01*
X011934Y036196D01*
X011930Y036200D01*
X011939Y036209D01*
X011530Y036169D02*
X012537Y036196D01*
X012990Y036209D01*
X013330Y036219D01*
X013330Y034250D01*
X013180Y034250D01*
X013180Y032200D01*
X013430Y032200D01*
X011930Y032200D02*
X011899Y032231D01*
X011530Y032231D01*
X011177Y032233D02*
X011930Y032200D01*
X011137Y033019D02*
X011068Y033014D01*
X010180Y033014D01*
X009930Y032700D01*
X009930Y032450D01*
X010474Y031926D02*
X010483Y031926D01*
X010483Y031768D02*
X009520Y031768D01*
X009520Y031609D02*
X010488Y031609D01*
X010483Y031451D02*
X009520Y031451D01*
X009520Y030975D02*
X010630Y030975D01*
X010596Y031124D02*
X010523Y031197D01*
X010483Y031292D01*
X010630Y030817D02*
X009520Y030817D01*
X009520Y030658D02*
X010630Y030658D01*
X010630Y030500D02*
X009520Y030500D01*
X009520Y030341D02*
X010630Y030341D01*
X010630Y030183D02*
X009520Y030183D01*
X009520Y030024D02*
X010630Y030024D01*
X010630Y029866D02*
X009520Y029866D01*
X009520Y029707D02*
X010688Y029707D01*
X010820Y029549D02*
X009520Y029549D01*
X009520Y029390D02*
X011572Y029390D01*
X012670Y029232D02*
X009716Y029232D01*
X009790Y029073D02*
X012670Y029073D01*
X012670Y028915D02*
X009790Y028915D01*
X009790Y028756D02*
X012670Y028756D01*
X012670Y028598D02*
X009790Y028598D01*
X009790Y028439D02*
X012736Y028439D01*
X012878Y028281D02*
X009783Y028281D01*
X009659Y028122D02*
X018910Y028122D01*
X018776Y028281D02*
X018482Y028281D01*
X018624Y028439D02*
X018685Y028439D01*
X019430Y026700D02*
X007430Y026700D01*
X007430Y025700D02*
X019430Y025700D01*
X019680Y025950D01*
X021680Y025950D01*
X022435Y026402D02*
X022430Y024950D01*
X021680Y024950D01*
X021680Y024900D01*
X022091Y024477D02*
X022670Y024477D01*
X022670Y024635D02*
X022558Y024635D01*
X022559Y024636D02*
X022622Y024661D01*
X022622Y024662D01*
X022623Y024662D01*
X022670Y024709D01*
X022670Y024709D01*
X022670Y021460D01*
X021954Y021460D01*
X021924Y021490D01*
X021436Y021490D01*
X021356Y021410D01*
X020390Y021410D01*
X020390Y024041D01*
X020320Y024211D01*
X020191Y024340D01*
X020021Y024410D01*
X017781Y024410D01*
X017654Y024462D01*
X016706Y024462D01*
X016481Y024369D01*
X016308Y024197D01*
X016215Y023972D01*
X016215Y023728D01*
X016308Y023503D01*
X016481Y023331D01*
X016706Y023238D01*
X017654Y023238D01*
X017879Y023331D01*
X018039Y023490D01*
X019470Y023490D01*
X019470Y018860D01*
X017354Y018860D01*
X017292Y018922D01*
X017225Y018950D01*
X017292Y018978D01*
X017449Y019135D01*
X017534Y019339D01*
X017534Y019561D01*
X017449Y019765D01*
X017292Y019922D01*
X017088Y020007D01*
X016272Y020007D01*
X016068Y019922D01*
X015911Y019765D01*
X015826Y019561D01*
X015826Y019339D01*
X015911Y019135D01*
X016068Y018978D01*
X016135Y018950D01*
X016068Y018922D01*
X015911Y018765D01*
X015826Y018561D01*
X015826Y018339D01*
X015911Y018135D01*
X016068Y017978D01*
X016242Y017906D01*
X016200Y017892D01*
X016133Y017858D01*
X016073Y017814D01*
X016019Y017761D01*
X015975Y017700D01*
X015941Y017633D01*
X015918Y017562D01*
X015906Y017488D01*
X015906Y017468D01*
X016662Y017468D01*
X016662Y017432D01*
X016698Y017432D01*
X016698Y017468D01*
X017454Y017468D01*
X017454Y017488D01*
X017442Y017562D01*
X017419Y017633D01*
X017385Y017700D01*
X017341Y017761D01*
X017287Y017814D01*
X017227Y017858D01*
X017160Y017892D01*
X017118Y017906D01*
X017292Y017978D01*
X017354Y018040D01*
X019470Y018040D01*
X019470Y014065D01*
X019286Y013881D01*
X019170Y013601D01*
X019170Y013299D01*
X019286Y013019D01*
X019499Y012806D01*
X019779Y012690D01*
X020081Y012690D01*
X020361Y012806D01*
X020574Y013019D01*
X020690Y013299D01*
X020690Y013601D01*
X020574Y013881D01*
X020390Y014065D01*
X020390Y020490D01*
X021256Y020490D01*
X021402Y020343D01*
X021170Y020111D01*
X021170Y019918D01*
X021662Y019918D01*
X021662Y019882D01*
X021170Y019882D01*
X021170Y019689D01*
X021459Y019400D01*
X021170Y019111D01*
X021170Y018918D01*
X021662Y018918D01*
X021662Y018882D01*
X021170Y018882D01*
X021170Y018689D01*
X021402Y018457D01*
X021090Y018144D01*
X021090Y017656D01*
X021346Y017400D01*
X021090Y017144D01*
X021090Y016656D01*
X021346Y016400D01*
X021090Y016144D01*
X021090Y015656D01*
X021436Y015310D01*
X021924Y015310D01*
X022270Y015656D01*
X022270Y016144D01*
X022014Y016400D01*
X022270Y016656D01*
X022270Y017144D01*
X022014Y017400D01*
X022174Y017560D01*
X022590Y017560D01*
X022590Y011841D01*
X021289Y010540D01*
X016071Y010540D01*
X014020Y012591D01*
X014020Y017405D01*
X014200Y017585D01*
X014200Y018015D01*
X014020Y018195D01*
X014020Y019018D01*
X013968Y019143D01*
X013873Y019238D01*
X013748Y019290D01*
X009520Y019290D01*
X009520Y023840D01*
X009582Y023840D01*
X009677Y023880D01*
X009750Y023953D01*
X009790Y024048D01*
X009790Y024852D01*
X009787Y024860D01*
X020590Y024860D01*
X020590Y023832D01*
X020642Y023707D01*
X020737Y023612D01*
X020862Y023560D01*
X021186Y023560D01*
X021346Y023400D01*
X021090Y023144D01*
X021090Y022656D01*
X021436Y022310D01*
X021924Y022310D01*
X022270Y022656D01*
X022270Y023144D01*
X022014Y023400D01*
X022270Y023656D01*
X022270Y024144D01*
X022014Y024400D01*
X022224Y024610D01*
X022429Y024610D01*
X022496Y024610D01*
X022497Y024610D01*
X022498Y024610D01*
X022559Y024636D01*
X022670Y024318D02*
X022096Y024318D01*
X022255Y024160D02*
X022670Y024160D01*
X022670Y024001D02*
X022270Y024001D01*
X022270Y023843D02*
X022670Y023843D01*
X022670Y023684D02*
X022270Y023684D01*
X022140Y023526D02*
X022670Y023526D01*
X022670Y023367D02*
X022047Y023367D01*
X022206Y023209D02*
X022670Y023209D01*
X022670Y023050D02*
X022270Y023050D01*
X022270Y022892D02*
X022670Y022892D01*
X022670Y022733D02*
X022270Y022733D01*
X022189Y022575D02*
X022670Y022575D01*
X022670Y022416D02*
X022030Y022416D01*
X022670Y022258D02*
X020390Y022258D01*
X020390Y022416D02*
X021330Y022416D01*
X021171Y022575D02*
X020390Y022575D01*
X020390Y022733D02*
X021090Y022733D01*
X021090Y022892D02*
X020390Y022892D01*
X020390Y023050D02*
X021090Y023050D01*
X021154Y023209D02*
X020390Y023209D01*
X020390Y023367D02*
X021313Y023367D01*
X021220Y023526D02*
X020390Y023526D01*
X020390Y023684D02*
X020665Y023684D01*
X020590Y023843D02*
X020390Y023843D01*
X020390Y024001D02*
X020590Y024001D01*
X020590Y024160D02*
X020341Y024160D01*
X020213Y024318D02*
X020590Y024318D01*
X020590Y024477D02*
X009790Y024477D01*
X009790Y024635D02*
X020590Y024635D01*
X020590Y024794D02*
X009790Y024794D01*
X009790Y024318D02*
X016429Y024318D01*
X016293Y024160D02*
X009790Y024160D01*
X009770Y024001D02*
X016227Y024001D01*
X016215Y023843D02*
X009588Y023843D01*
X009520Y023684D02*
X016233Y023684D01*
X016299Y023526D02*
X011415Y023526D01*
X011427Y023520D02*
X011332Y023560D01*
X010528Y023560D01*
X010433Y023520D01*
X010360Y023447D01*
X010320Y023352D01*
X010320Y022548D01*
X010360Y022453D01*
X010433Y022380D01*
X010528Y022340D01*
X011332Y022340D01*
X011427Y022380D01*
X011473Y022426D01*
X011642Y022257D01*
X011737Y022162D01*
X011862Y022110D01*
X012332Y022110D01*
X012350Y022066D01*
X012516Y021900D01*
X012350Y021734D01*
X012260Y021517D01*
X012260Y021283D01*
X012350Y021066D01*
X012516Y020900D01*
X012622Y020856D01*
X012583Y020836D01*
X012518Y020789D01*
X012461Y020732D01*
X012414Y020667D01*
X012377Y020596D01*
X012353Y020519D01*
X012340Y020440D01*
X012340Y020430D01*
X013150Y020430D01*
X013150Y020810D01*
X013210Y020810D01*
X013210Y020430D01*
X014020Y020430D01*
X014020Y020440D01*
X014007Y020519D01*
X013983Y020596D01*
X013946Y020667D01*
X013899Y020732D01*
X013842Y020789D01*
X013777Y020836D01*
X013738Y020856D01*
X013844Y020900D01*
X013884Y020940D01*
X015271Y020940D01*
X015441Y021010D01*
X015570Y021139D01*
X015640Y021308D01*
X015640Y021490D01*
X016321Y021490D01*
X016481Y021331D01*
X016706Y021238D01*
X017654Y021238D01*
X017879Y021331D01*
X018052Y021503D01*
X018145Y021728D01*
X018145Y021972D01*
X018052Y022197D01*
X017879Y022369D01*
X017654Y022462D01*
X016706Y022462D01*
X016579Y022410D01*
X015088Y022410D01*
X014919Y022340D01*
X014790Y022211D01*
X014720Y022041D01*
X014720Y021860D01*
X013884Y021860D01*
X013844Y021900D01*
X014010Y022066D01*
X014100Y022283D01*
X014100Y022517D01*
X014010Y022734D01*
X013844Y022900D01*
X013627Y022990D01*
X012733Y022990D01*
X012516Y022900D01*
X012406Y022790D01*
X012071Y022790D01*
X011623Y023238D01*
X011540Y023272D01*
X011540Y023352D01*
X011500Y023447D01*
X011427Y023520D01*
X011534Y023367D02*
X016444Y023367D01*
X017180Y023850D02*
X017180Y023950D01*
X017916Y023367D02*
X019470Y023367D01*
X019470Y023209D02*
X011652Y023209D01*
X011811Y023050D02*
X019470Y023050D01*
X019470Y022892D02*
X013853Y022892D01*
X014011Y022733D02*
X019470Y022733D01*
X019470Y022575D02*
X014076Y022575D01*
X014100Y022416D02*
X016593Y022416D01*
X016346Y021465D02*
X015640Y021465D01*
X015639Y021307D02*
X016539Y021307D01*
X015574Y021148D02*
X019470Y021148D01*
X019470Y020990D02*
X015391Y020990D01*
X014930Y020450D02*
X013180Y020450D01*
X013180Y020400D01*
X013210Y020370D02*
X013210Y020430D01*
X013150Y020430D01*
X013150Y020370D01*
X013210Y020370D01*
X014020Y020370D01*
X014020Y020360D01*
X014007Y020281D01*
X013983Y020204D01*
X013946Y020133D01*
X013899Y020068D01*
X013842Y020011D01*
X013777Y019964D01*
X013706Y019927D01*
X013629Y019903D01*
X013550Y019890D01*
X013210Y019890D01*
X013210Y020370D01*
X013210Y020356D02*
X013150Y020356D01*
X013150Y020370D02*
X013150Y019890D01*
X012810Y019890D01*
X012731Y019903D01*
X012654Y019927D01*
X012583Y019964D01*
X012518Y020011D01*
X012461Y020068D01*
X012414Y020133D01*
X012377Y020204D01*
X012353Y020281D01*
X012340Y020360D01*
X012340Y020370D01*
X013150Y020370D01*
X013150Y020514D02*
X013210Y020514D01*
X013210Y020673D02*
X013150Y020673D01*
X013150Y020197D02*
X013210Y020197D01*
X013210Y020039D02*
X013150Y020039D01*
X012490Y020039D02*
X009520Y020039D01*
X009520Y020197D02*
X012381Y020197D01*
X012341Y020356D02*
X009520Y020356D01*
X009520Y020514D02*
X012352Y020514D01*
X012418Y020673D02*
X009520Y020673D01*
X009520Y020831D02*
X012576Y020831D01*
X012426Y020990D02*
X009520Y020990D01*
X009520Y021148D02*
X012316Y021148D01*
X012260Y021307D02*
X009520Y021307D01*
X009520Y021465D02*
X012260Y021465D01*
X012304Y021624D02*
X009520Y021624D01*
X009520Y021782D02*
X012398Y021782D01*
X012475Y021941D02*
X009520Y021941D01*
X009520Y022099D02*
X012336Y022099D01*
X011930Y022450D02*
X013130Y022450D01*
X013180Y022400D01*
X013180Y022450D01*
X012507Y022892D02*
X011969Y022892D01*
X011930Y022450D02*
X011430Y022950D01*
X010930Y022950D01*
X011464Y022416D02*
X011483Y022416D01*
X011642Y022258D02*
X009520Y022258D01*
X009520Y022416D02*
X010396Y022416D01*
X010320Y022575D02*
X009520Y022575D01*
X009520Y022733D02*
X010320Y022733D01*
X010320Y022892D02*
X009520Y022892D01*
X009520Y023050D02*
X010320Y023050D01*
X010320Y023209D02*
X009520Y023209D01*
X009520Y023367D02*
X010326Y023367D01*
X010445Y023526D02*
X009520Y023526D01*
X008840Y023526D02*
X008178Y023526D01*
X008175Y023516D02*
X008198Y023588D01*
X008210Y023662D01*
X008210Y023680D01*
X007450Y023680D01*
X007450Y023720D01*
X008210Y023720D01*
X008210Y023738D01*
X008198Y023812D01*
X008175Y023884D01*
X008141Y023952D01*
X008096Y024013D01*
X008043Y024066D01*
X007982Y024111D01*
X007914Y024145D01*
X007880Y024156D01*
X008047Y024225D01*
X008182Y024360D01*
X008289Y024360D01*
X008487Y024162D01*
X008570Y024128D01*
X008570Y024048D01*
X008610Y023953D01*
X008683Y023880D01*
X008778Y023840D01*
X008840Y023840D01*
X008840Y018882D01*
X008892Y018757D01*
X008987Y018662D01*
X009112Y018610D01*
X013340Y018610D01*
X013340Y018195D01*
X013160Y018015D01*
X013160Y017585D01*
X013340Y017405D01*
X013340Y015040D01*
X012575Y015040D01*
X012395Y015220D01*
X011965Y015220D01*
X011660Y014915D01*
X011660Y014485D01*
X011965Y014180D01*
X012395Y014180D01*
X012575Y014360D01*
X013340Y014360D01*
X013340Y012864D01*
X007508Y012864D01*
X007508Y013008D01*
X007469Y013104D01*
X007395Y013177D01*
X007300Y013217D01*
X006960Y013217D01*
X006920Y013200D01*
X006920Y013360D01*
X009798Y013360D01*
X009923Y013412D01*
X010018Y013507D01*
X010070Y013632D01*
X010070Y017455D01*
X010200Y017585D01*
X010200Y018015D01*
X009895Y018320D01*
X009465Y018320D01*
X009285Y018140D01*
X006824Y018140D01*
X006792Y018172D01*
X006618Y018244D01*
X006660Y018258D01*
X006727Y018292D01*
X006787Y018336D01*
X006841Y018389D01*
X006885Y018450D01*
X006919Y018517D01*
X006942Y018588D01*
X006954Y018662D01*
X006954Y018682D01*
X006198Y018682D01*
X006198Y018718D01*
X006162Y018718D01*
X006162Y018682D01*
X005406Y018682D01*
X005406Y018662D01*
X005418Y018588D01*
X005441Y018517D01*
X005475Y018450D01*
X005519Y018389D01*
X005573Y018336D01*
X005633Y018292D01*
X005700Y018258D01*
X005742Y018244D01*
X005568Y018172D01*
X005411Y018015D01*
X005326Y017811D01*
X005326Y017589D01*
X005411Y017385D01*
X005568Y017228D01*
X005772Y017143D01*
X006588Y017143D01*
X006792Y017228D01*
X006949Y017385D01*
X006980Y017460D01*
X009285Y017460D01*
X009390Y017355D01*
X009390Y014040D01*
X006512Y014040D01*
X006387Y013988D01*
X006292Y013893D01*
X006240Y013768D01*
X006240Y013137D01*
X006130Y013137D01*
X005988Y013137D01*
X005942Y013124D01*
X005901Y013101D01*
X005880Y013079D01*
X005859Y013101D01*
X005818Y013124D01*
X005772Y013137D01*
X005630Y013137D01*
X005488Y013137D01*
X005442Y013124D01*
X005401Y013101D01*
X005368Y013067D01*
X005344Y013026D01*
X005332Y012980D01*
X005332Y012524D01*
X005630Y012524D01*
X005630Y013137D01*
X005630Y012524D01*
X005630Y012524D01*
X005928Y012524D01*
X006130Y012524D01*
X006130Y013137D01*
X006130Y012524D01*
X006130Y012524D01*
X006130Y012524D01*
X005630Y012524D01*
X005630Y012524D01*
X005630Y012524D01*
X006130Y012524D01*
X006130Y011911D01*
X006272Y011911D01*
X006313Y011922D01*
X006365Y011870D01*
X006460Y011831D01*
X006790Y011831D01*
X006790Y011169D01*
X006460Y011169D01*
X006420Y011153D01*
X006420Y011368D01*
X006368Y011493D01*
X006273Y011588D01*
X006148Y011640D01*
X005221Y011640D01*
X004520Y012341D01*
X004520Y014618D01*
X004468Y014743D01*
X003623Y015588D01*
X003498Y015640D01*
X003174Y015640D01*
X003014Y015800D01*
X003270Y016056D01*
X003270Y016544D01*
X003014Y016800D01*
X003270Y017056D01*
X003270Y017544D01*
X003014Y017800D01*
X003270Y018056D01*
X003270Y018544D01*
X003014Y018800D01*
X003270Y019056D01*
X003270Y019309D01*
X004071Y020110D01*
X004359Y020110D01*
X004237Y019988D01*
X004142Y019893D01*
X004090Y019768D01*
X004090Y016882D01*
X004142Y016757D01*
X004237Y016662D01*
X004737Y016162D01*
X004862Y016110D01*
X005637Y016110D01*
X005633Y016108D01*
X005573Y016064D01*
X005519Y016011D01*
X005475Y015950D01*
X005441Y015883D01*
X005418Y015812D01*
X005406Y015738D01*
X005406Y015718D01*
X006162Y015718D01*
X006162Y015682D01*
X005406Y015682D01*
X005406Y015662D01*
X005418Y015588D01*
X005441Y015517D01*
X005475Y015450D01*
X005519Y015389D01*
X005573Y015336D01*
X005633Y015292D01*
X005700Y015258D01*
X005742Y015244D01*
X005568Y015172D01*
X005411Y015015D01*
X005326Y014811D01*
X005326Y014589D01*
X005411Y014385D01*
X005568Y014228D01*
X005772Y014143D01*
X006588Y014143D01*
X006792Y014228D01*
X006924Y014360D01*
X007785Y014360D01*
X007965Y014180D01*
X008395Y014180D01*
X008700Y014485D01*
X008700Y014915D01*
X008395Y015220D01*
X007965Y015220D01*
X007785Y015040D01*
X007770Y015040D01*
X007770Y016518D01*
X007718Y016643D01*
X007623Y016738D01*
X007498Y016790D01*
X005071Y016790D01*
X004770Y017091D01*
X004770Y019559D01*
X006468Y021257D01*
X006520Y021382D01*
X006520Y024559D01*
X006570Y024609D01*
X006570Y024589D01*
X006655Y024383D01*
X006813Y024225D01*
X006980Y024156D01*
X006946Y024145D01*
X006878Y024111D01*
X006817Y024066D01*
X006764Y024013D01*
X006719Y023952D01*
X006685Y023884D01*
X006662Y023812D01*
X006650Y023738D01*
X006650Y023720D01*
X007410Y023720D01*
X007410Y023680D01*
X007450Y023680D01*
X007450Y023220D01*
X007768Y023220D01*
X007842Y023232D01*
X007914Y023255D01*
X007982Y023289D01*
X008043Y023334D01*
X008096Y023387D01*
X008141Y023448D01*
X008175Y023516D01*
X008076Y023367D02*
X008840Y023367D01*
X008840Y023209D02*
X006520Y023209D01*
X006520Y023367D02*
X006784Y023367D01*
X006764Y023387D02*
X006817Y023334D01*
X006878Y023289D01*
X006946Y023255D01*
X007018Y023232D01*
X007092Y023220D01*
X007410Y023220D01*
X007410Y023680D01*
X006650Y023680D01*
X006650Y023662D01*
X006662Y023588D01*
X006685Y023516D01*
X006719Y023448D01*
X006764Y023387D01*
X006682Y023526D02*
X006520Y023526D01*
X006520Y023684D02*
X007410Y023684D01*
X007450Y023684D02*
X008840Y023684D01*
X008772Y023843D02*
X008188Y023843D01*
X008105Y024001D02*
X008590Y024001D01*
X008493Y024160D02*
X007889Y024160D01*
X008140Y024318D02*
X008331Y024318D01*
X008680Y024450D02*
X008430Y024700D01*
X007430Y024700D01*
X006971Y024160D02*
X006520Y024160D01*
X006520Y024318D02*
X006720Y024318D01*
X006616Y024477D02*
X006520Y024477D01*
X006180Y024700D02*
X006680Y025200D01*
X020930Y025200D01*
X020930Y023900D01*
X021680Y023900D01*
X022670Y022099D02*
X020390Y022099D01*
X020390Y021941D02*
X022670Y021941D01*
X022670Y021782D02*
X020390Y021782D01*
X020390Y021624D02*
X022670Y021624D01*
X022670Y021465D02*
X021949Y021465D01*
X021411Y021465D02*
X020390Y021465D01*
X019470Y021465D02*
X018014Y021465D01*
X018102Y021624D02*
X019470Y021624D01*
X019470Y021782D02*
X018145Y021782D01*
X018145Y021941D02*
X019470Y021941D01*
X019470Y022099D02*
X018092Y022099D01*
X017991Y022258D02*
X019470Y022258D01*
X019470Y022416D02*
X017767Y022416D01*
X017821Y021307D02*
X019470Y021307D01*
X019470Y020831D02*
X013784Y020831D01*
X013942Y020673D02*
X019470Y020673D01*
X019470Y020514D02*
X014008Y020514D01*
X014019Y020356D02*
X019470Y020356D01*
X019470Y020197D02*
X013979Y020197D01*
X013870Y020039D02*
X019470Y020039D01*
X019470Y019880D02*
X017334Y019880D01*
X017467Y019722D02*
X019470Y019722D01*
X019470Y019563D02*
X017533Y019563D01*
X017534Y019405D02*
X019470Y019405D01*
X019470Y019246D02*
X017495Y019246D01*
X017402Y019088D02*
X019470Y019088D01*
X019470Y018929D02*
X017276Y018929D01*
X017292Y017978D02*
X019470Y017978D01*
X019470Y017820D02*
X017280Y017820D01*
X017405Y017661D02*
X019470Y017661D01*
X019470Y017503D02*
X017451Y017503D01*
X017454Y017432D02*
X016698Y017432D01*
X016698Y016973D01*
X017014Y016973D01*
X017089Y016985D01*
X017160Y017008D01*
X017227Y017042D01*
X017287Y017086D01*
X017341Y017139D01*
X017385Y017200D01*
X017419Y017267D01*
X017442Y017338D01*
X017454Y017412D01*
X017454Y017432D01*
X017443Y017344D02*
X019470Y017344D01*
X019430Y017450D02*
X016680Y017450D01*
X014930Y017450D01*
X014930Y020450D01*
X015893Y019722D02*
X009520Y019722D01*
X009520Y019880D02*
X016026Y019880D01*
X015827Y019563D02*
X009520Y019563D01*
X009520Y019405D02*
X015826Y019405D01*
X015865Y019246D02*
X013854Y019246D01*
X013991Y019088D02*
X015958Y019088D01*
X016084Y018929D02*
X014020Y018929D01*
X014020Y018771D02*
X015916Y018771D01*
X015848Y018612D02*
X014020Y018612D01*
X014020Y018454D02*
X015826Y018454D01*
X015845Y018295D02*
X014020Y018295D01*
X014079Y018137D02*
X015910Y018137D01*
X016068Y017978D02*
X014200Y017978D01*
X014200Y017820D02*
X016080Y017820D01*
X015955Y017661D02*
X014200Y017661D01*
X014118Y017503D02*
X015909Y017503D01*
X015906Y017432D02*
X015906Y017412D01*
X015918Y017338D01*
X015941Y017267D01*
X015975Y017200D01*
X016019Y017139D01*
X016073Y017086D01*
X016133Y017042D01*
X016200Y017008D01*
X016271Y016985D01*
X016346Y016973D01*
X016662Y016973D01*
X016662Y017432D01*
X015906Y017432D01*
X015917Y017344D02*
X014020Y017344D01*
X014020Y017186D02*
X015986Y017186D01*
X016163Y017027D02*
X014020Y017027D01*
X014020Y016869D02*
X019470Y016869D01*
X019470Y017027D02*
X017197Y017027D01*
X017374Y017186D02*
X019470Y017186D01*
X019470Y016710D02*
X014020Y016710D01*
X014020Y016552D02*
X019470Y016552D01*
X019470Y016393D02*
X014020Y016393D01*
X014020Y016235D02*
X019470Y016235D01*
X019470Y016076D02*
X014020Y016076D01*
X014020Y015918D02*
X019470Y015918D01*
X019470Y015759D02*
X014020Y015759D01*
X014020Y015601D02*
X019470Y015601D01*
X019470Y015442D02*
X014020Y015442D01*
X014020Y015284D02*
X019470Y015284D01*
X019470Y015125D02*
X014020Y015125D01*
X014020Y014967D02*
X019470Y014967D01*
X019470Y014808D02*
X014020Y014808D01*
X014020Y014650D02*
X019470Y014650D01*
X019470Y014491D02*
X014020Y014491D01*
X014020Y014333D02*
X019470Y014333D01*
X019470Y014174D02*
X014020Y014174D01*
X014020Y014016D02*
X019421Y014016D01*
X019276Y013857D02*
X014020Y013857D01*
X014020Y013699D02*
X019210Y013699D01*
X019170Y013540D02*
X014020Y013540D01*
X014020Y013382D02*
X019170Y013382D01*
X019201Y013223D02*
X014020Y013223D01*
X014020Y013065D02*
X019267Y013065D01*
X019399Y012906D02*
X014020Y012906D01*
X014020Y012748D02*
X019640Y012748D01*
X019648Y012130D02*
X019250Y011732D01*
X019250Y011470D01*
X019910Y011470D01*
X019910Y012130D01*
X019648Y012130D01*
X019632Y012114D02*
X014497Y012114D01*
X014339Y012272D02*
X022590Y012272D01*
X022590Y012114D02*
X020228Y012114D01*
X020212Y012130D02*
X019950Y012130D01*
X019950Y011470D01*
X019910Y011470D01*
X019910Y011430D01*
X019250Y011430D01*
X019250Y011168D01*
X019648Y010770D01*
X019910Y010770D01*
X019910Y011430D01*
X019950Y011430D01*
X019950Y011470D01*
X020610Y011470D01*
X020610Y011732D01*
X020212Y012130D01*
X020387Y011955D02*
X022590Y011955D01*
X022546Y011797D02*
X020545Y011797D01*
X020610Y011638D02*
X022387Y011638D01*
X022229Y011480D02*
X020610Y011480D01*
X020610Y011430D02*
X019950Y011430D01*
X019950Y010770D01*
X020212Y010770D01*
X020610Y011168D01*
X020610Y011430D01*
X020610Y011321D02*
X022070Y011321D01*
X021912Y011163D02*
X020604Y011163D01*
X020446Y011004D02*
X021753Y011004D01*
X021595Y010846D02*
X020287Y010846D01*
X019950Y010846D02*
X019910Y010846D01*
X019910Y011004D02*
X019950Y011004D01*
X019950Y011163D02*
X019910Y011163D01*
X019910Y011321D02*
X019950Y011321D01*
X019950Y011480D02*
X019910Y011480D01*
X019910Y011638D02*
X019950Y011638D01*
X019950Y011797D02*
X019910Y011797D01*
X019910Y011955D02*
X019950Y011955D01*
X019950Y012114D02*
X019910Y012114D01*
X019473Y011955D02*
X014656Y011955D01*
X014814Y011797D02*
X019315Y011797D01*
X019250Y011638D02*
X014973Y011638D01*
X015131Y011480D02*
X019250Y011480D01*
X019250Y011321D02*
X015290Y011321D01*
X015448Y011163D02*
X019256Y011163D01*
X019414Y011004D02*
X015607Y011004D01*
X015765Y010846D02*
X019573Y010846D01*
X020220Y012748D02*
X022590Y012748D01*
X022590Y012906D02*
X020461Y012906D01*
X020593Y013065D02*
X022590Y013065D01*
X022590Y013223D02*
X020659Y013223D01*
X020690Y013382D02*
X022590Y013382D01*
X022590Y013540D02*
X020690Y013540D01*
X020650Y013699D02*
X022590Y013699D01*
X022590Y013857D02*
X020584Y013857D01*
X020439Y014016D02*
X022590Y014016D01*
X022590Y014174D02*
X020390Y014174D01*
X020390Y014333D02*
X022590Y014333D01*
X022590Y014491D02*
X020390Y014491D01*
X020390Y014650D02*
X022590Y014650D01*
X022590Y014808D02*
X020390Y014808D01*
X020390Y014967D02*
X022590Y014967D01*
X022590Y015125D02*
X020390Y015125D01*
X020390Y015284D02*
X022590Y015284D01*
X022590Y015442D02*
X022056Y015442D01*
X022215Y015601D02*
X022590Y015601D01*
X022590Y015759D02*
X022270Y015759D01*
X022270Y015918D02*
X022590Y015918D01*
X022590Y016076D02*
X022270Y016076D01*
X022180Y016235D02*
X022590Y016235D01*
X022590Y016393D02*
X022021Y016393D01*
X022166Y016552D02*
X022590Y016552D01*
X022590Y016710D02*
X022270Y016710D01*
X022270Y016869D02*
X022590Y016869D01*
X022590Y017027D02*
X022270Y017027D01*
X022229Y017186D02*
X022590Y017186D01*
X022590Y017344D02*
X022070Y017344D01*
X022117Y017503D02*
X022590Y017503D01*
X022930Y017850D02*
X022880Y017900D01*
X021680Y017900D01*
X021243Y017503D02*
X020390Y017503D01*
X020390Y017661D02*
X021090Y017661D01*
X021090Y017820D02*
X020390Y017820D01*
X020390Y017978D02*
X021090Y017978D01*
X021090Y018137D02*
X020390Y018137D01*
X020390Y018295D02*
X021241Y018295D01*
X021399Y018454D02*
X020390Y018454D01*
X020390Y018612D02*
X021247Y018612D01*
X021170Y018771D02*
X020390Y018771D01*
X020390Y018929D02*
X021170Y018929D01*
X021170Y019088D02*
X020390Y019088D01*
X020390Y019246D02*
X021305Y019246D01*
X021454Y019405D02*
X020390Y019405D01*
X020390Y019563D02*
X021296Y019563D01*
X021170Y019722D02*
X020390Y019722D01*
X020390Y019880D02*
X021170Y019880D01*
X021170Y020039D02*
X020390Y020039D01*
X020390Y020197D02*
X021256Y020197D01*
X021390Y020356D02*
X020390Y020356D01*
X021662Y019882D02*
X021662Y019410D01*
X021662Y018918D01*
X021698Y018918D01*
X021698Y019882D01*
X021662Y019882D01*
X021662Y019880D02*
X021698Y019880D01*
X021680Y019900D02*
X021680Y018900D01*
X021662Y018929D02*
X021698Y018929D01*
X021698Y019088D02*
X021662Y019088D01*
X021662Y019246D02*
X021698Y019246D01*
X021698Y019405D02*
X021662Y019405D01*
X021662Y019563D02*
X021698Y019563D01*
X021698Y019722D02*
X021662Y019722D01*
X021906Y019405D02*
X024070Y019405D01*
X024070Y019563D02*
X022064Y019563D01*
X022190Y019722D02*
X024070Y019722D01*
X024070Y019880D02*
X022190Y019880D01*
X022190Y020039D02*
X024070Y020039D01*
X024070Y020197D02*
X022104Y020197D01*
X021970Y020356D02*
X024070Y020356D01*
X024070Y020514D02*
X023460Y020514D01*
X023617Y020673D02*
X024070Y020673D01*
X024070Y020831D02*
X023683Y020831D01*
X023690Y020990D02*
X024070Y020990D01*
X024070Y021148D02*
X023690Y021148D01*
X023690Y021307D02*
X024070Y021307D01*
X024070Y021465D02*
X023690Y021465D01*
X023690Y021624D02*
X024070Y021624D01*
X024070Y021782D02*
X023690Y021782D01*
X023690Y021941D02*
X024070Y021941D01*
X024070Y022099D02*
X023690Y022099D01*
X023690Y022258D02*
X024070Y022258D01*
X024070Y022416D02*
X023690Y022416D01*
X023690Y022575D02*
X024070Y022575D01*
X024070Y022733D02*
X023690Y022733D01*
X023690Y022892D02*
X024070Y022892D01*
X024070Y023050D02*
X023690Y023050D01*
X023690Y023209D02*
X024070Y023209D01*
X024070Y023367D02*
X023690Y023367D01*
X023690Y023526D02*
X024070Y023526D01*
X024070Y023684D02*
X023690Y023684D01*
X023690Y023843D02*
X024070Y023843D01*
X024070Y024001D02*
X023690Y024001D01*
X023690Y024160D02*
X024070Y024160D01*
X024070Y024318D02*
X023690Y024318D01*
X023690Y024477D02*
X024070Y024477D01*
X024070Y024635D02*
X023690Y024635D01*
X023690Y024794D02*
X024070Y024794D01*
X024070Y024952D02*
X023690Y024952D01*
X023690Y025111D02*
X024070Y025111D01*
X024070Y025269D02*
X023690Y025269D01*
X023690Y025428D02*
X024070Y025428D01*
X024070Y025586D02*
X023690Y025586D01*
X023690Y025745D02*
X024070Y025745D01*
X024070Y025903D02*
X023690Y025903D01*
X023690Y026062D02*
X024070Y026062D01*
X024070Y026220D02*
X023690Y026220D01*
X023690Y026379D02*
X024070Y026379D01*
X024070Y026537D02*
X023690Y026537D01*
X023690Y026696D02*
X024070Y026696D01*
X024070Y026854D02*
X023690Y026854D01*
X023690Y027013D02*
X024070Y027013D01*
X024070Y027171D02*
X023690Y027171D01*
X023690Y027330D02*
X024070Y027330D01*
X024070Y027488D02*
X023690Y027488D01*
X023690Y027647D02*
X024070Y027647D01*
X024070Y027805D02*
X023690Y027805D01*
X023690Y027964D02*
X024070Y027964D01*
X024070Y028122D02*
X023690Y028122D01*
X023690Y028281D02*
X024070Y028281D01*
X024070Y028439D02*
X023690Y028439D01*
X023690Y028598D02*
X024070Y028598D01*
X024070Y028756D02*
X023690Y028756D01*
X023690Y028915D02*
X024070Y028915D01*
X024070Y029073D02*
X023690Y029073D01*
X023690Y029232D02*
X024070Y029232D01*
X024070Y029390D02*
X023690Y029390D01*
X023690Y029549D02*
X024070Y029549D01*
X024070Y029707D02*
X023690Y029707D01*
X023690Y029866D02*
X024070Y029866D01*
X024070Y030024D02*
X023690Y030024D01*
X023690Y030183D02*
X024070Y030183D01*
X024070Y030341D02*
X023674Y030341D01*
X023602Y030500D02*
X024070Y030500D01*
X024070Y030658D02*
X023407Y030658D01*
X024070Y030817D02*
X019588Y030817D01*
X019180Y031200D02*
X019180Y031450D01*
X018173Y031450D01*
X018223Y031449D01*
X016130Y031499D01*
X015930Y031499D01*
X015229Y031499D01*
X015180Y031450D01*
X015330Y031450D01*
X015330Y031494D01*
X016130Y031499D02*
X016130Y032527D01*
X016058Y032527D01*
X016058Y033450D01*
X016180Y033450D01*
X016180Y033413D01*
X017830Y033413D01*
X017650Y033036D02*
X017499Y033036D01*
X017499Y032877D02*
X017654Y032877D01*
X017650Y032719D02*
X017499Y032719D01*
X017499Y032560D02*
X017650Y032560D01*
X017662Y032402D02*
X017499Y032402D01*
X017499Y032243D02*
X017650Y032243D01*
X017609Y032085D02*
X017499Y032085D01*
X017499Y031926D02*
X017570Y031926D01*
X018223Y032243D02*
X018223Y032243D01*
X018223Y032402D02*
X018223Y032402D01*
X018223Y032560D02*
X018223Y032560D01*
X018223Y032719D02*
X018223Y032719D01*
X018223Y032877D02*
X018223Y032877D01*
X018223Y033019D02*
X018223Y033019D01*
X018877Y031926D02*
X018997Y031926D01*
X021216Y030975D02*
X024070Y030975D01*
X024070Y031134D02*
X021435Y031134D01*
X021517Y031292D02*
X024070Y031292D01*
X021680Y027950D02*
X021680Y027900D01*
X021680Y027700D01*
X007430Y027700D01*
X008100Y028122D02*
X008701Y028122D01*
X008577Y028281D02*
X008102Y028281D01*
X008228Y028439D02*
X008570Y028439D01*
X008570Y028598D02*
X008290Y028598D01*
X008290Y028756D02*
X008570Y028756D01*
X008570Y028915D02*
X008247Y028915D01*
X008149Y029073D02*
X008570Y029073D01*
X008644Y029232D02*
X008053Y029232D01*
X008208Y029390D02*
X008840Y029390D01*
X008840Y029549D02*
X008273Y029549D01*
X008290Y029707D02*
X008840Y029707D01*
X008840Y029866D02*
X008268Y029866D01*
X008198Y030024D02*
X008840Y030024D01*
X008840Y030183D02*
X008028Y030183D01*
X008163Y030341D02*
X008840Y030341D01*
X008840Y030500D02*
X008253Y030500D01*
X008290Y030658D02*
X008840Y030658D01*
X008840Y030817D02*
X008288Y030817D01*
X008222Y030975D02*
X008840Y030975D01*
X008840Y031134D02*
X008088Y031134D01*
X008114Y031292D02*
X008840Y031292D01*
X008840Y031451D02*
X008233Y031451D01*
X008290Y031609D02*
X008840Y031609D01*
X008840Y031768D02*
X008290Y031768D01*
X008243Y031926D02*
X008840Y031926D01*
X008840Y032085D02*
X008137Y032085D01*
X008065Y032243D02*
X008840Y032243D01*
X008840Y032402D02*
X008213Y032402D01*
X008278Y032560D02*
X008840Y032560D01*
X008840Y032719D02*
X008290Y032719D01*
X008263Y032877D02*
X008840Y032877D01*
X008840Y033036D02*
X008186Y033036D01*
X008001Y033194D02*
X008840Y033194D01*
X008840Y033353D02*
X008174Y033353D01*
X008258Y033511D02*
X008840Y033511D01*
X008840Y033670D02*
X008290Y033670D01*
X008283Y033828D02*
X008840Y033828D01*
X008840Y033987D02*
X008217Y033987D01*
X008077Y034145D02*
X008840Y034145D01*
X008840Y034304D02*
X008001Y034304D01*
X008147Y034462D02*
X008840Y034462D01*
X008840Y034621D02*
X008203Y034621D01*
X008203Y034779D02*
X008840Y034779D01*
X008840Y034938D02*
X008148Y034938D01*
X008002Y035096D02*
X008840Y035096D01*
X008840Y035255D02*
X008077Y035255D01*
X008217Y035413D02*
X008840Y035413D01*
X008840Y035572D02*
X008283Y035572D01*
X008290Y035730D02*
X008840Y035730D01*
X008840Y035889D02*
X008258Y035889D01*
X008175Y036047D02*
X008840Y036047D01*
X008840Y036206D02*
X008000Y036206D01*
X008186Y036364D02*
X008840Y036364D01*
X008840Y036523D02*
X008263Y036523D01*
X008290Y036681D02*
X008840Y036681D01*
X008870Y036840D02*
X008278Y036840D01*
X008213Y036998D02*
X008997Y036998D01*
X009156Y037157D02*
X008065Y037157D01*
X008137Y037315D02*
X009314Y037315D01*
X009473Y037474D02*
X008434Y037474D01*
X008593Y037632D02*
X009631Y037632D01*
X009790Y037791D02*
X008751Y037791D01*
X008910Y037949D02*
X009948Y037949D01*
X010107Y038108D02*
X009068Y038108D01*
X009481Y038266D02*
X010305Y038266D01*
X010430Y037950D02*
X012430Y037950D01*
X013180Y038700D01*
X013557Y039059D02*
X024070Y039059D01*
X024070Y039217D02*
X013398Y039217D01*
X012962Y039217D02*
X009398Y039217D01*
X009557Y039059D02*
X012803Y039059D01*
X012660Y038900D02*
X009700Y038900D01*
X009700Y038742D02*
X012660Y038742D01*
X012582Y038583D02*
X009700Y038583D01*
X009640Y038425D02*
X012424Y038425D01*
X013068Y038108D02*
X024070Y038108D01*
X024070Y038266D02*
X013481Y038266D01*
X013640Y038425D02*
X024070Y038425D01*
X024070Y038583D02*
X013700Y038583D01*
X013700Y038742D02*
X024070Y038742D01*
X024070Y038900D02*
X013700Y038900D01*
X011930Y037200D02*
X011930Y036950D01*
X011087Y036950D01*
X011137Y036956D01*
X010430Y037950D02*
X009180Y036700D01*
X009180Y034950D01*
X009930Y034950D01*
X009967Y034987D01*
X011137Y034987D01*
X011137Y035381D02*
X010249Y035381D01*
X009930Y035700D01*
X009930Y036200D01*
X009180Y034950D02*
X009180Y033450D01*
X009993Y033450D01*
X010030Y033413D01*
X011137Y033413D01*
X011137Y034200D02*
X009930Y034200D01*
X009180Y033450D02*
X009180Y028700D01*
X007430Y028700D02*
X006680Y028700D01*
X005680Y027700D01*
X005680Y021700D01*
X004430Y020450D01*
X003930Y020450D01*
X002780Y019300D01*
X002680Y019300D01*
X002680Y019200D01*
X003143Y018929D02*
X004090Y018929D01*
X004090Y018771D02*
X003044Y018771D01*
X003202Y018612D02*
X004090Y018612D01*
X004090Y018454D02*
X003270Y018454D01*
X003270Y018295D02*
X004090Y018295D01*
X004090Y018137D02*
X003270Y018137D01*
X003192Y017978D02*
X004090Y017978D01*
X004090Y017820D02*
X003034Y017820D01*
X003153Y017661D02*
X004090Y017661D01*
X004090Y017503D02*
X003270Y017503D01*
X003270Y017344D02*
X004090Y017344D01*
X004090Y017186D02*
X003270Y017186D01*
X003241Y017027D02*
X004090Y017027D01*
X004096Y016869D02*
X003083Y016869D01*
X003104Y016710D02*
X004189Y016710D01*
X004348Y016552D02*
X003263Y016552D01*
X003270Y016393D02*
X004506Y016393D01*
X004665Y016235D02*
X003270Y016235D01*
X003270Y016076D02*
X005589Y016076D01*
X005459Y015918D02*
X003132Y015918D01*
X003055Y015759D02*
X005410Y015759D01*
X005416Y015601D02*
X003593Y015601D01*
X003769Y015442D02*
X005481Y015442D01*
X005650Y015284D02*
X003927Y015284D01*
X004086Y015125D02*
X005521Y015125D01*
X005391Y014967D02*
X004244Y014967D01*
X004403Y014808D02*
X005326Y014808D01*
X005326Y014650D02*
X004507Y014650D01*
X004520Y014491D02*
X005367Y014491D01*
X005463Y014333D02*
X004520Y014333D01*
X004520Y014174D02*
X005698Y014174D01*
X006277Y013857D02*
X004520Y013857D01*
X004520Y013699D02*
X006240Y013699D01*
X006240Y013540D02*
X004520Y013540D01*
X004520Y013382D02*
X006240Y013382D01*
X006240Y013223D02*
X004520Y013223D01*
X004520Y013065D02*
X005366Y013065D01*
X005332Y012906D02*
X004520Y012906D01*
X004520Y012748D02*
X005332Y012748D01*
X005332Y012589D02*
X004520Y012589D01*
X004520Y012431D02*
X005332Y012431D01*
X005332Y012524D02*
X005332Y012067D01*
X005344Y012021D01*
X005368Y011980D01*
X005401Y011947D01*
X005442Y011923D01*
X005488Y011911D01*
X005630Y011911D01*
X005772Y011911D01*
X005818Y011923D01*
X005859Y011947D01*
X005880Y011968D01*
X005901Y011947D01*
X005942Y011923D01*
X005988Y011911D01*
X006130Y011911D01*
X006130Y012524D01*
X006130Y012524D01*
X006130Y012589D02*
X006130Y012589D01*
X006130Y012431D02*
X006130Y012431D01*
X006130Y012272D02*
X006130Y012272D01*
X006130Y012114D02*
X006130Y012114D01*
X006130Y011955D02*
X006130Y011955D01*
X005893Y011955D02*
X005867Y011955D01*
X005630Y011955D02*
X005630Y011955D01*
X005630Y011911D02*
X005630Y012524D01*
X005332Y012524D01*
X005332Y012272D02*
X004589Y012272D01*
X004747Y012114D02*
X005332Y012114D01*
X005393Y011955D02*
X004906Y011955D01*
X005064Y011797D02*
X006790Y011797D01*
X006790Y011638D02*
X006152Y011638D01*
X006374Y011480D02*
X006790Y011480D01*
X006790Y011321D02*
X006420Y011321D01*
X006420Y011163D02*
X006443Y011163D01*
X006080Y011300D02*
X005080Y011300D01*
X004180Y012200D01*
X004180Y014550D01*
X003430Y015300D01*
X002680Y015300D01*
X002305Y015759D02*
X001770Y015759D01*
X001770Y015601D02*
X002146Y015601D01*
X002090Y015544D02*
X002346Y015800D01*
X002090Y016056D01*
X002090Y016544D01*
X002346Y016800D01*
X002286Y016860D01*
X002071Y016860D01*
X001770Y016559D01*
X001770Y012091D01*
X004071Y009790D01*
X005444Y009790D01*
X005365Y009823D01*
X005291Y009896D01*
X005252Y009992D01*
X005252Y010136D01*
X005086Y010136D01*
X004961Y010188D01*
X003487Y011662D01*
X003392Y011757D01*
X003340Y011882D01*
X003340Y013559D01*
X003057Y013842D01*
X002958Y013743D01*
X003190Y013511D01*
X003190Y013318D01*
X002698Y013318D01*
X002698Y013282D01*
X003190Y013282D01*
X003190Y013089D01*
X002958Y012857D01*
X003270Y012544D01*
X003270Y012056D01*
X002924Y011710D01*
X002436Y011710D01*
X002090Y012056D01*
X002090Y012544D01*
X002402Y012857D01*
X002170Y013089D01*
X002170Y013282D01*
X002662Y013282D01*
X002662Y013318D01*
X002170Y013318D01*
X002170Y013511D01*
X002402Y013743D01*
X002090Y014056D01*
X002090Y014544D01*
X002346Y014800D01*
X002090Y015056D01*
X002090Y015544D01*
X002090Y015442D02*
X001770Y015442D01*
X001770Y015284D02*
X002090Y015284D01*
X002090Y015125D02*
X001770Y015125D01*
X001770Y014967D02*
X002179Y014967D01*
X002338Y014808D02*
X001770Y014808D01*
X001770Y014650D02*
X002195Y014650D01*
X002090Y014491D02*
X001770Y014491D01*
X001770Y014333D02*
X002090Y014333D01*
X002090Y014174D02*
X001770Y014174D01*
X001770Y014016D02*
X002130Y014016D01*
X002289Y013857D02*
X001770Y013857D01*
X001770Y013699D02*
X002357Y013699D01*
X002199Y013540D02*
X001770Y013540D01*
X001770Y013382D02*
X002170Y013382D01*
X002170Y013223D02*
X001770Y013223D01*
X001770Y013065D02*
X002194Y013065D01*
X002353Y012906D02*
X001770Y012906D01*
X001770Y012748D02*
X002293Y012748D01*
X002135Y012589D02*
X001770Y012589D01*
X001770Y012431D02*
X002090Y012431D01*
X002090Y012272D02*
X001770Y012272D01*
X001770Y012114D02*
X002090Y012114D01*
X002191Y011955D02*
X001906Y011955D01*
X002064Y011797D02*
X002349Y011797D01*
X002223Y011638D02*
X003511Y011638D01*
X003376Y011797D02*
X003011Y011797D01*
X003169Y011955D02*
X003340Y011955D01*
X003340Y012114D02*
X003270Y012114D01*
X003270Y012272D02*
X003340Y012272D01*
X003340Y012431D02*
X003270Y012431D01*
X003225Y012589D02*
X003340Y012589D01*
X003340Y012748D02*
X003067Y012748D01*
X003007Y012906D02*
X003340Y012906D01*
X003340Y013065D02*
X003166Y013065D01*
X003190Y013223D02*
X003340Y013223D01*
X003340Y013382D02*
X003190Y013382D01*
X003161Y013540D02*
X003340Y013540D01*
X003201Y013699D02*
X003003Y013699D01*
X002680Y013300D02*
X002030Y013300D01*
X001930Y013200D01*
X001090Y013223D02*
X000660Y013223D01*
X000660Y013065D02*
X001090Y013065D01*
X001090Y012906D02*
X000660Y012906D01*
X000660Y012748D02*
X001090Y012748D01*
X001090Y012589D02*
X000660Y012589D01*
X000660Y012431D02*
X001090Y012431D01*
X001090Y012272D02*
X000660Y012272D01*
X000660Y012114D02*
X001090Y012114D01*
X001090Y011955D02*
X000660Y011955D01*
X000660Y011797D02*
X001126Y011797D01*
X001261Y011638D02*
X000660Y011638D01*
X000660Y011480D02*
X001420Y011480D01*
X001578Y011321D02*
X000660Y011321D01*
X000660Y011163D02*
X001737Y011163D01*
X001895Y011004D02*
X000660Y011004D01*
X000660Y010846D02*
X002054Y010846D01*
X002212Y010687D02*
X000660Y010687D01*
X000660Y010529D02*
X002371Y010529D01*
X002529Y010370D02*
X000660Y010370D01*
X000660Y010212D02*
X002688Y010212D01*
X002846Y010053D02*
X000660Y010053D01*
X000660Y009895D02*
X002194Y009895D01*
X001960Y009736D02*
X000660Y009736D01*
X000660Y009578D02*
X001805Y009578D01*
X001714Y009419D02*
X000660Y009419D01*
X000660Y009261D02*
X001644Y009261D01*
X001602Y009102D02*
X000660Y009102D01*
X000660Y008944D02*
X001588Y008944D01*
X001588Y008785D02*
X000660Y008785D01*
X000660Y008627D02*
X001623Y008627D01*
X001668Y008468D02*
X000660Y008468D01*
X000660Y008310D02*
X001760Y008310D01*
X001881Y008151D02*
X000660Y008151D01*
X000660Y007993D02*
X002057Y007993D01*
X002403Y007834D02*
X000660Y007834D01*
X000660Y007680D02*
X000660Y039466D01*
X024070Y039466D01*
X024070Y007680D01*
X022544Y007680D01*
X022586Y007722D01*
X022732Y007976D01*
X022808Y008258D01*
X022808Y008550D01*
X022732Y008832D01*
X022586Y009085D01*
X022379Y009292D01*
X022126Y009438D01*
X021844Y009514D01*
X021552Y009514D01*
X021270Y009438D01*
X021016Y009292D01*
X020810Y009085D01*
X020664Y008832D01*
X020588Y008550D01*
X020588Y008258D01*
X020664Y007976D01*
X020810Y007722D01*
X020852Y007680D01*
X000660Y007680D01*
X002993Y007834D02*
X008944Y007834D01*
X008937Y007841D02*
X009025Y007754D01*
X009138Y007706D01*
X009379Y007706D01*
X009493Y007754D01*
X009580Y007841D01*
X009696Y007958D01*
X009699Y007964D01*
X009758Y007940D01*
X010115Y007940D01*
X010133Y007947D01*
X010177Y007841D01*
X010264Y007754D01*
X010378Y007706D01*
X010502Y007706D01*
X010615Y007754D01*
X010703Y007841D01*
X010744Y007940D01*
X010852Y007940D01*
X010900Y007960D01*
X010966Y007987D01*
X010967Y007989D01*
X011042Y008063D01*
X011118Y007987D01*
X011232Y007940D01*
X011588Y007940D01*
X011702Y007987D01*
X011720Y008005D01*
X011738Y007987D01*
X011851Y007940D01*
X011975Y007940D01*
X012089Y007987D01*
X012147Y008045D01*
X012205Y007987D01*
X012319Y007940D01*
X012442Y007940D01*
X012515Y007970D01*
X012588Y007940D01*
X012711Y007940D01*
X012825Y007987D01*
X012913Y008074D01*
X012954Y008174D01*
X013062Y008174D01*
X013121Y008198D01*
X013124Y008191D01*
X013240Y008074D01*
X013328Y007987D01*
X013442Y007940D01*
X013798Y007940D01*
X013844Y007959D01*
X013912Y007987D01*
X013930Y008005D01*
X013947Y007987D01*
X014061Y007940D01*
X014185Y007940D01*
X014299Y007987D01*
X014357Y008045D01*
X014414Y007987D01*
X014528Y007940D01*
X014652Y007940D01*
X014766Y007987D01*
X014853Y008074D01*
X014900Y008188D01*
X014900Y008312D01*
X014853Y008425D01*
X014900Y008539D01*
X014900Y008895D01*
X014853Y009009D01*
X014766Y009097D01*
X014649Y009213D01*
X014535Y009261D01*
X014061Y009261D01*
X013799Y009261D01*
X013798Y009261D02*
X013442Y009261D01*
X013328Y009213D01*
X013252Y009137D01*
X013176Y009213D01*
X013062Y009261D01*
X012588Y009261D01*
X012474Y009213D01*
X012387Y009126D01*
X012343Y009020D01*
X012325Y009027D01*
X011851Y009027D01*
X011738Y008980D01*
X011720Y008962D01*
X011702Y008980D01*
X011588Y009027D01*
X011232Y009027D01*
X011118Y008980D01*
X011042Y008904D01*
X010966Y008980D01*
X010852Y009027D01*
X010415Y009027D01*
X010229Y009213D01*
X010115Y009261D01*
X009758Y009261D01*
X008759Y009261D01*
X008635Y009261D01*
X008292Y009261D01*
X008168Y009261D01*
X006970Y009261D01*
X007020Y009419D02*
X021236Y009419D01*
X020985Y009261D02*
X014535Y009261D01*
X014760Y009102D02*
X020826Y009102D01*
X020728Y008944D02*
X014880Y008944D01*
X014900Y008785D02*
X020651Y008785D01*
X020609Y008627D02*
X014900Y008627D01*
X014871Y008468D02*
X020588Y008468D01*
X020588Y008310D02*
X014900Y008310D01*
X014885Y008151D02*
X020617Y008151D01*
X020659Y007993D02*
X014771Y007993D01*
X014409Y007993D02*
X014304Y007993D01*
X013942Y007993D02*
X013918Y007993D01*
X013322Y007993D02*
X012831Y007993D01*
X012944Y008151D02*
X013164Y008151D01*
X012199Y007993D02*
X012094Y007993D01*
X011732Y007993D02*
X011708Y007993D01*
X011112Y007993D02*
X010971Y007993D01*
X010966Y007987D02*
X010966Y007987D01*
X010696Y007834D02*
X020745Y007834D01*
X022160Y009419D02*
X024070Y009419D01*
X024070Y009261D02*
X022411Y009261D01*
X022570Y009102D02*
X024070Y009102D01*
X024070Y008944D02*
X022668Y008944D01*
X022745Y008785D02*
X024070Y008785D01*
X024070Y008627D02*
X022787Y008627D01*
X022808Y008468D02*
X024070Y008468D01*
X024070Y008310D02*
X022808Y008310D01*
X022779Y008151D02*
X024070Y008151D01*
X024070Y007993D02*
X022737Y007993D01*
X022651Y007834D02*
X024070Y007834D01*
X024070Y009578D02*
X007020Y009578D01*
X007020Y009736D02*
X024070Y009736D01*
X024070Y009895D02*
X021581Y009895D01*
X021764Y010053D02*
X024070Y010053D01*
X024070Y010212D02*
X021922Y010212D01*
X022081Y010370D02*
X024070Y010370D01*
X024070Y010529D02*
X022239Y010529D01*
X022398Y010687D02*
X024070Y010687D01*
X024070Y010846D02*
X022556Y010846D01*
X022715Y011004D02*
X024070Y011004D01*
X024070Y011163D02*
X022873Y011163D01*
X023032Y011321D02*
X024070Y011321D01*
X024070Y011480D02*
X023190Y011480D01*
X023123Y011412D02*
X023123Y011412D01*
X023270Y011638D02*
X024070Y011638D01*
X024070Y011797D02*
X023270Y011797D01*
X023270Y011955D02*
X024070Y011955D01*
X024070Y012114D02*
X023270Y012114D01*
X023270Y012272D02*
X024070Y012272D01*
X024070Y012431D02*
X023270Y012431D01*
X023270Y012589D02*
X024070Y012589D01*
X024070Y012748D02*
X023270Y012748D01*
X023270Y012906D02*
X024070Y012906D01*
X024070Y013065D02*
X023270Y013065D01*
X023270Y013223D02*
X024070Y013223D01*
X024070Y013382D02*
X023270Y013382D01*
X023270Y013540D02*
X024070Y013540D01*
X024070Y013699D02*
X023270Y013699D01*
X023270Y013857D02*
X024070Y013857D01*
X024070Y014016D02*
X023270Y014016D01*
X023270Y014174D02*
X024070Y014174D01*
X024070Y014333D02*
X023270Y014333D01*
X023270Y014491D02*
X024070Y014491D01*
X024070Y014650D02*
X023270Y014650D01*
X023270Y014808D02*
X024070Y014808D01*
X024070Y014967D02*
X023270Y014967D01*
X023270Y015125D02*
X024070Y015125D01*
X024070Y015284D02*
X023270Y015284D01*
X023270Y015442D02*
X024070Y015442D01*
X024070Y015601D02*
X023270Y015601D01*
X023270Y015759D02*
X024070Y015759D01*
X024070Y015918D02*
X023270Y015918D01*
X023270Y016076D02*
X024070Y016076D01*
X024070Y016235D02*
X023270Y016235D01*
X023270Y016393D02*
X024070Y016393D01*
X024070Y016552D02*
X023270Y016552D01*
X023270Y016710D02*
X024070Y016710D01*
X024070Y016869D02*
X023270Y016869D01*
X023270Y017027D02*
X024070Y017027D01*
X024070Y017186D02*
X023270Y017186D01*
X023270Y017344D02*
X024070Y017344D01*
X024070Y017503D02*
X023270Y017503D01*
X023270Y017661D02*
X024070Y017661D01*
X024070Y017820D02*
X023270Y017820D01*
X023245Y017978D02*
X024070Y017978D01*
X024070Y018137D02*
X023124Y018137D01*
X022930Y017850D02*
X022930Y011700D01*
X021430Y010200D01*
X015930Y010200D01*
X013680Y012450D01*
X013606Y012524D01*
X007130Y012524D01*
X007130Y010476D01*
X007180Y010476D01*
X007520Y010529D02*
X015121Y010529D01*
X014962Y010687D02*
X007508Y010687D01*
X007508Y010846D02*
X014804Y010846D01*
X014645Y011004D02*
X007490Y011004D01*
X007470Y011163D02*
X014487Y011163D01*
X014328Y011321D02*
X007470Y011321D01*
X007470Y011480D02*
X014170Y011480D01*
X014011Y011638D02*
X007470Y011638D01*
X007470Y011797D02*
X013853Y011797D01*
X013694Y011955D02*
X007473Y011955D01*
X007508Y012114D02*
X013536Y012114D01*
X013680Y012450D02*
X013680Y014700D01*
X013680Y017800D01*
X013680Y018950D01*
X009180Y018950D01*
X009180Y024450D01*
X008680Y024450D01*
X007450Y023526D02*
X007410Y023526D01*
X007410Y023367D02*
X007450Y023367D01*
X006672Y023843D02*
X006520Y023843D01*
X006520Y024001D02*
X006755Y024001D01*
X006180Y024700D02*
X006180Y021450D01*
X004430Y019700D01*
X004430Y016950D01*
X004930Y016450D01*
X007430Y016450D01*
X007430Y014700D01*
X006180Y014700D01*
X006618Y015244D02*
X006660Y015258D01*
X006727Y015292D01*
X006787Y015336D01*
X006841Y015389D01*
X006885Y015450D01*
X006919Y015517D01*
X006942Y015588D01*
X006954Y015662D01*
X006954Y015682D01*
X006198Y015682D01*
X006198Y015718D01*
X006954Y015718D01*
X006954Y015738D01*
X006942Y015812D01*
X006919Y015883D01*
X006885Y015950D01*
X006841Y016011D01*
X006787Y016064D01*
X006727Y016108D01*
X006723Y016110D01*
X007090Y016110D01*
X007090Y015040D01*
X006924Y015040D01*
X006792Y015172D01*
X006618Y015244D01*
X006710Y015284D02*
X007090Y015284D01*
X007090Y015442D02*
X006879Y015442D01*
X006944Y015601D02*
X007090Y015601D01*
X007090Y015759D02*
X006950Y015759D01*
X006901Y015918D02*
X007090Y015918D01*
X007090Y016076D02*
X006771Y016076D01*
X006180Y015700D02*
X004926Y015798D01*
X003680Y016950D01*
X003680Y017798D01*
X001680Y017798D01*
X001772Y017503D02*
X000660Y017503D01*
X000660Y017661D02*
X002207Y017661D01*
X002326Y017820D02*
X000660Y017820D01*
X000660Y017978D02*
X002168Y017978D01*
X001763Y018137D02*
X000660Y018137D01*
X000660Y018295D02*
X001604Y018295D01*
X001446Y018454D02*
X000660Y018454D01*
X000660Y018612D02*
X001287Y018612D01*
X001129Y018771D02*
X000660Y018771D01*
X000660Y018929D02*
X000970Y018929D01*
X000859Y019088D02*
X000660Y019088D01*
X000660Y019246D02*
X000840Y019246D01*
X000840Y019405D02*
X000660Y019405D01*
X000660Y019563D02*
X000840Y019563D01*
X000840Y019722D02*
X000660Y019722D01*
X000660Y019880D02*
X000840Y019880D01*
X000840Y020039D02*
X000660Y020039D01*
X000660Y020197D02*
X000840Y020197D01*
X000840Y020356D02*
X000660Y020356D01*
X000660Y020514D02*
X000840Y020514D01*
X000840Y020673D02*
X000660Y020673D01*
X000660Y020831D02*
X000840Y020831D01*
X000840Y020990D02*
X000660Y020990D01*
X000660Y021148D02*
X000840Y021148D01*
X000840Y021307D02*
X000660Y021307D01*
X000660Y021465D02*
X000840Y021465D01*
X000840Y021624D02*
X000660Y021624D01*
X000660Y021782D02*
X000840Y021782D01*
X000840Y021941D02*
X000660Y021941D01*
X000660Y022099D02*
X000840Y022099D01*
X000840Y022258D02*
X000660Y022258D01*
X000660Y022416D02*
X000840Y022416D01*
X000840Y022575D02*
X000660Y022575D01*
X000660Y022733D02*
X000840Y022733D01*
X000840Y022892D02*
X000660Y022892D01*
X000660Y023050D02*
X000840Y023050D01*
X000840Y023209D02*
X000660Y023209D01*
X000660Y023367D02*
X000840Y023367D01*
X000840Y023526D02*
X000660Y023526D01*
X000660Y023684D02*
X000840Y023684D01*
X000840Y023843D02*
X000660Y023843D01*
X000660Y024001D02*
X000840Y024001D01*
X000840Y024160D02*
X000660Y024160D01*
X000660Y024318D02*
X000840Y024318D01*
X000840Y024477D02*
X000660Y024477D01*
X000660Y024635D02*
X000840Y024635D01*
X000840Y024794D02*
X000660Y024794D01*
X000660Y024952D02*
X000840Y024952D01*
X000840Y025111D02*
X000660Y025111D01*
X000660Y025269D02*
X000840Y025269D01*
X000840Y025428D02*
X000660Y025428D01*
X000660Y025586D02*
X000840Y025586D01*
X000840Y025745D02*
X000660Y025745D01*
X000660Y025903D02*
X000840Y025903D01*
X000840Y026062D02*
X000660Y026062D01*
X000660Y026220D02*
X000840Y026220D01*
X000840Y026379D02*
X000660Y026379D01*
X000660Y026537D02*
X000840Y026537D01*
X000840Y026696D02*
X000660Y026696D01*
X000660Y026854D02*
X000840Y026854D01*
X000840Y027013D02*
X000660Y027013D01*
X000660Y027171D02*
X000840Y027171D01*
X000840Y027330D02*
X000660Y027330D01*
X000660Y027488D02*
X000840Y027488D01*
X000840Y027647D02*
X000660Y027647D01*
X000660Y027805D02*
X000840Y027805D01*
X000840Y027964D02*
X000660Y027964D01*
X000660Y028122D02*
X000840Y028122D01*
X000840Y028281D02*
X000660Y028281D01*
X000660Y028439D02*
X000840Y028439D01*
X000840Y028598D02*
X000660Y028598D01*
X000660Y028756D02*
X000840Y028756D01*
X000840Y028915D02*
X000660Y028915D01*
X000660Y029073D02*
X000840Y029073D01*
X000840Y029232D02*
X000660Y029232D01*
X000660Y029390D02*
X000891Y029390D01*
X001048Y029549D02*
X000660Y029549D01*
X000660Y029707D02*
X001206Y029707D01*
X001365Y029866D02*
X000660Y029866D01*
X000660Y030024D02*
X001523Y030024D01*
X001682Y030183D02*
X000660Y030183D01*
X000660Y030341D02*
X001840Y030341D01*
X001999Y030500D02*
X000660Y030500D01*
X000660Y030658D02*
X002090Y030658D01*
X002090Y030817D02*
X000660Y030817D01*
X000660Y030975D02*
X002090Y030975D01*
X002090Y031134D02*
X000660Y031134D01*
X000660Y031292D02*
X002090Y031292D01*
X002090Y031451D02*
X000660Y031451D01*
X000660Y031609D02*
X002090Y031609D01*
X002090Y031768D02*
X000660Y031768D01*
X000660Y031926D02*
X002090Y031926D01*
X002090Y032085D02*
X000660Y032085D01*
X000660Y032243D02*
X002090Y032243D01*
X002090Y032402D02*
X000660Y032402D01*
X000660Y032560D02*
X002090Y032560D01*
X002090Y032719D02*
X000660Y032719D01*
X000660Y032877D02*
X002090Y032877D01*
X002090Y033036D02*
X000660Y033036D01*
X000660Y033194D02*
X002090Y033194D01*
X002090Y033353D02*
X000660Y033353D01*
X000660Y033511D02*
X002090Y033511D01*
X001893Y033670D02*
X000660Y033670D01*
X000660Y033828D02*
X001820Y033828D01*
X001820Y033987D02*
X000660Y033987D01*
X000660Y034145D02*
X001820Y034145D01*
X001820Y034304D02*
X000660Y034304D01*
X000660Y034462D02*
X001820Y034462D01*
X001828Y034621D02*
X000660Y034621D01*
X000660Y034779D02*
X001954Y034779D01*
X002430Y034200D02*
X002430Y030450D01*
X001180Y029200D01*
X001180Y019200D01*
X001980Y018400D01*
X002680Y018400D01*
X002680Y018300D01*
X003270Y019088D02*
X004090Y019088D01*
X004090Y019246D02*
X003270Y019246D01*
X003365Y019405D02*
X004090Y019405D01*
X004090Y019563D02*
X003524Y019563D01*
X003682Y019722D02*
X004090Y019722D01*
X004137Y019880D02*
X003841Y019880D01*
X003999Y020039D02*
X004288Y020039D01*
X004774Y019563D02*
X008840Y019563D01*
X008840Y019405D02*
X004770Y019405D01*
X004770Y019246D02*
X008840Y019246D01*
X008840Y019088D02*
X006755Y019088D01*
X006727Y019108D02*
X006660Y019142D01*
X006589Y019165D01*
X006514Y019177D01*
X006198Y019177D01*
X006198Y018718D01*
X006954Y018718D01*
X006954Y018738D01*
X006942Y018812D01*
X006919Y018883D01*
X006885Y018950D01*
X006841Y019011D01*
X006787Y019064D01*
X006727Y019108D01*
X006895Y018929D02*
X008840Y018929D01*
X008886Y018771D02*
X006948Y018771D01*
X006946Y018612D02*
X009107Y018612D01*
X009440Y018295D02*
X006731Y018295D01*
X006886Y018454D02*
X013340Y018454D01*
X013340Y018295D02*
X009920Y018295D01*
X010079Y018137D02*
X013281Y018137D01*
X013160Y017978D02*
X010200Y017978D01*
X010200Y017820D02*
X013160Y017820D01*
X013160Y017661D02*
X010200Y017661D01*
X010118Y017503D02*
X013242Y017503D01*
X013340Y017344D02*
X010070Y017344D01*
X010070Y017186D02*
X013340Y017186D01*
X013340Y017027D02*
X010070Y017027D01*
X010070Y016869D02*
X013340Y016869D01*
X013340Y016710D02*
X010070Y016710D01*
X010070Y016552D02*
X013340Y016552D01*
X013340Y016393D02*
X010070Y016393D01*
X010070Y016235D02*
X013340Y016235D01*
X013340Y016076D02*
X010070Y016076D01*
X010070Y015918D02*
X013340Y015918D01*
X013340Y015759D02*
X010070Y015759D01*
X010070Y015601D02*
X013340Y015601D01*
X013340Y015442D02*
X010070Y015442D01*
X010070Y015284D02*
X013340Y015284D01*
X013340Y015125D02*
X012490Y015125D01*
X012180Y014700D02*
X013680Y014700D01*
X013340Y014333D02*
X012548Y014333D01*
X011812Y014333D02*
X010070Y014333D01*
X010070Y014491D02*
X011660Y014491D01*
X011660Y014650D02*
X010070Y014650D01*
X010070Y014808D02*
X011660Y014808D01*
X011711Y014967D02*
X010070Y014967D01*
X010070Y015125D02*
X011870Y015125D01*
X013340Y014174D02*
X010070Y014174D01*
X010070Y014016D02*
X013340Y014016D01*
X013340Y013857D02*
X010070Y013857D01*
X010070Y013699D02*
X013340Y013699D01*
X013340Y013540D02*
X010032Y013540D01*
X009850Y013382D02*
X013340Y013382D01*
X013340Y013223D02*
X006920Y013223D01*
X006580Y013700D02*
X006580Y012524D01*
X006630Y012524D01*
X006130Y012748D02*
X006130Y012748D01*
X006130Y012906D02*
X006130Y012906D01*
X006130Y013065D02*
X006130Y013065D01*
X005630Y013065D02*
X005630Y013065D01*
X005630Y012906D02*
X005630Y012906D01*
X005630Y012748D02*
X005630Y012748D01*
X005630Y012589D02*
X005630Y012589D01*
X005630Y012524D02*
X005630Y012524D01*
X005630Y011911D01*
X005630Y012114D02*
X005630Y012114D01*
X005630Y012272D02*
X005630Y012272D01*
X005630Y012431D02*
X005630Y012431D01*
X006580Y013700D02*
X009730Y013700D01*
X009730Y017800D01*
X009680Y017800D01*
X006180Y017800D01*
X006180Y017700D01*
X006690Y017186D02*
X009390Y017186D01*
X009390Y017344D02*
X006908Y017344D01*
X007651Y016710D02*
X009390Y016710D01*
X009390Y016552D02*
X007756Y016552D01*
X007770Y016393D02*
X009390Y016393D01*
X009390Y016235D02*
X007770Y016235D01*
X007770Y016076D02*
X009390Y016076D01*
X009390Y015918D02*
X007770Y015918D01*
X007770Y015759D02*
X009390Y015759D01*
X009390Y015601D02*
X007770Y015601D01*
X007770Y015442D02*
X009390Y015442D01*
X009390Y015284D02*
X007770Y015284D01*
X007770Y015125D02*
X007870Y015125D01*
X008180Y014700D02*
X007430Y014700D01*
X007812Y014333D02*
X006897Y014333D01*
X006662Y014174D02*
X009390Y014174D01*
X009390Y014333D02*
X008548Y014333D01*
X008700Y014491D02*
X009390Y014491D01*
X009390Y014650D02*
X008700Y014650D01*
X008700Y014808D02*
X009390Y014808D01*
X009390Y014967D02*
X008649Y014967D01*
X008490Y015125D02*
X009390Y015125D01*
X009390Y016869D02*
X004992Y016869D01*
X004834Y017027D02*
X009390Y017027D01*
X007090Y015125D02*
X006839Y015125D01*
X006453Y014016D02*
X004520Y014016D01*
X003680Y013700D02*
X003180Y014200D01*
X002780Y014200D01*
X002680Y014300D01*
X002680Y014200D01*
X003680Y013700D02*
X003680Y011950D01*
X005154Y010476D01*
X005630Y010476D01*
X006080Y010476D02*
X006080Y011300D01*
X006080Y010476D02*
X006130Y010476D01*
X006630Y010476D02*
X006680Y010476D01*
X006680Y009450D01*
X003930Y009450D01*
X001430Y011950D01*
X001430Y016700D01*
X001930Y017200D01*
X002680Y017200D01*
X002680Y017300D01*
X002256Y016710D02*
X001921Y016710D01*
X001770Y016552D02*
X002097Y016552D01*
X002090Y016393D02*
X001770Y016393D01*
X001770Y016235D02*
X002090Y016235D01*
X002090Y016076D02*
X001770Y016076D01*
X001770Y015918D02*
X002228Y015918D01*
X001926Y015798D02*
X004926Y015798D01*
X004770Y017186D02*
X005670Y017186D01*
X005452Y017344D02*
X004770Y017344D01*
X004770Y017503D02*
X005362Y017503D01*
X005326Y017661D02*
X004770Y017661D01*
X004770Y017820D02*
X005330Y017820D01*
X005396Y017978D02*
X004770Y017978D01*
X004770Y018137D02*
X005532Y018137D01*
X005629Y018295D02*
X004770Y018295D01*
X004770Y018454D02*
X005474Y018454D01*
X005414Y018612D02*
X004770Y018612D01*
X004770Y018771D02*
X005412Y018771D01*
X005406Y018738D02*
X005406Y018718D01*
X006162Y018718D01*
X006162Y019177D01*
X005846Y019177D01*
X005771Y019165D01*
X005700Y019142D01*
X005633Y019108D01*
X005573Y019064D01*
X005519Y019011D01*
X005475Y018950D01*
X005441Y018883D01*
X005418Y018812D01*
X005406Y018738D01*
X005465Y018929D02*
X004770Y018929D01*
X004770Y019088D02*
X005605Y019088D01*
X006162Y019088D02*
X006198Y019088D01*
X006198Y018929D02*
X006162Y018929D01*
X006162Y018771D02*
X006198Y018771D01*
X005091Y019880D02*
X008840Y019880D01*
X008840Y019722D02*
X004932Y019722D01*
X005249Y020039D02*
X008840Y020039D01*
X008840Y020197D02*
X005408Y020197D01*
X005566Y020356D02*
X008840Y020356D01*
X008840Y020514D02*
X005725Y020514D01*
X005883Y020673D02*
X008840Y020673D01*
X008840Y020831D02*
X006042Y020831D01*
X006200Y020990D02*
X008840Y020990D01*
X008840Y021148D02*
X006359Y021148D01*
X006489Y021307D02*
X008840Y021307D01*
X008840Y021465D02*
X006520Y021465D01*
X006520Y021624D02*
X008840Y021624D01*
X008840Y021782D02*
X006520Y021782D01*
X006520Y021941D02*
X008840Y021941D01*
X008840Y022099D02*
X006520Y022099D01*
X006520Y022258D02*
X008840Y022258D01*
X008840Y022416D02*
X006520Y022416D01*
X006520Y022575D02*
X008840Y022575D01*
X008840Y022733D02*
X006520Y022733D01*
X006520Y022892D02*
X008840Y022892D01*
X008840Y023050D02*
X006520Y023050D01*
X005180Y021950D02*
X005180Y028200D01*
X006180Y029200D01*
X006180Y033200D01*
X006680Y033700D01*
X007430Y033700D01*
X006980Y034244D02*
X006813Y034175D01*
X006678Y034040D01*
X006612Y034040D01*
X006487Y033988D01*
X006392Y033893D01*
X006392Y033893D01*
X006020Y033521D01*
X006020Y034559D01*
X006749Y035289D01*
X006813Y035225D01*
X006980Y035156D01*
X006946Y035145D01*
X006878Y035111D01*
X006817Y035066D01*
X006764Y035013D01*
X006719Y034952D01*
X006685Y034884D01*
X006662Y034812D01*
X006650Y034738D01*
X006650Y034720D01*
X007410Y034720D01*
X007410Y034680D01*
X006650Y034680D01*
X006650Y034662D01*
X006662Y034588D01*
X006685Y034516D01*
X006719Y034448D01*
X006764Y034387D01*
X006817Y034334D01*
X006878Y034289D01*
X006946Y034255D01*
X006980Y034244D01*
X006859Y034304D02*
X006020Y034304D01*
X006020Y034462D02*
X006713Y034462D01*
X006657Y034621D02*
X006081Y034621D01*
X006240Y034779D02*
X006657Y034779D01*
X006712Y034938D02*
X006398Y034938D01*
X006557Y035096D02*
X006858Y035096D01*
X006783Y035255D02*
X006715Y035255D01*
X006680Y035700D02*
X005680Y034700D01*
X005680Y029450D01*
X004680Y028450D01*
X004680Y022200D01*
X004430Y021950D01*
X002780Y021950D01*
X002680Y021850D01*
X002680Y022850D02*
X002280Y022850D01*
X001555Y023575D01*
X001555Y028825D01*
X002930Y030200D01*
X002930Y033200D01*
X004180Y034450D01*
X004180Y036700D01*
X004680Y037200D01*
X005680Y037200D01*
X006180Y036700D01*
X007430Y036700D01*
X006795Y037157D02*
X006204Y037157D01*
X006046Y037315D02*
X006723Y037315D01*
X006618Y037474D02*
X005887Y037474D01*
X006570Y037632D02*
X000660Y037632D01*
X000660Y037474D02*
X004473Y037474D01*
X004314Y037315D02*
X000660Y037315D01*
X000660Y037157D02*
X004156Y037157D01*
X003997Y036998D02*
X000660Y036998D01*
X000660Y036840D02*
X003870Y036840D01*
X003840Y036681D02*
X000660Y036681D01*
X000660Y036523D02*
X003840Y036523D01*
X003840Y036364D02*
X000660Y036364D01*
X000660Y036206D02*
X003840Y036206D01*
X003840Y036047D02*
X000660Y036047D01*
X000660Y035889D02*
X003840Y035889D01*
X003840Y035730D02*
X000660Y035730D01*
X000660Y035572D02*
X003840Y035572D01*
X003840Y035413D02*
X000660Y035413D01*
X000660Y035255D02*
X003840Y035255D01*
X003840Y035096D02*
X000660Y035096D01*
X000660Y034938D02*
X003840Y034938D01*
X003840Y034779D02*
X002906Y034779D01*
X003032Y034621D02*
X003840Y034621D01*
X003711Y034462D02*
X003040Y034462D01*
X003040Y034304D02*
X003553Y034304D01*
X003394Y034145D02*
X003040Y034145D01*
X003040Y033987D02*
X003236Y033987D01*
X003077Y033828D02*
X003040Y033828D01*
X003680Y032200D02*
X003680Y030200D01*
X001930Y028450D01*
X001930Y024450D01*
X002530Y023850D01*
X002680Y023850D01*
X002680Y024850D02*
X003930Y024850D01*
X003930Y022950D01*
X005180Y021950D02*
X004180Y020950D01*
X002680Y020950D01*
X002680Y020850D01*
X002680Y020700D01*
X001593Y017344D02*
X000660Y017344D01*
X000660Y017186D02*
X001435Y017186D01*
X001276Y017027D02*
X000660Y017027D01*
X000660Y016869D02*
X001132Y016869D01*
X001090Y016710D02*
X000660Y016710D01*
X000660Y016552D02*
X001090Y016552D01*
X001090Y016393D02*
X000660Y016393D01*
X000660Y016235D02*
X001090Y016235D01*
X001090Y016076D02*
X000660Y016076D01*
X000660Y015918D02*
X001090Y015918D01*
X001090Y015759D02*
X000660Y015759D01*
X000660Y015601D02*
X001090Y015601D01*
X001090Y015442D02*
X000660Y015442D01*
X000660Y015284D02*
X001090Y015284D01*
X001090Y015125D02*
X000660Y015125D01*
X000660Y014967D02*
X001090Y014967D01*
X001090Y014808D02*
X000660Y014808D01*
X000660Y014650D02*
X001090Y014650D01*
X001090Y014491D02*
X000660Y014491D01*
X000660Y014333D02*
X001090Y014333D01*
X001090Y014174D02*
X000660Y014174D01*
X000660Y014016D02*
X001090Y014016D01*
X001090Y013857D02*
X000660Y013857D01*
X000660Y013699D02*
X001090Y013699D01*
X001090Y013540D02*
X000660Y013540D01*
X000660Y013382D02*
X001090Y013382D01*
X002381Y011480D02*
X003670Y011480D01*
X003828Y011321D02*
X002540Y011321D01*
X002698Y011163D02*
X003987Y011163D01*
X004145Y011004D02*
X002857Y011004D01*
X003015Y010846D02*
X004304Y010846D01*
X004462Y010687D02*
X003174Y010687D01*
X003332Y010529D02*
X004621Y010529D01*
X004779Y010370D02*
X003491Y010370D01*
X003649Y010212D02*
X004938Y010212D01*
X005252Y010053D02*
X003808Y010053D01*
X003966Y009895D02*
X005293Y009895D01*
X003794Y009102D02*
X007957Y009102D01*
X007967Y009126D02*
X007920Y009012D01*
X007920Y008889D01*
X007920Y008188D01*
X007967Y008074D01*
X008054Y007987D01*
X008168Y007940D01*
X008292Y007940D01*
X008406Y007987D01*
X008464Y008045D01*
X008521Y007987D01*
X008635Y007940D01*
X008759Y007940D01*
X008873Y007987D01*
X008890Y008005D01*
X008890Y007955D01*
X008937Y007841D01*
X008890Y007993D02*
X008878Y007993D01*
X008516Y007993D02*
X008411Y007993D01*
X008049Y007993D02*
X003339Y007993D01*
X003515Y008151D02*
X007935Y008151D01*
X007920Y008310D02*
X003636Y008310D01*
X003728Y008468D02*
X007920Y008468D01*
X007920Y008627D02*
X003773Y008627D01*
X003808Y008785D02*
X007920Y008785D01*
X007920Y008944D02*
X003808Y008944D01*
X007467Y009895D02*
X015779Y009895D01*
X015596Y010053D02*
X007508Y010053D01*
X007508Y010212D02*
X015438Y010212D01*
X015279Y010370D02*
X007508Y010370D01*
X008054Y009213D02*
X007967Y009126D01*
X008054Y009213D02*
X008168Y009261D01*
X008292Y009261D02*
X008406Y009213D01*
X008464Y009155D01*
X008517Y009208D01*
X008521Y009213D01*
X008521Y009213D01*
X008633Y009260D01*
X008635Y009261D01*
X008759Y009261D02*
X008869Y009215D01*
X008873Y009213D01*
X008960Y009126D01*
X008960Y009126D01*
X009001Y009027D01*
X009028Y009027D01*
X009142Y008980D01*
X009200Y008922D01*
X009258Y008980D01*
X009372Y009027D01*
X009458Y009027D01*
X009644Y009213D01*
X009758Y009261D01*
X009533Y009102D02*
X008970Y009102D01*
X009179Y008944D02*
X009222Y008944D01*
X009573Y007834D02*
X010184Y007834D01*
X011002Y008944D02*
X011081Y008944D01*
X010341Y009102D02*
X012377Y009102D01*
X012588Y009261D02*
X010115Y009261D01*
X013062Y009261D02*
X013441Y009261D01*
X013798Y009261D02*
X013912Y009213D01*
X013930Y009196D01*
X013947Y009213D01*
X014061Y009261D01*
X015924Y010687D02*
X021436Y010687D01*
X022590Y012431D02*
X014180Y012431D01*
X014022Y012589D02*
X022590Y012589D01*
X021304Y015442D02*
X020390Y015442D01*
X020390Y015601D02*
X021145Y015601D01*
X021090Y015759D02*
X020390Y015759D01*
X020390Y015918D02*
X021090Y015918D01*
X021090Y016076D02*
X020390Y016076D01*
X020390Y016235D02*
X021180Y016235D01*
X021339Y016393D02*
X020390Y016393D01*
X020390Y016552D02*
X021194Y016552D01*
X021090Y016710D02*
X020390Y016710D01*
X020390Y016869D02*
X021090Y016869D01*
X021090Y017027D02*
X020390Y017027D01*
X020390Y017186D02*
X021131Y017186D01*
X021290Y017344D02*
X020390Y017344D01*
X021961Y018454D02*
X024070Y018454D01*
X024070Y018612D02*
X022113Y018612D01*
X022190Y018771D02*
X024070Y018771D01*
X024070Y018929D02*
X022190Y018929D01*
X022190Y019088D02*
X024070Y019088D01*
X024070Y019246D02*
X022055Y019246D01*
X022119Y018295D02*
X024070Y018295D01*
X021680Y020900D02*
X021680Y020950D01*
X016698Y017344D02*
X016662Y017344D01*
X016662Y017186D02*
X016698Y017186D01*
X016698Y017027D02*
X016662Y017027D01*
X013340Y013065D02*
X007485Y013065D01*
X007508Y012906D02*
X013340Y012906D01*
X013885Y021941D02*
X014720Y021941D01*
X014744Y022099D02*
X014024Y022099D01*
X014090Y022258D02*
X014837Y022258D01*
X019430Y026700D02*
X019728Y026402D01*
X022435Y026402D01*
X016130Y031450D02*
X016130Y031499D01*
X013530Y034250D02*
X013330Y034250D01*
X013302Y034200D01*
X011140Y031160D02*
X011180Y030950D01*
X006783Y034145D02*
X006020Y034145D01*
X006020Y033987D02*
X006486Y033987D01*
X006327Y033828D02*
X006020Y033828D01*
X006020Y033670D02*
X006169Y033670D01*
X007430Y035450D02*
X007430Y035700D01*
X007680Y035700D01*
X007680Y035450D01*
X007430Y035450D01*
X007430Y035700D02*
X006680Y035700D01*
X005180Y036200D02*
X005180Y029700D01*
X004180Y028700D01*
X004180Y026200D01*
X003830Y025850D01*
X002680Y025850D01*
X000660Y037791D02*
X006570Y037791D01*
X006627Y037949D02*
X000660Y037949D01*
X000660Y038108D02*
X006746Y038108D01*
X006924Y038266D02*
X000660Y038266D01*
X000660Y038425D02*
X006737Y038425D01*
X006663Y038583D02*
X000660Y038583D01*
X000660Y038742D02*
X006651Y038742D01*
X006693Y038900D02*
X000660Y038900D01*
X000660Y039059D02*
X006810Y039059D01*
X007410Y039059D02*
X007450Y039059D01*
X007450Y039180D02*
X007450Y038720D01*
X008210Y038720D01*
X008210Y038738D01*
X008198Y038812D01*
X008175Y038884D01*
X008141Y038952D01*
X008096Y039013D01*
X008043Y039066D01*
X007982Y039111D01*
X007914Y039145D01*
X007842Y039168D01*
X007768Y039180D01*
X007450Y039180D01*
X007450Y038900D02*
X007410Y038900D01*
X007410Y038742D02*
X007450Y038742D01*
X007936Y038266D02*
X008265Y038266D01*
X008123Y038425D02*
X008424Y038425D01*
X008582Y038583D02*
X008197Y038583D01*
X008209Y038742D02*
X008660Y038742D01*
X008660Y038900D02*
X008167Y038900D01*
X008050Y039059D02*
X008803Y039059D01*
X008962Y039217D02*
X000660Y039217D01*
X000660Y039376D02*
X024070Y039376D01*
X024070Y037949D02*
X019689Y037949D01*
X019881Y037791D02*
X024070Y037791D01*
X024070Y037632D02*
X021199Y037632D01*
X021428Y037474D02*
X024070Y037474D01*
X024070Y037315D02*
X021514Y037315D01*
X021540Y037157D02*
X024070Y037157D01*
X024070Y036998D02*
X021540Y036998D01*
X021540Y036840D02*
X024070Y036840D01*
X024070Y036681D02*
X021540Y036681D01*
X021540Y036523D02*
X024070Y036523D01*
X024070Y036364D02*
X021540Y036364D01*
X021540Y036206D02*
X024070Y036206D01*
X024070Y036047D02*
X021540Y036047D01*
X021540Y035889D02*
X024070Y035889D01*
X019480Y037400D02*
X019430Y037450D01*
X009180Y038700D02*
X008180Y037700D01*
X007430Y037700D01*
D27*
X011575Y037200D02*
X011930Y037200D01*
X011930Y036950D02*
X016180Y036950D01*
X012990Y036209D02*
X011939Y036209D01*
X011930Y032200D02*
X013180Y032200D01*
X013180Y028700D01*
X018180Y028700D01*
X018180Y030200D01*
X023180Y030200D01*
X023180Y020950D01*
X021680Y020950D01*
X015930Y029950D02*
X014180Y029950D01*
X015930Y029950D02*
X015930Y031200D01*
X015930Y031499D01*
X019180Y031450D02*
X020930Y031450D01*
X021030Y031450D02*
X021030Y033250D01*
X021030Y035250D02*
X021030Y037150D01*
X019480Y037150D01*
X019480Y037400D01*
X012180Y029950D02*
X011140Y029950D01*
X011140Y031160D01*
D28*
X017180Y023950D02*
X019930Y023950D01*
X019930Y020950D01*
X019930Y018450D01*
X019930Y013450D01*
X019930Y020950D02*
X021680Y020950D01*
X017180Y021850D02*
X017180Y021950D01*
X015180Y021950D01*
X015180Y021400D01*
X013180Y021400D01*
D29*
X016680Y018450D02*
X019930Y018450D01*
X017930Y037006D02*
X016430Y037006D01*
D30*
X009930Y036200D03*
X009930Y034200D03*
X009930Y032450D03*
X009180Y028700D03*
X009180Y024450D03*
X010930Y022950D03*
X003930Y022950D03*
X003680Y032200D03*
X002430Y034200D03*
X005180Y036200D03*
D31*
X011140Y031444D02*
X011140Y031160D01*
D32*
X012180Y029950D03*
X014180Y029950D03*
M02*
