%
M48
M72
T01C0.0320
T02C0.0394
T03C0.0400
T04C0.0440
T05C0.0470
T06C0.0500
T07C0.1260
%
T01
X8180Y14700
X9680Y17800
X12180Y14700
X13680Y17800
X13180Y38700
X9180Y38700
T02
X2680Y27850
X2680Y26850
X2680Y25850
X2680Y24850
X2680Y23850
X2680Y22850
X2680Y21850
X2680Y20850
X2680Y19300
X2680Y18300
X2680Y17300
X2680Y16300
X2680Y15300
X2680Y14300
X2680Y13300
X2680Y12300
X6180Y14700
X6180Y15700
X6180Y17700
X6180Y18700
X16680Y18450
X16680Y19450
X16680Y17450
X21680Y17900
X21680Y16900
X21680Y15900
X21680Y18900
X21680Y19900
X21680Y20900
X21680Y22900
X21680Y23900
X21680Y24900
X21680Y25900
X21680Y26900
X21680Y27900
T03
X3930Y22950
X7430Y23700
X7430Y24700
X7430Y25700
X7430Y26700
X7430Y27700
X7430Y28700
X7430Y29700
X7430Y30700
X7430Y31700
X7430Y32700
X7430Y33700
X7430Y34700
X7430Y35700
X7430Y36700
X7430Y37700
X7430Y38700
X5180Y36200
X2430Y34200
X3680Y32200
X9180Y28700
X9930Y32450
X9930Y34200
X9930Y36200
X10930Y22950
X9180Y24450
X19930Y13450
X19930Y11450
T04
X13180Y20400
X13180Y21400
X13180Y22400
T05
X17180Y21850
X17180Y23850
X20930Y33200
X20930Y35200
T06
X14180Y29950
X12180Y29950
T07
X19698Y28904
X2698Y8904
X21698Y8404
M30
