  0
SECTION
  2
HEADER
  9
$ACADVER
  1
AC1014
  9
$HANDSEED
  5
FFFF
  9
$MEASUREMENT
 70
     1
  0
ENDSEC
  0
SECTION
  2
TABLES
  0
TABLE
  2
VPORT
  5
8
330
0
100
AcDbSymbolTable
 70
     4
  0
VPORT
  5
2E
330
8
100
AcDbSymbolTableRecord
100
AcDbViewportTableRecord
  2
*ACTIVE
 70
     0
 10
0.0
 20
0.0
 11
1.0
 21
1.0
 12
210.0
 22
148.5
 13
0.0
 23
0.0
 14
10.0
 24
10.0
 15
10.0
 25
10.0
 16
0.0
 26
0.0
 36
1.0
 17
0.0
 27
0.0
 37
0.0
 40
341.0
 41
1.24
 42
50.0
 43
0.0
 44
0.0
 50
0.0
 51
0.0
 71
     0
 72
   100
 73
     1
 74
     3
 75
     0
 76
     0
 77
     0
 78
     0
  0
ENDTAB
  0
TABLE
  2
LTYPE
  5
5
330
0
100
AcDbSymbolTable
 70
     1
  0
LTYPE
  5
14
330
5
100
AcDbSymbolTableRecord
100
AcDbLinetypeTableRecord
  2
BYBLOCK
 70
     0
  3

 72
    65
 73
     0
 40
0.0
  0
LTYPE
  5
15
330
5
100
AcDbSymbolTableRecord
100
AcDbLinetypeTableRecord
  2
BYLAYER
 70
     0
  3

 72
    65
 73
     0
 40
0.0
  0
LTYPE
  5
16
330
5
100
AcDbSymbolTableRecord
100
AcDbLinetypeTableRecord
  2
CONTINUOUS
 70
     0
  3
Solid line
 72
    65
 73
     0
 40
0.0
  0
ENDTAB
  0
TABLE
  2
LAYER
  5
2
100
AcDbSymbolTable
 70
2
  0
LAYER
  5
50
100
AcDbSymbolTableRecord
100
AcDbLayerTableRecord
  2
0
 70
0
  6
CONTINUOUS
  0
LAYER
  5
51
100
AcDbSymbolTableRecord
100
AcDbLayerTableRecord
  2
Layer_1
 70
0
  6
CONTINUOUS
  0
ENDTAB
  0
TABLE
  2
STYLE
  5
3
330
0
100
AcDbSymbolTable
 70
     1
  0
STYLE
  5
11
330
3
100
AcDbSymbolTableRecord
100
AcDbTextStyleTableRecord
  2
STANDARD
 70
     0
 40
0.0
 41
1.0
 50
0.0
 71
     0
 42
2.5
  3
txt
  4

  0
ENDTAB
  0
TABLE
  2
VIEW
  5
6
330
0
100
AcDbSymbolTable
 70
     0
  0
ENDTAB
  0
TABLE
  2
UCS
  5
7
330
0
100
AcDbSymbolTable
 70
     0
  0
ENDTAB
  0
TABLE
  2
APPID
  5
9
330
0
100
AcDbSymbolTable
 70
     2
  0
APPID
  5
12
330
9
100
AcDbSymbolTableRecord
100
AcDbRegAppTableRecord
  2
ACAD
 70
     0
  0
ENDTAB
  0
TABLE
  2
DIMSTYLE
  5
A
330
0
100
AcDbSymbolTable
 70
     1
  0
DIMSTYLE
105
27
330
A
100
AcDbSymbolTableRecord
100
AcDbDimStyleTableRecord
  2
ISO-25
 70
     0
  3

  4

  5

  6

  7

 40
1.0
 41
2.5
 42
0.625
 43
3.75
 44
1.25
 45
0.0
 46
0.0
 47
0.0
 48
0.0
140
2.5
141
2.5
142
0.0
143
0.03937007874016
144
1.0
145
0.0
146
1.0
147
0.625
 71
     0
 72
     0
 73
     0
 74
     0
 75
     0
 76
     0
 77
     1
 78
     8
170
     0
171
     3
172
     1
173
     0
174
     0
175
     0
176
     0
177
     0
178
     0
270
     2
271
     2
272
     2
273
     2
274
     3
340
11
275
     0
280
     0
281
     0
282
     0
283
     0
284
     8
285
     0
286
     0
287
     3
288
     0
  0
ENDTAB
  0
TABLE
  2
BLOCK_RECORD
  5
1
330
0
100
AcDbSymbolTable
 70
     1
  0
BLOCK_RECORD
  5
1F
330
1
100
AcDbSymbolTableRecord
100
AcDbBlockTableRecord
  2
*MODEL_SPACE
  0
BLOCK_RECORD
  5
1B
330
1
100
AcDbSymbolTableRecord
100
AcDbBlockTableRecord
  2
*PAPER_SPACE
  0
ENDTAB
  0
ENDSEC
  0
SECTION
  2
BLOCKS
  0
BLOCK
  5
20
330
1F
100
AcDbEntity
  8
0
100
AcDbBlockBegin
  2
*MODEL_SPACE
 70
     0
 10
0.0
 20
0.0
 30
0.0
  3
*MODEL_SPACE
  1

  0
ENDBLK
  5
21
330
1F
100
AcDbEntity
  8
0
100
AcDbBlockEnd
  0
BLOCK
  5
1C
330
1B
100
AcDbEntity
 67
     1
  8
0
100
AcDbBlockBegin
  2
*PAPER_SPACE
  1

  0
ENDBLK
  5
1D
330
1B
100
AcDbEntity
 67
     1
  8
0
100
AcDbBlockEnd
  0
ENDSEC
  0
SECTION
  2
ENTITIES
  0
LWPOLYLINE
  5
100
100
AcDbEntity
  8
Layer_1
 62
7
100
AcDbPolyline
 90
6
 70
0
 10
108.190898
 20
226.012633
 30
0.0
 10
106.201231
 20
226.012633
 30
0.0
 10
106.201231
 20
225.504633
 30
0.0
 10
108.190898
 20
225.504633
 30
0.0
 10
108.190898
 20
226.012633
 30
0.0
 10
108.190898
 20
226.012633
 30
0.0
  0
LWPOLYLINE
  5
101
100
AcDbEntity
  8
Layer_1
 62
7
100
AcDbPolyline
 90
6
 70
0
 10
108.190898
 20
224.022966
 30
0.0
 10
106.201231
 20
224.022966
 30
0.0
 10
106.201231
 20
223.514966
 30
0.0
 10
108.190898
 20
223.514966
 30
0.0
 10
108.190898
 20
224.022966
 30
0.0
 10
108.190898
 20
224.022966
 30
0.0
  0
LWPOLYLINE
  5
102
100
AcDbEntity
  8
Layer_1
 62
7
100
AcDbPolyline
 90
6
 70
0
 10
108.190898
 20
223.028133
 30
0.0
 10
106.201231
 20
223.028133
 30
0.0
 10
106.201231
 20
222.520133
 30
0.0
 10
108.190898
 20
222.520133
 30
0.0
 10
108.190898
 20
223.028133
 30
0.0
 10
108.190898
 20
223.028133
 30
0.0
  0
LWPOLYLINE
  5
103
100
AcDbEntity
  8
Layer_1
 62
7
100
AcDbPolyline
 90
6
 70
0
 10
108.190898
 20
222.012133
 30
0.0
 10
106.201231
 20
222.012133
 30
0.0
 10
106.201231
 20
221.504133
 30
0.0
 10
108.190898
 20
221.504133
 30
0.0
 10
108.190898
 20
222.012133
 30
0.0
 10
108.190898
 20
222.012133
 30
0.0
  0
LWPOLYLINE
  5
104
100
AcDbEntity
  8
Layer_1
 62
7
100
AcDbPolyline
 90
6
 70
0
 10
108.190898
 20
221.017300
 30
0.0
 10
106.201231
 20
221.017300
 30
0.0
 10
106.201231
 20
220.509300
 30
0.0
 10
108.190898
 20
220.509300
 30
0.0
 10
108.190898
 20
221.017300
 30
0.0
 10
108.190898
 20
221.017300
 30
0.0
  0
LWPOLYLINE
  5
105
100
AcDbEntity
  8
Layer_1
 62
7
100
AcDbPolyline
 90
6
 70
0
 10
108.190898
 20
220.022466
 30
0.0
 10
106.201231
 20
220.022466
 30
0.0
 10
106.201231
 20
219.514466
 30
0.0
 10
108.190898
 20
219.514466
 30
0.0
 10
108.190898
 20
220.022466
 30
0.0
 10
108.190898
 20
220.022466
 30
0.0
  0
LWPOLYLINE
  5
106
100
AcDbEntity
  8
Layer_1
 62
7
100
AcDbPolyline
 90
6
 70
0
 10
108.190898
 20
219.027633
 30
0.0
 10
106.201231
 20
219.027633
 30
0.0
 10
106.201231
 20
218.519633
 30
0.0
 10
108.190898
 20
218.519633
 30
0.0
 10
108.190898
 20
219.027633
 30
0.0
 10
108.190898
 20
219.027633
 30
0.0
  0
LWPOLYLINE
  5
107
100
AcDbEntity
  8
Layer_1
 62
7
100
AcDbPolyline
 90
6
 70
0
 10
108.190898
 20
218.011633
 30
0.0
 10
106.201231
 20
218.011633
 30
0.0
 10
106.201231
 20
217.503633
 30
0.0
 10
108.190898
 20
217.503633
 30
0.0
 10
108.190898
 20
218.011633
 30
0.0
 10
108.190898
 20
218.011633
 30
0.0
  0
LWPOLYLINE
  5
108
100
AcDbEntity
  8
Layer_1
 62
7
100
AcDbPolyline
 90
6
 70
0
 10
108.190898
 20
217.016800
 30
0.0
 10
106.201231
 20
217.016800
 30
0.0
 10
106.201231
 20
216.508800
 30
0.0
 10
108.190898
 20
216.508800
 30
0.0
 10
108.190898
 20
217.016800
 30
0.0
 10
108.190898
 20
217.016800
 30
0.0
  0
LWPOLYLINE
  5
109
100
AcDbEntity
  8
Layer_1
 62
7
100
AcDbPolyline
 90
6
 70
0
 10
108.190898
 20
216.021966
 30
0.0
 10
106.201231
 20
216.021966
 30
0.0
 10
106.201231
 20
215.513966
 30
0.0
 10
108.190898
 20
215.513966
 30
0.0
 10
108.190898
 20
216.021966
 30
0.0
 10
108.190898
 20
216.021966
 30
0.0
  0
LWPOLYLINE
  5
10a
100
AcDbEntity
  8
Layer_1
 62
7
100
AcDbPolyline
 90
6
 70
0
 10
108.190898
 20
214.011133
 30
0.0
 10
106.201231
 20
214.011133
 30
0.0
 10
106.201231
 20
213.503133
 30
0.0
 10
108.190898
 20
213.503133
 30
0.0
 10
108.190898
 20
214.011133
 30
0.0
 10
108.190898
 20
214.011133
 30
0.0
  0
LWPOLYLINE
  5
10b
100
AcDbEntity
  8
Layer_1
 62
7
100
AcDbPolyline
 90
6
 70
0
 10
90.178065
 20
214.011133
 30
0.0
 10
88.188398
 20
214.011133
 30
0.0
 10
88.188398
 20
213.503133
 30
0.0
 10
90.178065
 20
213.503133
 30
0.0
 10
90.178065
 20
214.011133
 30
0.0
 10
90.178065
 20
214.011133
 30
0.0
  0
LWPOLYLINE
  5
10c
100
AcDbEntity
  8
Layer_1
 62
7
100
AcDbPolyline
 90
6
 70
0
 10
90.178065
 20
215.027133
 30
0.0
 10
88.188398
 20
215.027133
 30
0.0
 10
88.188398
 20
214.519133
 30
0.0
 10
90.178065
 20
214.519133
 30
0.0
 10
90.178065
 20
215.027133
 30
0.0
 10
90.178065
 20
215.027133
 30
0.0
  0
LWPOLYLINE
  5
10d
100
AcDbEntity
  8
Layer_1
 62
7
100
AcDbPolyline
 90
6
 70
0
 10
90.178065
 20
216.021966
 30
0.0
 10
88.188398
 20
216.021966
 30
0.0
 10
88.188398
 20
215.513966
 30
0.0
 10
90.178065
 20
215.513966
 30
0.0
 10
90.178065
 20
216.021966
 30
0.0
 10
90.178065
 20
216.021966
 30
0.0
  0
LWPOLYLINE
  5
10e
100
AcDbEntity
  8
Layer_1
 62
7
100
AcDbPolyline
 90
6
 70
0
 10
90.178065
 20
217.016800
 30
0.0
 10
88.188398
 20
217.016800
 30
0.0
 10
88.188398
 20
216.508800
 30
0.0
 10
90.178065
 20
216.508800
 30
0.0
 10
90.178065
 20
217.016800
 30
0.0
 10
90.178065
 20
217.016800
 30
0.0
  0
LWPOLYLINE
  5
10f
100
AcDbEntity
  8
Layer_1
 62
7
100
AcDbPolyline
 90
6
 70
0
 10
90.178065
 20
219.027633
 30
0.0
 10
88.188398
 20
219.027633
 30
0.0
 10
88.188398
 20
218.519633
 30
0.0
 10
90.178065
 20
218.519633
 30
0.0
 10
90.178065
 20
219.027633
 30
0.0
 10
90.178065
 20
219.027633
 30
0.0
  0
LWPOLYLINE
  5
110
100
AcDbEntity
  8
Layer_1
 62
7
100
AcDbPolyline
 90
6
 70
0
 10
90.178065
 20
221.017300
 30
0.0
 10
88.188398
 20
221.017300
 30
0.0
 10
88.188398
 20
220.509300
 30
0.0
 10
90.178065
 20
220.509300
 30
0.0
 10
90.178065
 20
221.017300
 30
0.0
 10
90.178065
 20
221.017300
 30
0.0
  0
LWPOLYLINE
  5
111
100
AcDbEntity
  8
Layer_1
 62
7
100
AcDbPolyline
 90
6
 70
0
 10
90.178065
 20
223.028133
 30
0.0
 10
88.188398
 20
223.028133
 30
0.0
 10
88.188398
 20
222.520133
 30
0.0
 10
90.178065
 20
222.520133
 30
0.0
 10
90.178065
 20
223.028133
 30
0.0
 10
90.178065
 20
223.028133
 30
0.0
  0
LWPOLYLINE
  5
112
100
AcDbEntity
  8
Layer_1
 62
7
100
AcDbPolyline
 90
6
 70
0
 10
90.178065
 20
224.022966
 30
0.0
 10
88.188398
 20
224.022966
 30
0.0
 10
88.188398
 20
223.514966
 30
0.0
 10
90.178065
 20
223.514966
 30
0.0
 10
90.178065
 20
224.022966
 30
0.0
 10
90.178065
 20
224.022966
 30
0.0
  0
LWPOLYLINE
  5
113
100
AcDbEntity
  8
Layer_1
 62
7
100
AcDbPolyline
 90
6
 70
0
 10
90.178065
 20
225.017800
 30
0.0
 10
88.188398
 20
225.017800
 30
0.0
 10
88.188398
 20
224.509800
 30
0.0
 10
90.178065
 20
224.509800
 30
0.0
 10
90.178065
 20
225.017800
 30
0.0
 10
90.178065
 20
225.017800
 30
0.0
  0
LWPOLYLINE
  5
114
100
AcDbEntity
  8
Layer_1
 62
7
100
AcDbPolyline
 90
6
 70
0
 10
90.178065
 20
226.012633
 30
0.0
 10
88.188398
 20
226.012633
 30
0.0
 10
88.188398
 20
225.504633
 30
0.0
 10
90.178065
 20
225.504633
 30
0.0
 10
90.178065
 20
226.012633
 30
0.0
 10
90.178065
 20
226.012633
 30
0.0
  0
LWPOLYLINE
  5
115
100
AcDbEntity
  8
Layer_1
 62
7
100
AcDbPolyline
 90
5
 70
0
 10
90.199231
 20
227.007466
 30
0.0
 10
88.209565
 20
227.007466
 30
0.0
 10
88.209565
 20
226.499466
 30
0.0
 10
90.199231
 20
226.499466
 30
0.0
 10
90.199231
 20
227.007466
 30
0.0
  0
LWPOLYLINE
  5
116
100
AcDbEntity
  8
Layer_1
 62
7
100
AcDbPolyline
 90
6
 70
0
 10
90.199231
 20
222.012133
 30
0.0
 10
88.209565
 20
222.012133
 30
0.0
 10
88.209565
 20
221.504133
 30
0.0
 10
90.199231
 20
221.504133
 30
0.0
 10
90.199231
 20
222.012133
 30
0.0
 10
90.199231
 20
222.012133
 30
0.0
  0
LWPOLYLINE
  5
117
100
AcDbEntity
  8
Layer_1
 62
7
100
AcDbPolyline
 90
6
 70
0
 10
90.199231
 20
220.022466
 30
0.0
 10
88.209565
 20
220.022466
 30
0.0
 10
88.209565
 20
219.514466
 30
0.0
 10
90.199231
 20
219.514466
 30
0.0
 10
90.199231
 20
220.022466
 30
0.0
 10
90.199231
 20
220.022466
 30
0.0
  0
LWPOLYLINE
  5
118
100
AcDbEntity
  8
Layer_1
 62
7
100
AcDbPolyline
 90
6
 70
0
 10
90.199231
 20
218.011633
 30
0.0
 10
88.209565
 20
218.011633
 30
0.0
 10
88.209565
 20
217.503633
 30
0.0
 10
90.199231
 20
217.503633
 30
0.0
 10
90.199231
 20
218.011633
 30
0.0
 10
90.199231
 20
218.011633
 30
0.0
  0
LWPOLYLINE
  5
119
100
AcDbEntity
  8
Layer_1
 62
7
100
AcDbPolyline
 90
6
 70
0
 10
90.199231
 20
213.016300
 30
0.0
 10
88.209565
 20
213.016300
 30
0.0
 10
88.209565
 20
212.508300
 30
0.0
 10
90.199231
 20
212.508300
 30
0.0
 10
90.199231
 20
213.016300
 30
0.0
 10
90.199231
 20
213.016300
 30
0.0
  0
LWPOLYLINE
  5
11a
100
AcDbEntity
  8
Layer_1
 62
7
100
AcDbPolyline
 90
6
 70
0
 10
108.169731
 20
227.007466
 30
0.0
 10
106.180065
 20
227.007466
 30
0.0
 10
106.180065
 20
226.499466
 30
0.0
 10
108.169731
 20
226.499466
 30
0.0
 10
108.169731
 20
227.007466
 30
0.0
 10
108.169731
 20
227.007466
 30
0.0
  0
LWPOLYLINE
  5
11b
100
AcDbEntity
  8
Layer_1
 62
7
100
AcDbPolyline
 90
6
 70
0
 10
108.169731
 20
225.017800
 30
0.0
 10
106.180065
 20
225.017800
 30
0.0
 10
106.180065
 20
224.509800
 30
0.0
 10
108.169731
 20
224.509800
 30
0.0
 10
108.169731
 20
225.017800
 30
0.0
 10
108.169731
 20
225.017800
 30
0.0
  0
LWPOLYLINE
  5
11c
100
AcDbEntity
  8
Layer_1
 62
7
100
AcDbPolyline
 90
6
 70
0
 10
108.169731
 20
215.027133
 30
0.0
 10
106.180065
 20
215.027133
 30
0.0
 10
106.180065
 20
214.519133
 30
0.0
 10
108.169731
 20
214.519133
 30
0.0
 10
108.169731
 20
215.027133
 30
0.0
 10
108.169731
 20
215.027133
 30
0.0
  0
LWPOLYLINE
  5
11d
100
AcDbEntity
  8
Layer_1
 62
7
100
AcDbPolyline
 90
6
 70
0
 10
108.169731
 20
213.016300
 30
0.0
 10
106.180065
 20
213.016300
 30
0.0
 10
106.180065
 20
212.508300
 30
0.0
 10
108.169731
 20
212.508300
 30
0.0
 10
108.169731
 20
213.016300
 30
0.0
 10
108.169731
 20
213.016300
 30
0.0
  0
LWPOLYLINE
  5
11e
100
AcDbEntity
  8
Layer_1
 62
7
100
AcDbPolyline
 90
6
 70
0
 10
118.922398
 20
165.835800
 30
0.0
 10
118.329731
 20
165.835800
 30
0.0
 10
118.329731
 20
163.634466
 30
0.0
 10
118.922398
 20
163.634466
 30
0.0
 10
118.922398
 20
165.835800
 30
0.0
 10
118.922398
 20
165.835800
 30
0.0
  0
LWPOLYLINE
  5
11f
100
AcDbEntity
  8
Layer_1
 62
7
100
AcDbPolyline
 90
6
 70
0
 10
118.922398
 20
160.628800
 30
0.0
 10
118.329731
 20
160.628800
 30
0.0
 10
118.329731
 20
158.427466
 30
0.0
 10
118.922398
 20
158.427466
 30
0.0
 10
118.922398
 20
160.628800
 30
0.0
 10
118.922398
 20
160.628800
 30
0.0
  0
LWPOLYLINE
  5
120
100
AcDbEntity
  8
Layer_1
 62
7
100
AcDbPolyline
 90
6
 70
0
 10
117.652398
 20
165.835800
 30
0.0
 10
117.059731
 20
165.835800
 30
0.0
 10
117.059731
 20
163.634466
 30
0.0
 10
117.652398
 20
163.634466
 30
0.0
 10
117.652398
 20
165.835800
 30
0.0
 10
117.652398
 20
165.835800
 30
0.0
  0
LWPOLYLINE
  5
121
100
AcDbEntity
  8
Layer_1
 62
7
100
AcDbPolyline
 90
6
 70
0
 10
120.192398
 20
165.835800
 30
0.0
 10
119.599731
 20
165.835800
 30
0.0
 10
119.599731
 20
163.634466
 30
0.0
 10
120.192398
 20
163.634466
 30
0.0
 10
120.192398
 20
165.835800
 30
0.0
 10
120.192398
 20
165.835800
 30
0.0
  0
LWPOLYLINE
  5
122
100
AcDbEntity
  8
Layer_1
 62
7
100
AcDbPolyline
 90
6
 70
0
 10
121.462398
 20
165.835800
 30
0.0
 10
120.869731
 20
165.835800
 30
0.0
 10
120.869731
 20
163.634466
 30
0.0
 10
121.462398
 20
163.634466
 30
0.0
 10
121.462398
 20
165.835800
 30
0.0
 10
121.462398
 20
165.835800
 30
0.0
  0
LWPOLYLINE
  5
123
100
AcDbEntity
  8
Layer_1
 62
7
100
AcDbPolyline
 90
6
 70
0
 10
117.652398
 20
160.628800
 30
0.0
 10
117.059731
 20
160.628800
 30
0.0
 10
117.059731
 20
158.427466
 30
0.0
 10
117.652398
 20
158.427466
 30
0.0
 10
117.652398
 20
160.628800
 30
0.0
 10
117.652398
 20
160.628800
 30
0.0
  0
LWPOLYLINE
  5
124
100
AcDbEntity
  8
Layer_1
 62
7
100
AcDbPolyline
 90
6
 70
0
 10
120.192398
 20
160.628800
 30
0.0
 10
119.599731
 20
160.628800
 30
0.0
 10
119.599731
 20
158.427466
 30
0.0
 10
120.192398
 20
158.427466
 30
0.0
 10
120.192398
 20
160.628800
 30
0.0
 10
120.192398
 20
160.628800
 30
0.0
  0
LWPOLYLINE
  5
125
100
AcDbEntity
  8
Layer_1
 62
7
100
AcDbPolyline
 90
6
 70
0
 10
121.462398
 20
160.628800
 30
0.0
 10
120.869731
 20
160.628800
 30
0.0
 10
120.869731
 20
158.427466
 30
0.0
 10
121.462398
 20
158.427466
 30
0.0
 10
121.462398
 20
160.628800
 30
0.0
 10
121.462398
 20
160.628800
 30
0.0
  0
LWPOLYLINE
  5
126
100
AcDbEntity
  8
Layer_1
 62
7
100
AcDbPolyline
 90
9
 70
0
 10
93.133856
 20
225.760887
 30
0.0
 10
93.012347
 20
225.467532
 30
0.0
 10
92.718990
 20
225.346021
 30
0.0
 10
92.425632
 20
225.467532
 30
0.0
 10
92.304123
 20
225.760887
 30
0.0
 10
92.425632
 20
226.054243
 30
0.0
 10
92.718990
 20
226.175754
 30
0.0
 10
93.012347
 20
226.054243
 30
0.0
 10
93.133856
 20
225.760887
 30
0.0
  0
LWPOLYLINE
  5
127
100
AcDbEntity
  8
Layer_1
 62
7
100
AcDbPolyline
 90
9
 70
0
 10
93.133856
 20
223.771221
 30
0.0
 10
93.012347
 20
223.477866
 30
0.0
 10
92.718990
 20
223.356354
 30
0.0
 10
92.425632
 20
223.477866
 30
0.0
 10
92.304123
 20
223.771221
 30
0.0
 10
92.425632
 20
224.064576
 30
0.0
 10
92.718990
 20
224.186087
 30
0.0
 10
93.012347
 20
224.064576
 30
0.0
 10
93.133856
 20
223.771221
 30
0.0
  0
LWPOLYLINE
  5
128
100
AcDbEntity
  8
Layer_1
 62
7
100
AcDbPolyline
 90
9
 70
0
 10
93.133856
 20
221.760387
 30
0.0
 10
93.012347
 20
221.467032
 30
0.0
 10
92.718990
 20
221.345521
 30
0.0
 10
92.425632
 20
221.467032
 30
0.0
 10
92.304123
 20
221.760387
 30
0.0
 10
92.425632
 20
222.053743
 30
0.0
 10
92.718990
 20
222.175254
 30
0.0
 10
93.012347
 20
222.053743
 30
0.0
 10
93.133856
 20
221.760387
 30
0.0
  0
LWPOLYLINE
  5
129
100
AcDbEntity
  8
Layer_1
 62
7
100
AcDbPolyline
 90
9
 70
0
 10
93.133856
 20
217.759887
 30
0.0
 10
93.012347
 20
217.466532
 30
0.0
 10
92.718990
 20
217.345021
 30
0.0
 10
92.425632
 20
217.466532
 30
0.0
 10
92.304123
 20
217.759887
 30
0.0
 10
92.425632
 20
218.053243
 30
0.0
 10
92.718990
 20
218.174754
 30
0.0
 10
93.012347
 20
218.053243
 30
0.0
 10
93.133856
 20
217.759887
 30
0.0
  0
LWPOLYLINE
  5
12a
100
AcDbEntity
  8
Layer_1
 62
7
100
AcDbPolyline
 90
9
 70
0
 10
93.133856
 20
215.770221
 30
0.0
 10
93.012347
 20
215.476866
 30
0.0
 10
92.718990
 20
215.355354
 30
0.0
 10
92.425632
 20
215.476866
 30
0.0
 10
92.304123
 20
215.770221
 30
0.0
 10
92.425632
 20
216.063576
 30
0.0
 10
92.718990
 20
216.185087
 30
0.0
 10
93.012347
 20
216.063576
 30
0.0
 10
93.133856
 20
215.770221
 30
0.0
  0
LWPOLYLINE
  5
12b
100
AcDbEntity
  8
Layer_1
 62
7
100
AcDbPolyline
 90
9
 70
0
 10
93.133856
 20
213.759387
 30
0.0
 10
93.012347
 20
213.466032
 30
0.0
 10
92.718990
 20
213.344521
 30
0.0
 10
92.425632
 20
213.466032
 30
0.0
 10
92.304123
 20
213.759387
 30
0.0
 10
92.425632
 20
214.052743
 30
0.0
 10
92.718990
 20
214.174254
 30
0.0
 10
93.012347
 20
214.052743
 30
0.0
 10
93.133856
 20
213.759387
 30
0.0
  0
LWPOLYLINE
  5
12c
100
AcDbEntity
  8
Layer_1
 62
7
100
AcDbPolyline
 90
9
 70
0
 10
95.123523
 20
225.760887
 30
0.0
 10
95.002014
 20
225.467532
 30
0.0
 10
94.708656
 20
225.346021
 30
0.0
 10
94.415299
 20
225.467532
 30
0.0
 10
94.293790
 20
225.760887
 30
0.0
 10
94.415299
 20
226.054243
 30
0.0
 10
94.708656
 20
226.175754
 30
0.0
 10
95.002014
 20
226.054243
 30
0.0
 10
95.123523
 20
225.760887
 30
0.0
  0
LWPOLYLINE
  5
12d
100
AcDbEntity
  8
Layer_1
 62
7
100
AcDbPolyline
 90
9
 70
0
 10
95.123523
 20
223.771221
 30
0.0
 10
95.002014
 20
223.477866
 30
0.0
 10
94.708656
 20
223.356354
 30
0.0
 10
94.415299
 20
223.477866
 30
0.0
 10
94.293790
 20
223.771221
 30
0.0
 10
94.415299
 20
224.064576
 30
0.0
 10
94.708656
 20
224.186087
 30
0.0
 10
95.002014
 20
224.064576
 30
0.0
 10
95.123523
 20
223.771221
 30
0.0
  0
LWPOLYLINE
  5
12e
100
AcDbEntity
  8
Layer_1
 62
7
100
AcDbPolyline
 90
9
 70
0
 10
95.123523
 20
221.760387
 30
0.0
 10
95.002014
 20
221.467032
 30
0.0
 10
94.708656
 20
221.345521
 30
0.0
 10
94.415299
 20
221.467032
 30
0.0
 10
94.293790
 20
221.760387
 30
0.0
 10
94.415299
 20
222.053743
 30
0.0
 10
94.708656
 20
222.175254
 30
0.0
 10
95.002014
 20
222.053743
 30
0.0
 10
95.123523
 20
221.760387
 30
0.0
  0
LWPOLYLINE
  5
12f
100
AcDbEntity
  8
Layer_1
 62
7
100
AcDbPolyline
 90
9
 70
0
 10
95.123523
 20
217.759887
 30
0.0
 10
95.002014
 20
217.466532
 30
0.0
 10
94.708656
 20
217.345021
 30
0.0
 10
94.415299
 20
217.466532
 30
0.0
 10
94.293790
 20
217.759887
 30
0.0
 10
94.415299
 20
218.053243
 30
0.0
 10
94.708656
 20
218.174754
 30
0.0
 10
95.002014
 20
218.053243
 30
0.0
 10
95.123523
 20
217.759887
 30
0.0
  0
LWPOLYLINE
  5
130
100
AcDbEntity
  8
Layer_1
 62
7
100
AcDbPolyline
 90
9
 70
0
 10
95.123523
 20
215.770221
 30
0.0
 10
95.002014
 20
215.476866
 30
0.0
 10
94.708656
 20
215.355354
 30
0.0
 10
94.415299
 20
215.476866
 30
0.0
 10
94.293790
 20
215.770221
 30
0.0
 10
94.415299
 20
216.063576
 30
0.0
 10
94.708656
 20
216.185087
 30
0.0
 10
95.002014
 20
216.063576
 30
0.0
 10
95.123523
 20
215.770221
 30
0.0
  0
LWPOLYLINE
  5
131
100
AcDbEntity
  8
Layer_1
 62
7
100
AcDbPolyline
 90
9
 70
0
 10
95.123523
 20
213.759387
 30
0.0
 10
95.002014
 20
213.466032
 30
0.0
 10
94.708656
 20
213.344521
 30
0.0
 10
94.415299
 20
213.466032
 30
0.0
 10
94.293790
 20
213.759387
 30
0.0
 10
94.415299
 20
214.052743
 30
0.0
 10
94.708656
 20
214.174254
 30
0.0
 10
95.002014
 20
214.052743
 30
0.0
 10
95.123523
 20
213.759387
 30
0.0
  0
LWPOLYLINE
  5
132
100
AcDbEntity
  8
Layer_1
 62
7
100
AcDbPolyline
 90
9
 70
0
 10
97.134356
 20
225.760887
 30
0.0
 10
97.012847
 20
225.467532
 30
0.0
 10
96.719490
 20
225.346021
 30
0.0
 10
96.426132
 20
225.467532
 30
0.0
 10
96.304623
 20
225.760887
 30
0.0
 10
96.426132
 20
226.054243
 30
0.0
 10
96.719490
 20
226.175754
 30
0.0
 10
97.012847
 20
226.054243
 30
0.0
 10
97.134356
 20
225.760887
 30
0.0
  0
LWPOLYLINE
  5
133
100
AcDbEntity
  8
Layer_1
 62
7
100
AcDbPolyline
 90
9
 70
0
 10
97.134356
 20
223.771221
 30
0.0
 10
97.012847
 20
223.477866
 30
0.0
 10
96.719490
 20
223.356354
 30
0.0
 10
96.426132
 20
223.477866
 30
0.0
 10
96.304623
 20
223.771221
 30
0.0
 10
96.426132
 20
224.064576
 30
0.0
 10
96.719490
 20
224.186087
 30
0.0
 10
97.012847
 20
224.064576
 30
0.0
 10
97.134356
 20
223.771221
 30
0.0
  0
LWPOLYLINE
  5
134
100
AcDbEntity
  8
Layer_1
 62
7
100
AcDbPolyline
 90
9
 70
0
 10
97.134356
 20
221.760387
 30
0.0
 10
97.012847
 20
221.467032
 30
0.0
 10
96.719490
 20
221.345521
 30
0.0
 10
96.426132
 20
221.467032
 30
0.0
 10
96.304623
 20
221.760387
 30
0.0
 10
96.426132
 20
222.053743
 30
0.0
 10
96.719490
 20
222.175254
 30
0.0
 10
97.012847
 20
222.053743
 30
0.0
 10
97.134356
 20
221.760387
 30
0.0
  0
LWPOLYLINE
  5
135
100
AcDbEntity
  8
Layer_1
 62
7
100
AcDbPolyline
 90
9
 70
0
 10
97.134356
 20
217.759887
 30
0.0
 10
97.012847
 20
217.466532
 30
0.0
 10
96.719490
 20
217.345021
 30
0.0
 10
96.426132
 20
217.466532
 30
0.0
 10
96.304623
 20
217.759887
 30
0.0
 10
96.426132
 20
218.053243
 30
0.0
 10
96.719490
 20
218.174754
 30
0.0
 10
97.012847
 20
218.053243
 30
0.0
 10
97.134356
 20
217.759887
 30
0.0
  0
LWPOLYLINE
  5
136
100
AcDbEntity
  8
Layer_1
 62
7
100
AcDbPolyline
 90
9
 70
0
 10
97.134356
 20
215.770221
 30
0.0
 10
97.012847
 20
215.476866
 30
0.0
 10
96.719490
 20
215.355354
 30
0.0
 10
96.426132
 20
215.476866
 30
0.0
 10
96.304623
 20
215.770221
 30
0.0
 10
96.426132
 20
216.063576
 30
0.0
 10
96.719490
 20
216.185087
 30
0.0
 10
97.012847
 20
216.063576
 30
0.0
 10
97.134356
 20
215.770221
 30
0.0
  0
LWPOLYLINE
  5
137
100
AcDbEntity
  8
Layer_1
 62
7
100
AcDbPolyline
 90
9
 70
0
 10
97.134356
 20
213.759387
 30
0.0
 10
97.012847
 20
213.466032
 30
0.0
 10
96.719490
 20
213.344521
 30
0.0
 10
96.426132
 20
213.466032
 30
0.0
 10
96.304623
 20
213.759387
 30
0.0
 10
96.426132
 20
214.052743
 30
0.0
 10
96.719490
 20
214.174254
 30
0.0
 10
97.012847
 20
214.052743
 30
0.0
 10
97.134356
 20
213.759387
 30
0.0
  0
LWPOLYLINE
  5
138
100
AcDbEntity
  8
Layer_1
 62
7
100
AcDbPolyline
 90
9
 70
0
 10
100.118856
 20
223.771221
 30
0.0
 10
99.997347
 20
223.477866
 30
0.0
 10
99.703990
 20
223.356354
 30
0.0
 10
99.410632
 20
223.477866
 30
0.0
 10
99.289123
 20
223.771221
 30
0.0
 10
99.410632
 20
224.064576
 30
0.0
 10
99.703990
 20
224.186087
 30
0.0
 10
99.997347
 20
224.064576
 30
0.0
 10
100.118856
 20
223.771221
 30
0.0
  0
LWPOLYLINE
  5
139
100
AcDbEntity
  8
Layer_1
 62
7
100
AcDbPolyline
 90
9
 70
0
 10
100.118856
 20
221.760387
 30
0.0
 10
99.997347
 20
221.467032
 30
0.0
 10
99.703990
 20
221.345521
 30
0.0
 10
99.410632
 20
221.467032
 30
0.0
 10
99.289123
 20
221.760387
 30
0.0
 10
99.410632
 20
222.053743
 30
0.0
 10
99.703990
 20
222.175254
 30
0.0
 10
99.997347
 20
222.053743
 30
0.0
 10
100.118856
 20
221.760387
 30
0.0
  0
LWPOLYLINE
  5
13a
100
AcDbEntity
  8
Layer_1
 62
7
100
AcDbPolyline
 90
9
 70
0
 10
100.118856
 20
219.770721
 30
0.0
 10
99.997347
 20
219.477366
 30
0.0
 10
99.703990
 20
219.355854
 30
0.0
 10
99.410632
 20
219.477366
 30
0.0
 10
99.289123
 20
219.770721
 30
0.0
 10
99.410632
 20
220.064076
 30
0.0
 10
99.703990
 20
220.185587
 30
0.0
 10
99.997347
 20
220.064076
 30
0.0
 10
100.118856
 20
219.770721
 30
0.0
  0
LWPOLYLINE
  5
13b
100
AcDbEntity
  8
Layer_1
 62
7
100
AcDbPolyline
 90
9
 70
0
 10
100.118856
 20
217.759887
 30
0.0
 10
99.997347
 20
217.466532
 30
0.0
 10
99.703990
 20
217.345021
 30
0.0
 10
99.410632
 20
217.466532
 30
0.0
 10
99.289123
 20
217.759887
 30
0.0
 10
99.410632
 20
218.053243
 30
0.0
 10
99.703990
 20
218.174754
 30
0.0
 10
99.997347
 20
218.053243
 30
0.0
 10
100.118856
 20
217.759887
 30
0.0
  0
LWPOLYLINE
  5
13c
100
AcDbEntity
  8
Layer_1
 62
7
100
AcDbPolyline
 90
9
 70
0
 10
100.118856
 20
215.770221
 30
0.0
 10
99.997347
 20
215.476866
 30
0.0
 10
99.703990
 20
215.355354
 30
0.0
 10
99.410632
 20
215.476866
 30
0.0
 10
99.289123
 20
215.770221
 30
0.0
 10
99.410632
 20
216.063576
 30
0.0
 10
99.703990
 20
216.185087
 30
0.0
 10
99.997347
 20
216.063576
 30
0.0
 10
100.118856
 20
215.770221
 30
0.0
  0
LWPOLYLINE
  5
13d
100
AcDbEntity
  8
Layer_1
 62
7
100
AcDbPolyline
 90
9
 70
0
 10
102.129690
 20
223.771221
 30
0.0
 10
102.008180
 20
223.477866
 30
0.0
 10
101.714823
 20
223.356354
 30
0.0
 10
101.421466
 20
223.477866
 30
0.0
 10
101.299956
 20
223.771221
 30
0.0
 10
101.421466
 20
224.064576
 30
0.0
 10
101.714823
 20
224.186087
 30
0.0
 10
102.008180
 20
224.064576
 30
0.0
 10
102.129690
 20
223.771221
 30
0.0
  0
LWPOLYLINE
  5
13e
100
AcDbEntity
  8
Layer_1
 62
7
100
AcDbPolyline
 90
9
 70
0
 10
102.129690
 20
221.760387
 30
0.0
 10
102.008180
 20
221.467032
 30
0.0
 10
101.714823
 20
221.345521
 30
0.0
 10
101.421466
 20
221.467032
 30
0.0
 10
101.299956
 20
221.760387
 30
0.0
 10
101.421466
 20
222.053743
 30
0.0
 10
101.714823
 20
222.175254
 30
0.0
 10
102.008180
 20
222.053743
 30
0.0
 10
102.129690
 20
221.760387
 30
0.0
  0
LWPOLYLINE
  5
13f
100
AcDbEntity
  8
Layer_1
 62
7
100
AcDbPolyline
 90
9
 70
0
 10
102.129690
 20
219.770721
 30
0.0
 10
102.008180
 20
219.477366
 30
0.0
 10
101.714823
 20
219.355854
 30
0.0
 10
101.421466
 20
219.477366
 30
0.0
 10
101.299956
 20
219.770721
 30
0.0
 10
101.421466
 20
220.064076
 30
0.0
 10
101.714823
 20
220.185587
 30
0.0
 10
102.008180
 20
220.064076
 30
0.0
 10
102.129690
 20
219.770721
 30
0.0
  0
LWPOLYLINE
  5
140
100
AcDbEntity
  8
Layer_1
 62
7
100
AcDbPolyline
 90
9
 70
0
 10
102.129690
 20
217.759887
 30
0.0
 10
102.008180
 20
217.466532
 30
0.0
 10
101.714823
 20
217.345021
 30
0.0
 10
101.421466
 20
217.466532
 30
0.0
 10
101.299956
 20
217.759887
 30
0.0
 10
101.421466
 20
218.053243
 30
0.0
 10
101.714823
 20
218.174754
 30
0.0
 10
102.008180
 20
218.053243
 30
0.0
 10
102.129690
 20
217.759887
 30
0.0
  0
LWPOLYLINE
  5
141
100
AcDbEntity
  8
Layer_1
 62
7
100
AcDbPolyline
 90
9
 70
0
 10
102.129690
 20
215.770221
 30
0.0
 10
102.008180
 20
215.476866
 30
0.0
 10
101.714823
 20
215.355354
 30
0.0
 10
101.421466
 20
215.476866
 30
0.0
 10
101.299956
 20
215.770221
 30
0.0
 10
101.421466
 20
216.063576
 30
0.0
 10
101.714823
 20
216.185087
 30
0.0
 10
102.008180
 20
216.063576
 30
0.0
 10
102.129690
 20
215.770221
 30
0.0
  0
LWPOLYLINE
  5
142
100
AcDbEntity
  8
Layer_1
 62
7
100
AcDbPolyline
 90
9
 70
0
 10
104.119356
 20
223.771221
 30
0.0
 10
103.997847
 20
223.477866
 30
0.0
 10
103.704490
 20
223.356354
 30
0.0
 10
103.411132
 20
223.477866
 30
0.0
 10
103.289623
 20
223.771221
 30
0.0
 10
103.411132
 20
224.064576
 30
0.0
 10
103.704490
 20
224.186087
 30
0.0
 10
103.997847
 20
224.064576
 30
0.0
 10
104.119356
 20
223.771221
 30
0.0
  0
LWPOLYLINE
  5
143
100
AcDbEntity
  8
Layer_1
 62
7
100
AcDbPolyline
 90
9
 70
0
 10
104.119356
 20
221.760387
 30
0.0
 10
103.997847
 20
221.467032
 30
0.0
 10
103.704490
 20
221.345521
 30
0.0
 10
103.411132
 20
221.467032
 30
0.0
 10
103.289623
 20
221.760387
 30
0.0
 10
103.411132
 20
222.053743
 30
0.0
 10
103.704490
 20
222.175254
 30
0.0
 10
103.997847
 20
222.053743
 30
0.0
 10
104.119356
 20
221.760387
 30
0.0
  0
LWPOLYLINE
  5
144
100
AcDbEntity
  8
Layer_1
 62
7
100
AcDbPolyline
 90
9
 70
0
 10
104.119356
 20
219.770721
 30
0.0
 10
103.997847
 20
219.477366
 30
0.0
 10
103.704490
 20
219.355854
 30
0.0
 10
103.411132
 20
219.477366
 30
0.0
 10
103.289623
 20
219.770721
 30
0.0
 10
103.411132
 20
220.064076
 30
0.0
 10
103.704490
 20
220.185587
 30
0.0
 10
103.997847
 20
220.064076
 30
0.0
 10
104.119356
 20
219.770721
 30
0.0
  0
LWPOLYLINE
  5
145
100
AcDbEntity
  8
Layer_1
 62
7
100
AcDbPolyline
 90
9
 70
0
 10
104.119356
 20
217.759887
 30
0.0
 10
103.997847
 20
217.466532
 30
0.0
 10
103.704490
 20
217.345021
 30
0.0
 10
103.411132
 20
217.466532
 30
0.0
 10
103.289623
 20
217.759887
 30
0.0
 10
103.411132
 20
218.053243
 30
0.0
 10
103.704490
 20
218.174754
 30
0.0
 10
103.997847
 20
218.053243
 30
0.0
 10
104.119356
 20
217.759887
 30
0.0
  0
LWPOLYLINE
  5
146
100
AcDbEntity
  8
Layer_1
 62
7
100
AcDbPolyline
 90
9
 70
0
 10
104.119356
 20
215.770221
 30
0.0
 10
103.997847
 20
215.476866
 30
0.0
 10
103.704490
 20
215.355354
 30
0.0
 10
103.411132
 20
215.476866
 30
0.0
 10
103.289623
 20
215.770221
 30
0.0
 10
103.411132
 20
216.063576
 30
0.0
 10
103.704490
 20
216.185087
 30
0.0
 10
103.997847
 20
216.063576
 30
0.0
 10
104.119356
 20
215.770221
 30
0.0
  0
ENDSEC
  0
SECTION
  2
OBJECTS
  0
DICTIONARY
  5
C
330
0
100
AcDbDictionary
  3
ACAD_GROUP
350
D
  3
ACAD_MLINESTYLE
350
17
  0
DICTIONARY
  5
D
330
C
100
AcDbDictionary
  0
DICTIONARY
  5
1A
330
C
100
AcDbDictionary
  0
DICTIONARY
  5
17
330
C
100
AcDbDictionary
  3
STANDARD
350
18
  0
DICTIONARY
  5
19
330
C
100
AcDbDictionary
  0
ENDSEC
  0
EOF
